G04 #@! TF.FileFunction,Legend,Bot*
%FSLAX46Y46*%
G04 Gerber Fmt 4.6, Leading zero omitted, Abs format (unit mm)*
G04 Created by KiCad (PCBNEW 4.0.2+dfsg1-stable) date wto, 5 mar 2019, 11:31:51*
%MOMM*%
G01*
G04 APERTURE LIST*
%ADD10C,0.100000*%
%ADD11C,0.150000*%
%ADD12C,0.120000*%
%ADD13R,3.900000X3.900000*%
%ADD14C,3.900000*%
%ADD15O,2.432000X2.127200*%
%ADD16R,2.432000X2.127200*%
%ADD17C,2.700000*%
%ADD18O,2.100000X2.400000*%
%ADD19O,2.120000X2.432000*%
%ADD20C,1.900000*%
%ADD21R,2.432000X2.432000*%
%ADD22O,2.432000X2.432000*%
%ADD23R,2.940000X2.940000*%
%ADD24O,4.200000X3.400000*%
%ADD25C,4.210000*%
%ADD26R,4.210000X4.210000*%
%ADD27C,2.900000*%
%ADD28C,3.400000*%
%ADD29C,2.899360*%
%ADD30R,2.127200X2.432000*%
%ADD31O,2.127200X2.432000*%
%ADD32C,4.464000*%
%ADD33R,1.700000X1.700000*%
%ADD34C,1.700000*%
%ADD35C,4.200000*%
G04 APERTURE END LIST*
D10*
D11*
X45910500Y-2730500D02*
X45910500Y-10350500D01*
X61150500Y-2730500D02*
X61150500Y-10350500D01*
X45910500Y-4000500D02*
X61150500Y-4000500D01*
X45910500Y-10350500D02*
X61150500Y-10350500D01*
X45910500Y-2730500D02*
X61150500Y-2730500D01*
X64811000Y-33064500D02*
X65311000Y-33064500D01*
X61811000Y-26564500D02*
X64811000Y-26564500D01*
X64811000Y-33064500D02*
X64811000Y-26564500D01*
X80311000Y-2564500D02*
X78311000Y-2564500D01*
X78311000Y-2564500D02*
X78311000Y-5064500D01*
X78311000Y-5064500D02*
X76811000Y-5064500D01*
X76811000Y-5064500D02*
X76811000Y-3064500D01*
X76811000Y-3064500D02*
X76811000Y-2564500D01*
X76811000Y-2564500D02*
X75311000Y-2564500D01*
X75311000Y-2564500D02*
X75311000Y-5064500D01*
X75311000Y-5064500D02*
X74311000Y-5064500D01*
X74311000Y-5064500D02*
X73311000Y-5064500D01*
X73311000Y-5064500D02*
X73311000Y-2564500D01*
X73311000Y-2564500D02*
X68311000Y-2564500D01*
X68311000Y-2564500D02*
X68311000Y-6564500D01*
X82311000Y-6564500D02*
X82311000Y-2564500D01*
X82311000Y-2564500D02*
X80311000Y-2564500D01*
X80311000Y-2564500D02*
X80311000Y-6564500D01*
X82311000Y-8564500D02*
X82311000Y-26564500D01*
X82311000Y-26564500D02*
X69311000Y-26564500D01*
X69311000Y-26564500D02*
X68311000Y-26564500D01*
X68311000Y-26564500D02*
X68311000Y-8564500D01*
X68311000Y-8564500D02*
X82311000Y-8564500D01*
X87811000Y-3564500D02*
G75*
G03X87811000Y-3564500I-1000000J0D01*
G01*
X64811000Y-3564500D02*
G75*
G03X64811000Y-3564500I-1000000J0D01*
G01*
X88311000Y-1064500D02*
X88311000Y-26564500D01*
X88311000Y-26564500D02*
X85811000Y-26564500D01*
X85811000Y-26564500D02*
X85811000Y-33064500D01*
X85811000Y-33064500D02*
X65311000Y-33064500D01*
X61811000Y-26564500D02*
X61811000Y-1064500D01*
X61811000Y-1064500D02*
X88311000Y-1064500D01*
X65361000Y-5514500D02*
X62261000Y-5514500D01*
X65361000Y-7064500D02*
X65361000Y-5514500D01*
X62541000Y-8334500D02*
X65081000Y-8334500D01*
X62261000Y-5514500D02*
X62261000Y-7064500D01*
X65081000Y-26114500D02*
X65081000Y-8334500D01*
X62541000Y-26114500D02*
X65081000Y-26114500D01*
X62541000Y-8334500D02*
X62541000Y-26114500D01*
X85541000Y-8334500D02*
X85541000Y-26114500D01*
X85541000Y-26114500D02*
X88081000Y-26114500D01*
X88081000Y-26114500D02*
X88081000Y-8334500D01*
X85261000Y-5514500D02*
X85261000Y-7064500D01*
X85541000Y-8334500D02*
X88081000Y-8334500D01*
X88361000Y-7064500D02*
X88361000Y-5514500D01*
X88361000Y-5514500D02*
X85261000Y-5514500D01*
D12*
X7415000Y-834000D02*
X7415000Y-25074000D01*
X44655000Y-25074000D02*
X44655000Y-834000D01*
X7415000Y-25074000D02*
X44655000Y-25074000D01*
X7415000Y-834000D02*
X44655000Y-834000D01*
X8795000Y-25454000D02*
X14795000Y-25454000D01*
D11*
X62980000Y-65230000D02*
X60440000Y-65230000D01*
X65800000Y-64950000D02*
X64250000Y-64950000D01*
X62980000Y-65230000D02*
X62980000Y-67770000D01*
X64250000Y-68050000D02*
X65800000Y-68050000D01*
X65800000Y-68050000D02*
X65800000Y-64950000D01*
X62980000Y-67770000D02*
X60440000Y-67770000D01*
X60440000Y-67770000D02*
X60440000Y-65230000D01*
X2032000Y-32766000D02*
X2032000Y-42926000D01*
X762000Y-32766000D02*
X8382000Y-32766000D01*
X8382000Y-32766000D02*
X8382000Y-42926000D01*
X8382000Y-42926000D02*
X762000Y-42926000D01*
X762000Y-42926000D02*
X762000Y-32766000D01*
X7112000Y-53467000D02*
X7112000Y-43307000D01*
X8382000Y-53467000D02*
X762000Y-53467000D01*
X762000Y-53467000D02*
X762000Y-43307000D01*
X762000Y-43307000D02*
X8382000Y-43307000D01*
X8382000Y-43307000D02*
X8382000Y-53467000D01*
X19888200Y-29083000D02*
X13385800Y-29083000D01*
X19888200Y-32583120D02*
X19888200Y-25582880D01*
X28635960Y-25582880D02*
X19888200Y-25582880D01*
X28635960Y-32583120D02*
X19888200Y-32583120D01*
X5887720Y-26583640D02*
X4638040Y-26583640D01*
X6136640Y-31582360D02*
X4638040Y-31582360D01*
X18138140Y-26583640D02*
X5887720Y-26583640D01*
X17886680Y-31582360D02*
X6136640Y-31582360D01*
X28635960Y-26583640D02*
X18138140Y-26583640D01*
X28635960Y-31582360D02*
X17886680Y-31582360D01*
X28635960Y-31582360D02*
X28635960Y-26583640D01*
X29636720Y-32583120D02*
X28635960Y-32583120D01*
X29636720Y-32583120D02*
X29636720Y-25582880D01*
X29636720Y-25582880D02*
X28635960Y-25582880D01*
X4638040Y-31582360D02*
X4638040Y-26583640D01*
X13385800Y-32583120D02*
X3637280Y-32583120D01*
X3637280Y-32583120D02*
X3637280Y-25582880D01*
X13385800Y-25582880D02*
X3637280Y-25582880D01*
X13385800Y-32583120D02*
X13385800Y-25582880D01*
X36146740Y-30226000D02*
X35384740Y-30226000D01*
X41607740Y-30226000D02*
X42496740Y-30226000D01*
X36146740Y-28956000D02*
X36146740Y-31623000D01*
X36146740Y-31623000D02*
X41607740Y-31623000D01*
X41607740Y-31623000D02*
X41607740Y-28956000D01*
X41607740Y-28956000D02*
X36146740Y-28956000D01*
X66230500Y-8318500D02*
X66230500Y-10858500D01*
X65950500Y-5498500D02*
X65950500Y-7048500D01*
X66230500Y-8318500D02*
X68770500Y-8318500D01*
X69050500Y-7048500D02*
X69050500Y-5498500D01*
X69050500Y-5498500D02*
X65950500Y-5498500D01*
X68770500Y-8318500D02*
X68770500Y-10858500D01*
X68770500Y-10858500D02*
X66230500Y-10858500D01*
X77960000Y-56720000D02*
X77960000Y-66880000D01*
X76690000Y-56720000D02*
X84310000Y-56720000D01*
X84310000Y-56720000D02*
X84310000Y-66880000D01*
X84310000Y-66880000D02*
X76690000Y-66880000D01*
X76690000Y-66880000D02*
X76690000Y-56720000D01*
X38608000Y-69850000D02*
X38608000Y-62230000D01*
X58928000Y-62230000D02*
X58928000Y-69850000D01*
X58928000Y-63500000D02*
X38608000Y-63500000D01*
X38608000Y-69850000D02*
X58928000Y-69850000D01*
X38608000Y-62230000D02*
X58928000Y-62230000D01*
X83058000Y-34290000D02*
X83058000Y-44450000D01*
X81788000Y-34290000D02*
X89408000Y-34290000D01*
X89408000Y-34290000D02*
X89408000Y-44450000D01*
X89408000Y-44450000D02*
X81788000Y-44450000D01*
X81788000Y-44450000D02*
X81788000Y-34290000D01*
X80090000Y-4540000D02*
X82630000Y-4540000D01*
X77270000Y-4820000D02*
X78820000Y-4820000D01*
X80090000Y-4540000D02*
X80090000Y-2000000D01*
X78820000Y-1720000D02*
X77270000Y-1720000D01*
X77270000Y-1720000D02*
X77270000Y-4820000D01*
X80090000Y-2000000D02*
X82630000Y-2000000D01*
X82630000Y-2000000D02*
X82630000Y-4540000D01*
X24718000Y-49226500D02*
X24718000Y-52526500D01*
X24718000Y-52526500D02*
X9318000Y-52526500D01*
X9318000Y-52526500D02*
X9318000Y-49176500D01*
X18368000Y-32926500D02*
X24718000Y-32926500D01*
X24718000Y-32926500D02*
X24718000Y-47476500D01*
X15618000Y-32926500D02*
X9318000Y-32926500D01*
X9318000Y-32926500D02*
X9318000Y-47676500D01*
X9368000Y-32926500D02*
X15618000Y-32926500D01*
X21218000Y-48376500D02*
X18768000Y-48376500D01*
X12818000Y-48376500D02*
X15318000Y-48376500D01*
X23068000Y-37776500D02*
X23068000Y-40276500D01*
X17068000Y-36876500D02*
X17068000Y-36076500D01*
X11068000Y-40276500D02*
X11068000Y-37776500D01*
X17068000Y-43676500D02*
X17068000Y-45176500D01*
X17068000Y-45176500D02*
X14568000Y-49776500D01*
X20668000Y-43676500D02*
X20668000Y-36876500D01*
X17068000Y-43676500D02*
X20668000Y-43676500D01*
X17068000Y-36876500D02*
X20668000Y-36876500D01*
X11068000Y-40276500D02*
X15268000Y-40276500D01*
X18868000Y-40276500D02*
X23068000Y-40276500D01*
X18868000Y-42276500D02*
X15268000Y-38276500D01*
X18868000Y-38276500D02*
X15268000Y-38276500D01*
X15268000Y-38276500D02*
X15268000Y-42276500D01*
X15268000Y-42276500D02*
X18868000Y-42276500D01*
X18868000Y-42276500D02*
X18868000Y-38276500D01*
X81701640Y-49108360D02*
X80939640Y-49108360D01*
X81701640Y-49616360D02*
X80939640Y-49616360D01*
X83733640Y-49108360D02*
G75*
G02X82336640Y-51013360I-1651000J-254000D01*
G01*
X82209640Y-47711360D02*
G75*
G02X83733640Y-49489360I-127000J-1651000D01*
G01*
X82971640Y-50759360D02*
G75*
G02X80685640Y-50251360I-889000J1397000D01*
G01*
X80685640Y-48473360D02*
G75*
G02X82971640Y-47965360I1397000J-889000D01*
G01*
X85892640Y-46060360D02*
X85765640Y-46060360D01*
X82082640Y-46060360D02*
X83479640Y-46060360D01*
X85892640Y-52664360D02*
X85765640Y-52664360D01*
X82082640Y-52664360D02*
X83479640Y-52664360D01*
X85003640Y-48219360D02*
X85130640Y-48600360D01*
X85130640Y-48600360D02*
X85257640Y-49362360D01*
X85257640Y-49362360D02*
X85130640Y-50124360D01*
X85130640Y-50124360D02*
X85003640Y-50505360D01*
X84114640Y-48092360D02*
X84114640Y-50632360D01*
X83352640Y-52283360D02*
G75*
G02X79161640Y-50632360I-1270000J2921000D01*
G01*
X79161640Y-48092360D02*
G75*
G02X83352640Y-46441360I2921000J-1270000D01*
G01*
X78780640Y-51394360D02*
X78780640Y-50505360D01*
X78780640Y-48219360D02*
X78780640Y-47330360D01*
X81701640Y-51013360D02*
X81701640Y-51521360D01*
X81701640Y-51521360D02*
X82463640Y-51521360D01*
X82463640Y-51521360D02*
X82463640Y-51013360D01*
X81701640Y-47711360D02*
X81701640Y-47203360D01*
X81701640Y-47203360D02*
X82463640Y-47203360D01*
X82463640Y-47203360D02*
X82463640Y-47711360D01*
X82336640Y-49870360D02*
X82336640Y-51013360D01*
X81828640Y-49870360D02*
X81828640Y-51013360D01*
X82336640Y-48854360D02*
X82336640Y-47711360D01*
X81828640Y-48854360D02*
X81828640Y-47711360D01*
X82463640Y-49616360D02*
X83733640Y-49616360D01*
X82463640Y-49108360D02*
X83733640Y-49108360D01*
X81701640Y-48854360D02*
X82463640Y-48854360D01*
X82463640Y-48854360D02*
X82463640Y-49870360D01*
X82463640Y-49870360D02*
X81701640Y-49870360D01*
X81701640Y-49870360D02*
X81701640Y-48854360D01*
X78780640Y-47330360D02*
X80177640Y-46060360D01*
X80177640Y-46060360D02*
X82082640Y-46060360D01*
X78780640Y-51394360D02*
X80177640Y-52664360D01*
X80177640Y-52664360D02*
X82082640Y-52664360D01*
X85892640Y-52410360D02*
X86146640Y-52410360D01*
X86146640Y-52410360D02*
X86146640Y-51267360D01*
X86146640Y-51267360D02*
X85892640Y-51267360D01*
X85892640Y-46314360D02*
X86146640Y-46314360D01*
X86146640Y-46314360D02*
X86146640Y-47457360D01*
X86146640Y-47457360D02*
X85892640Y-47457360D01*
X85892640Y-46060360D02*
X85892640Y-52664360D01*
X47890000Y-13950000D02*
X47890000Y-11410000D01*
X48170000Y-16770000D02*
X48170000Y-15220000D01*
X47890000Y-13950000D02*
X45350000Y-13950000D01*
X45070000Y-15220000D02*
X45070000Y-16770000D01*
X45070000Y-16770000D02*
X48170000Y-16770000D01*
X45350000Y-13950000D02*
X45350000Y-11410000D01*
X45350000Y-11410000D02*
X47890000Y-11410000D01*
X61087000Y-21082000D02*
X61087000Y-18542000D01*
X61367000Y-23902000D02*
X61367000Y-22352000D01*
X61087000Y-21082000D02*
X58547000Y-21082000D01*
X58267000Y-22352000D02*
X58267000Y-23902000D01*
X58267000Y-23902000D02*
X61367000Y-23902000D01*
X58547000Y-21082000D02*
X58547000Y-18542000D01*
X58547000Y-18542000D02*
X61087000Y-18542000D01*
X45350000Y-20840000D02*
X45350000Y-23380000D01*
X45070000Y-18020000D02*
X45070000Y-19570000D01*
X45350000Y-20840000D02*
X47890000Y-20840000D01*
X48170000Y-19570000D02*
X48170000Y-18020000D01*
X48170000Y-18020000D02*
X45070000Y-18020000D01*
X47890000Y-20840000D02*
X47890000Y-23380000D01*
X47890000Y-23380000D02*
X45350000Y-23380000D01*
X18288000Y-69850000D02*
X18288000Y-62230000D01*
X38608000Y-62230000D02*
X38608000Y-69850000D01*
X38608000Y-63500000D02*
X18288000Y-63500000D01*
X18288000Y-69850000D02*
X38608000Y-69850000D01*
X18288000Y-62230000D02*
X38608000Y-62230000D01*
X53086000Y-61468000D02*
X45466000Y-61468000D01*
X53086000Y-58928000D02*
X45466000Y-58928000D01*
X55906000Y-58648000D02*
X54356000Y-58648000D01*
X45466000Y-61468000D02*
X45466000Y-58928000D01*
X53086000Y-58928000D02*
X53086000Y-61468000D01*
X54356000Y-61748000D02*
X55906000Y-61748000D01*
X55906000Y-61748000D02*
X55906000Y-58648000D01*
X35814000Y-61468000D02*
X28194000Y-61468000D01*
X35814000Y-58928000D02*
X28194000Y-58928000D01*
X38634000Y-58648000D02*
X37084000Y-58648000D01*
X28194000Y-61468000D02*
X28194000Y-58928000D01*
X35814000Y-58928000D02*
X35814000Y-61468000D01*
X37084000Y-61748000D02*
X38634000Y-61748000D01*
X38634000Y-61748000D02*
X38634000Y-58648000D01*
X54095000Y-16819000D02*
X54095000Y-6821000D01*
X54235000Y-16815000D02*
X54235000Y-6825000D01*
X54375000Y-16807000D02*
X54375000Y-6833000D01*
X54515000Y-16795000D02*
X54515000Y-6845000D01*
X54655000Y-16780000D02*
X54655000Y-6860000D01*
X54795000Y-16760000D02*
X54795000Y-6880000D01*
X54935000Y-16736000D02*
X54935000Y-6904000D01*
X55075000Y-16707000D02*
X55075000Y-6933000D01*
X55215000Y-16675000D02*
X55215000Y-6965000D01*
X55355000Y-16638000D02*
X55355000Y-7002000D01*
X55495000Y-16597000D02*
X55495000Y-7043000D01*
X55635000Y-16552000D02*
X55635000Y-12286000D01*
X55635000Y-11354000D02*
X55635000Y-7088000D01*
X55775000Y-16502000D02*
X55775000Y-12487000D01*
X55775000Y-11153000D02*
X55775000Y-7138000D01*
X55915000Y-16447000D02*
X55915000Y-12616000D01*
X55915000Y-11024000D02*
X55915000Y-7193000D01*
X56055000Y-16387000D02*
X56055000Y-12705000D01*
X56055000Y-10935000D02*
X56055000Y-7253000D01*
X56195000Y-16322000D02*
X56195000Y-12766000D01*
X56195000Y-10874000D02*
X56195000Y-7318000D01*
X56335000Y-16252000D02*
X56335000Y-12803000D01*
X56335000Y-10837000D02*
X56335000Y-7388000D01*
X56475000Y-16176000D02*
X56475000Y-12819000D01*
X56475000Y-10821000D02*
X56475000Y-7464000D01*
X56615000Y-16094000D02*
X56615000Y-12815000D01*
X56615000Y-10825000D02*
X56615000Y-7546000D01*
X56755000Y-16006000D02*
X56755000Y-12792000D01*
X56755000Y-10848000D02*
X56755000Y-7634000D01*
X56895000Y-15911000D02*
X56895000Y-12747000D01*
X56895000Y-10893000D02*
X56895000Y-7729000D01*
X57035000Y-15809000D02*
X57035000Y-12677000D01*
X57035000Y-10963000D02*
X57035000Y-7831000D01*
X57175000Y-15699000D02*
X57175000Y-12576000D01*
X57175000Y-11064000D02*
X57175000Y-7941000D01*
X57315000Y-15581000D02*
X57315000Y-12427000D01*
X57315000Y-11213000D02*
X57315000Y-8059000D01*
X57455000Y-15453000D02*
X57455000Y-12175000D01*
X57455000Y-11465000D02*
X57455000Y-8187000D01*
X57595000Y-15316000D02*
X57595000Y-8324000D01*
X57735000Y-15166000D02*
X57735000Y-8474000D01*
X57875000Y-15004000D02*
X57875000Y-8636000D01*
X58015000Y-14827000D02*
X58015000Y-8813000D01*
X58155000Y-14631000D02*
X58155000Y-9009000D01*
X58295000Y-14413000D02*
X58295000Y-9227000D01*
X58435000Y-14167000D02*
X58435000Y-9473000D01*
X58575000Y-13882000D02*
X58575000Y-9758000D01*
X58715000Y-13540000D02*
X58715000Y-10100000D01*
X58855000Y-13094000D02*
X58855000Y-10546000D01*
X58995000Y-12319000D02*
X58995000Y-11321000D01*
X57520000Y-11820000D02*
G75*
G03X57520000Y-11820000I-1000000J0D01*
G01*
X59057500Y-11820000D02*
G75*
G03X59057500Y-11820000I-5037500J0D01*
G01*
X54268595Y-12072881D02*
X54268595Y-11072881D01*
X53887642Y-11072881D01*
X53792404Y-11120500D01*
X53744785Y-11168119D01*
X53697166Y-11263357D01*
X53697166Y-11406214D01*
X53744785Y-11501452D01*
X53792404Y-11549071D01*
X53887642Y-11596690D01*
X54268595Y-11596690D01*
X52792404Y-11072881D02*
X53268595Y-11072881D01*
X53316214Y-11549071D01*
X53268595Y-11501452D01*
X53173357Y-11453833D01*
X52935261Y-11453833D01*
X52840023Y-11501452D01*
X52792404Y-11549071D01*
X52744785Y-11644310D01*
X52744785Y-11882405D01*
X52792404Y-11977643D01*
X52840023Y-12025262D01*
X52935261Y-12072881D01*
X53173357Y-12072881D01*
X53268595Y-12025262D01*
X53316214Y-11977643D01*
X75572905Y-13516881D02*
X75572905Y-14326405D01*
X75525286Y-14421643D01*
X75477667Y-14469262D01*
X75382429Y-14516881D01*
X75191952Y-14516881D01*
X75096714Y-14469262D01*
X75049095Y-14421643D01*
X75001476Y-14326405D01*
X75001476Y-13516881D01*
X74620524Y-13516881D02*
X74001476Y-13516881D01*
X74334810Y-13897833D01*
X74191952Y-13897833D01*
X74096714Y-13945452D01*
X74049095Y-13993071D01*
X74001476Y-14088310D01*
X74001476Y-14326405D01*
X74049095Y-14421643D01*
X74096714Y-14469262D01*
X74191952Y-14516881D01*
X74477667Y-14516881D01*
X74572905Y-14469262D01*
X74620524Y-14421643D01*
X11209286Y-27096381D02*
X11209286Y-26096381D01*
X10828333Y-26096381D01*
X10733095Y-26144000D01*
X10685476Y-26191619D01*
X10637857Y-26286857D01*
X10637857Y-26429714D01*
X10685476Y-26524952D01*
X10733095Y-26572571D01*
X10828333Y-26620190D01*
X11209286Y-26620190D01*
X10256905Y-27048762D02*
X10114048Y-27096381D01*
X9875952Y-27096381D01*
X9780714Y-27048762D01*
X9733095Y-27001143D01*
X9685476Y-26905905D01*
X9685476Y-26810667D01*
X9733095Y-26715429D01*
X9780714Y-26667810D01*
X9875952Y-26620190D01*
X10066429Y-26572571D01*
X10161667Y-26524952D01*
X10209286Y-26477333D01*
X10256905Y-26382095D01*
X10256905Y-26286857D01*
X10209286Y-26191619D01*
X10161667Y-26144000D01*
X10066429Y-26096381D01*
X9828333Y-26096381D01*
X9685476Y-26144000D01*
X8733095Y-27096381D02*
X9304524Y-27096381D01*
X9018810Y-27096381D02*
X9018810Y-26096381D01*
X9114048Y-26239238D01*
X9209286Y-26334476D01*
X9304524Y-26382095D01*
X68802381Y-65666667D02*
X69516667Y-65666667D01*
X69659524Y-65619047D01*
X69754762Y-65523809D01*
X69802381Y-65380952D01*
X69802381Y-65285714D01*
X69802381Y-66142857D02*
X68802381Y-66142857D01*
X68802381Y-66523810D01*
X68850000Y-66619048D01*
X68897619Y-66666667D01*
X68992857Y-66714286D01*
X69135714Y-66714286D01*
X69230952Y-66666667D01*
X69278571Y-66619048D01*
X69326190Y-66523810D01*
X69326190Y-66142857D01*
X69802381Y-67666667D02*
X69802381Y-67095238D01*
X69802381Y-67380952D02*
X68802381Y-67380952D01*
X68945238Y-67285714D01*
X69040476Y-67190476D01*
X69088095Y-67095238D01*
X10104381Y-37107905D02*
X9104381Y-37107905D01*
X9104381Y-37488858D01*
X9152000Y-37584096D01*
X9199619Y-37631715D01*
X9294857Y-37679334D01*
X9437714Y-37679334D01*
X9532952Y-37631715D01*
X9580571Y-37584096D01*
X9628190Y-37488858D01*
X9628190Y-37107905D01*
X9104381Y-38536477D02*
X9104381Y-38346000D01*
X9152000Y-38250762D01*
X9199619Y-38203143D01*
X9342476Y-38107905D01*
X9532952Y-38060286D01*
X9913905Y-38060286D01*
X10009143Y-38107905D01*
X10056762Y-38155524D01*
X10104381Y-38250762D01*
X10104381Y-38441239D01*
X10056762Y-38536477D01*
X10009143Y-38584096D01*
X9913905Y-38631715D01*
X9675810Y-38631715D01*
X9580571Y-38584096D01*
X9532952Y-38536477D01*
X9485333Y-38441239D01*
X9485333Y-38250762D01*
X9532952Y-38155524D01*
X9580571Y-38107905D01*
X9675810Y-38060286D01*
X-55619Y-47648905D02*
X-1055619Y-47648905D01*
X-1055619Y-48029858D01*
X-1008000Y-48125096D01*
X-960381Y-48172715D01*
X-865143Y-48220334D01*
X-722286Y-48220334D01*
X-627048Y-48172715D01*
X-579429Y-48125096D01*
X-531810Y-48029858D01*
X-531810Y-47648905D01*
X-1055619Y-48553667D02*
X-1055619Y-49220334D01*
X-55619Y-48791762D01*
X16970333Y-34091571D02*
X17303667Y-34091571D01*
X17303667Y-34615381D02*
X17303667Y-33615381D01*
X16827476Y-33615381D01*
X15922714Y-34615381D02*
X16494143Y-34615381D01*
X16208429Y-34615381D02*
X16208429Y-33615381D01*
X16303667Y-33758238D01*
X16398905Y-33853476D01*
X16494143Y-33901095D01*
X39028666Y-34178501D02*
X39504857Y-34178501D01*
X39504857Y-33178501D01*
X38171523Y-34178501D02*
X38742952Y-34178501D01*
X38457238Y-34178501D02*
X38457238Y-33178501D01*
X38552476Y-33321358D01*
X38647714Y-33416596D01*
X38742952Y-33464215D01*
X68238595Y-2400881D02*
X68238595Y-1400881D01*
X67857642Y-1400881D01*
X67762404Y-1448500D01*
X67714785Y-1496119D01*
X67667166Y-1591357D01*
X67667166Y-1734214D01*
X67714785Y-1829452D01*
X67762404Y-1877071D01*
X67857642Y-1924690D01*
X68238595Y-1924690D01*
X66714785Y-2400881D02*
X67286214Y-2400881D01*
X67000500Y-2400881D02*
X67000500Y-1400881D01*
X67095738Y-1543738D01*
X67190976Y-1638976D01*
X67286214Y-1686595D01*
X86032381Y-61061905D02*
X85032381Y-61061905D01*
X85032381Y-61442858D01*
X85080000Y-61538096D01*
X85127619Y-61585715D01*
X85222857Y-61633334D01*
X85365714Y-61633334D01*
X85460952Y-61585715D01*
X85508571Y-61538096D01*
X85556190Y-61442858D01*
X85556190Y-61061905D01*
X85127619Y-62014286D02*
X85080000Y-62061905D01*
X85032381Y-62157143D01*
X85032381Y-62395239D01*
X85080000Y-62490477D01*
X85127619Y-62538096D01*
X85222857Y-62585715D01*
X85318095Y-62585715D01*
X85460952Y-62538096D01*
X86032381Y-61966667D01*
X86032381Y-62585715D01*
X49506095Y-72842381D02*
X49506095Y-71842381D01*
X49125142Y-71842381D01*
X49029904Y-71890000D01*
X48982285Y-71937619D01*
X48934666Y-72032857D01*
X48934666Y-72175714D01*
X48982285Y-72270952D01*
X49029904Y-72318571D01*
X49125142Y-72366190D01*
X49506095Y-72366190D01*
X48601333Y-71842381D02*
X47982285Y-71842381D01*
X48315619Y-72223333D01*
X48172761Y-72223333D01*
X48077523Y-72270952D01*
X48029904Y-72318571D01*
X47982285Y-72413810D01*
X47982285Y-72651905D01*
X48029904Y-72747143D01*
X48077523Y-72794762D01*
X48172761Y-72842381D01*
X48458476Y-72842381D01*
X48553714Y-72794762D01*
X48601333Y-72747143D01*
X91130381Y-38631905D02*
X90130381Y-38631905D01*
X90130381Y-39012858D01*
X90178000Y-39108096D01*
X90225619Y-39155715D01*
X90320857Y-39203334D01*
X90463714Y-39203334D01*
X90558952Y-39155715D01*
X90606571Y-39108096D01*
X90654190Y-39012858D01*
X90654190Y-38631905D01*
X90463714Y-40060477D02*
X91130381Y-40060477D01*
X90082762Y-39822381D02*
X90797048Y-39584286D01*
X90797048Y-40203334D01*
X74172381Y-2531905D02*
X73172381Y-2531905D01*
X73172381Y-2912858D01*
X73220000Y-3008096D01*
X73267619Y-3055715D01*
X73362857Y-3103334D01*
X73505714Y-3103334D01*
X73600952Y-3055715D01*
X73648571Y-3008096D01*
X73696190Y-2912858D01*
X73696190Y-2531905D01*
X73600952Y-3674762D02*
X73553333Y-3579524D01*
X73505714Y-3531905D01*
X73410476Y-3484286D01*
X73362857Y-3484286D01*
X73267619Y-3531905D01*
X73220000Y-3579524D01*
X73172381Y-3674762D01*
X73172381Y-3865239D01*
X73220000Y-3960477D01*
X73267619Y-4008096D01*
X73362857Y-4055715D01*
X73410476Y-4055715D01*
X73505714Y-4008096D01*
X73553333Y-3960477D01*
X73600952Y-3865239D01*
X73600952Y-3674762D01*
X73648571Y-3579524D01*
X73696190Y-3531905D01*
X73791429Y-3484286D01*
X73981905Y-3484286D01*
X74077143Y-3531905D01*
X74124762Y-3579524D01*
X74172381Y-3674762D01*
X74172381Y-3865239D01*
X74124762Y-3960477D01*
X74077143Y-4008096D01*
X73981905Y-4055715D01*
X73791429Y-4055715D01*
X73696190Y-4008096D01*
X73648571Y-3960477D01*
X73600952Y-3865239D01*
X26670381Y-41326500D02*
X26194190Y-40993166D01*
X26670381Y-40755071D02*
X25670381Y-40755071D01*
X25670381Y-41136024D01*
X25718000Y-41231262D01*
X25765619Y-41278881D01*
X25860857Y-41326500D01*
X26003714Y-41326500D01*
X26098952Y-41278881D01*
X26146571Y-41231262D01*
X26194190Y-41136024D01*
X26194190Y-40755071D01*
X26670381Y-42231262D02*
X26670381Y-41755071D01*
X25670381Y-41755071D01*
X26194190Y-42755071D02*
X26670381Y-42755071D01*
X25670381Y-42421738D02*
X26194190Y-42755071D01*
X25670381Y-43088405D01*
X26670381Y-43945548D02*
X26670381Y-43374119D01*
X26670381Y-43659833D02*
X25670381Y-43659833D01*
X25813238Y-43564595D01*
X25908476Y-43469357D01*
X25956095Y-43374119D01*
X78725021Y-52577122D02*
X78248830Y-52243788D01*
X78725021Y-52005693D02*
X77725021Y-52005693D01*
X77725021Y-52386646D01*
X77772640Y-52481884D01*
X77820259Y-52529503D01*
X77915497Y-52577122D01*
X78058354Y-52577122D01*
X78153592Y-52529503D01*
X78201211Y-52481884D01*
X78248830Y-52386646D01*
X78248830Y-52005693D01*
X77725021Y-52862836D02*
X78725021Y-53196169D01*
X77725021Y-53529503D01*
X78725021Y-54386646D02*
X78725021Y-53815217D01*
X78725021Y-54100931D02*
X77725021Y-54100931D01*
X77867878Y-54005693D01*
X77963116Y-53910455D01*
X78010735Y-53815217D01*
X47453333Y-19772381D02*
X47453333Y-20486667D01*
X47500953Y-20629524D01*
X47596191Y-20724762D01*
X47739048Y-20772381D01*
X47834286Y-20772381D01*
X46977143Y-20772381D02*
X46977143Y-19772381D01*
X46596190Y-19772381D01*
X46500952Y-19820000D01*
X46453333Y-19867619D01*
X46405714Y-19962857D01*
X46405714Y-20105714D01*
X46453333Y-20200952D01*
X46500952Y-20248571D01*
X46596190Y-20296190D01*
X46977143Y-20296190D01*
X45548571Y-20105714D02*
X45548571Y-20772381D01*
X45786667Y-19724762D02*
X46024762Y-20439048D01*
X45405714Y-20439048D01*
X58237333Y-20280381D02*
X58237333Y-20994667D01*
X58284953Y-21137524D01*
X58380191Y-21232762D01*
X58523048Y-21280381D01*
X58618286Y-21280381D01*
X57761143Y-21280381D02*
X57761143Y-20280381D01*
X57380190Y-20280381D01*
X57284952Y-20328000D01*
X57237333Y-20375619D01*
X57189714Y-20470857D01*
X57189714Y-20613714D01*
X57237333Y-20708952D01*
X57284952Y-20756571D01*
X57380190Y-20804190D01*
X57761143Y-20804190D01*
X56808762Y-20375619D02*
X56761143Y-20328000D01*
X56665905Y-20280381D01*
X56427809Y-20280381D01*
X56332571Y-20328000D01*
X56284952Y-20375619D01*
X56237333Y-20470857D01*
X56237333Y-20566095D01*
X56284952Y-20708952D01*
X56856381Y-21280381D01*
X56237333Y-21280381D01*
X47453333Y-13922381D02*
X47453333Y-14636667D01*
X47500953Y-14779524D01*
X47596191Y-14874762D01*
X47739048Y-14922381D01*
X47834286Y-14922381D01*
X46977143Y-14922381D02*
X46977143Y-13922381D01*
X46596190Y-13922381D01*
X46500952Y-13970000D01*
X46453333Y-14017619D01*
X46405714Y-14112857D01*
X46405714Y-14255714D01*
X46453333Y-14350952D01*
X46500952Y-14398571D01*
X46596190Y-14446190D01*
X46977143Y-14446190D01*
X46072381Y-13922381D02*
X45453333Y-13922381D01*
X45786667Y-14303333D01*
X45643809Y-14303333D01*
X45548571Y-14350952D01*
X45500952Y-14398571D01*
X45453333Y-14493810D01*
X45453333Y-14731905D01*
X45500952Y-14827143D01*
X45548571Y-14874762D01*
X45643809Y-14922381D01*
X45929524Y-14922381D01*
X46024762Y-14874762D01*
X46072381Y-14827143D01*
X29186095Y-72842381D02*
X29186095Y-71842381D01*
X28805142Y-71842381D01*
X28709904Y-71890000D01*
X28662285Y-71937619D01*
X28614666Y-72032857D01*
X28614666Y-72175714D01*
X28662285Y-72270952D01*
X28709904Y-72318571D01*
X28805142Y-72366190D01*
X29186095Y-72366190D01*
X28138476Y-72842381D02*
X27948000Y-72842381D01*
X27852761Y-72794762D01*
X27805142Y-72747143D01*
X27709904Y-72604286D01*
X27662285Y-72413810D01*
X27662285Y-72032857D01*
X27709904Y-71937619D01*
X27757523Y-71890000D01*
X27852761Y-71842381D01*
X28043238Y-71842381D01*
X28138476Y-71890000D01*
X28186095Y-71937619D01*
X28233714Y-72032857D01*
X28233714Y-72270952D01*
X28186095Y-72366190D01*
X28138476Y-72413810D01*
X28043238Y-72461429D01*
X27852761Y-72461429D01*
X27757523Y-72413810D01*
X27709904Y-72366190D01*
X27662285Y-72270952D01*
X58098381Y-58933714D02*
X57098381Y-58933714D01*
X57098381Y-59314667D01*
X57146000Y-59409905D01*
X57193619Y-59457524D01*
X57288857Y-59505143D01*
X57431714Y-59505143D01*
X57526952Y-59457524D01*
X57574571Y-59409905D01*
X57622190Y-59314667D01*
X57622190Y-58933714D01*
X58098381Y-60457524D02*
X58098381Y-59886095D01*
X58098381Y-60171809D02*
X57098381Y-60171809D01*
X57241238Y-60076571D01*
X57336476Y-59981333D01*
X57384095Y-59886095D01*
X57098381Y-61076571D02*
X57098381Y-61171810D01*
X57146000Y-61267048D01*
X57193619Y-61314667D01*
X57288857Y-61362286D01*
X57479333Y-61409905D01*
X57717429Y-61409905D01*
X57907905Y-61362286D01*
X58003143Y-61314667D01*
X58050762Y-61267048D01*
X58098381Y-61171810D01*
X58098381Y-61076571D01*
X58050762Y-60981333D01*
X58003143Y-60933714D01*
X57907905Y-60886095D01*
X57717429Y-60838476D01*
X57479333Y-60838476D01*
X57288857Y-60886095D01*
X57193619Y-60933714D01*
X57146000Y-60981333D01*
X57098381Y-61076571D01*
X42636381Y-58983714D02*
X41636381Y-58983714D01*
X41636381Y-59364667D01*
X41684000Y-59459905D01*
X41731619Y-59507524D01*
X41826857Y-59555143D01*
X41969714Y-59555143D01*
X42064952Y-59507524D01*
X42112571Y-59459905D01*
X42160190Y-59364667D01*
X42160190Y-58983714D01*
X42636381Y-60507524D02*
X42636381Y-59936095D01*
X42636381Y-60221809D02*
X41636381Y-60221809D01*
X41779238Y-60126571D01*
X41874476Y-60031333D01*
X41922095Y-59936095D01*
X42636381Y-61459905D02*
X42636381Y-60888476D01*
X42636381Y-61174190D02*
X41636381Y-61174190D01*
X41779238Y-61078952D01*
X41874476Y-60983714D01*
X41922095Y-60888476D01*
X54998857Y-13565143D02*
X55046476Y-13612762D01*
X55189333Y-13660381D01*
X55284571Y-13660381D01*
X55427429Y-13612762D01*
X55522667Y-13517524D01*
X55570286Y-13422286D01*
X55617905Y-13231810D01*
X55617905Y-13088952D01*
X55570286Y-12898476D01*
X55522667Y-12803238D01*
X55427429Y-12708000D01*
X55284571Y-12660381D01*
X55189333Y-12660381D01*
X55046476Y-12708000D01*
X54998857Y-12755619D01*
X54665524Y-12660381D02*
X54046476Y-12660381D01*
X54379810Y-13041333D01*
X54236952Y-13041333D01*
X54141714Y-13088952D01*
X54094095Y-13136571D01*
X54046476Y-13231810D01*
X54046476Y-13469905D01*
X54094095Y-13565143D01*
X54141714Y-13612762D01*
X54236952Y-13660381D01*
X54522667Y-13660381D01*
X54617905Y-13612762D01*
X54665524Y-13565143D01*
X53665524Y-12755619D02*
X53617905Y-12708000D01*
X53522667Y-12660381D01*
X53284571Y-12660381D01*
X53189333Y-12708000D01*
X53141714Y-12755619D01*
X53094095Y-12850857D01*
X53094095Y-12946095D01*
X53141714Y-13088952D01*
X53713143Y-13660381D01*
X53094095Y-13660381D01*
%LPC*%
D13*
X48450500Y-6540500D03*
D14*
X53530500Y-6540500D03*
X58610500Y-6540500D03*
D15*
X63811000Y-24844500D03*
X63811000Y-22304500D03*
X63811000Y-19764500D03*
X63811000Y-17224500D03*
X63811000Y-14684500D03*
X63811000Y-12144500D03*
X63811000Y-9604500D03*
D16*
X63811000Y-7064500D03*
X86811000Y-7064500D03*
D15*
X86811000Y-9604500D03*
X86811000Y-12144500D03*
X86811000Y-14684500D03*
X86811000Y-17224500D03*
X86811000Y-19764500D03*
X86811000Y-22304500D03*
X86811000Y-24844500D03*
D17*
X41275000Y-21844000D03*
X10795000Y-21844000D03*
X15875000Y-21844000D03*
X41275000Y-4664000D03*
X36195000Y-4664000D03*
D18*
X64250000Y-66500000D03*
D19*
X61710000Y-66500000D03*
D13*
X4572000Y-40386000D03*
D14*
X4572000Y-35306000D03*
D13*
X4572000Y-45847000D03*
D14*
X4572000Y-50927000D03*
X21638260Y-29083000D03*
X26636980Y-29083000D03*
X11635740Y-29083000D03*
X6637020Y-29083000D03*
D20*
X33860740Y-30226000D03*
X44020740Y-30226000D03*
D21*
X67500500Y-7048500D03*
D22*
X67500500Y-9588500D03*
D23*
X80500000Y-64340000D03*
D24*
X80500000Y-59260000D03*
D25*
X46228000Y-66040000D03*
X51308000Y-66040000D03*
D26*
X41148000Y-66040000D03*
D25*
X56388000Y-66040000D03*
D13*
X85598000Y-41910000D03*
D14*
X85598000Y-36830000D03*
D21*
X78820000Y-3270000D03*
D22*
X81360000Y-3270000D03*
D27*
X23068000Y-36176500D03*
D28*
X23068000Y-48376500D03*
X11018000Y-48426500D03*
D27*
X11068000Y-36176500D03*
D28*
X17018000Y-34226500D03*
D29*
X79542640Y-49362360D03*
X84582000Y-51861720D03*
X84582000Y-46863000D03*
D21*
X46620000Y-15220000D03*
D22*
X46620000Y-12680000D03*
D21*
X59817000Y-22352000D03*
D22*
X59817000Y-19812000D03*
D21*
X46620000Y-19570000D03*
D22*
X46620000Y-22110000D03*
D25*
X25908000Y-66040000D03*
X30988000Y-66040000D03*
D26*
X20828000Y-66040000D03*
D25*
X36068000Y-66040000D03*
D30*
X54356000Y-60198000D03*
D31*
X51816000Y-60198000D03*
X49276000Y-60198000D03*
X46736000Y-60198000D03*
D30*
X37084000Y-60198000D03*
D31*
X34544000Y-60198000D03*
X32004000Y-60198000D03*
X29464000Y-60198000D03*
D32*
X87630000Y-68326000D03*
X2667000Y-67818000D03*
X2413000Y-2794000D03*
X87757000Y-2667000D03*
D33*
X51520000Y-11820000D03*
D34*
X56520000Y-11820000D03*
D20*
X79920000Y-45495000D03*
X74420000Y-25270000D03*
X72820000Y-33970000D03*
X58170000Y-44720000D03*
X25654000Y-34544000D03*
X45974000Y-9652000D03*
X78520000Y-19420000D03*
X68389500Y-41211500D03*
X60706000Y-56388000D03*
X36830000Y-41910000D03*
X59182000Y-53721000D03*
X49022000Y-50165000D03*
X42545000Y-49911000D03*
X29718000Y-47498000D03*
X72326500Y-6477000D03*
X29210000Y-44704000D03*
X59118500Y-38735000D03*
X76431500Y-45600000D03*
X40513000Y-35306000D03*
X53086000Y-49784000D03*
X47117000Y-49784000D03*
X39878000Y-49657000D03*
X27559000Y-49784000D03*
X35052000Y-50038000D03*
X12636500Y-54038500D03*
X60579000Y-12573000D03*
X83629500Y-14033500D03*
X15430500Y-53911500D03*
X63246000Y-46609000D03*
X70358000Y-43561000D03*
X66865500Y-15494000D03*
X59055000Y-36703000D03*
X58928000Y-34544000D03*
X66865500Y-13589000D03*
D35*
X21100000Y-59500000D03*
X74900000Y-63600000D03*
M02*
