G04 #@! TF.FileFunction,Copper,L2,Bot,Signal*
%FSLAX46Y46*%
G04 Gerber Fmt 4.6, Leading zero omitted, Abs format (unit mm)*
G04 Created by KiCad (PCBNEW 4.0.2+dfsg1-stable) date wto, 5 mar 2019, 11:31:51*
%MOMM*%
G01*
G04 APERTURE LIST*
%ADD10C,0.100000*%
%ADD11R,3.500000X3.500000*%
%ADD12C,3.500000*%
%ADD13O,2.032000X1.727200*%
%ADD14R,2.032000X1.727200*%
%ADD15C,2.300000*%
%ADD16O,1.700000X2.000000*%
%ADD17O,1.720000X2.032000*%
%ADD18C,1.500000*%
%ADD19R,2.032000X2.032000*%
%ADD20O,2.032000X2.032000*%
%ADD21R,2.540000X2.540000*%
%ADD22O,3.800000X3.000000*%
%ADD23C,3.810000*%
%ADD24R,3.810000X3.810000*%
%ADD25C,2.500000*%
%ADD26C,3.000000*%
%ADD27C,2.499360*%
%ADD28R,1.727200X2.032000*%
%ADD29O,1.727200X2.032000*%
%ADD30C,4.064000*%
%ADD31R,1.300000X1.300000*%
%ADD32C,1.300000*%
%ADD33C,3.800000*%
%ADD34C,0.406400*%
%ADD35C,0.381000*%
%ADD36C,1.300000*%
%ADD37C,0.350000*%
G04 APERTURE END LIST*
D10*
D11*
X48450500Y-6540500D03*
D12*
X53530500Y-6540500D03*
X58610500Y-6540500D03*
D13*
X63811000Y-24844500D03*
X63811000Y-22304500D03*
X63811000Y-19764500D03*
X63811000Y-17224500D03*
X63811000Y-14684500D03*
X63811000Y-12144500D03*
X63811000Y-9604500D03*
D14*
X63811000Y-7064500D03*
X86811000Y-7064500D03*
D13*
X86811000Y-9604500D03*
X86811000Y-12144500D03*
X86811000Y-14684500D03*
X86811000Y-17224500D03*
X86811000Y-19764500D03*
X86811000Y-22304500D03*
X86811000Y-24844500D03*
D15*
X41275000Y-21844000D03*
X10795000Y-21844000D03*
X15875000Y-21844000D03*
X41275000Y-4664000D03*
X36195000Y-4664000D03*
D16*
X64250000Y-66500000D03*
D17*
X61710000Y-66500000D03*
D11*
X4572000Y-40386000D03*
D12*
X4572000Y-35306000D03*
D11*
X4572000Y-45847000D03*
D12*
X4572000Y-50927000D03*
X21638260Y-29083000D03*
X26636980Y-29083000D03*
X11635740Y-29083000D03*
X6637020Y-29083000D03*
D18*
X33860740Y-30226000D03*
X44020740Y-30226000D03*
D19*
X67500500Y-7048500D03*
D20*
X67500500Y-9588500D03*
D21*
X80500000Y-64340000D03*
D22*
X80500000Y-59260000D03*
D23*
X46228000Y-66040000D03*
X51308000Y-66040000D03*
D24*
X41148000Y-66040000D03*
D23*
X56388000Y-66040000D03*
D11*
X85598000Y-41910000D03*
D12*
X85598000Y-36830000D03*
D19*
X78820000Y-3270000D03*
D20*
X81360000Y-3270000D03*
D25*
X23068000Y-36176500D03*
D26*
X23068000Y-48376500D03*
X11018000Y-48426500D03*
D25*
X11068000Y-36176500D03*
D26*
X17018000Y-34226500D03*
D27*
X79542640Y-49362360D03*
X84582000Y-51861720D03*
X84582000Y-46863000D03*
D19*
X46620000Y-15220000D03*
D20*
X46620000Y-12680000D03*
D19*
X59817000Y-22352000D03*
D20*
X59817000Y-19812000D03*
D19*
X46620000Y-19570000D03*
D20*
X46620000Y-22110000D03*
D23*
X25908000Y-66040000D03*
X30988000Y-66040000D03*
D24*
X20828000Y-66040000D03*
D23*
X36068000Y-66040000D03*
D28*
X54356000Y-60198000D03*
D29*
X51816000Y-60198000D03*
X49276000Y-60198000D03*
X46736000Y-60198000D03*
D28*
X37084000Y-60198000D03*
D29*
X34544000Y-60198000D03*
X32004000Y-60198000D03*
X29464000Y-60198000D03*
D30*
X87630000Y-68326000D03*
X2667000Y-67818000D03*
X2413000Y-2794000D03*
X87757000Y-2667000D03*
D31*
X51520000Y-11820000D03*
D32*
X56520000Y-11820000D03*
D18*
X79920000Y-45495000D03*
X74420000Y-25270000D03*
X72820000Y-33970000D03*
X58170000Y-44720000D03*
X25654000Y-34544000D03*
X45974000Y-9652000D03*
X78520000Y-19420000D03*
X68389500Y-41211500D03*
X60706000Y-56388000D03*
X36830000Y-41910000D03*
X59182000Y-53721000D03*
X49022000Y-50165000D03*
X42545000Y-49911000D03*
X29718000Y-47498000D03*
X72326500Y-6477000D03*
X29210000Y-44704000D03*
X59118500Y-38735000D03*
X76431500Y-45600000D03*
X40513000Y-35306000D03*
X53086000Y-49784000D03*
X47117000Y-49784000D03*
X39878000Y-49657000D03*
X27559000Y-49784000D03*
X35052000Y-50038000D03*
X12636500Y-54038500D03*
X60579000Y-12573000D03*
X83629500Y-14033500D03*
X15430500Y-53911500D03*
X63246000Y-46609000D03*
X70358000Y-43561000D03*
X66865500Y-15494000D03*
X59055000Y-36703000D03*
X58928000Y-34544000D03*
X66865500Y-13589000D03*
D33*
X21100000Y-59500000D03*
X74900000Y-63600000D03*
D34*
X66827000Y-47727000D02*
X76813000Y-47727000D01*
X76813000Y-47727000D02*
X78620000Y-45920000D01*
X79920000Y-45495000D02*
X78995000Y-45495000D01*
X78995000Y-45495000D02*
X78620000Y-45870000D01*
X78620000Y-45870000D02*
X78620000Y-45920000D01*
D35*
X74420000Y-25270000D02*
X73970000Y-25720000D01*
X73970000Y-25720000D02*
X73970000Y-32820000D01*
X73970000Y-32820000D02*
X72820000Y-33970000D01*
X58170000Y-44720000D02*
X58520000Y-44370000D01*
X58520000Y-44370000D02*
X63470000Y-44370000D01*
X63470000Y-44370000D02*
X66827000Y-47727000D01*
X85302800Y-36534800D02*
X85598000Y-36830000D01*
D34*
X25654000Y-34544000D02*
X43688000Y-16510000D01*
X43688000Y-11938000D02*
X45974000Y-9652000D01*
X43688000Y-16510000D02*
X43688000Y-11938000D01*
D35*
X78520000Y-19420000D02*
X78486000Y-19420000D01*
X78486000Y-19420000D02*
X78520000Y-19420000D01*
X78520000Y-19420000D02*
X78486000Y-19420000D01*
X78486000Y-31115000D02*
X78486000Y-19420000D01*
X68389500Y-41211500D02*
X78486000Y-31115000D01*
X45889600Y-12680000D02*
X46620000Y-12680000D01*
X49022000Y-50165000D02*
X49022000Y-49911000D01*
X59182000Y-52705000D02*
X59182000Y-53721000D01*
X54864000Y-48387000D02*
X59182000Y-52705000D01*
X50546000Y-48387000D02*
X54864000Y-48387000D01*
X49022000Y-49911000D02*
X50546000Y-48387000D01*
X47625000Y-48260000D02*
X40894000Y-48260000D01*
X48895000Y-49530000D02*
X47625000Y-48260000D01*
X48895000Y-50038000D02*
X48895000Y-49530000D01*
X49022000Y-50165000D02*
X48895000Y-50038000D01*
X42545000Y-49911000D02*
X40894000Y-48260000D01*
X40894000Y-48260000D02*
X30480000Y-48260000D01*
X30480000Y-48260000D02*
X29718000Y-47498000D01*
X72326500Y-31051500D02*
X72326500Y-6477000D01*
X64770000Y-38608000D02*
X72326500Y-31051500D01*
X59245500Y-38608000D02*
X64770000Y-38608000D01*
X59118500Y-38735000D02*
X59245500Y-38608000D01*
X76431500Y-45600000D02*
X65983500Y-45600000D01*
X65983500Y-45600000D02*
X59118500Y-38735000D01*
X29210000Y-44704000D02*
X32004000Y-47498000D01*
X32004000Y-47498000D02*
X50355500Y-47498000D01*
X50355500Y-47498000D02*
X59118500Y-38735000D01*
D34*
X28829000Y-42545000D02*
X27559000Y-43815000D01*
X33274000Y-42545000D02*
X28829000Y-42545000D01*
X40513000Y-35306000D02*
X33274000Y-42545000D01*
D35*
X27559000Y-49784000D02*
X27559000Y-43815000D01*
X45339000Y-52451000D02*
X45212000Y-52578000D01*
X52070000Y-52451000D02*
X45339000Y-52451000D01*
X53340000Y-51181000D02*
X52070000Y-52451000D01*
X53340000Y-50038000D02*
X53340000Y-51181000D01*
X53086000Y-49784000D02*
X53340000Y-50038000D01*
X47117000Y-50673000D02*
X47117000Y-49784000D01*
X45212000Y-52578000D02*
X47117000Y-50673000D01*
X42418000Y-52578000D02*
X45212000Y-52578000D01*
X40259000Y-50419000D02*
X42418000Y-52578000D01*
X40259000Y-50038000D02*
X40259000Y-50419000D01*
X39878000Y-49657000D02*
X40259000Y-50038000D01*
X34798000Y-49784000D02*
X27559000Y-49784000D01*
X35052000Y-50038000D02*
X34798000Y-49784000D01*
X60579000Y-12573000D02*
X60177000Y-12573000D01*
X12636500Y-50613500D02*
X12636500Y-54038500D01*
X27500000Y-35750000D02*
X12636500Y-50613500D01*
X27500000Y-34250000D02*
X27500000Y-35750000D01*
X36500000Y-25250000D02*
X27500000Y-34250000D01*
X40750000Y-25250000D02*
X36500000Y-25250000D01*
X43500000Y-22500000D02*
X40750000Y-25250000D01*
X43500000Y-19250000D02*
X43500000Y-22500000D01*
X45250000Y-17500000D02*
X43500000Y-19250000D01*
X48000000Y-17500000D02*
X45250000Y-17500000D01*
X52000000Y-13500000D02*
X48000000Y-17500000D01*
X59250000Y-13500000D02*
X52000000Y-13500000D01*
X60177000Y-12573000D02*
X59250000Y-13500000D01*
X79756000Y-24420000D02*
X79756000Y-21834000D01*
X81870000Y-19720000D02*
X81870000Y-15793000D01*
X79756000Y-21834000D02*
X81870000Y-19720000D01*
X83629500Y-14033500D02*
X81870000Y-15793000D01*
X79756000Y-24420000D02*
X79756000Y-34163000D01*
X79756000Y-34163000D02*
X70358000Y-43561000D01*
X22923500Y-51498500D02*
X22923500Y-51562000D01*
X22860000Y-51562000D02*
X22923500Y-51498500D01*
X17780000Y-51562000D02*
X22860000Y-51562000D01*
X15430500Y-53911500D02*
X17780000Y-51562000D01*
X25273000Y-51562000D02*
X22923500Y-51562000D01*
X25273000Y-51562000D02*
X40386000Y-51562000D01*
X40386000Y-51562000D02*
X42164000Y-53340000D01*
X42164000Y-53340000D02*
X56388000Y-53340000D01*
X56388000Y-53340000D02*
X58166000Y-55118000D01*
X58166000Y-55118000D02*
X59563000Y-55118000D01*
X59563000Y-55118000D02*
X64008000Y-50673000D01*
X64008000Y-50673000D02*
X64008000Y-46355000D01*
X64008000Y-46355000D02*
X63754000Y-46609000D01*
X63754000Y-46609000D02*
X63246000Y-46609000D01*
X70358000Y-43561000D02*
X71247000Y-42672000D01*
X67500500Y-16129000D02*
X67500500Y-20510500D01*
X66865500Y-15494000D02*
X67500500Y-16129000D01*
X57086500Y-36703000D02*
X59055000Y-36703000D01*
X56705500Y-36322000D02*
X57086500Y-36703000D01*
X56705500Y-34544000D02*
X56705500Y-36322000D01*
X58483500Y-32766000D02*
X56705500Y-34544000D01*
X63754000Y-32766000D02*
X58483500Y-32766000D01*
X67500500Y-29019500D02*
X63754000Y-32766000D01*
X67500500Y-20510500D02*
X67500500Y-29019500D01*
X58928000Y-34544000D02*
X59436000Y-34036000D01*
X59436000Y-34036000D02*
X64008000Y-34036000D01*
X64008000Y-34036000D02*
X68453000Y-29591000D01*
X68453000Y-29591000D02*
X68453000Y-15176500D01*
X68453000Y-15176500D02*
X66865500Y-13589000D01*
X11505600Y-36679600D02*
X10986000Y-36160000D01*
D36*
X62050000Y-62350000D02*
X63300000Y-63600000D01*
X63300000Y-63600000D02*
X74900000Y-63600000D01*
X23500000Y-57100000D02*
X21100000Y-59500000D01*
X56800000Y-57100000D02*
X23500000Y-57100000D01*
X62050000Y-62350000D02*
X56800000Y-57100000D01*
D37*
G36*
X86225611Y-370779D02*
X85463455Y-1131606D01*
X85050471Y-2126182D01*
X85049531Y-3203093D01*
X85460779Y-4198389D01*
X86221606Y-4960545D01*
X87216182Y-5373529D01*
X88293093Y-5374469D01*
X89288389Y-4963221D01*
X89995000Y-4257842D01*
X89995000Y-54434815D01*
X80787625Y-54425092D01*
X79896053Y-53235071D01*
X79844196Y-53188849D01*
X79756000Y-53165000D01*
X72462488Y-53165000D01*
X71540371Y-52242883D01*
X82656986Y-52242883D01*
X82949384Y-52950539D01*
X83490333Y-53492433D01*
X84197478Y-53786065D01*
X84963163Y-53786734D01*
X85670819Y-53494336D01*
X86212713Y-52953387D01*
X86506345Y-52246242D01*
X86507014Y-51480557D01*
X86214616Y-50772901D01*
X85673667Y-50231007D01*
X84966522Y-49937375D01*
X84200837Y-49936706D01*
X83493181Y-50229104D01*
X82951287Y-50770053D01*
X82657655Y-51477198D01*
X82656986Y-52242883D01*
X71540371Y-52242883D01*
X69041011Y-49743523D01*
X77617626Y-49743523D01*
X77910024Y-50451179D01*
X78450973Y-50993073D01*
X79158118Y-51286705D01*
X79923803Y-51287374D01*
X80631459Y-50994976D01*
X81173353Y-50454027D01*
X81466985Y-49746882D01*
X81467654Y-48981197D01*
X81175256Y-48273541D01*
X80634307Y-47731647D01*
X79927162Y-47438015D01*
X79161477Y-47437346D01*
X78453821Y-47729744D01*
X77911927Y-48270693D01*
X77618295Y-48977838D01*
X77617626Y-49743523D01*
X69041011Y-49743523D01*
X66541651Y-47244163D01*
X82656986Y-47244163D01*
X82949384Y-47951819D01*
X83490333Y-48493713D01*
X84197478Y-48787345D01*
X84963163Y-48788014D01*
X85670819Y-48495616D01*
X86212713Y-47954667D01*
X86506345Y-47247522D01*
X86507014Y-46481837D01*
X86214616Y-45774181D01*
X85673667Y-45232287D01*
X84966522Y-44938655D01*
X84200837Y-44937986D01*
X83493181Y-45230384D01*
X82951287Y-45771333D01*
X82657655Y-46478478D01*
X82656986Y-47244163D01*
X66541651Y-47244163D01*
X66163744Y-46866256D01*
X66105851Y-46827862D01*
X66040000Y-46815000D01*
X64873500Y-46815000D01*
X64873500Y-46355000D01*
X64807618Y-46023787D01*
X64620001Y-45742999D01*
X64339213Y-45555382D01*
X64175136Y-45522745D01*
X64054251Y-45401649D01*
X63530693Y-45184248D01*
X62963794Y-45183754D01*
X62439857Y-45400240D01*
X62038649Y-45800749D01*
X61821248Y-46324307D01*
X61820820Y-46815000D01*
X59777500Y-46815000D01*
X56556787Y-42520715D01*
X58917677Y-40159825D01*
X59319673Y-40160175D01*
X65371499Y-46212001D01*
X65652287Y-46399618D01*
X65983500Y-46465500D01*
X75281994Y-46465500D01*
X75623249Y-46807351D01*
X76146807Y-47024752D01*
X76713706Y-47025246D01*
X77237643Y-46808760D01*
X77638851Y-46408251D01*
X77856252Y-45884693D01*
X77856746Y-45317794D01*
X77640260Y-44793857D01*
X77239751Y-44392649D01*
X76716193Y-44175248D01*
X76149294Y-44174754D01*
X75625357Y-44391240D01*
X75281498Y-44734500D01*
X71199465Y-44734500D01*
X71565351Y-44369251D01*
X71782752Y-43845693D01*
X71783175Y-43359827D01*
X74983002Y-40160000D01*
X83159776Y-40160000D01*
X83159776Y-43660000D01*
X83206843Y-43910140D01*
X83354676Y-44139879D01*
X83580242Y-44294002D01*
X83848000Y-44348224D01*
X87348000Y-44348224D01*
X87598140Y-44301157D01*
X87827879Y-44153324D01*
X87982002Y-43927758D01*
X88036224Y-43660000D01*
X88036224Y-40160000D01*
X87989157Y-39909860D01*
X87841324Y-39680121D01*
X87615758Y-39525998D01*
X87348000Y-39471776D01*
X83848000Y-39471776D01*
X83597860Y-39518843D01*
X83368121Y-39666676D01*
X83213998Y-39892242D01*
X83159776Y-40160000D01*
X74983002Y-40160000D01*
X76624739Y-38518263D01*
X84021460Y-38518263D01*
X84204553Y-38882317D01*
X85096011Y-39259343D01*
X86063891Y-39266523D01*
X86960845Y-38902765D01*
X86991447Y-38882317D01*
X87174540Y-38518263D01*
X85598000Y-36941723D01*
X84021460Y-38518263D01*
X76624739Y-38518263D01*
X77847111Y-37295891D01*
X83161477Y-37295891D01*
X83525235Y-38192845D01*
X83545683Y-38223447D01*
X83909737Y-38406540D01*
X85486277Y-36830000D01*
X85709723Y-36830000D01*
X87286263Y-38406540D01*
X87650317Y-38223447D01*
X88027343Y-37331989D01*
X88034523Y-36364109D01*
X87670765Y-35467155D01*
X87650317Y-35436553D01*
X87286263Y-35253460D01*
X85709723Y-36830000D01*
X85486277Y-36830000D01*
X83909737Y-35253460D01*
X83545683Y-35436553D01*
X83168657Y-36328011D01*
X83161477Y-37295891D01*
X77847111Y-37295891D01*
X80001265Y-35141737D01*
X84021460Y-35141737D01*
X85598000Y-36718277D01*
X87174540Y-35141737D01*
X86991447Y-34777683D01*
X86099989Y-34400657D01*
X85132109Y-34393477D01*
X84235155Y-34757235D01*
X84204553Y-34777683D01*
X84021460Y-35141737D01*
X80001265Y-35141737D01*
X80368001Y-34775001D01*
X80379872Y-34757235D01*
X80555618Y-34494213D01*
X80621500Y-34163000D01*
X80621500Y-22192502D01*
X82482001Y-20332001D01*
X82669618Y-20051213D01*
X82735500Y-19720000D01*
X82735500Y-16151502D01*
X83428677Y-15458325D01*
X83911706Y-15458746D01*
X84435643Y-15242260D01*
X84836851Y-14841751D01*
X85054252Y-14318193D01*
X85054746Y-13751294D01*
X84838260Y-13227357D01*
X84437751Y-12826149D01*
X83914193Y-12608748D01*
X83347294Y-12608254D01*
X82823357Y-12824740D01*
X82422149Y-13225249D01*
X82204748Y-13748807D01*
X82204325Y-14234673D01*
X81257999Y-15180999D01*
X81070382Y-15461787D01*
X81004500Y-15793000D01*
X81004500Y-19361498D01*
X79351500Y-21014498D01*
X79351500Y-20603447D01*
X79727351Y-20228251D01*
X79944752Y-19704693D01*
X79945246Y-19137794D01*
X79728760Y-18613857D01*
X79328251Y-18212649D01*
X78804693Y-17995248D01*
X78237794Y-17994754D01*
X77713857Y-18211240D01*
X77312649Y-18611749D01*
X77095248Y-19135307D01*
X77094754Y-19702206D01*
X77311240Y-20226143D01*
X77620500Y-20535943D01*
X77620500Y-30756498D01*
X68590323Y-39786675D01*
X68107294Y-39786254D01*
X67583357Y-40002740D01*
X67182149Y-40403249D01*
X66964748Y-40926807D01*
X66964254Y-41493706D01*
X67180740Y-42017643D01*
X67581249Y-42418851D01*
X68104807Y-42636252D01*
X68671706Y-42636746D01*
X69195643Y-42420260D01*
X69596851Y-42019751D01*
X69814252Y-41496193D01*
X69814675Y-41010327D01*
X78890500Y-31934502D01*
X78890500Y-33804498D01*
X70558823Y-42136175D01*
X70075794Y-42135754D01*
X69551857Y-42352240D01*
X69150649Y-42752749D01*
X68933248Y-43276307D01*
X68932754Y-43843206D01*
X69149240Y-44367143D01*
X69515957Y-44734500D01*
X66342002Y-44734500D01*
X61081002Y-39473500D01*
X64770000Y-39473500D01*
X65101213Y-39407618D01*
X65382001Y-39220001D01*
X72938501Y-31663501D01*
X73079327Y-31452740D01*
X73126118Y-31382713D01*
X73192000Y-31051500D01*
X73192000Y-9604500D01*
X85086871Y-9604500D01*
X85203990Y-10193297D01*
X85537517Y-10692454D01*
X85809967Y-10874500D01*
X85537517Y-11056546D01*
X85203990Y-11555703D01*
X85086871Y-12144500D01*
X85203990Y-12733297D01*
X85537517Y-13232454D01*
X85809967Y-13414500D01*
X85537517Y-13596546D01*
X85203990Y-14095703D01*
X85086871Y-14684500D01*
X85203990Y-15273297D01*
X85537517Y-15772454D01*
X85809967Y-15954500D01*
X85537517Y-16136546D01*
X85203990Y-16635703D01*
X85086871Y-17224500D01*
X85203990Y-17813297D01*
X85537517Y-18312454D01*
X85809967Y-18494500D01*
X85537517Y-18676546D01*
X85203990Y-19175703D01*
X85086871Y-19764500D01*
X85203990Y-20353297D01*
X85537517Y-20852454D01*
X85809967Y-21034500D01*
X85537517Y-21216546D01*
X85203990Y-21715703D01*
X85086871Y-22304500D01*
X85203990Y-22893297D01*
X85537517Y-23392454D01*
X85809967Y-23574500D01*
X85537517Y-23756546D01*
X85203990Y-24255703D01*
X85086871Y-24844500D01*
X85203990Y-25433297D01*
X85537517Y-25932454D01*
X86036674Y-26265981D01*
X86625471Y-26383100D01*
X86996529Y-26383100D01*
X87585326Y-26265981D01*
X88084483Y-25932454D01*
X88418010Y-25433297D01*
X88535129Y-24844500D01*
X88418010Y-24255703D01*
X88084483Y-23756546D01*
X87812033Y-23574500D01*
X88084483Y-23392454D01*
X88418010Y-22893297D01*
X88535129Y-22304500D01*
X88418010Y-21715703D01*
X88084483Y-21216546D01*
X87812033Y-21034500D01*
X88084483Y-20852454D01*
X88418010Y-20353297D01*
X88535129Y-19764500D01*
X88418010Y-19175703D01*
X88084483Y-18676546D01*
X87812033Y-18494500D01*
X88084483Y-18312454D01*
X88418010Y-17813297D01*
X88535129Y-17224500D01*
X88418010Y-16635703D01*
X88084483Y-16136546D01*
X87812033Y-15954500D01*
X88084483Y-15772454D01*
X88418010Y-15273297D01*
X88535129Y-14684500D01*
X88418010Y-14095703D01*
X88084483Y-13596546D01*
X87812033Y-13414500D01*
X88084483Y-13232454D01*
X88418010Y-12733297D01*
X88535129Y-12144500D01*
X88418010Y-11555703D01*
X88084483Y-11056546D01*
X87812033Y-10874500D01*
X88084483Y-10692454D01*
X88418010Y-10193297D01*
X88535129Y-9604500D01*
X88418010Y-9015703D01*
X88106905Y-8550103D01*
X88306879Y-8421424D01*
X88461002Y-8195858D01*
X88515224Y-7928100D01*
X88515224Y-6200900D01*
X88468157Y-5950760D01*
X88320324Y-5721021D01*
X88094758Y-5566898D01*
X87827000Y-5512676D01*
X85795000Y-5512676D01*
X85544860Y-5559743D01*
X85315121Y-5707576D01*
X85160998Y-5933142D01*
X85106776Y-6200900D01*
X85106776Y-7928100D01*
X85153843Y-8178240D01*
X85301676Y-8407979D01*
X85513398Y-8552643D01*
X85203990Y-9015703D01*
X85086871Y-9604500D01*
X73192000Y-9604500D01*
X73192000Y-7626506D01*
X73533851Y-7285251D01*
X73751252Y-6761693D01*
X73751746Y-6194794D01*
X73535260Y-5670857D01*
X73134751Y-5269649D01*
X72611193Y-5052248D01*
X72044294Y-5051754D01*
X71520357Y-5268240D01*
X71119149Y-5668749D01*
X70901748Y-6192307D01*
X70901254Y-6759206D01*
X71117740Y-7283143D01*
X71461000Y-7627002D01*
X71461000Y-30692998D01*
X64411498Y-37742500D01*
X60141228Y-37742500D01*
X60086059Y-37687235D01*
X60262351Y-37511251D01*
X60479752Y-36987693D01*
X60480246Y-36420794D01*
X60263760Y-35896857D01*
X59927365Y-35559875D01*
X60135351Y-35352251D01*
X60322520Y-34901500D01*
X64008000Y-34901500D01*
X64339213Y-34835618D01*
X64620001Y-34648001D01*
X69065001Y-30203001D01*
X69252618Y-29922213D01*
X69318500Y-29591000D01*
X69318500Y-15176500D01*
X69252618Y-14845287D01*
X69065001Y-14564499D01*
X68290325Y-13789823D01*
X68290746Y-13306794D01*
X68074260Y-12782857D01*
X67673751Y-12381649D01*
X67150193Y-12164248D01*
X66583294Y-12163754D01*
X66059357Y-12380240D01*
X65658149Y-12780749D01*
X65440748Y-13304307D01*
X65440254Y-13871206D01*
X65656740Y-14395143D01*
X65802746Y-14541404D01*
X65658149Y-14685749D01*
X65440748Y-15209307D01*
X65440254Y-15776206D01*
X65656740Y-16300143D01*
X66057249Y-16701351D01*
X66580807Y-16918752D01*
X66635000Y-16918799D01*
X66635000Y-28660998D01*
X63395498Y-31900500D01*
X58483500Y-31900500D01*
X58152287Y-31966382D01*
X57871499Y-32153999D01*
X56093499Y-33931999D01*
X55960154Y-34131564D01*
X55927147Y-31425000D01*
X61000000Y-31425000D01*
X61068085Y-31411212D01*
X61125441Y-31372022D01*
X61163032Y-31313605D01*
X61174999Y-31249480D01*
X61155979Y-24844500D01*
X62086871Y-24844500D01*
X62203990Y-25433297D01*
X62537517Y-25932454D01*
X63036674Y-26265981D01*
X63625471Y-26383100D01*
X63996529Y-26383100D01*
X64585326Y-26265981D01*
X65084483Y-25932454D01*
X65418010Y-25433297D01*
X65535129Y-24844500D01*
X65418010Y-24255703D01*
X65084483Y-23756546D01*
X64813901Y-23575748D01*
X65172993Y-23274048D01*
X65451948Y-22737354D01*
X65476606Y-22624153D01*
X65336980Y-22383500D01*
X63890000Y-22383500D01*
X63890000Y-22403500D01*
X63732000Y-22403500D01*
X63732000Y-22383500D01*
X62285020Y-22383500D01*
X62145394Y-22624153D01*
X62170052Y-22737354D01*
X62449007Y-23274048D01*
X62808099Y-23575748D01*
X62537517Y-23756546D01*
X62203990Y-24255703D01*
X62086871Y-24844500D01*
X61155979Y-24844500D01*
X61153364Y-23963969D01*
X61312879Y-23861324D01*
X61467002Y-23635758D01*
X61521224Y-23368000D01*
X61521224Y-21336000D01*
X61474157Y-21085860D01*
X61326324Y-20856121D01*
X61203305Y-20772065D01*
X61412409Y-20459118D01*
X61541129Y-19812000D01*
X61412409Y-19164882D01*
X61137893Y-18754039D01*
X61135000Y-17779817D01*
X61135000Y-13885117D01*
X61385143Y-13781760D01*
X61786351Y-13381251D01*
X62003752Y-12857693D01*
X62004246Y-12290794D01*
X61787760Y-11766857D01*
X61387251Y-11365649D01*
X60863693Y-11148248D01*
X60296794Y-11147754D01*
X59772857Y-11364240D01*
X59371649Y-11764749D01*
X59154248Y-12288307D01*
X59154175Y-12371823D01*
X59000998Y-12525000D01*
X57675343Y-12525000D01*
X57857770Y-12059926D01*
X57847753Y-11529721D01*
X57664123Y-11086395D01*
X57414303Y-11037419D01*
X56631723Y-11820000D01*
X56645865Y-11834142D01*
X56534142Y-11945865D01*
X56520000Y-11931723D01*
X56505858Y-11945865D01*
X56394135Y-11834142D01*
X56408277Y-11820000D01*
X55625697Y-11037419D01*
X55375877Y-11086395D01*
X55182230Y-11580074D01*
X55192247Y-12110279D01*
X55364029Y-12525000D01*
X52847086Y-12525000D01*
X52858224Y-12470000D01*
X52858224Y-11170000D01*
X52812256Y-10925697D01*
X55737419Y-10925697D01*
X56520000Y-11708277D01*
X57302581Y-10925697D01*
X57253605Y-10675877D01*
X56759926Y-10482230D01*
X56229721Y-10492247D01*
X55786395Y-10675877D01*
X55737419Y-10925697D01*
X52812256Y-10925697D01*
X52811157Y-10919860D01*
X52663324Y-10690121D01*
X52437758Y-10535998D01*
X52170000Y-10481776D01*
X50870000Y-10481776D01*
X50619860Y-10528843D01*
X50390121Y-10676676D01*
X50235998Y-10902242D01*
X50181776Y-11170000D01*
X50181776Y-12470000D01*
X50192125Y-12525000D01*
X48313298Y-12525000D01*
X48215409Y-12032882D01*
X47848847Y-11484282D01*
X47300247Y-11117720D01*
X46653129Y-10989000D01*
X46586871Y-10989000D01*
X46361081Y-11033912D01*
X46780143Y-10860760D01*
X47181351Y-10460251D01*
X47398752Y-9936693D01*
X47399041Y-9604500D01*
X62086871Y-9604500D01*
X62203990Y-10193297D01*
X62537517Y-10692454D01*
X62809967Y-10874500D01*
X62537517Y-11056546D01*
X62203990Y-11555703D01*
X62086871Y-12144500D01*
X62203990Y-12733297D01*
X62537517Y-13232454D01*
X62809967Y-13414500D01*
X62537517Y-13596546D01*
X62203990Y-14095703D01*
X62086871Y-14684500D01*
X62203990Y-15273297D01*
X62537517Y-15772454D01*
X62809967Y-15954500D01*
X62537517Y-16136546D01*
X62203990Y-16635703D01*
X62086871Y-17224500D01*
X62203990Y-17813297D01*
X62537517Y-18312454D01*
X62809967Y-18494500D01*
X62537517Y-18676546D01*
X62203990Y-19175703D01*
X62086871Y-19764500D01*
X62203990Y-20353297D01*
X62537517Y-20852454D01*
X62808099Y-21033252D01*
X62449007Y-21334952D01*
X62170052Y-21871646D01*
X62145394Y-21984847D01*
X62285020Y-22225500D01*
X63732000Y-22225500D01*
X63732000Y-22205500D01*
X63890000Y-22205500D01*
X63890000Y-22225500D01*
X65336980Y-22225500D01*
X65476606Y-21984847D01*
X65451948Y-21871646D01*
X65172993Y-21334952D01*
X64813901Y-21033252D01*
X65084483Y-20852454D01*
X65418010Y-20353297D01*
X65535129Y-19764500D01*
X65418010Y-19175703D01*
X65084483Y-18676546D01*
X64812033Y-18494500D01*
X65084483Y-18312454D01*
X65418010Y-17813297D01*
X65535129Y-17224500D01*
X65418010Y-16635703D01*
X65084483Y-16136546D01*
X64812033Y-15954500D01*
X65084483Y-15772454D01*
X65418010Y-15273297D01*
X65535129Y-14684500D01*
X65418010Y-14095703D01*
X65084483Y-13596546D01*
X64812033Y-13414500D01*
X65084483Y-13232454D01*
X65418010Y-12733297D01*
X65535129Y-12144500D01*
X65418010Y-11555703D01*
X65084483Y-11056546D01*
X64812033Y-10874500D01*
X65084483Y-10692454D01*
X65418010Y-10193297D01*
X65535129Y-9604500D01*
X65531947Y-9588500D01*
X65776371Y-9588500D01*
X65905091Y-10235618D01*
X66271653Y-10784218D01*
X66820253Y-11150780D01*
X67467371Y-11279500D01*
X67533629Y-11279500D01*
X68180747Y-11150780D01*
X68729347Y-10784218D01*
X69095909Y-10235618D01*
X69224629Y-9588500D01*
X69095909Y-8941382D01*
X68886757Y-8628364D01*
X68996379Y-8557824D01*
X69150502Y-8332258D01*
X69204724Y-8064500D01*
X69204724Y-6032500D01*
X69157657Y-5782360D01*
X69009824Y-5552621D01*
X68784258Y-5398498D01*
X68516500Y-5344276D01*
X66484500Y-5344276D01*
X66234360Y-5391343D01*
X66004621Y-5539176D01*
X65850498Y-5764742D01*
X65796276Y-6032500D01*
X65796276Y-8064500D01*
X65843343Y-8314640D01*
X65991176Y-8544379D01*
X66114195Y-8628435D01*
X65905091Y-8941382D01*
X65776371Y-9588500D01*
X65531947Y-9588500D01*
X65418010Y-9015703D01*
X65106905Y-8550103D01*
X65306879Y-8421424D01*
X65461002Y-8195858D01*
X65515224Y-7928100D01*
X65515224Y-6200900D01*
X65468157Y-5950760D01*
X65320324Y-5721021D01*
X65094758Y-5566898D01*
X64827000Y-5512676D01*
X62795000Y-5512676D01*
X62544860Y-5559743D01*
X62315121Y-5707576D01*
X62160998Y-5933142D01*
X62106776Y-6200900D01*
X62106776Y-7928100D01*
X62153843Y-8178240D01*
X62301676Y-8407979D01*
X62513398Y-8552643D01*
X62203990Y-9015703D01*
X62086871Y-9604500D01*
X47399041Y-9604500D01*
X47399246Y-9369794D01*
X47235501Y-8973500D01*
X48200750Y-8973500D01*
X48371500Y-8802750D01*
X48371500Y-6619500D01*
X48529500Y-6619500D01*
X48529500Y-8802750D01*
X48700250Y-8973500D01*
X50336357Y-8973500D01*
X50587388Y-8869519D01*
X50779519Y-8677389D01*
X50883500Y-8426357D01*
X50883500Y-7020746D01*
X51105080Y-7020746D01*
X51473486Y-7912358D01*
X52155054Y-8595117D01*
X53046021Y-8965079D01*
X54010746Y-8965920D01*
X54902358Y-8597514D01*
X55585117Y-7915946D01*
X55955079Y-7024979D01*
X55955082Y-7020746D01*
X56185080Y-7020746D01*
X56553486Y-7912358D01*
X57235054Y-8595117D01*
X58126021Y-8965079D01*
X59090746Y-8965920D01*
X59982358Y-8597514D01*
X60665117Y-7915946D01*
X61035079Y-7024979D01*
X61035920Y-6060254D01*
X60667514Y-5168642D01*
X59985946Y-4485883D01*
X59094979Y-4115921D01*
X58130254Y-4115080D01*
X57238642Y-4483486D01*
X56555883Y-5165054D01*
X56185921Y-6056021D01*
X56185080Y-7020746D01*
X55955082Y-7020746D01*
X55955920Y-6060254D01*
X55587514Y-5168642D01*
X54905946Y-4485883D01*
X54014979Y-4115921D01*
X53050254Y-4115080D01*
X52158642Y-4483486D01*
X51475883Y-5165054D01*
X51105921Y-6056021D01*
X51105080Y-7020746D01*
X50883500Y-7020746D01*
X50883500Y-6790250D01*
X50712750Y-6619500D01*
X48529500Y-6619500D01*
X48371500Y-6619500D01*
X46188250Y-6619500D01*
X46017500Y-6790250D01*
X46017500Y-8227038D01*
X45691794Y-8226754D01*
X45167857Y-8443240D01*
X44766649Y-8843749D01*
X44549248Y-9367307D01*
X44548840Y-9835198D01*
X43067019Y-11317019D01*
X42876649Y-11601927D01*
X42809800Y-11938000D01*
X42809800Y-16146238D01*
X29314491Y-29641547D01*
X29323512Y-29619822D01*
X29324445Y-28550868D01*
X28916236Y-27562925D01*
X28161030Y-26806401D01*
X27173802Y-26396468D01*
X26104848Y-26395535D01*
X25116905Y-26803744D01*
X24360381Y-27558950D01*
X24137578Y-28095518D01*
X23917516Y-27562925D01*
X23162310Y-26806401D01*
X22175082Y-26396468D01*
X21106128Y-26395535D01*
X20118185Y-26803744D01*
X19361661Y-27558950D01*
X18951728Y-28546178D01*
X18950795Y-29615132D01*
X19359004Y-30603075D01*
X20114210Y-31359599D01*
X21101438Y-31769532D01*
X22170392Y-31770465D01*
X23158335Y-31362256D01*
X23914859Y-30607050D01*
X24137662Y-30070482D01*
X24357724Y-30603075D01*
X25112930Y-31359599D01*
X26100158Y-31769532D01*
X27169112Y-31770465D01*
X27197164Y-31758874D01*
X25836879Y-33119159D01*
X25371794Y-33118754D01*
X24847857Y-33335240D01*
X24446649Y-33735749D01*
X24229248Y-34259307D01*
X24228938Y-34614726D01*
X24159849Y-34545516D01*
X23452586Y-34251835D01*
X22686774Y-34251167D01*
X21979000Y-34543613D01*
X21437016Y-35084651D01*
X21143335Y-35791914D01*
X21142667Y-36557726D01*
X21435113Y-37265500D01*
X21976151Y-37807484D01*
X22683414Y-38101165D01*
X23449226Y-38101833D01*
X24157000Y-37809387D01*
X24698984Y-37268349D01*
X24992665Y-36561086D01*
X24993318Y-35812627D01*
X25369307Y-35968752D01*
X25936206Y-35969246D01*
X26141632Y-35884366D01*
X13192646Y-48833352D01*
X13193377Y-47995764D01*
X12862951Y-47196071D01*
X12251647Y-46583700D01*
X11452532Y-46251878D01*
X10587264Y-46251123D01*
X9787571Y-46581549D01*
X9175200Y-47192853D01*
X8843378Y-47991968D01*
X8842623Y-48857236D01*
X9173049Y-49656929D01*
X9784353Y-50269300D01*
X10583468Y-50601122D01*
X11448736Y-50601877D01*
X11802377Y-50455756D01*
X11771000Y-50613500D01*
X11771000Y-52888994D01*
X11429149Y-53230249D01*
X11211748Y-53753807D01*
X11211254Y-54320706D01*
X11427740Y-54844643D01*
X11828249Y-55245851D01*
X12351807Y-55463252D01*
X12918706Y-55463746D01*
X13442643Y-55247260D01*
X13843851Y-54846751D01*
X14060001Y-54326205D01*
X14221740Y-54717643D01*
X14622249Y-55118851D01*
X15145807Y-55336252D01*
X15712706Y-55336746D01*
X16236643Y-55120260D01*
X16637851Y-54719751D01*
X16855252Y-54196193D01*
X16855675Y-53710327D01*
X18138502Y-52427500D01*
X22860000Y-52427500D01*
X22891750Y-52421185D01*
X22923500Y-52427500D01*
X23962143Y-52427500D01*
X23955572Y-54435000D01*
X19050000Y-54435000D01*
X18981915Y-54448788D01*
X18926256Y-54486256D01*
X16386256Y-57026256D01*
X16347862Y-57084149D01*
X16335000Y-57150000D01*
X16335000Y-70945000D01*
X175000Y-70945000D01*
X175000Y-68875568D01*
X370779Y-69349389D01*
X1131606Y-70111545D01*
X2126182Y-70524529D01*
X3203093Y-70525469D01*
X4198389Y-70114221D01*
X4960545Y-69353394D01*
X5373529Y-68358818D01*
X5374469Y-67281907D01*
X4963221Y-66286611D01*
X4202394Y-65524455D01*
X3207818Y-65111471D01*
X2130907Y-65110531D01*
X1135611Y-65521779D01*
X373455Y-66282606D01*
X175000Y-66760539D01*
X175000Y-44097000D01*
X1866644Y-44097000D01*
X1866644Y-47597000D01*
X1931980Y-47944231D01*
X2137193Y-48263142D01*
X2450313Y-48477087D01*
X2822000Y-48552356D01*
X3282782Y-48552356D01*
X3051925Y-48647744D01*
X2295401Y-49402950D01*
X1885468Y-50390178D01*
X1884535Y-51459132D01*
X2292744Y-52447075D01*
X3047950Y-53203599D01*
X4035178Y-53613532D01*
X5104132Y-53614465D01*
X6092075Y-53206256D01*
X6848599Y-52451050D01*
X7258532Y-51463822D01*
X7259465Y-50394868D01*
X6851256Y-49406925D01*
X6096050Y-48650401D01*
X5859931Y-48552356D01*
X6322000Y-48552356D01*
X6669231Y-48487020D01*
X6988142Y-48281807D01*
X7202087Y-47968687D01*
X7277356Y-47597000D01*
X7277356Y-44097000D01*
X7212020Y-43749769D01*
X7006807Y-43430858D01*
X6693687Y-43216913D01*
X6322000Y-43141644D01*
X2822000Y-43141644D01*
X2474769Y-43206980D01*
X2155858Y-43412193D01*
X1941913Y-43725313D01*
X1866644Y-44097000D01*
X175000Y-44097000D01*
X175000Y-38636000D01*
X1866644Y-38636000D01*
X1866644Y-42136000D01*
X1931980Y-42483231D01*
X2137193Y-42802142D01*
X2450313Y-43016087D01*
X2822000Y-43091356D01*
X6322000Y-43091356D01*
X6669231Y-43026020D01*
X6988142Y-42820807D01*
X7202087Y-42507687D01*
X7277356Y-42136000D01*
X7277356Y-38636000D01*
X7212020Y-38288769D01*
X7006807Y-37969858D01*
X6693687Y-37755913D01*
X6322000Y-37680644D01*
X5861218Y-37680644D01*
X6092075Y-37585256D01*
X6848599Y-36830050D01*
X6961677Y-36557726D01*
X9142667Y-36557726D01*
X9435113Y-37265500D01*
X9976151Y-37807484D01*
X10683414Y-38101165D01*
X11449226Y-38101833D01*
X12157000Y-37809387D01*
X12698984Y-37268349D01*
X12992665Y-36561086D01*
X12993333Y-35795274D01*
X12700887Y-35087500D01*
X12323171Y-34709123D01*
X14580578Y-34709123D01*
X14950807Y-35605146D01*
X15635748Y-36291284D01*
X16531124Y-36663076D01*
X17500623Y-36663922D01*
X18396646Y-36293693D01*
X19082784Y-35608752D01*
X19454576Y-34713376D01*
X19455422Y-33743877D01*
X19085193Y-32847854D01*
X18400252Y-32161716D01*
X17504876Y-31789924D01*
X16535377Y-31789078D01*
X15639354Y-32159307D01*
X14953216Y-32844248D01*
X14581424Y-33739624D01*
X14580578Y-34709123D01*
X12323171Y-34709123D01*
X12159849Y-34545516D01*
X11452586Y-34251835D01*
X10686774Y-34251167D01*
X9979000Y-34543613D01*
X9437016Y-35084651D01*
X9143335Y-35791914D01*
X9142667Y-36557726D01*
X6961677Y-36557726D01*
X7258532Y-35842822D01*
X7259465Y-34773868D01*
X6851256Y-33785925D01*
X6096050Y-33029401D01*
X5108822Y-32619468D01*
X4039868Y-32618535D01*
X3051925Y-33026744D01*
X2295401Y-33781950D01*
X1885468Y-34769178D01*
X1884535Y-35838132D01*
X2292744Y-36826075D01*
X3047950Y-37582599D01*
X3284069Y-37680644D01*
X2822000Y-37680644D01*
X2474769Y-37745980D01*
X2155858Y-37951193D01*
X1941913Y-38264313D01*
X1866644Y-38636000D01*
X175000Y-38636000D01*
X175000Y-29615132D01*
X3949555Y-29615132D01*
X4357764Y-30603075D01*
X5112970Y-31359599D01*
X6100198Y-31769532D01*
X7169152Y-31770465D01*
X8157095Y-31362256D01*
X8913619Y-30607050D01*
X9136422Y-30070482D01*
X9356484Y-30603075D01*
X10111690Y-31359599D01*
X11098918Y-31769532D01*
X12167872Y-31770465D01*
X13155815Y-31362256D01*
X13912339Y-30607050D01*
X14322272Y-29619822D01*
X14323205Y-28550868D01*
X13914996Y-27562925D01*
X13159790Y-26806401D01*
X12172562Y-26396468D01*
X11103608Y-26395535D01*
X10115665Y-26803744D01*
X9359141Y-27558950D01*
X9136338Y-28095518D01*
X8916276Y-27562925D01*
X8161070Y-26806401D01*
X7173842Y-26396468D01*
X6104888Y-26395535D01*
X5116945Y-26803744D01*
X4360421Y-27558950D01*
X3950488Y-28546178D01*
X3949555Y-29615132D01*
X175000Y-29615132D01*
X175000Y-22257309D01*
X8707638Y-22257309D01*
X9024696Y-23024646D01*
X9611266Y-23612241D01*
X10378049Y-23930637D01*
X11208309Y-23931362D01*
X11975646Y-23614304D01*
X12563241Y-23027734D01*
X12881637Y-22260951D01*
X12881640Y-22257309D01*
X13787638Y-22257309D01*
X14104696Y-23024646D01*
X14691266Y-23612241D01*
X15458049Y-23930637D01*
X16288309Y-23931362D01*
X17055646Y-23614304D01*
X17643241Y-23027734D01*
X17961637Y-22260951D01*
X17962362Y-21430691D01*
X17645304Y-20663354D01*
X17058734Y-20075759D01*
X16291951Y-19757363D01*
X15461691Y-19756638D01*
X14694354Y-20073696D01*
X14106759Y-20660266D01*
X13788363Y-21427049D01*
X13787638Y-22257309D01*
X12881640Y-22257309D01*
X12882362Y-21430691D01*
X12565304Y-20663354D01*
X11978734Y-20075759D01*
X11211951Y-19757363D01*
X10381691Y-19756638D01*
X9614354Y-20073696D01*
X9026759Y-20660266D01*
X8708363Y-21427049D01*
X8707638Y-22257309D01*
X175000Y-22257309D01*
X175000Y-4383712D01*
X877606Y-5087545D01*
X1872182Y-5500529D01*
X2949093Y-5501469D01*
X3944389Y-5090221D01*
X4009301Y-5025422D01*
X34369684Y-5025422D01*
X34646938Y-5696429D01*
X35159871Y-6210258D01*
X35830392Y-6488683D01*
X36556422Y-6489316D01*
X37227429Y-6212062D01*
X37520660Y-5919342D01*
X40131381Y-5919342D01*
X40241375Y-6221065D01*
X40915918Y-6498091D01*
X41645128Y-6495894D01*
X42308625Y-6221065D01*
X42418619Y-5919342D01*
X41275000Y-4775723D01*
X40131381Y-5919342D01*
X37520660Y-5919342D01*
X37741258Y-5699129D01*
X38019683Y-5028608D01*
X38020313Y-4304918D01*
X39440909Y-4304918D01*
X39443106Y-5034128D01*
X39717935Y-5697625D01*
X40019658Y-5807619D01*
X41163277Y-4664000D01*
X41386723Y-4664000D01*
X42530342Y-5807619D01*
X42832065Y-5697625D01*
X43109091Y-5023082D01*
X43107981Y-4654643D01*
X46017500Y-4654643D01*
X46017500Y-6290750D01*
X46188250Y-6461500D01*
X48371500Y-6461500D01*
X48371500Y-4278250D01*
X48529500Y-4278250D01*
X48529500Y-6461500D01*
X50712750Y-6461500D01*
X50883500Y-6290750D01*
X50883500Y-4654643D01*
X50779519Y-4403611D01*
X50587388Y-4211481D01*
X50336357Y-4107500D01*
X48700250Y-4107500D01*
X48529500Y-4278250D01*
X48371500Y-4278250D01*
X48200750Y-4107500D01*
X46564643Y-4107500D01*
X46313612Y-4211481D01*
X46121481Y-4403611D01*
X46017500Y-4654643D01*
X43107981Y-4654643D01*
X43106894Y-4293872D01*
X42832065Y-3630375D01*
X42530342Y-3520381D01*
X41386723Y-4664000D01*
X41163277Y-4664000D01*
X40019658Y-3520381D01*
X39717935Y-3630375D01*
X39440909Y-4304918D01*
X38020313Y-4304918D01*
X38020316Y-4302578D01*
X37743062Y-3631571D01*
X37520538Y-3408658D01*
X40131381Y-3408658D01*
X41275000Y-4552277D01*
X42418619Y-3408658D01*
X42308625Y-3106935D01*
X41634082Y-2829909D01*
X40904872Y-2832106D01*
X40241375Y-3106935D01*
X40131381Y-3408658D01*
X37520538Y-3408658D01*
X37230129Y-3117742D01*
X36559608Y-2839317D01*
X35833578Y-2838684D01*
X35162571Y-3115938D01*
X34648742Y-3628871D01*
X34370317Y-4299392D01*
X34369684Y-5025422D01*
X4009301Y-5025422D01*
X4706545Y-4329394D01*
X5119529Y-3334818D01*
X5120469Y-2257907D01*
X5118855Y-2254000D01*
X77115776Y-2254000D01*
X77115776Y-4286000D01*
X77162843Y-4536140D01*
X77310676Y-4765879D01*
X77536242Y-4920002D01*
X77804000Y-4974224D01*
X79836000Y-4974224D01*
X80086140Y-4927157D01*
X80315879Y-4779324D01*
X80399935Y-4656305D01*
X80712882Y-4865409D01*
X81360000Y-4994129D01*
X82007118Y-4865409D01*
X82555718Y-4498847D01*
X82922280Y-3950247D01*
X83051000Y-3303129D01*
X83051000Y-3236871D01*
X82922280Y-2589753D01*
X82555718Y-2041153D01*
X82007118Y-1674591D01*
X81360000Y-1545871D01*
X80712882Y-1674591D01*
X80399864Y-1883743D01*
X80329324Y-1774121D01*
X80103758Y-1619998D01*
X79836000Y-1565776D01*
X77804000Y-1565776D01*
X77553860Y-1612843D01*
X77324121Y-1760676D01*
X77169998Y-1986242D01*
X77115776Y-2254000D01*
X5118855Y-2254000D01*
X4709221Y-1262611D01*
X3948394Y-500455D01*
X3164611Y-175000D01*
X86699432Y-175000D01*
X86225611Y-370779D01*
X86225611Y-370779D01*
G37*
X86225611Y-370779D02*
X85463455Y-1131606D01*
X85050471Y-2126182D01*
X85049531Y-3203093D01*
X85460779Y-4198389D01*
X86221606Y-4960545D01*
X87216182Y-5373529D01*
X88293093Y-5374469D01*
X89288389Y-4963221D01*
X89995000Y-4257842D01*
X89995000Y-54434815D01*
X80787625Y-54425092D01*
X79896053Y-53235071D01*
X79844196Y-53188849D01*
X79756000Y-53165000D01*
X72462488Y-53165000D01*
X71540371Y-52242883D01*
X82656986Y-52242883D01*
X82949384Y-52950539D01*
X83490333Y-53492433D01*
X84197478Y-53786065D01*
X84963163Y-53786734D01*
X85670819Y-53494336D01*
X86212713Y-52953387D01*
X86506345Y-52246242D01*
X86507014Y-51480557D01*
X86214616Y-50772901D01*
X85673667Y-50231007D01*
X84966522Y-49937375D01*
X84200837Y-49936706D01*
X83493181Y-50229104D01*
X82951287Y-50770053D01*
X82657655Y-51477198D01*
X82656986Y-52242883D01*
X71540371Y-52242883D01*
X69041011Y-49743523D01*
X77617626Y-49743523D01*
X77910024Y-50451179D01*
X78450973Y-50993073D01*
X79158118Y-51286705D01*
X79923803Y-51287374D01*
X80631459Y-50994976D01*
X81173353Y-50454027D01*
X81466985Y-49746882D01*
X81467654Y-48981197D01*
X81175256Y-48273541D01*
X80634307Y-47731647D01*
X79927162Y-47438015D01*
X79161477Y-47437346D01*
X78453821Y-47729744D01*
X77911927Y-48270693D01*
X77618295Y-48977838D01*
X77617626Y-49743523D01*
X69041011Y-49743523D01*
X66541651Y-47244163D01*
X82656986Y-47244163D01*
X82949384Y-47951819D01*
X83490333Y-48493713D01*
X84197478Y-48787345D01*
X84963163Y-48788014D01*
X85670819Y-48495616D01*
X86212713Y-47954667D01*
X86506345Y-47247522D01*
X86507014Y-46481837D01*
X86214616Y-45774181D01*
X85673667Y-45232287D01*
X84966522Y-44938655D01*
X84200837Y-44937986D01*
X83493181Y-45230384D01*
X82951287Y-45771333D01*
X82657655Y-46478478D01*
X82656986Y-47244163D01*
X66541651Y-47244163D01*
X66163744Y-46866256D01*
X66105851Y-46827862D01*
X66040000Y-46815000D01*
X64873500Y-46815000D01*
X64873500Y-46355000D01*
X64807618Y-46023787D01*
X64620001Y-45742999D01*
X64339213Y-45555382D01*
X64175136Y-45522745D01*
X64054251Y-45401649D01*
X63530693Y-45184248D01*
X62963794Y-45183754D01*
X62439857Y-45400240D01*
X62038649Y-45800749D01*
X61821248Y-46324307D01*
X61820820Y-46815000D01*
X59777500Y-46815000D01*
X56556787Y-42520715D01*
X58917677Y-40159825D01*
X59319673Y-40160175D01*
X65371499Y-46212001D01*
X65652287Y-46399618D01*
X65983500Y-46465500D01*
X75281994Y-46465500D01*
X75623249Y-46807351D01*
X76146807Y-47024752D01*
X76713706Y-47025246D01*
X77237643Y-46808760D01*
X77638851Y-46408251D01*
X77856252Y-45884693D01*
X77856746Y-45317794D01*
X77640260Y-44793857D01*
X77239751Y-44392649D01*
X76716193Y-44175248D01*
X76149294Y-44174754D01*
X75625357Y-44391240D01*
X75281498Y-44734500D01*
X71199465Y-44734500D01*
X71565351Y-44369251D01*
X71782752Y-43845693D01*
X71783175Y-43359827D01*
X74983002Y-40160000D01*
X83159776Y-40160000D01*
X83159776Y-43660000D01*
X83206843Y-43910140D01*
X83354676Y-44139879D01*
X83580242Y-44294002D01*
X83848000Y-44348224D01*
X87348000Y-44348224D01*
X87598140Y-44301157D01*
X87827879Y-44153324D01*
X87982002Y-43927758D01*
X88036224Y-43660000D01*
X88036224Y-40160000D01*
X87989157Y-39909860D01*
X87841324Y-39680121D01*
X87615758Y-39525998D01*
X87348000Y-39471776D01*
X83848000Y-39471776D01*
X83597860Y-39518843D01*
X83368121Y-39666676D01*
X83213998Y-39892242D01*
X83159776Y-40160000D01*
X74983002Y-40160000D01*
X76624739Y-38518263D01*
X84021460Y-38518263D01*
X84204553Y-38882317D01*
X85096011Y-39259343D01*
X86063891Y-39266523D01*
X86960845Y-38902765D01*
X86991447Y-38882317D01*
X87174540Y-38518263D01*
X85598000Y-36941723D01*
X84021460Y-38518263D01*
X76624739Y-38518263D01*
X77847111Y-37295891D01*
X83161477Y-37295891D01*
X83525235Y-38192845D01*
X83545683Y-38223447D01*
X83909737Y-38406540D01*
X85486277Y-36830000D01*
X85709723Y-36830000D01*
X87286263Y-38406540D01*
X87650317Y-38223447D01*
X88027343Y-37331989D01*
X88034523Y-36364109D01*
X87670765Y-35467155D01*
X87650317Y-35436553D01*
X87286263Y-35253460D01*
X85709723Y-36830000D01*
X85486277Y-36830000D01*
X83909737Y-35253460D01*
X83545683Y-35436553D01*
X83168657Y-36328011D01*
X83161477Y-37295891D01*
X77847111Y-37295891D01*
X80001265Y-35141737D01*
X84021460Y-35141737D01*
X85598000Y-36718277D01*
X87174540Y-35141737D01*
X86991447Y-34777683D01*
X86099989Y-34400657D01*
X85132109Y-34393477D01*
X84235155Y-34757235D01*
X84204553Y-34777683D01*
X84021460Y-35141737D01*
X80001265Y-35141737D01*
X80368001Y-34775001D01*
X80379872Y-34757235D01*
X80555618Y-34494213D01*
X80621500Y-34163000D01*
X80621500Y-22192502D01*
X82482001Y-20332001D01*
X82669618Y-20051213D01*
X82735500Y-19720000D01*
X82735500Y-16151502D01*
X83428677Y-15458325D01*
X83911706Y-15458746D01*
X84435643Y-15242260D01*
X84836851Y-14841751D01*
X85054252Y-14318193D01*
X85054746Y-13751294D01*
X84838260Y-13227357D01*
X84437751Y-12826149D01*
X83914193Y-12608748D01*
X83347294Y-12608254D01*
X82823357Y-12824740D01*
X82422149Y-13225249D01*
X82204748Y-13748807D01*
X82204325Y-14234673D01*
X81257999Y-15180999D01*
X81070382Y-15461787D01*
X81004500Y-15793000D01*
X81004500Y-19361498D01*
X79351500Y-21014498D01*
X79351500Y-20603447D01*
X79727351Y-20228251D01*
X79944752Y-19704693D01*
X79945246Y-19137794D01*
X79728760Y-18613857D01*
X79328251Y-18212649D01*
X78804693Y-17995248D01*
X78237794Y-17994754D01*
X77713857Y-18211240D01*
X77312649Y-18611749D01*
X77095248Y-19135307D01*
X77094754Y-19702206D01*
X77311240Y-20226143D01*
X77620500Y-20535943D01*
X77620500Y-30756498D01*
X68590323Y-39786675D01*
X68107294Y-39786254D01*
X67583357Y-40002740D01*
X67182149Y-40403249D01*
X66964748Y-40926807D01*
X66964254Y-41493706D01*
X67180740Y-42017643D01*
X67581249Y-42418851D01*
X68104807Y-42636252D01*
X68671706Y-42636746D01*
X69195643Y-42420260D01*
X69596851Y-42019751D01*
X69814252Y-41496193D01*
X69814675Y-41010327D01*
X78890500Y-31934502D01*
X78890500Y-33804498D01*
X70558823Y-42136175D01*
X70075794Y-42135754D01*
X69551857Y-42352240D01*
X69150649Y-42752749D01*
X68933248Y-43276307D01*
X68932754Y-43843206D01*
X69149240Y-44367143D01*
X69515957Y-44734500D01*
X66342002Y-44734500D01*
X61081002Y-39473500D01*
X64770000Y-39473500D01*
X65101213Y-39407618D01*
X65382001Y-39220001D01*
X72938501Y-31663501D01*
X73079327Y-31452740D01*
X73126118Y-31382713D01*
X73192000Y-31051500D01*
X73192000Y-9604500D01*
X85086871Y-9604500D01*
X85203990Y-10193297D01*
X85537517Y-10692454D01*
X85809967Y-10874500D01*
X85537517Y-11056546D01*
X85203990Y-11555703D01*
X85086871Y-12144500D01*
X85203990Y-12733297D01*
X85537517Y-13232454D01*
X85809967Y-13414500D01*
X85537517Y-13596546D01*
X85203990Y-14095703D01*
X85086871Y-14684500D01*
X85203990Y-15273297D01*
X85537517Y-15772454D01*
X85809967Y-15954500D01*
X85537517Y-16136546D01*
X85203990Y-16635703D01*
X85086871Y-17224500D01*
X85203990Y-17813297D01*
X85537517Y-18312454D01*
X85809967Y-18494500D01*
X85537517Y-18676546D01*
X85203990Y-19175703D01*
X85086871Y-19764500D01*
X85203990Y-20353297D01*
X85537517Y-20852454D01*
X85809967Y-21034500D01*
X85537517Y-21216546D01*
X85203990Y-21715703D01*
X85086871Y-22304500D01*
X85203990Y-22893297D01*
X85537517Y-23392454D01*
X85809967Y-23574500D01*
X85537517Y-23756546D01*
X85203990Y-24255703D01*
X85086871Y-24844500D01*
X85203990Y-25433297D01*
X85537517Y-25932454D01*
X86036674Y-26265981D01*
X86625471Y-26383100D01*
X86996529Y-26383100D01*
X87585326Y-26265981D01*
X88084483Y-25932454D01*
X88418010Y-25433297D01*
X88535129Y-24844500D01*
X88418010Y-24255703D01*
X88084483Y-23756546D01*
X87812033Y-23574500D01*
X88084483Y-23392454D01*
X88418010Y-22893297D01*
X88535129Y-22304500D01*
X88418010Y-21715703D01*
X88084483Y-21216546D01*
X87812033Y-21034500D01*
X88084483Y-20852454D01*
X88418010Y-20353297D01*
X88535129Y-19764500D01*
X88418010Y-19175703D01*
X88084483Y-18676546D01*
X87812033Y-18494500D01*
X88084483Y-18312454D01*
X88418010Y-17813297D01*
X88535129Y-17224500D01*
X88418010Y-16635703D01*
X88084483Y-16136546D01*
X87812033Y-15954500D01*
X88084483Y-15772454D01*
X88418010Y-15273297D01*
X88535129Y-14684500D01*
X88418010Y-14095703D01*
X88084483Y-13596546D01*
X87812033Y-13414500D01*
X88084483Y-13232454D01*
X88418010Y-12733297D01*
X88535129Y-12144500D01*
X88418010Y-11555703D01*
X88084483Y-11056546D01*
X87812033Y-10874500D01*
X88084483Y-10692454D01*
X88418010Y-10193297D01*
X88535129Y-9604500D01*
X88418010Y-9015703D01*
X88106905Y-8550103D01*
X88306879Y-8421424D01*
X88461002Y-8195858D01*
X88515224Y-7928100D01*
X88515224Y-6200900D01*
X88468157Y-5950760D01*
X88320324Y-5721021D01*
X88094758Y-5566898D01*
X87827000Y-5512676D01*
X85795000Y-5512676D01*
X85544860Y-5559743D01*
X85315121Y-5707576D01*
X85160998Y-5933142D01*
X85106776Y-6200900D01*
X85106776Y-7928100D01*
X85153843Y-8178240D01*
X85301676Y-8407979D01*
X85513398Y-8552643D01*
X85203990Y-9015703D01*
X85086871Y-9604500D01*
X73192000Y-9604500D01*
X73192000Y-7626506D01*
X73533851Y-7285251D01*
X73751252Y-6761693D01*
X73751746Y-6194794D01*
X73535260Y-5670857D01*
X73134751Y-5269649D01*
X72611193Y-5052248D01*
X72044294Y-5051754D01*
X71520357Y-5268240D01*
X71119149Y-5668749D01*
X70901748Y-6192307D01*
X70901254Y-6759206D01*
X71117740Y-7283143D01*
X71461000Y-7627002D01*
X71461000Y-30692998D01*
X64411498Y-37742500D01*
X60141228Y-37742500D01*
X60086059Y-37687235D01*
X60262351Y-37511251D01*
X60479752Y-36987693D01*
X60480246Y-36420794D01*
X60263760Y-35896857D01*
X59927365Y-35559875D01*
X60135351Y-35352251D01*
X60322520Y-34901500D01*
X64008000Y-34901500D01*
X64339213Y-34835618D01*
X64620001Y-34648001D01*
X69065001Y-30203001D01*
X69252618Y-29922213D01*
X69318500Y-29591000D01*
X69318500Y-15176500D01*
X69252618Y-14845287D01*
X69065001Y-14564499D01*
X68290325Y-13789823D01*
X68290746Y-13306794D01*
X68074260Y-12782857D01*
X67673751Y-12381649D01*
X67150193Y-12164248D01*
X66583294Y-12163754D01*
X66059357Y-12380240D01*
X65658149Y-12780749D01*
X65440748Y-13304307D01*
X65440254Y-13871206D01*
X65656740Y-14395143D01*
X65802746Y-14541404D01*
X65658149Y-14685749D01*
X65440748Y-15209307D01*
X65440254Y-15776206D01*
X65656740Y-16300143D01*
X66057249Y-16701351D01*
X66580807Y-16918752D01*
X66635000Y-16918799D01*
X66635000Y-28660998D01*
X63395498Y-31900500D01*
X58483500Y-31900500D01*
X58152287Y-31966382D01*
X57871499Y-32153999D01*
X56093499Y-33931999D01*
X55960154Y-34131564D01*
X55927147Y-31425000D01*
X61000000Y-31425000D01*
X61068085Y-31411212D01*
X61125441Y-31372022D01*
X61163032Y-31313605D01*
X61174999Y-31249480D01*
X61155979Y-24844500D01*
X62086871Y-24844500D01*
X62203990Y-25433297D01*
X62537517Y-25932454D01*
X63036674Y-26265981D01*
X63625471Y-26383100D01*
X63996529Y-26383100D01*
X64585326Y-26265981D01*
X65084483Y-25932454D01*
X65418010Y-25433297D01*
X65535129Y-24844500D01*
X65418010Y-24255703D01*
X65084483Y-23756546D01*
X64813901Y-23575748D01*
X65172993Y-23274048D01*
X65451948Y-22737354D01*
X65476606Y-22624153D01*
X65336980Y-22383500D01*
X63890000Y-22383500D01*
X63890000Y-22403500D01*
X63732000Y-22403500D01*
X63732000Y-22383500D01*
X62285020Y-22383500D01*
X62145394Y-22624153D01*
X62170052Y-22737354D01*
X62449007Y-23274048D01*
X62808099Y-23575748D01*
X62537517Y-23756546D01*
X62203990Y-24255703D01*
X62086871Y-24844500D01*
X61155979Y-24844500D01*
X61153364Y-23963969D01*
X61312879Y-23861324D01*
X61467002Y-23635758D01*
X61521224Y-23368000D01*
X61521224Y-21336000D01*
X61474157Y-21085860D01*
X61326324Y-20856121D01*
X61203305Y-20772065D01*
X61412409Y-20459118D01*
X61541129Y-19812000D01*
X61412409Y-19164882D01*
X61137893Y-18754039D01*
X61135000Y-17779817D01*
X61135000Y-13885117D01*
X61385143Y-13781760D01*
X61786351Y-13381251D01*
X62003752Y-12857693D01*
X62004246Y-12290794D01*
X61787760Y-11766857D01*
X61387251Y-11365649D01*
X60863693Y-11148248D01*
X60296794Y-11147754D01*
X59772857Y-11364240D01*
X59371649Y-11764749D01*
X59154248Y-12288307D01*
X59154175Y-12371823D01*
X59000998Y-12525000D01*
X57675343Y-12525000D01*
X57857770Y-12059926D01*
X57847753Y-11529721D01*
X57664123Y-11086395D01*
X57414303Y-11037419D01*
X56631723Y-11820000D01*
X56645865Y-11834142D01*
X56534142Y-11945865D01*
X56520000Y-11931723D01*
X56505858Y-11945865D01*
X56394135Y-11834142D01*
X56408277Y-11820000D01*
X55625697Y-11037419D01*
X55375877Y-11086395D01*
X55182230Y-11580074D01*
X55192247Y-12110279D01*
X55364029Y-12525000D01*
X52847086Y-12525000D01*
X52858224Y-12470000D01*
X52858224Y-11170000D01*
X52812256Y-10925697D01*
X55737419Y-10925697D01*
X56520000Y-11708277D01*
X57302581Y-10925697D01*
X57253605Y-10675877D01*
X56759926Y-10482230D01*
X56229721Y-10492247D01*
X55786395Y-10675877D01*
X55737419Y-10925697D01*
X52812256Y-10925697D01*
X52811157Y-10919860D01*
X52663324Y-10690121D01*
X52437758Y-10535998D01*
X52170000Y-10481776D01*
X50870000Y-10481776D01*
X50619860Y-10528843D01*
X50390121Y-10676676D01*
X50235998Y-10902242D01*
X50181776Y-11170000D01*
X50181776Y-12470000D01*
X50192125Y-12525000D01*
X48313298Y-12525000D01*
X48215409Y-12032882D01*
X47848847Y-11484282D01*
X47300247Y-11117720D01*
X46653129Y-10989000D01*
X46586871Y-10989000D01*
X46361081Y-11033912D01*
X46780143Y-10860760D01*
X47181351Y-10460251D01*
X47398752Y-9936693D01*
X47399041Y-9604500D01*
X62086871Y-9604500D01*
X62203990Y-10193297D01*
X62537517Y-10692454D01*
X62809967Y-10874500D01*
X62537517Y-11056546D01*
X62203990Y-11555703D01*
X62086871Y-12144500D01*
X62203990Y-12733297D01*
X62537517Y-13232454D01*
X62809967Y-13414500D01*
X62537517Y-13596546D01*
X62203990Y-14095703D01*
X62086871Y-14684500D01*
X62203990Y-15273297D01*
X62537517Y-15772454D01*
X62809967Y-15954500D01*
X62537517Y-16136546D01*
X62203990Y-16635703D01*
X62086871Y-17224500D01*
X62203990Y-17813297D01*
X62537517Y-18312454D01*
X62809967Y-18494500D01*
X62537517Y-18676546D01*
X62203990Y-19175703D01*
X62086871Y-19764500D01*
X62203990Y-20353297D01*
X62537517Y-20852454D01*
X62808099Y-21033252D01*
X62449007Y-21334952D01*
X62170052Y-21871646D01*
X62145394Y-21984847D01*
X62285020Y-22225500D01*
X63732000Y-22225500D01*
X63732000Y-22205500D01*
X63890000Y-22205500D01*
X63890000Y-22225500D01*
X65336980Y-22225500D01*
X65476606Y-21984847D01*
X65451948Y-21871646D01*
X65172993Y-21334952D01*
X64813901Y-21033252D01*
X65084483Y-20852454D01*
X65418010Y-20353297D01*
X65535129Y-19764500D01*
X65418010Y-19175703D01*
X65084483Y-18676546D01*
X64812033Y-18494500D01*
X65084483Y-18312454D01*
X65418010Y-17813297D01*
X65535129Y-17224500D01*
X65418010Y-16635703D01*
X65084483Y-16136546D01*
X64812033Y-15954500D01*
X65084483Y-15772454D01*
X65418010Y-15273297D01*
X65535129Y-14684500D01*
X65418010Y-14095703D01*
X65084483Y-13596546D01*
X64812033Y-13414500D01*
X65084483Y-13232454D01*
X65418010Y-12733297D01*
X65535129Y-12144500D01*
X65418010Y-11555703D01*
X65084483Y-11056546D01*
X64812033Y-10874500D01*
X65084483Y-10692454D01*
X65418010Y-10193297D01*
X65535129Y-9604500D01*
X65531947Y-9588500D01*
X65776371Y-9588500D01*
X65905091Y-10235618D01*
X66271653Y-10784218D01*
X66820253Y-11150780D01*
X67467371Y-11279500D01*
X67533629Y-11279500D01*
X68180747Y-11150780D01*
X68729347Y-10784218D01*
X69095909Y-10235618D01*
X69224629Y-9588500D01*
X69095909Y-8941382D01*
X68886757Y-8628364D01*
X68996379Y-8557824D01*
X69150502Y-8332258D01*
X69204724Y-8064500D01*
X69204724Y-6032500D01*
X69157657Y-5782360D01*
X69009824Y-5552621D01*
X68784258Y-5398498D01*
X68516500Y-5344276D01*
X66484500Y-5344276D01*
X66234360Y-5391343D01*
X66004621Y-5539176D01*
X65850498Y-5764742D01*
X65796276Y-6032500D01*
X65796276Y-8064500D01*
X65843343Y-8314640D01*
X65991176Y-8544379D01*
X66114195Y-8628435D01*
X65905091Y-8941382D01*
X65776371Y-9588500D01*
X65531947Y-9588500D01*
X65418010Y-9015703D01*
X65106905Y-8550103D01*
X65306879Y-8421424D01*
X65461002Y-8195858D01*
X65515224Y-7928100D01*
X65515224Y-6200900D01*
X65468157Y-5950760D01*
X65320324Y-5721021D01*
X65094758Y-5566898D01*
X64827000Y-5512676D01*
X62795000Y-5512676D01*
X62544860Y-5559743D01*
X62315121Y-5707576D01*
X62160998Y-5933142D01*
X62106776Y-6200900D01*
X62106776Y-7928100D01*
X62153843Y-8178240D01*
X62301676Y-8407979D01*
X62513398Y-8552643D01*
X62203990Y-9015703D01*
X62086871Y-9604500D01*
X47399041Y-9604500D01*
X47399246Y-9369794D01*
X47235501Y-8973500D01*
X48200750Y-8973500D01*
X48371500Y-8802750D01*
X48371500Y-6619500D01*
X48529500Y-6619500D01*
X48529500Y-8802750D01*
X48700250Y-8973500D01*
X50336357Y-8973500D01*
X50587388Y-8869519D01*
X50779519Y-8677389D01*
X50883500Y-8426357D01*
X50883500Y-7020746D01*
X51105080Y-7020746D01*
X51473486Y-7912358D01*
X52155054Y-8595117D01*
X53046021Y-8965079D01*
X54010746Y-8965920D01*
X54902358Y-8597514D01*
X55585117Y-7915946D01*
X55955079Y-7024979D01*
X55955082Y-7020746D01*
X56185080Y-7020746D01*
X56553486Y-7912358D01*
X57235054Y-8595117D01*
X58126021Y-8965079D01*
X59090746Y-8965920D01*
X59982358Y-8597514D01*
X60665117Y-7915946D01*
X61035079Y-7024979D01*
X61035920Y-6060254D01*
X60667514Y-5168642D01*
X59985946Y-4485883D01*
X59094979Y-4115921D01*
X58130254Y-4115080D01*
X57238642Y-4483486D01*
X56555883Y-5165054D01*
X56185921Y-6056021D01*
X56185080Y-7020746D01*
X55955082Y-7020746D01*
X55955920Y-6060254D01*
X55587514Y-5168642D01*
X54905946Y-4485883D01*
X54014979Y-4115921D01*
X53050254Y-4115080D01*
X52158642Y-4483486D01*
X51475883Y-5165054D01*
X51105921Y-6056021D01*
X51105080Y-7020746D01*
X50883500Y-7020746D01*
X50883500Y-6790250D01*
X50712750Y-6619500D01*
X48529500Y-6619500D01*
X48371500Y-6619500D01*
X46188250Y-6619500D01*
X46017500Y-6790250D01*
X46017500Y-8227038D01*
X45691794Y-8226754D01*
X45167857Y-8443240D01*
X44766649Y-8843749D01*
X44549248Y-9367307D01*
X44548840Y-9835198D01*
X43067019Y-11317019D01*
X42876649Y-11601927D01*
X42809800Y-11938000D01*
X42809800Y-16146238D01*
X29314491Y-29641547D01*
X29323512Y-29619822D01*
X29324445Y-28550868D01*
X28916236Y-27562925D01*
X28161030Y-26806401D01*
X27173802Y-26396468D01*
X26104848Y-26395535D01*
X25116905Y-26803744D01*
X24360381Y-27558950D01*
X24137578Y-28095518D01*
X23917516Y-27562925D01*
X23162310Y-26806401D01*
X22175082Y-26396468D01*
X21106128Y-26395535D01*
X20118185Y-26803744D01*
X19361661Y-27558950D01*
X18951728Y-28546178D01*
X18950795Y-29615132D01*
X19359004Y-30603075D01*
X20114210Y-31359599D01*
X21101438Y-31769532D01*
X22170392Y-31770465D01*
X23158335Y-31362256D01*
X23914859Y-30607050D01*
X24137662Y-30070482D01*
X24357724Y-30603075D01*
X25112930Y-31359599D01*
X26100158Y-31769532D01*
X27169112Y-31770465D01*
X27197164Y-31758874D01*
X25836879Y-33119159D01*
X25371794Y-33118754D01*
X24847857Y-33335240D01*
X24446649Y-33735749D01*
X24229248Y-34259307D01*
X24228938Y-34614726D01*
X24159849Y-34545516D01*
X23452586Y-34251835D01*
X22686774Y-34251167D01*
X21979000Y-34543613D01*
X21437016Y-35084651D01*
X21143335Y-35791914D01*
X21142667Y-36557726D01*
X21435113Y-37265500D01*
X21976151Y-37807484D01*
X22683414Y-38101165D01*
X23449226Y-38101833D01*
X24157000Y-37809387D01*
X24698984Y-37268349D01*
X24992665Y-36561086D01*
X24993318Y-35812627D01*
X25369307Y-35968752D01*
X25936206Y-35969246D01*
X26141632Y-35884366D01*
X13192646Y-48833352D01*
X13193377Y-47995764D01*
X12862951Y-47196071D01*
X12251647Y-46583700D01*
X11452532Y-46251878D01*
X10587264Y-46251123D01*
X9787571Y-46581549D01*
X9175200Y-47192853D01*
X8843378Y-47991968D01*
X8842623Y-48857236D01*
X9173049Y-49656929D01*
X9784353Y-50269300D01*
X10583468Y-50601122D01*
X11448736Y-50601877D01*
X11802377Y-50455756D01*
X11771000Y-50613500D01*
X11771000Y-52888994D01*
X11429149Y-53230249D01*
X11211748Y-53753807D01*
X11211254Y-54320706D01*
X11427740Y-54844643D01*
X11828249Y-55245851D01*
X12351807Y-55463252D01*
X12918706Y-55463746D01*
X13442643Y-55247260D01*
X13843851Y-54846751D01*
X14060001Y-54326205D01*
X14221740Y-54717643D01*
X14622249Y-55118851D01*
X15145807Y-55336252D01*
X15712706Y-55336746D01*
X16236643Y-55120260D01*
X16637851Y-54719751D01*
X16855252Y-54196193D01*
X16855675Y-53710327D01*
X18138502Y-52427500D01*
X22860000Y-52427500D01*
X22891750Y-52421185D01*
X22923500Y-52427500D01*
X23962143Y-52427500D01*
X23955572Y-54435000D01*
X19050000Y-54435000D01*
X18981915Y-54448788D01*
X18926256Y-54486256D01*
X16386256Y-57026256D01*
X16347862Y-57084149D01*
X16335000Y-57150000D01*
X16335000Y-70945000D01*
X175000Y-70945000D01*
X175000Y-68875568D01*
X370779Y-69349389D01*
X1131606Y-70111545D01*
X2126182Y-70524529D01*
X3203093Y-70525469D01*
X4198389Y-70114221D01*
X4960545Y-69353394D01*
X5373529Y-68358818D01*
X5374469Y-67281907D01*
X4963221Y-66286611D01*
X4202394Y-65524455D01*
X3207818Y-65111471D01*
X2130907Y-65110531D01*
X1135611Y-65521779D01*
X373455Y-66282606D01*
X175000Y-66760539D01*
X175000Y-44097000D01*
X1866644Y-44097000D01*
X1866644Y-47597000D01*
X1931980Y-47944231D01*
X2137193Y-48263142D01*
X2450313Y-48477087D01*
X2822000Y-48552356D01*
X3282782Y-48552356D01*
X3051925Y-48647744D01*
X2295401Y-49402950D01*
X1885468Y-50390178D01*
X1884535Y-51459132D01*
X2292744Y-52447075D01*
X3047950Y-53203599D01*
X4035178Y-53613532D01*
X5104132Y-53614465D01*
X6092075Y-53206256D01*
X6848599Y-52451050D01*
X7258532Y-51463822D01*
X7259465Y-50394868D01*
X6851256Y-49406925D01*
X6096050Y-48650401D01*
X5859931Y-48552356D01*
X6322000Y-48552356D01*
X6669231Y-48487020D01*
X6988142Y-48281807D01*
X7202087Y-47968687D01*
X7277356Y-47597000D01*
X7277356Y-44097000D01*
X7212020Y-43749769D01*
X7006807Y-43430858D01*
X6693687Y-43216913D01*
X6322000Y-43141644D01*
X2822000Y-43141644D01*
X2474769Y-43206980D01*
X2155858Y-43412193D01*
X1941913Y-43725313D01*
X1866644Y-44097000D01*
X175000Y-44097000D01*
X175000Y-38636000D01*
X1866644Y-38636000D01*
X1866644Y-42136000D01*
X1931980Y-42483231D01*
X2137193Y-42802142D01*
X2450313Y-43016087D01*
X2822000Y-43091356D01*
X6322000Y-43091356D01*
X6669231Y-43026020D01*
X6988142Y-42820807D01*
X7202087Y-42507687D01*
X7277356Y-42136000D01*
X7277356Y-38636000D01*
X7212020Y-38288769D01*
X7006807Y-37969858D01*
X6693687Y-37755913D01*
X6322000Y-37680644D01*
X5861218Y-37680644D01*
X6092075Y-37585256D01*
X6848599Y-36830050D01*
X6961677Y-36557726D01*
X9142667Y-36557726D01*
X9435113Y-37265500D01*
X9976151Y-37807484D01*
X10683414Y-38101165D01*
X11449226Y-38101833D01*
X12157000Y-37809387D01*
X12698984Y-37268349D01*
X12992665Y-36561086D01*
X12993333Y-35795274D01*
X12700887Y-35087500D01*
X12323171Y-34709123D01*
X14580578Y-34709123D01*
X14950807Y-35605146D01*
X15635748Y-36291284D01*
X16531124Y-36663076D01*
X17500623Y-36663922D01*
X18396646Y-36293693D01*
X19082784Y-35608752D01*
X19454576Y-34713376D01*
X19455422Y-33743877D01*
X19085193Y-32847854D01*
X18400252Y-32161716D01*
X17504876Y-31789924D01*
X16535377Y-31789078D01*
X15639354Y-32159307D01*
X14953216Y-32844248D01*
X14581424Y-33739624D01*
X14580578Y-34709123D01*
X12323171Y-34709123D01*
X12159849Y-34545516D01*
X11452586Y-34251835D01*
X10686774Y-34251167D01*
X9979000Y-34543613D01*
X9437016Y-35084651D01*
X9143335Y-35791914D01*
X9142667Y-36557726D01*
X6961677Y-36557726D01*
X7258532Y-35842822D01*
X7259465Y-34773868D01*
X6851256Y-33785925D01*
X6096050Y-33029401D01*
X5108822Y-32619468D01*
X4039868Y-32618535D01*
X3051925Y-33026744D01*
X2295401Y-33781950D01*
X1885468Y-34769178D01*
X1884535Y-35838132D01*
X2292744Y-36826075D01*
X3047950Y-37582599D01*
X3284069Y-37680644D01*
X2822000Y-37680644D01*
X2474769Y-37745980D01*
X2155858Y-37951193D01*
X1941913Y-38264313D01*
X1866644Y-38636000D01*
X175000Y-38636000D01*
X175000Y-29615132D01*
X3949555Y-29615132D01*
X4357764Y-30603075D01*
X5112970Y-31359599D01*
X6100198Y-31769532D01*
X7169152Y-31770465D01*
X8157095Y-31362256D01*
X8913619Y-30607050D01*
X9136422Y-30070482D01*
X9356484Y-30603075D01*
X10111690Y-31359599D01*
X11098918Y-31769532D01*
X12167872Y-31770465D01*
X13155815Y-31362256D01*
X13912339Y-30607050D01*
X14322272Y-29619822D01*
X14323205Y-28550868D01*
X13914996Y-27562925D01*
X13159790Y-26806401D01*
X12172562Y-26396468D01*
X11103608Y-26395535D01*
X10115665Y-26803744D01*
X9359141Y-27558950D01*
X9136338Y-28095518D01*
X8916276Y-27562925D01*
X8161070Y-26806401D01*
X7173842Y-26396468D01*
X6104888Y-26395535D01*
X5116945Y-26803744D01*
X4360421Y-27558950D01*
X3950488Y-28546178D01*
X3949555Y-29615132D01*
X175000Y-29615132D01*
X175000Y-22257309D01*
X8707638Y-22257309D01*
X9024696Y-23024646D01*
X9611266Y-23612241D01*
X10378049Y-23930637D01*
X11208309Y-23931362D01*
X11975646Y-23614304D01*
X12563241Y-23027734D01*
X12881637Y-22260951D01*
X12881640Y-22257309D01*
X13787638Y-22257309D01*
X14104696Y-23024646D01*
X14691266Y-23612241D01*
X15458049Y-23930637D01*
X16288309Y-23931362D01*
X17055646Y-23614304D01*
X17643241Y-23027734D01*
X17961637Y-22260951D01*
X17962362Y-21430691D01*
X17645304Y-20663354D01*
X17058734Y-20075759D01*
X16291951Y-19757363D01*
X15461691Y-19756638D01*
X14694354Y-20073696D01*
X14106759Y-20660266D01*
X13788363Y-21427049D01*
X13787638Y-22257309D01*
X12881640Y-22257309D01*
X12882362Y-21430691D01*
X12565304Y-20663354D01*
X11978734Y-20075759D01*
X11211951Y-19757363D01*
X10381691Y-19756638D01*
X9614354Y-20073696D01*
X9026759Y-20660266D01*
X8708363Y-21427049D01*
X8707638Y-22257309D01*
X175000Y-22257309D01*
X175000Y-4383712D01*
X877606Y-5087545D01*
X1872182Y-5500529D01*
X2949093Y-5501469D01*
X3944389Y-5090221D01*
X4009301Y-5025422D01*
X34369684Y-5025422D01*
X34646938Y-5696429D01*
X35159871Y-6210258D01*
X35830392Y-6488683D01*
X36556422Y-6489316D01*
X37227429Y-6212062D01*
X37520660Y-5919342D01*
X40131381Y-5919342D01*
X40241375Y-6221065D01*
X40915918Y-6498091D01*
X41645128Y-6495894D01*
X42308625Y-6221065D01*
X42418619Y-5919342D01*
X41275000Y-4775723D01*
X40131381Y-5919342D01*
X37520660Y-5919342D01*
X37741258Y-5699129D01*
X38019683Y-5028608D01*
X38020313Y-4304918D01*
X39440909Y-4304918D01*
X39443106Y-5034128D01*
X39717935Y-5697625D01*
X40019658Y-5807619D01*
X41163277Y-4664000D01*
X41386723Y-4664000D01*
X42530342Y-5807619D01*
X42832065Y-5697625D01*
X43109091Y-5023082D01*
X43107981Y-4654643D01*
X46017500Y-4654643D01*
X46017500Y-6290750D01*
X46188250Y-6461500D01*
X48371500Y-6461500D01*
X48371500Y-4278250D01*
X48529500Y-4278250D01*
X48529500Y-6461500D01*
X50712750Y-6461500D01*
X50883500Y-6290750D01*
X50883500Y-4654643D01*
X50779519Y-4403611D01*
X50587388Y-4211481D01*
X50336357Y-4107500D01*
X48700250Y-4107500D01*
X48529500Y-4278250D01*
X48371500Y-4278250D01*
X48200750Y-4107500D01*
X46564643Y-4107500D01*
X46313612Y-4211481D01*
X46121481Y-4403611D01*
X46017500Y-4654643D01*
X43107981Y-4654643D01*
X43106894Y-4293872D01*
X42832065Y-3630375D01*
X42530342Y-3520381D01*
X41386723Y-4664000D01*
X41163277Y-4664000D01*
X40019658Y-3520381D01*
X39717935Y-3630375D01*
X39440909Y-4304918D01*
X38020313Y-4304918D01*
X38020316Y-4302578D01*
X37743062Y-3631571D01*
X37520538Y-3408658D01*
X40131381Y-3408658D01*
X41275000Y-4552277D01*
X42418619Y-3408658D01*
X42308625Y-3106935D01*
X41634082Y-2829909D01*
X40904872Y-2832106D01*
X40241375Y-3106935D01*
X40131381Y-3408658D01*
X37520538Y-3408658D01*
X37230129Y-3117742D01*
X36559608Y-2839317D01*
X35833578Y-2838684D01*
X35162571Y-3115938D01*
X34648742Y-3628871D01*
X34370317Y-4299392D01*
X34369684Y-5025422D01*
X4009301Y-5025422D01*
X4706545Y-4329394D01*
X5119529Y-3334818D01*
X5120469Y-2257907D01*
X5118855Y-2254000D01*
X77115776Y-2254000D01*
X77115776Y-4286000D01*
X77162843Y-4536140D01*
X77310676Y-4765879D01*
X77536242Y-4920002D01*
X77804000Y-4974224D01*
X79836000Y-4974224D01*
X80086140Y-4927157D01*
X80315879Y-4779324D01*
X80399935Y-4656305D01*
X80712882Y-4865409D01*
X81360000Y-4994129D01*
X82007118Y-4865409D01*
X82555718Y-4498847D01*
X82922280Y-3950247D01*
X83051000Y-3303129D01*
X83051000Y-3236871D01*
X82922280Y-2589753D01*
X82555718Y-2041153D01*
X82007118Y-1674591D01*
X81360000Y-1545871D01*
X80712882Y-1674591D01*
X80399864Y-1883743D01*
X80329324Y-1774121D01*
X80103758Y-1619998D01*
X79836000Y-1565776D01*
X77804000Y-1565776D01*
X77553860Y-1612843D01*
X77324121Y-1760676D01*
X77169998Y-1986242D01*
X77115776Y-2254000D01*
X5118855Y-2254000D01*
X4709221Y-1262611D01*
X3948394Y-500455D01*
X3164611Y-175000D01*
X86699432Y-175000D01*
X86225611Y-370779D01*
G36*
X44915776Y-20586000D02*
X44962843Y-20836140D01*
X45110676Y-21065879D01*
X45233695Y-21149935D01*
X45024591Y-21462882D01*
X44895871Y-22110000D01*
X45024591Y-22757118D01*
X45391153Y-23305718D01*
X45579744Y-23431730D01*
X41527001Y-27525000D01*
X35950000Y-27525000D01*
X35881915Y-27538788D01*
X35824559Y-27577978D01*
X35786968Y-27636395D01*
X35775000Y-27700000D01*
X35775000Y-30366855D01*
X35141794Y-30882800D01*
X35297809Y-30489765D01*
X35289357Y-29919744D01*
X35087480Y-29432370D01*
X34827286Y-29371176D01*
X33972463Y-30226000D01*
X33986605Y-30240142D01*
X33874882Y-30351865D01*
X33860740Y-30337723D01*
X33005916Y-31192546D01*
X33067110Y-31452740D01*
X33596975Y-31663069D01*
X34166996Y-31654617D01*
X34223070Y-31631390D01*
X33139457Y-32514334D01*
X33095385Y-32568030D01*
X33075027Y-32646912D01*
X32928061Y-40975000D01*
X30550000Y-40975000D01*
X30481915Y-40988788D01*
X30418021Y-41035080D01*
X29867952Y-41666800D01*
X28829000Y-41666800D01*
X28492927Y-41733649D01*
X28285299Y-41872382D01*
X28208019Y-41924019D01*
X26938019Y-43194019D01*
X26747649Y-43478928D01*
X26680800Y-43815000D01*
X26693500Y-43878847D01*
X26693500Y-45312460D01*
X25164399Y-47068537D01*
X25135193Y-46997854D01*
X24450252Y-46311716D01*
X23554876Y-45939924D01*
X22585377Y-45939078D01*
X21689354Y-46309307D01*
X21003216Y-46994248D01*
X20631424Y-47889624D01*
X20630578Y-48859123D01*
X21000807Y-49755146D01*
X21685748Y-50441284D01*
X22300377Y-50696500D01*
X17780000Y-50696500D01*
X17448787Y-50762382D01*
X17237590Y-50903500D01*
X17167999Y-50949999D01*
X15631323Y-52486675D01*
X15148294Y-52486254D01*
X14624357Y-52702740D01*
X14223149Y-53103249D01*
X14006999Y-53623795D01*
X13845260Y-53232357D01*
X13502000Y-52888498D01*
X13502000Y-50972002D01*
X28112001Y-36362001D01*
X28299618Y-36081213D01*
X28365500Y-35750000D01*
X28365500Y-34608502D01*
X32434942Y-30539060D01*
X32634000Y-31019630D01*
X32894194Y-31080824D01*
X33749017Y-30226000D01*
X33734875Y-30211858D01*
X33846598Y-30100135D01*
X33860740Y-30114277D01*
X34715564Y-29259454D01*
X34654370Y-28999260D01*
X34167861Y-28806141D01*
X36858502Y-26115500D01*
X40750000Y-26115500D01*
X41081213Y-26049618D01*
X41362001Y-25862001D01*
X44112001Y-23112001D01*
X44299618Y-22831213D01*
X44365500Y-22500000D01*
X44365500Y-19608502D01*
X44915776Y-19058226D01*
X44915776Y-20586000D01*
X44915776Y-20586000D01*
G37*
X44915776Y-20586000D02*
X44962843Y-20836140D01*
X45110676Y-21065879D01*
X45233695Y-21149935D01*
X45024591Y-21462882D01*
X44895871Y-22110000D01*
X45024591Y-22757118D01*
X45391153Y-23305718D01*
X45579744Y-23431730D01*
X41527001Y-27525000D01*
X35950000Y-27525000D01*
X35881915Y-27538788D01*
X35824559Y-27577978D01*
X35786968Y-27636395D01*
X35775000Y-27700000D01*
X35775000Y-30366855D01*
X35141794Y-30882800D01*
X35297809Y-30489765D01*
X35289357Y-29919744D01*
X35087480Y-29432370D01*
X34827286Y-29371176D01*
X33972463Y-30226000D01*
X33986605Y-30240142D01*
X33874882Y-30351865D01*
X33860740Y-30337723D01*
X33005916Y-31192546D01*
X33067110Y-31452740D01*
X33596975Y-31663069D01*
X34166996Y-31654617D01*
X34223070Y-31631390D01*
X33139457Y-32514334D01*
X33095385Y-32568030D01*
X33075027Y-32646912D01*
X32928061Y-40975000D01*
X30550000Y-40975000D01*
X30481915Y-40988788D01*
X30418021Y-41035080D01*
X29867952Y-41666800D01*
X28829000Y-41666800D01*
X28492927Y-41733649D01*
X28285299Y-41872382D01*
X28208019Y-41924019D01*
X26938019Y-43194019D01*
X26747649Y-43478928D01*
X26680800Y-43815000D01*
X26693500Y-43878847D01*
X26693500Y-45312460D01*
X25164399Y-47068537D01*
X25135193Y-46997854D01*
X24450252Y-46311716D01*
X23554876Y-45939924D01*
X22585377Y-45939078D01*
X21689354Y-46309307D01*
X21003216Y-46994248D01*
X20631424Y-47889624D01*
X20630578Y-48859123D01*
X21000807Y-49755146D01*
X21685748Y-50441284D01*
X22300377Y-50696500D01*
X17780000Y-50696500D01*
X17448787Y-50762382D01*
X17237590Y-50903500D01*
X17167999Y-50949999D01*
X15631323Y-52486675D01*
X15148294Y-52486254D01*
X14624357Y-52702740D01*
X14223149Y-53103249D01*
X14006999Y-53623795D01*
X13845260Y-53232357D01*
X13502000Y-52888498D01*
X13502000Y-50972002D01*
X28112001Y-36362001D01*
X28299618Y-36081213D01*
X28365500Y-35750000D01*
X28365500Y-34608502D01*
X32434942Y-30539060D01*
X32634000Y-31019630D01*
X32894194Y-31080824D01*
X33749017Y-30226000D01*
X33734875Y-30211858D01*
X33846598Y-30100135D01*
X33860740Y-30114277D01*
X34715564Y-29259454D01*
X34654370Y-28999260D01*
X34167861Y-28806141D01*
X36858502Y-26115500D01*
X40750000Y-26115500D01*
X41081213Y-26049618D01*
X41362001Y-25862001D01*
X44112001Y-23112001D01*
X44299618Y-22831213D01*
X44365500Y-22500000D01*
X44365500Y-19608502D01*
X44915776Y-19058226D01*
X44915776Y-20586000D01*
G36*
X70185254Y-53163034D02*
X70187049Y-53222270D01*
X70202893Y-53289906D01*
X70238225Y-53340713D01*
X70945000Y-54047488D01*
X70945000Y-61420000D01*
X64207488Y-61420000D01*
X59178744Y-56391256D01*
X59120851Y-56352862D01*
X59055000Y-56340000D01*
X58338098Y-56340000D01*
X57949049Y-55950951D01*
X57926450Y-55935851D01*
X58166000Y-55983500D01*
X59563000Y-55983500D01*
X59894213Y-55917618D01*
X60175001Y-55730001D01*
X64620001Y-51285001D01*
X64807618Y-51004213D01*
X64873500Y-50673000D01*
X64873500Y-48092723D01*
X70185254Y-53163034D01*
X70185254Y-53163034D01*
G37*
X70185254Y-53163034D02*
X70187049Y-53222270D01*
X70202893Y-53289906D01*
X70238225Y-53340713D01*
X70945000Y-54047488D01*
X70945000Y-61420000D01*
X64207488Y-61420000D01*
X59178744Y-56391256D01*
X59120851Y-56352862D01*
X59055000Y-56340000D01*
X58338098Y-56340000D01*
X57949049Y-55950951D01*
X57926450Y-55935851D01*
X58166000Y-55983500D01*
X59563000Y-55983500D01*
X59894213Y-55917618D01*
X60175001Y-55730001D01*
X64620001Y-51285001D01*
X64807618Y-51004213D01*
X64873500Y-50673000D01*
X64873500Y-48092723D01*
X70185254Y-53163034D01*
G36*
X56744792Y-44958878D02*
X56744754Y-45002206D01*
X56961240Y-45526143D01*
X57361749Y-45927351D01*
X57555243Y-46007697D01*
X58789525Y-47605003D01*
X58842065Y-47650447D01*
X58920398Y-47672835D01*
X62463066Y-47826864D01*
X62961307Y-48033752D01*
X63142500Y-48033910D01*
X63142500Y-50314498D01*
X59204498Y-54252500D01*
X58524502Y-54252500D01*
X57000001Y-52727999D01*
X56719213Y-52540382D01*
X56388000Y-52474500D01*
X53270502Y-52474500D01*
X53952001Y-51793001D01*
X54139618Y-51512213D01*
X54205500Y-51181000D01*
X54205500Y-50679949D01*
X54293351Y-50592251D01*
X54510752Y-50068693D01*
X54511246Y-49501794D01*
X54294760Y-48977857D01*
X53894251Y-48576649D01*
X53370693Y-48359248D01*
X52803794Y-48358754D01*
X52279857Y-48575240D01*
X51878649Y-48975749D01*
X51661248Y-49499307D01*
X51660754Y-50066206D01*
X51877240Y-50590143D01*
X52277749Y-50991351D01*
X52297462Y-50999536D01*
X51711498Y-51585500D01*
X47428502Y-51585500D01*
X47729001Y-51285001D01*
X47798492Y-51181000D01*
X47916618Y-51004213D01*
X47918516Y-50994672D01*
X47923143Y-50992760D01*
X48324351Y-50592251D01*
X48541752Y-50068693D01*
X48542246Y-49501794D01*
X48325760Y-48977857D01*
X47925251Y-48576649D01*
X47411933Y-48363500D01*
X50355500Y-48363500D01*
X50686713Y-48297618D01*
X50967501Y-48110001D01*
X55600052Y-43477450D01*
X56744792Y-44958878D01*
X56744792Y-44958878D01*
G37*
X56744792Y-44958878D02*
X56744754Y-45002206D01*
X56961240Y-45526143D01*
X57361749Y-45927351D01*
X57555243Y-46007697D01*
X58789525Y-47605003D01*
X58842065Y-47650447D01*
X58920398Y-47672835D01*
X62463066Y-47826864D01*
X62961307Y-48033752D01*
X63142500Y-48033910D01*
X63142500Y-50314498D01*
X59204498Y-54252500D01*
X58524502Y-54252500D01*
X57000001Y-52727999D01*
X56719213Y-52540382D01*
X56388000Y-52474500D01*
X53270502Y-52474500D01*
X53952001Y-51793001D01*
X54139618Y-51512213D01*
X54205500Y-51181000D01*
X54205500Y-50679949D01*
X54293351Y-50592251D01*
X54510752Y-50068693D01*
X54511246Y-49501794D01*
X54294760Y-48977857D01*
X53894251Y-48576649D01*
X53370693Y-48359248D01*
X52803794Y-48358754D01*
X52279857Y-48575240D01*
X51878649Y-48975749D01*
X51661248Y-49499307D01*
X51660754Y-50066206D01*
X51877240Y-50590143D01*
X52277749Y-50991351D01*
X52297462Y-50999536D01*
X51711498Y-51585500D01*
X47428502Y-51585500D01*
X47729001Y-51285001D01*
X47798492Y-51181000D01*
X47916618Y-51004213D01*
X47918516Y-50994672D01*
X47923143Y-50992760D01*
X48324351Y-50592251D01*
X48541752Y-50068693D01*
X48542246Y-49501794D01*
X48325760Y-48977857D01*
X47925251Y-48576649D01*
X47411933Y-48363500D01*
X50355500Y-48363500D01*
X50686713Y-48297618D01*
X50967501Y-48110001D01*
X55600052Y-43477450D01*
X56744792Y-44958878D01*
G36*
X46310857Y-48575240D02*
X45909649Y-48975749D01*
X45692248Y-49499307D01*
X45691754Y-50066206D01*
X45908240Y-50590143D01*
X45942018Y-50623980D01*
X44853498Y-51712500D01*
X42776502Y-51712500D01*
X41215594Y-50151592D01*
X41302752Y-49941693D01*
X41303246Y-49374794D01*
X41086760Y-48850857D01*
X40686251Y-48449649D01*
X40478782Y-48363500D01*
X46823308Y-48363500D01*
X46310857Y-48575240D01*
X46310857Y-48575240D01*
G37*
X46310857Y-48575240D02*
X45909649Y-48975749D01*
X45692248Y-49499307D01*
X45691754Y-50066206D01*
X45908240Y-50590143D01*
X45942018Y-50623980D01*
X44853498Y-51712500D01*
X42776502Y-51712500D01*
X41215594Y-50151592D01*
X41302752Y-49941693D01*
X41303246Y-49374794D01*
X41086760Y-48850857D01*
X40686251Y-48449649D01*
X40478782Y-48363500D01*
X46823308Y-48363500D01*
X46310857Y-48575240D01*
G36*
X28925307Y-46128752D02*
X29411173Y-46129175D01*
X31391999Y-48110001D01*
X31672787Y-48297618D01*
X32004000Y-48363500D01*
X39276944Y-48363500D01*
X39071857Y-48448240D01*
X38670649Y-48848749D01*
X38453248Y-49372307D01*
X38452754Y-49939206D01*
X38669240Y-50463143D01*
X38902190Y-50696500D01*
X36321533Y-50696500D01*
X36476752Y-50322693D01*
X36477246Y-49755794D01*
X36260760Y-49231857D01*
X35860251Y-48830649D01*
X35336693Y-48613248D01*
X34769794Y-48612754D01*
X34245857Y-48829240D01*
X34156441Y-48918500D01*
X28708506Y-48918500D01*
X28424500Y-48633998D01*
X28424500Y-45920798D01*
X28925307Y-46128752D01*
X28925307Y-46128752D01*
G37*
X28925307Y-46128752D02*
X29411173Y-46129175D01*
X31391999Y-48110001D01*
X31672787Y-48297618D01*
X32004000Y-48363500D01*
X39276944Y-48363500D01*
X39071857Y-48448240D01*
X38670649Y-48848749D01*
X38453248Y-49372307D01*
X38452754Y-49939206D01*
X38669240Y-50463143D01*
X38902190Y-50696500D01*
X36321533Y-50696500D01*
X36476752Y-50322693D01*
X36477246Y-49755794D01*
X36260760Y-49231857D01*
X35860251Y-48830649D01*
X35336693Y-48613248D01*
X34769794Y-48612754D01*
X34245857Y-48829240D01*
X34156441Y-48918500D01*
X28708506Y-48918500D01*
X28424500Y-48633998D01*
X28424500Y-45920798D01*
X28925307Y-46128752D01*
G36*
X57086395Y-14387032D02*
X57150000Y-14399000D01*
X58499000Y-14399000D01*
X58499000Y-18749709D01*
X58221591Y-19164882D01*
X58092871Y-19812000D01*
X58221591Y-20459118D01*
X58430743Y-20772136D01*
X58321121Y-20842676D01*
X58166998Y-21068242D01*
X58112776Y-21336000D01*
X58112776Y-23368000D01*
X58159843Y-23618140D01*
X58307676Y-23847879D01*
X58499000Y-23978605D01*
X58499000Y-24130000D01*
X58512788Y-24198085D01*
X58551978Y-24255441D01*
X58610395Y-24293032D01*
X58674000Y-24305000D01*
X60023000Y-24305000D01*
X60023000Y-30051000D01*
X54610000Y-30051000D01*
X54541915Y-30064788D01*
X54484559Y-30103978D01*
X54446968Y-30162395D01*
X54435000Y-30226000D01*
X54435000Y-41910000D01*
X54448788Y-41978085D01*
X54471525Y-42017003D01*
X54532973Y-42096525D01*
X49996998Y-46632500D01*
X32362502Y-46632500D01*
X30634825Y-44904823D01*
X30635246Y-44421794D01*
X30418760Y-43897857D01*
X30224206Y-43702963D01*
X30465781Y-43423200D01*
X33274000Y-43423200D01*
X33610073Y-43356351D01*
X33881483Y-43175000D01*
X35000000Y-43175000D01*
X35068085Y-43161212D01*
X35125441Y-43122022D01*
X35163032Y-43063605D01*
X35174989Y-43001944D01*
X35187528Y-41873434D01*
X40330121Y-36730841D01*
X40795206Y-36731246D01*
X41319143Y-36514760D01*
X41720351Y-36114251D01*
X41937752Y-35590693D01*
X41938246Y-35023794D01*
X41721760Y-34499857D01*
X41321251Y-34098649D01*
X40797693Y-33881248D01*
X40230794Y-33880754D01*
X39706857Y-34097240D01*
X39305649Y-34497749D01*
X39088248Y-35021307D01*
X39087840Y-35489198D01*
X35215437Y-39361601D01*
X35274098Y-34082176D01*
X38705533Y-31192546D01*
X43165916Y-31192546D01*
X43227110Y-31452740D01*
X43756975Y-31663069D01*
X44326996Y-31654617D01*
X44814370Y-31452740D01*
X44875564Y-31192546D01*
X44020740Y-30337723D01*
X43165916Y-31192546D01*
X38705533Y-31192546D01*
X39012724Y-30933859D01*
X39055922Y-30879457D01*
X39075000Y-30800000D01*
X39075000Y-29962235D01*
X42583671Y-29962235D01*
X42592123Y-30532256D01*
X42794000Y-31019630D01*
X43054194Y-31080824D01*
X43909017Y-30226000D01*
X44132463Y-30226000D01*
X44987286Y-31080824D01*
X45247480Y-31019630D01*
X45457809Y-30489765D01*
X45449357Y-29919744D01*
X45247480Y-29432370D01*
X44987286Y-29371176D01*
X44132463Y-30226000D01*
X43909017Y-30226000D01*
X43054194Y-29371176D01*
X42794000Y-29432370D01*
X42583671Y-29962235D01*
X39075000Y-29962235D01*
X39075000Y-29376182D01*
X40384822Y-29384996D01*
X40386828Y-29384998D01*
X42500828Y-29374998D01*
X42568847Y-29360889D01*
X42622268Y-29325202D01*
X42689593Y-29259454D01*
X43165916Y-29259454D01*
X44020740Y-30114277D01*
X44875564Y-29259454D01*
X44814370Y-28999260D01*
X44284505Y-28788931D01*
X43714484Y-28797383D01*
X43227110Y-28999260D01*
X43165916Y-29259454D01*
X42689593Y-29259454D01*
X49022268Y-23075202D01*
X49061345Y-23017769D01*
X49075000Y-22949903D01*
X49072050Y-17651952D01*
X52358502Y-14365500D01*
X57052934Y-14365500D01*
X57086395Y-14387032D01*
X57086395Y-14387032D01*
G37*
X57086395Y-14387032D02*
X57150000Y-14399000D01*
X58499000Y-14399000D01*
X58499000Y-18749709D01*
X58221591Y-19164882D01*
X58092871Y-19812000D01*
X58221591Y-20459118D01*
X58430743Y-20772136D01*
X58321121Y-20842676D01*
X58166998Y-21068242D01*
X58112776Y-21336000D01*
X58112776Y-23368000D01*
X58159843Y-23618140D01*
X58307676Y-23847879D01*
X58499000Y-23978605D01*
X58499000Y-24130000D01*
X58512788Y-24198085D01*
X58551978Y-24255441D01*
X58610395Y-24293032D01*
X58674000Y-24305000D01*
X60023000Y-24305000D01*
X60023000Y-30051000D01*
X54610000Y-30051000D01*
X54541915Y-30064788D01*
X54484559Y-30103978D01*
X54446968Y-30162395D01*
X54435000Y-30226000D01*
X54435000Y-41910000D01*
X54448788Y-41978085D01*
X54471525Y-42017003D01*
X54532973Y-42096525D01*
X49996998Y-46632500D01*
X32362502Y-46632500D01*
X30634825Y-44904823D01*
X30635246Y-44421794D01*
X30418760Y-43897857D01*
X30224206Y-43702963D01*
X30465781Y-43423200D01*
X33274000Y-43423200D01*
X33610073Y-43356351D01*
X33881483Y-43175000D01*
X35000000Y-43175000D01*
X35068085Y-43161212D01*
X35125441Y-43122022D01*
X35163032Y-43063605D01*
X35174989Y-43001944D01*
X35187528Y-41873434D01*
X40330121Y-36730841D01*
X40795206Y-36731246D01*
X41319143Y-36514760D01*
X41720351Y-36114251D01*
X41937752Y-35590693D01*
X41938246Y-35023794D01*
X41721760Y-34499857D01*
X41321251Y-34098649D01*
X40797693Y-33881248D01*
X40230794Y-33880754D01*
X39706857Y-34097240D01*
X39305649Y-34497749D01*
X39088248Y-35021307D01*
X39087840Y-35489198D01*
X35215437Y-39361601D01*
X35274098Y-34082176D01*
X38705533Y-31192546D01*
X43165916Y-31192546D01*
X43227110Y-31452740D01*
X43756975Y-31663069D01*
X44326996Y-31654617D01*
X44814370Y-31452740D01*
X44875564Y-31192546D01*
X44020740Y-30337723D01*
X43165916Y-31192546D01*
X38705533Y-31192546D01*
X39012724Y-30933859D01*
X39055922Y-30879457D01*
X39075000Y-30800000D01*
X39075000Y-29962235D01*
X42583671Y-29962235D01*
X42592123Y-30532256D01*
X42794000Y-31019630D01*
X43054194Y-31080824D01*
X43909017Y-30226000D01*
X44132463Y-30226000D01*
X44987286Y-31080824D01*
X45247480Y-31019630D01*
X45457809Y-30489765D01*
X45449357Y-29919744D01*
X45247480Y-29432370D01*
X44987286Y-29371176D01*
X44132463Y-30226000D01*
X43909017Y-30226000D01*
X43054194Y-29371176D01*
X42794000Y-29432370D01*
X42583671Y-29962235D01*
X39075000Y-29962235D01*
X39075000Y-29376182D01*
X40384822Y-29384996D01*
X40386828Y-29384998D01*
X42500828Y-29374998D01*
X42568847Y-29360889D01*
X42622268Y-29325202D01*
X42689593Y-29259454D01*
X43165916Y-29259454D01*
X44020740Y-30114277D01*
X44875564Y-29259454D01*
X44814370Y-28999260D01*
X44284505Y-28788931D01*
X43714484Y-28797383D01*
X43227110Y-28999260D01*
X43165916Y-29259454D01*
X42689593Y-29259454D01*
X49022268Y-23075202D01*
X49061345Y-23017769D01*
X49075000Y-22949903D01*
X49072050Y-17651952D01*
X52358502Y-14365500D01*
X57052934Y-14365500D01*
X57086395Y-14387032D01*
M02*
