G04 #@! TF.FileFunction,Soldermask,Bot*
%FSLAX46Y46*%
G04 Gerber Fmt 4.6, Leading zero omitted, Abs format (unit mm)*
G04 Created by KiCad (PCBNEW 4.0.2+dfsg1-stable) date wto, 5 mar 2019, 11:31:51*
%MOMM*%
G01*
G04 APERTURE LIST*
%ADD10C,0.100000*%
%ADD11R,3.900000X3.900000*%
%ADD12C,3.900000*%
%ADD13O,2.432000X2.127200*%
%ADD14R,2.432000X2.127200*%
%ADD15C,2.700000*%
%ADD16O,2.100000X2.400000*%
%ADD17O,2.120000X2.432000*%
%ADD18C,1.900000*%
%ADD19R,2.432000X2.432000*%
%ADD20O,2.432000X2.432000*%
%ADD21R,2.940000X2.940000*%
%ADD22O,4.200000X3.400000*%
%ADD23C,4.210000*%
%ADD24R,4.210000X4.210000*%
%ADD25C,2.900000*%
%ADD26C,3.400000*%
%ADD27C,2.899360*%
%ADD28R,2.127200X2.432000*%
%ADD29O,2.127200X2.432000*%
%ADD30C,4.464000*%
%ADD31R,1.700000X1.700000*%
%ADD32C,1.700000*%
%ADD33C,4.200000*%
G04 APERTURE END LIST*
D10*
D11*
X48450500Y-6540500D03*
D12*
X53530500Y-6540500D03*
X58610500Y-6540500D03*
D13*
X63811000Y-24844500D03*
X63811000Y-22304500D03*
X63811000Y-19764500D03*
X63811000Y-17224500D03*
X63811000Y-14684500D03*
X63811000Y-12144500D03*
X63811000Y-9604500D03*
D14*
X63811000Y-7064500D03*
X86811000Y-7064500D03*
D13*
X86811000Y-9604500D03*
X86811000Y-12144500D03*
X86811000Y-14684500D03*
X86811000Y-17224500D03*
X86811000Y-19764500D03*
X86811000Y-22304500D03*
X86811000Y-24844500D03*
D15*
X41275000Y-21844000D03*
X10795000Y-21844000D03*
X15875000Y-21844000D03*
X41275000Y-4664000D03*
X36195000Y-4664000D03*
D16*
X64250000Y-66500000D03*
D17*
X61710000Y-66500000D03*
D11*
X4572000Y-40386000D03*
D12*
X4572000Y-35306000D03*
D11*
X4572000Y-45847000D03*
D12*
X4572000Y-50927000D03*
X21638260Y-29083000D03*
X26636980Y-29083000D03*
X11635740Y-29083000D03*
X6637020Y-29083000D03*
D18*
X33860740Y-30226000D03*
X44020740Y-30226000D03*
D19*
X67500500Y-7048500D03*
D20*
X67500500Y-9588500D03*
D21*
X80500000Y-64340000D03*
D22*
X80500000Y-59260000D03*
D23*
X46228000Y-66040000D03*
X51308000Y-66040000D03*
D24*
X41148000Y-66040000D03*
D23*
X56388000Y-66040000D03*
D11*
X85598000Y-41910000D03*
D12*
X85598000Y-36830000D03*
D19*
X78820000Y-3270000D03*
D20*
X81360000Y-3270000D03*
D25*
X23068000Y-36176500D03*
D26*
X23068000Y-48376500D03*
X11018000Y-48426500D03*
D25*
X11068000Y-36176500D03*
D26*
X17018000Y-34226500D03*
D27*
X79542640Y-49362360D03*
X84582000Y-51861720D03*
X84582000Y-46863000D03*
D19*
X46620000Y-15220000D03*
D20*
X46620000Y-12680000D03*
D19*
X59817000Y-22352000D03*
D20*
X59817000Y-19812000D03*
D19*
X46620000Y-19570000D03*
D20*
X46620000Y-22110000D03*
D23*
X25908000Y-66040000D03*
X30988000Y-66040000D03*
D24*
X20828000Y-66040000D03*
D23*
X36068000Y-66040000D03*
D28*
X54356000Y-60198000D03*
D29*
X51816000Y-60198000D03*
X49276000Y-60198000D03*
X46736000Y-60198000D03*
D28*
X37084000Y-60198000D03*
D29*
X34544000Y-60198000D03*
X32004000Y-60198000D03*
X29464000Y-60198000D03*
D30*
X87630000Y-68326000D03*
X2667000Y-67818000D03*
X2413000Y-2794000D03*
X87757000Y-2667000D03*
D31*
X51520000Y-11820000D03*
D32*
X56520000Y-11820000D03*
D18*
X79920000Y-45495000D03*
X74420000Y-25270000D03*
X72820000Y-33970000D03*
X58170000Y-44720000D03*
X25654000Y-34544000D03*
X45974000Y-9652000D03*
X78520000Y-19420000D03*
X68389500Y-41211500D03*
X60706000Y-56388000D03*
X36830000Y-41910000D03*
X59182000Y-53721000D03*
X49022000Y-50165000D03*
X42545000Y-49911000D03*
X29718000Y-47498000D03*
X72326500Y-6477000D03*
X29210000Y-44704000D03*
X59118500Y-38735000D03*
X76431500Y-45600000D03*
X40513000Y-35306000D03*
X53086000Y-49784000D03*
X47117000Y-49784000D03*
X39878000Y-49657000D03*
X27559000Y-49784000D03*
X35052000Y-50038000D03*
X12636500Y-54038500D03*
X60579000Y-12573000D03*
X83629500Y-14033500D03*
X15430500Y-53911500D03*
X63246000Y-46609000D03*
X70358000Y-43561000D03*
X66865500Y-15494000D03*
X59055000Y-36703000D03*
X58928000Y-34544000D03*
X66865500Y-13589000D03*
D33*
X21100000Y-59500000D03*
X74900000Y-63600000D03*
M02*
