G04 #@! TF.FileFunction,Legend,Top*
%FSLAX46Y46*%
G04 Gerber Fmt 4.6, Leading zero omitted, Abs format (unit mm)*
G04 Created by KiCad (PCBNEW 4.0.2+dfsg1-stable) date wto, 5 mar 2019, 11:31:51*
%MOMM*%
G01*
G04 APERTURE LIST*
%ADD10C,0.100000*%
%ADD11C,0.150000*%
%ADD12R,3.900000X3.900000*%
%ADD13C,3.900000*%
%ADD14O,2.432000X2.127200*%
%ADD15R,2.432000X2.127200*%
%ADD16C,2.700000*%
%ADD17O,2.100000X2.400000*%
%ADD18O,2.120000X2.432000*%
%ADD19R,2.940000X2.940000*%
%ADD20R,2.630000X2.200000*%
%ADD21R,1.650000X1.400000*%
%ADD22R,1.400000X1.650000*%
%ADD23R,3.399740X2.000200*%
%ADD24R,2.200000X2.630000*%
%ADD25R,1.630000X2.200000*%
%ADD26R,2.200000X1.630000*%
%ADD27R,0.975000X1.000000*%
%ADD28R,2.050000X1.000000*%
%ADD29C,1.900000*%
%ADD30R,2.432000X2.432000*%
%ADD31O,2.432000X2.432000*%
%ADD32O,4.200000X3.400000*%
%ADD33C,4.210000*%
%ADD34R,4.210000X4.210000*%
%ADD35R,1.200100X1.200100*%
%ADD36R,1.100000X1.700000*%
%ADD37R,1.700000X1.100000*%
%ADD38R,2.100000X1.300000*%
%ADD39C,2.900000*%
%ADD40C,3.400000*%
%ADD41C,2.899360*%
%ADD42R,4.057600X2.432000*%
%ADD43R,1.416000X2.432000*%
%ADD44R,0.806400X1.060400*%
%ADD45R,0.908000X1.543000*%
%ADD46R,1.950000X1.000000*%
%ADD47R,1.460000X1.050000*%
%ADD48R,2.127200X2.432000*%
%ADD49O,2.127200X2.432000*%
%ADD50C,4.464000*%
%ADD51R,2.000200X3.999180*%
%ADD52R,1.700000X1.700000*%
%ADD53C,1.700000*%
%ADD54C,4.200000*%
G04 APERTURE END LIST*
D10*
D11*
X66064000Y-45759500D02*
X69064000Y-45759500D01*
X69064000Y-45759500D02*
X69064000Y-42759500D01*
X69064000Y-42759500D02*
X66064000Y-42759500D01*
X66064000Y-42759500D02*
X66064000Y-45759500D01*
X78002000Y-33044000D02*
X81002000Y-33044000D01*
X81002000Y-33044000D02*
X81002000Y-36044000D01*
X81002000Y-36044000D02*
X78002000Y-36044000D01*
X78002000Y-36044000D02*
X78002000Y-33044000D01*
X61746000Y-48665000D02*
X61746000Y-51665000D01*
X61746000Y-51665000D02*
X64746000Y-51665000D01*
X64746000Y-51665000D02*
X64746000Y-48665000D01*
X64746000Y-48665000D02*
X61746000Y-48665000D01*
X56395000Y-28958000D02*
X56395000Y-24858000D01*
X59395000Y-28958000D02*
X59395000Y-24858000D01*
X76370000Y-20870000D02*
X76370000Y-19870000D01*
X74670000Y-19870000D02*
X74670000Y-20870000D01*
X55845000Y-26758000D02*
X55845000Y-25758000D01*
X54145000Y-25758000D02*
X54145000Y-26758000D01*
X69811000Y-20756500D02*
X69811000Y-19756500D01*
X68111000Y-19756500D02*
X68111000Y-20756500D01*
X53845000Y-26758000D02*
X53845000Y-25758000D01*
X52145000Y-25758000D02*
X52145000Y-26758000D01*
X70382000Y-22945500D02*
X70382000Y-18845500D01*
X73382000Y-22945500D02*
X73382000Y-18845500D01*
X48695000Y-28958000D02*
X48695000Y-24858000D01*
X51695000Y-28958000D02*
X51695000Y-24858000D01*
X39044500Y-13056500D02*
X38044500Y-13056500D01*
X38044500Y-14756500D02*
X39044500Y-14756500D01*
X40830500Y-10096500D02*
X40830500Y-8699500D01*
X40703500Y-10350500D02*
X40703500Y-8572500D01*
X40576500Y-10731500D02*
X40576500Y-8191500D01*
X40449500Y-8064500D02*
X40449500Y-10858500D01*
X40322500Y-10985500D02*
X40322500Y-7937500D01*
X40195500Y-7810500D02*
X40195500Y-11112500D01*
X40068500Y-11239500D02*
X40068500Y-7683500D01*
X41211500Y-12128500D02*
X36639500Y-12128500D01*
X36639500Y-12128500D02*
X35877500Y-11366500D01*
X35877500Y-11366500D02*
X35877500Y-7556500D01*
X35877500Y-7556500D02*
X36639500Y-6794500D01*
X36639500Y-6794500D02*
X41211500Y-6794500D01*
X41211500Y-6794500D02*
X41211500Y-12128500D01*
X36385500Y-9461500D02*
X37147500Y-9461500D01*
X36766500Y-9842500D02*
X36766500Y-9080500D01*
X40957500Y-9461500D02*
G75*
G03X40957500Y-9461500I-2413000J0D01*
G01*
X50792000Y-37758000D02*
X49792000Y-37758000D01*
X49792000Y-39458000D02*
X50792000Y-39458000D01*
X50792000Y-39917000D02*
X49792000Y-39917000D01*
X49792000Y-41617000D02*
X50792000Y-41617000D01*
X50792000Y-42076000D02*
X49792000Y-42076000D01*
X49792000Y-43776000D02*
X50792000Y-43776000D01*
X50792000Y-44235000D02*
X49792000Y-44235000D01*
X49792000Y-45935000D02*
X50792000Y-45935000D01*
X32758000Y-35446600D02*
X31758000Y-35446600D01*
X31758000Y-37146600D02*
X32758000Y-37146600D01*
X29518000Y-40066000D02*
X33618000Y-40066000D01*
X29518000Y-43066000D02*
X33618000Y-43066000D01*
X36791000Y-36060000D02*
X36791000Y-35060000D01*
X35091000Y-35060000D02*
X35091000Y-36060000D01*
X39127000Y-33198000D02*
X39127000Y-36898000D01*
X37327000Y-33198000D02*
X37327000Y-36898000D01*
X29968000Y-37666000D02*
X33668000Y-37666000D01*
X29968000Y-39466000D02*
X33668000Y-39466000D01*
X67202500Y-34643500D02*
X66202500Y-34643500D01*
X66202500Y-36343500D02*
X67202500Y-36343500D01*
X67175000Y-37123000D02*
X66175000Y-37123000D01*
X66175000Y-38823000D02*
X67175000Y-38823000D01*
X67014500Y-34202500D02*
X62914500Y-34202500D01*
X67014500Y-31202500D02*
X62914500Y-31202500D01*
X62920500Y-38329500D02*
X61920500Y-38329500D01*
X61920500Y-40029500D02*
X62920500Y-40029500D01*
X64220500Y-43473500D02*
X60120500Y-43473500D01*
X64220500Y-40473500D02*
X60120500Y-40473500D01*
X69874500Y-33139000D02*
X69874500Y-32139000D01*
X68174500Y-32139000D02*
X68174500Y-33139000D01*
X80986500Y-31264000D02*
X80986500Y-27164000D01*
X83986500Y-31264000D02*
X83986500Y-27164000D01*
X64971000Y-58349000D02*
X64971000Y-57349000D01*
X63271000Y-57349000D02*
X63271000Y-58349000D01*
X74119000Y-42092000D02*
X73119000Y-42092000D01*
X73119000Y-43792000D02*
X74119000Y-43792000D01*
X73178000Y-46450000D02*
X74178000Y-46450000D01*
X74178000Y-44750000D02*
X73178000Y-44750000D01*
D10*
X19494000Y-44500000D02*
X20594000Y-44500000D01*
X20594000Y-44500000D02*
X20594000Y-44400000D01*
X20594000Y-44400000D02*
X19494000Y-44400000D01*
X19494000Y-44400000D02*
X19494000Y-44500000D01*
X20844000Y-44500000D02*
X20844000Y-42900000D01*
X19244000Y-43700000D02*
X19244000Y-42900000D01*
X19244000Y-43700000D02*
X19244000Y-44500000D01*
D11*
X15994840Y-40600240D02*
X16043100Y-40600240D01*
X18793820Y-39899200D02*
X18793820Y-40600240D01*
X18793820Y-40600240D02*
X18544900Y-40600240D01*
X15994840Y-40600240D02*
X15794180Y-40600240D01*
X15794180Y-40600240D02*
X15794180Y-39899200D01*
X15994840Y-44600240D02*
X16043100Y-44600240D01*
X18793820Y-43899200D02*
X18793820Y-44600240D01*
X18793820Y-44600240D02*
X18544900Y-44600240D01*
X15994840Y-44600240D02*
X15794180Y-44600240D01*
X15794180Y-44600240D02*
X15794180Y-43899200D01*
X13194000Y-38075000D02*
X14394000Y-38075000D01*
X14394000Y-39825000D02*
X13194000Y-39825000D01*
X13194000Y-44075000D02*
X14394000Y-44075000D01*
X14394000Y-45825000D02*
X13194000Y-45825000D01*
X14394000Y-41825000D02*
X13194000Y-41825000D01*
X13194000Y-40075000D02*
X14394000Y-40075000D01*
X14394000Y-43825000D02*
X13194000Y-43825000D01*
X13194000Y-42075000D02*
X14394000Y-42075000D01*
X39278000Y-54751000D02*
X40478000Y-54751000D01*
X40478000Y-56501000D02*
X39278000Y-56501000D01*
X49184000Y-54878000D02*
X50384000Y-54878000D01*
X50384000Y-56628000D02*
X49184000Y-56628000D01*
X54391000Y-55005000D02*
X55591000Y-55005000D01*
X55591000Y-56755000D02*
X54391000Y-56755000D01*
X51421000Y-51978000D02*
X51421000Y-53178000D01*
X49671000Y-53178000D02*
X49671000Y-51978000D01*
X57771000Y-51978000D02*
X57771000Y-53178000D01*
X56021000Y-53178000D02*
X56021000Y-51978000D01*
X75624000Y-56785000D02*
X75624000Y-58785000D01*
X73474000Y-58785000D02*
X73474000Y-56785000D01*
X71085000Y-60184000D02*
X69885000Y-60184000D01*
X69885000Y-58434000D02*
X71085000Y-58434000D01*
X71085000Y-57136000D02*
X69885000Y-57136000D01*
X69885000Y-55386000D02*
X71085000Y-55386000D01*
X67529000Y-61708000D02*
X66329000Y-61708000D01*
X66329000Y-59958000D02*
X67529000Y-59958000D01*
X67529000Y-55866000D02*
X66329000Y-55866000D01*
X66329000Y-54116000D02*
X67529000Y-54116000D01*
X67529000Y-53834000D02*
X66329000Y-53834000D01*
X66329000Y-52084000D02*
X67529000Y-52084000D01*
X55220000Y-2745000D02*
X56420000Y-2745000D01*
X56420000Y-4495000D02*
X55220000Y-4495000D01*
X82917000Y-46263000D02*
X82917000Y-47463000D01*
X81167000Y-47463000D02*
X81167000Y-46263000D01*
X81167000Y-52289000D02*
X81167000Y-51089000D01*
X82917000Y-51089000D02*
X82917000Y-52289000D01*
X57898000Y-36928500D02*
X57898000Y-38128500D01*
X56148000Y-38128500D02*
X56148000Y-36928500D01*
X59545000Y-16570000D02*
X59545000Y-15370000D01*
X61295000Y-15370000D02*
X61295000Y-16570000D01*
X78870000Y-37195000D02*
X80070000Y-37195000D01*
X80070000Y-38945000D02*
X78870000Y-38945000D01*
X80069000Y-40992000D02*
X78869000Y-40992000D01*
X78869000Y-39242000D02*
X80069000Y-39242000D01*
X66964000Y-48909000D02*
X68164000Y-48909000D01*
X68164000Y-50659000D02*
X66964000Y-50659000D01*
X66964000Y-46877000D02*
X68164000Y-46877000D01*
X68164000Y-48627000D02*
X66964000Y-48627000D01*
X78870000Y-41295000D02*
X80070000Y-41295000D01*
X80070000Y-43045000D02*
X78870000Y-43045000D01*
X19169000Y-40050000D02*
X19169000Y-38850000D01*
X20919000Y-38850000D02*
X20919000Y-40050000D01*
X69469000Y-15176500D02*
X69469000Y-18224500D01*
X69469000Y-18224500D02*
X76581000Y-18224500D01*
X76581000Y-18224500D02*
X76581000Y-15176500D01*
X69469000Y-12128500D02*
X69469000Y-11366500D01*
X69469000Y-11366500D02*
X70993000Y-9080500D01*
X70993000Y-9080500D02*
X75057000Y-9080500D01*
X75057000Y-9080500D02*
X76581000Y-11366500D01*
X76581000Y-11366500D02*
X76581000Y-12128500D01*
X49664000Y-21144000D02*
X49664000Y-24192000D01*
X49664000Y-24192000D02*
X56776000Y-24192000D01*
X56776000Y-24192000D02*
X56776000Y-21144000D01*
X49664000Y-18096000D02*
X49664000Y-17334000D01*
X49664000Y-17334000D02*
X51188000Y-15048000D01*
X51188000Y-15048000D02*
X55252000Y-15048000D01*
X55252000Y-15048000D02*
X56776000Y-17334000D01*
X56776000Y-17334000D02*
X56776000Y-18096000D01*
X66083000Y-58085000D02*
X66383000Y-58085000D01*
X66383000Y-58085000D02*
X66383000Y-58385000D01*
X68283000Y-57185000D02*
X66083000Y-57185000D01*
X66083000Y-57185000D02*
X66083000Y-58385000D01*
X66083000Y-58385000D02*
X68283000Y-58385000D01*
X68283000Y-58385000D02*
X68283000Y-57185000D01*
X35738000Y-41824000D02*
X36500000Y-41824000D01*
X36500000Y-41824000D02*
X36500000Y-43348000D01*
X36500000Y-43348000D02*
X35738000Y-43348000D01*
X46914000Y-40300000D02*
X46914000Y-44872000D01*
X46914000Y-44872000D02*
X35738000Y-44872000D01*
X35738000Y-44872000D02*
X35738000Y-40300000D01*
X35738000Y-40300000D02*
X46914000Y-40300000D01*
X75849000Y-41657000D02*
X75849000Y-41512000D01*
X71699000Y-41657000D02*
X71699000Y-41512000D01*
X71699000Y-36507000D02*
X71699000Y-36652000D01*
X75849000Y-36507000D02*
X75849000Y-36652000D01*
X75849000Y-41657000D02*
X71699000Y-41657000D01*
X75849000Y-36507000D02*
X71699000Y-36507000D01*
X75849000Y-41512000D02*
X77249000Y-41512000D01*
X71643000Y-46845000D02*
X71643000Y-46990000D01*
X75793000Y-46845000D02*
X75793000Y-46990000D01*
X75793000Y-51995000D02*
X75793000Y-51850000D01*
X71643000Y-51995000D02*
X71643000Y-51850000D01*
X71643000Y-46845000D02*
X75793000Y-46845000D01*
X71643000Y-51995000D02*
X75793000Y-51995000D01*
X71643000Y-46990000D02*
X70243000Y-46990000D01*
X62862500Y-37863500D02*
G75*
G03X62862500Y-37863500I-100000J0D01*
G01*
X62112500Y-37613500D02*
X62612500Y-37613500D01*
X62112500Y-34713500D02*
X62112500Y-37613500D01*
X62612500Y-34713500D02*
X62112500Y-34713500D01*
X62612500Y-37613500D02*
X62612500Y-34713500D01*
X39594840Y-53228240D02*
X39643100Y-53228240D01*
X42393820Y-52527200D02*
X42393820Y-53228240D01*
X42393820Y-53228240D02*
X42144900Y-53228240D01*
X39594840Y-53228240D02*
X39394180Y-53228240D01*
X39394180Y-53228240D02*
X39394180Y-52527200D01*
X52802840Y-53228240D02*
X52851100Y-53228240D01*
X55601820Y-52527200D02*
X55601820Y-53228240D01*
X55601820Y-53228240D02*
X55352900Y-53228240D01*
X52802840Y-53228240D02*
X52602180Y-53228240D01*
X52602180Y-53228240D02*
X52602180Y-52527200D01*
X46452840Y-53228240D02*
X46501100Y-53228240D01*
X49251820Y-52527200D02*
X49251820Y-53228240D01*
X49251820Y-53228240D02*
X49002900Y-53228240D01*
X46452840Y-53228240D02*
X46252180Y-53228240D01*
X46252180Y-53228240D02*
X46252180Y-52527200D01*
X64926160Y-53324760D02*
X64877900Y-53324760D01*
X62127180Y-54025800D02*
X62127180Y-53324760D01*
X62127180Y-53324760D02*
X62376100Y-53324760D01*
X64926160Y-53324760D02*
X65126820Y-53324760D01*
X65126820Y-53324760D02*
X65126820Y-54025800D01*
X30234000Y-50507000D02*
X31234000Y-50507000D01*
X31234000Y-48807000D02*
X30234000Y-48807000D01*
X31758000Y-45808000D02*
X32758000Y-45808000D01*
X32758000Y-44108000D02*
X31758000Y-44108000D01*
X27402840Y-53228240D02*
X27451100Y-53228240D01*
X30201820Y-52527200D02*
X30201820Y-53228240D01*
X30201820Y-53228240D02*
X29952900Y-53228240D01*
X27402840Y-53228240D02*
X27202180Y-53228240D01*
X27202180Y-53228240D02*
X27202180Y-52527200D01*
X33879840Y-53228240D02*
X33928100Y-53228240D01*
X36678820Y-52527200D02*
X36678820Y-53228240D01*
X36678820Y-53228240D02*
X36429900Y-53228240D01*
X33879840Y-53228240D02*
X33679180Y-53228240D01*
X33679180Y-53228240D02*
X33679180Y-52527200D01*
X30572000Y-56501000D02*
X29372000Y-56501000D01*
X29372000Y-54751000D02*
X30572000Y-54751000D01*
X34382000Y-56501000D02*
X33182000Y-56501000D01*
X33182000Y-54751000D02*
X34382000Y-54751000D01*
X32371000Y-51978000D02*
X32371000Y-53178000D01*
X30621000Y-53178000D02*
X30621000Y-51978000D01*
X38848000Y-51978000D02*
X38848000Y-53178000D01*
X37098000Y-53178000D02*
X37098000Y-51978000D01*
X44563000Y-51978000D02*
X44563000Y-53178000D01*
X42813000Y-53178000D02*
X42813000Y-51978000D01*
X89916000Y-68326000D02*
G75*
G03X89916000Y-68326000I-2286000J0D01*
G01*
X4953000Y-67818000D02*
G75*
G03X4953000Y-67818000I-2286000J0D01*
G01*
X4699000Y-2794000D02*
G75*
G03X4699000Y-2794000I-2286000J0D01*
G01*
X90043000Y-2667000D02*
G75*
G03X90043000Y-2667000I-2286000J0D01*
G01*
X81382000Y-10049000D02*
X79858000Y-10049000D01*
X79477000Y-10176000D02*
X81763000Y-10176000D01*
X82017000Y-10303000D02*
X79223000Y-10303000D01*
X78969000Y-10430000D02*
X82271000Y-10430000D01*
X82398000Y-10557000D02*
X78842000Y-10557000D01*
X83922000Y-9668000D02*
X77318000Y-9668000D01*
X77318000Y-9668000D02*
X77318000Y-15510000D01*
X77318000Y-15510000D02*
X78080000Y-16272000D01*
X78080000Y-16272000D02*
X83160000Y-16272000D01*
X83160000Y-16272000D02*
X83922000Y-15510000D01*
X83922000Y-15510000D02*
X83922000Y-9668000D01*
X80620000Y-15129000D02*
X80620000Y-14367000D01*
X81001000Y-14748000D02*
X80239000Y-14748000D01*
X83668000Y-12970000D02*
G75*
G03X83668000Y-12970000I-3048000J0D01*
G01*
X62881048Y-43902381D02*
X63119143Y-44902381D01*
X63309620Y-44188095D01*
X63500096Y-44902381D01*
X63738191Y-43902381D01*
X64642953Y-44902381D02*
X64071524Y-44902381D01*
X64357238Y-44902381D02*
X64357238Y-43902381D01*
X64262000Y-44045238D01*
X64166762Y-44140476D01*
X64071524Y-44188095D01*
X65595334Y-44902381D02*
X65023905Y-44902381D01*
X65309619Y-44902381D02*
X65309619Y-43902381D01*
X65214381Y-44045238D01*
X65119143Y-44140476D01*
X65023905Y-44188095D01*
X78597238Y-30496261D02*
X78835333Y-31496261D01*
X79025810Y-30781975D01*
X79216286Y-31496261D01*
X79454381Y-30496261D01*
X79882952Y-31496261D02*
X80073428Y-31496261D01*
X80168667Y-31448642D01*
X80216286Y-31401023D01*
X80311524Y-31258166D01*
X80359143Y-31067690D01*
X80359143Y-30686737D01*
X80311524Y-30591499D01*
X80263905Y-30543880D01*
X80168667Y-30496261D01*
X79978190Y-30496261D01*
X79882952Y-30543880D01*
X79835333Y-30591499D01*
X79787714Y-30686737D01*
X79787714Y-30924832D01*
X79835333Y-31020070D01*
X79882952Y-31067690D01*
X79978190Y-31115309D01*
X80168667Y-31115309D01*
X80263905Y-31067690D01*
X80311524Y-31020070D01*
X80359143Y-30924832D01*
X62341238Y-46117261D02*
X62579333Y-47117261D01*
X62769810Y-46402975D01*
X62960286Y-47117261D01*
X63198381Y-46117261D01*
X63484095Y-46117261D02*
X64150762Y-46117261D01*
X63722190Y-47117261D01*
X60852143Y-27324666D02*
X60899762Y-27372285D01*
X60947381Y-27515142D01*
X60947381Y-27610380D01*
X60899762Y-27753238D01*
X60804524Y-27848476D01*
X60709286Y-27896095D01*
X60518810Y-27943714D01*
X60375952Y-27943714D01*
X60185476Y-27896095D01*
X60090238Y-27848476D01*
X59995000Y-27753238D01*
X59947381Y-27610380D01*
X59947381Y-27515142D01*
X59995000Y-27372285D01*
X60042619Y-27324666D01*
X60042619Y-26943714D02*
X59995000Y-26896095D01*
X59947381Y-26800857D01*
X59947381Y-26562761D01*
X59995000Y-26467523D01*
X60042619Y-26419904D01*
X60137857Y-26372285D01*
X60233095Y-26372285D01*
X60375952Y-26419904D01*
X60947381Y-26991333D01*
X60947381Y-26372285D01*
X76303143Y-23534666D02*
X76350762Y-23582285D01*
X76398381Y-23725142D01*
X76398381Y-23820380D01*
X76350762Y-23963238D01*
X76255524Y-24058476D01*
X76160286Y-24106095D01*
X75969810Y-24153714D01*
X75826952Y-24153714D01*
X75636476Y-24106095D01*
X75541238Y-24058476D01*
X75446000Y-23963238D01*
X75398381Y-23820380D01*
X75398381Y-23725142D01*
X75446000Y-23582285D01*
X75493619Y-23534666D01*
X75398381Y-23201333D02*
X75398381Y-22582285D01*
X75779333Y-22915619D01*
X75779333Y-22772761D01*
X75826952Y-22677523D01*
X75874571Y-22629904D01*
X75969810Y-22582285D01*
X76207905Y-22582285D01*
X76303143Y-22629904D01*
X76350762Y-22677523D01*
X76398381Y-22772761D01*
X76398381Y-23058476D01*
X76350762Y-23153714D01*
X76303143Y-23201333D01*
X55475143Y-29376666D02*
X55522762Y-29424285D01*
X55570381Y-29567142D01*
X55570381Y-29662380D01*
X55522762Y-29805238D01*
X55427524Y-29900476D01*
X55332286Y-29948095D01*
X55141810Y-29995714D01*
X54998952Y-29995714D01*
X54808476Y-29948095D01*
X54713238Y-29900476D01*
X54618000Y-29805238D01*
X54570381Y-29662380D01*
X54570381Y-29567142D01*
X54618000Y-29424285D01*
X54665619Y-29376666D01*
X54903714Y-28519523D02*
X55570381Y-28519523D01*
X54522762Y-28757619D02*
X55237048Y-28995714D01*
X55237048Y-28376666D01*
X69445143Y-23534666D02*
X69492762Y-23582285D01*
X69540381Y-23725142D01*
X69540381Y-23820380D01*
X69492762Y-23963238D01*
X69397524Y-24058476D01*
X69302286Y-24106095D01*
X69111810Y-24153714D01*
X68968952Y-24153714D01*
X68778476Y-24106095D01*
X68683238Y-24058476D01*
X68588000Y-23963238D01*
X68540381Y-23820380D01*
X68540381Y-23725142D01*
X68588000Y-23582285D01*
X68635619Y-23534666D01*
X68540381Y-22629904D02*
X68540381Y-23106095D01*
X69016571Y-23153714D01*
X68968952Y-23106095D01*
X68921333Y-23010857D01*
X68921333Y-22772761D01*
X68968952Y-22677523D01*
X69016571Y-22629904D01*
X69111810Y-22582285D01*
X69349905Y-22582285D01*
X69445143Y-22629904D01*
X69492762Y-22677523D01*
X69540381Y-22772761D01*
X69540381Y-23010857D01*
X69492762Y-23106095D01*
X69445143Y-23153714D01*
X53443143Y-29376666D02*
X53490762Y-29424285D01*
X53538381Y-29567142D01*
X53538381Y-29662380D01*
X53490762Y-29805238D01*
X53395524Y-29900476D01*
X53300286Y-29948095D01*
X53109810Y-29995714D01*
X52966952Y-29995714D01*
X52776476Y-29948095D01*
X52681238Y-29900476D01*
X52586000Y-29805238D01*
X52538381Y-29662380D01*
X52538381Y-29567142D01*
X52586000Y-29424285D01*
X52633619Y-29376666D01*
X52538381Y-28519523D02*
X52538381Y-28710000D01*
X52586000Y-28805238D01*
X52633619Y-28852857D01*
X52776476Y-28948095D01*
X52966952Y-28995714D01*
X53347905Y-28995714D01*
X53443143Y-28948095D01*
X53490762Y-28900476D01*
X53538381Y-28805238D01*
X53538381Y-28614761D01*
X53490762Y-28519523D01*
X53443143Y-28471904D01*
X53347905Y-28424285D01*
X53109810Y-28424285D01*
X53014571Y-28471904D01*
X52966952Y-28519523D01*
X52919333Y-28614761D01*
X52919333Y-28805238D01*
X52966952Y-28900476D01*
X53014571Y-28948095D01*
X53109810Y-28995714D01*
X72239143Y-25058666D02*
X72286762Y-25106285D01*
X72334381Y-25249142D01*
X72334381Y-25344380D01*
X72286762Y-25487238D01*
X72191524Y-25582476D01*
X72096286Y-25630095D01*
X71905810Y-25677714D01*
X71762952Y-25677714D01*
X71572476Y-25630095D01*
X71477238Y-25582476D01*
X71382000Y-25487238D01*
X71334381Y-25344380D01*
X71334381Y-25249142D01*
X71382000Y-25106285D01*
X71429619Y-25058666D01*
X71334381Y-24725333D02*
X71334381Y-24058666D01*
X72334381Y-24487238D01*
X48363143Y-27090666D02*
X48410762Y-27138285D01*
X48458381Y-27281142D01*
X48458381Y-27376380D01*
X48410762Y-27519238D01*
X48315524Y-27614476D01*
X48220286Y-27662095D01*
X48029810Y-27709714D01*
X47886952Y-27709714D01*
X47696476Y-27662095D01*
X47601238Y-27614476D01*
X47506000Y-27519238D01*
X47458381Y-27376380D01*
X47458381Y-27281142D01*
X47506000Y-27138285D01*
X47553619Y-27090666D01*
X47886952Y-26519238D02*
X47839333Y-26614476D01*
X47791714Y-26662095D01*
X47696476Y-26709714D01*
X47648857Y-26709714D01*
X47553619Y-26662095D01*
X47506000Y-26614476D01*
X47458381Y-26519238D01*
X47458381Y-26328761D01*
X47506000Y-26233523D01*
X47553619Y-26185904D01*
X47648857Y-26138285D01*
X47696476Y-26138285D01*
X47791714Y-26185904D01*
X47839333Y-26233523D01*
X47886952Y-26328761D01*
X47886952Y-26519238D01*
X47934571Y-26614476D01*
X47982190Y-26662095D01*
X48077429Y-26709714D01*
X48267905Y-26709714D01*
X48363143Y-26662095D01*
X48410762Y-26614476D01*
X48458381Y-26519238D01*
X48458381Y-26328761D01*
X48410762Y-26233523D01*
X48363143Y-26185904D01*
X48267905Y-26138285D01*
X48077429Y-26138285D01*
X47982190Y-26185904D01*
X47934571Y-26233523D01*
X47886952Y-26328761D01*
X35393334Y-14073143D02*
X35345715Y-14120762D01*
X35202858Y-14168381D01*
X35107620Y-14168381D01*
X34964762Y-14120762D01*
X34869524Y-14025524D01*
X34821905Y-13930286D01*
X34774286Y-13739810D01*
X34774286Y-13596952D01*
X34821905Y-13406476D01*
X34869524Y-13311238D01*
X34964762Y-13216000D01*
X35107620Y-13168381D01*
X35202858Y-13168381D01*
X35345715Y-13216000D01*
X35393334Y-13263619D01*
X35869524Y-14168381D02*
X36060000Y-14168381D01*
X36155239Y-14120762D01*
X36202858Y-14073143D01*
X36298096Y-13930286D01*
X36345715Y-13739810D01*
X36345715Y-13358857D01*
X36298096Y-13263619D01*
X36250477Y-13216000D01*
X36155239Y-13168381D01*
X35964762Y-13168381D01*
X35869524Y-13216000D01*
X35821905Y-13263619D01*
X35774286Y-13358857D01*
X35774286Y-13596952D01*
X35821905Y-13692190D01*
X35869524Y-13739810D01*
X35964762Y-13787429D01*
X36155239Y-13787429D01*
X36250477Y-13739810D01*
X36298096Y-13692190D01*
X36345715Y-13596952D01*
X32377143Y-8993143D02*
X32329524Y-9040762D01*
X32186667Y-9088381D01*
X32091429Y-9088381D01*
X31948571Y-9040762D01*
X31853333Y-8945524D01*
X31805714Y-8850286D01*
X31758095Y-8659810D01*
X31758095Y-8516952D01*
X31805714Y-8326476D01*
X31853333Y-8231238D01*
X31948571Y-8136000D01*
X32091429Y-8088381D01*
X32186667Y-8088381D01*
X32329524Y-8136000D01*
X32377143Y-8183619D01*
X33329524Y-9088381D02*
X32758095Y-9088381D01*
X33043809Y-9088381D02*
X33043809Y-8088381D01*
X32948571Y-8231238D01*
X32853333Y-8326476D01*
X32758095Y-8374095D01*
X33948571Y-8088381D02*
X34043810Y-8088381D01*
X34139048Y-8136000D01*
X34186667Y-8183619D01*
X34234286Y-8278857D01*
X34281905Y-8469333D01*
X34281905Y-8707429D01*
X34234286Y-8897905D01*
X34186667Y-8993143D01*
X34139048Y-9040762D01*
X34043810Y-9088381D01*
X33948571Y-9088381D01*
X33853333Y-9040762D01*
X33805714Y-8993143D01*
X33758095Y-8897905D01*
X33710476Y-8707429D01*
X33710476Y-8469333D01*
X33758095Y-8278857D01*
X33805714Y-8183619D01*
X33853333Y-8136000D01*
X33948571Y-8088381D01*
X53205143Y-39473143D02*
X53157524Y-39520762D01*
X53014667Y-39568381D01*
X52919429Y-39568381D01*
X52776571Y-39520762D01*
X52681333Y-39425524D01*
X52633714Y-39330286D01*
X52586095Y-39139810D01*
X52586095Y-38996952D01*
X52633714Y-38806476D01*
X52681333Y-38711238D01*
X52776571Y-38616000D01*
X52919429Y-38568381D01*
X53014667Y-38568381D01*
X53157524Y-38616000D01*
X53205143Y-38663619D01*
X54157524Y-39568381D02*
X53586095Y-39568381D01*
X53871809Y-39568381D02*
X53871809Y-38568381D01*
X53776571Y-38711238D01*
X53681333Y-38806476D01*
X53586095Y-38854095D01*
X55109905Y-39568381D02*
X54538476Y-39568381D01*
X54824190Y-39568381D02*
X54824190Y-38568381D01*
X54728952Y-38711238D01*
X54633714Y-38806476D01*
X54538476Y-38854095D01*
X53205143Y-41251143D02*
X53157524Y-41298762D01*
X53014667Y-41346381D01*
X52919429Y-41346381D01*
X52776571Y-41298762D01*
X52681333Y-41203524D01*
X52633714Y-41108286D01*
X52586095Y-40917810D01*
X52586095Y-40774952D01*
X52633714Y-40584476D01*
X52681333Y-40489238D01*
X52776571Y-40394000D01*
X52919429Y-40346381D01*
X53014667Y-40346381D01*
X53157524Y-40394000D01*
X53205143Y-40441619D01*
X54157524Y-41346381D02*
X53586095Y-41346381D01*
X53871809Y-41346381D02*
X53871809Y-40346381D01*
X53776571Y-40489238D01*
X53681333Y-40584476D01*
X53586095Y-40632095D01*
X54538476Y-40441619D02*
X54586095Y-40394000D01*
X54681333Y-40346381D01*
X54919429Y-40346381D01*
X55014667Y-40394000D01*
X55062286Y-40441619D01*
X55109905Y-40536857D01*
X55109905Y-40632095D01*
X55062286Y-40774952D01*
X54490857Y-41346381D01*
X55109905Y-41346381D01*
X53205143Y-43283143D02*
X53157524Y-43330762D01*
X53014667Y-43378381D01*
X52919429Y-43378381D01*
X52776571Y-43330762D01*
X52681333Y-43235524D01*
X52633714Y-43140286D01*
X52586095Y-42949810D01*
X52586095Y-42806952D01*
X52633714Y-42616476D01*
X52681333Y-42521238D01*
X52776571Y-42426000D01*
X52919429Y-42378381D01*
X53014667Y-42378381D01*
X53157524Y-42426000D01*
X53205143Y-42473619D01*
X54157524Y-43378381D02*
X53586095Y-43378381D01*
X53871809Y-43378381D02*
X53871809Y-42378381D01*
X53776571Y-42521238D01*
X53681333Y-42616476D01*
X53586095Y-42664095D01*
X54490857Y-42378381D02*
X55109905Y-42378381D01*
X54776571Y-42759333D01*
X54919429Y-42759333D01*
X55014667Y-42806952D01*
X55062286Y-42854571D01*
X55109905Y-42949810D01*
X55109905Y-43187905D01*
X55062286Y-43283143D01*
X55014667Y-43330762D01*
X54919429Y-43378381D01*
X54633714Y-43378381D01*
X54538476Y-43330762D01*
X54490857Y-43283143D01*
X53205143Y-45569143D02*
X53157524Y-45616762D01*
X53014667Y-45664381D01*
X52919429Y-45664381D01*
X52776571Y-45616762D01*
X52681333Y-45521524D01*
X52633714Y-45426286D01*
X52586095Y-45235810D01*
X52586095Y-45092952D01*
X52633714Y-44902476D01*
X52681333Y-44807238D01*
X52776571Y-44712000D01*
X52919429Y-44664381D01*
X53014667Y-44664381D01*
X53157524Y-44712000D01*
X53205143Y-44759619D01*
X54157524Y-45664381D02*
X53586095Y-45664381D01*
X53871809Y-45664381D02*
X53871809Y-44664381D01*
X53776571Y-44807238D01*
X53681333Y-44902476D01*
X53586095Y-44950095D01*
X55014667Y-44997714D02*
X55014667Y-45664381D01*
X54776571Y-44616762D02*
X54538476Y-45331048D01*
X55157524Y-45331048D01*
X27297143Y-36679143D02*
X27249524Y-36726762D01*
X27106667Y-36774381D01*
X27011429Y-36774381D01*
X26868571Y-36726762D01*
X26773333Y-36631524D01*
X26725714Y-36536286D01*
X26678095Y-36345810D01*
X26678095Y-36202952D01*
X26725714Y-36012476D01*
X26773333Y-35917238D01*
X26868571Y-35822000D01*
X27011429Y-35774381D01*
X27106667Y-35774381D01*
X27249524Y-35822000D01*
X27297143Y-35869619D01*
X28249524Y-36774381D02*
X27678095Y-36774381D01*
X27963809Y-36774381D02*
X27963809Y-35774381D01*
X27868571Y-35917238D01*
X27773333Y-36012476D01*
X27678095Y-36060095D01*
X29154286Y-35774381D02*
X28678095Y-35774381D01*
X28630476Y-36250571D01*
X28678095Y-36202952D01*
X28773333Y-36155333D01*
X29011429Y-36155333D01*
X29106667Y-36202952D01*
X29154286Y-36250571D01*
X29201905Y-36345810D01*
X29201905Y-36583905D01*
X29154286Y-36679143D01*
X29106667Y-36726762D01*
X29011429Y-36774381D01*
X28773333Y-36774381D01*
X28678095Y-36726762D01*
X28630476Y-36679143D01*
X26535143Y-41251143D02*
X26487524Y-41298762D01*
X26344667Y-41346381D01*
X26249429Y-41346381D01*
X26106571Y-41298762D01*
X26011333Y-41203524D01*
X25963714Y-41108286D01*
X25916095Y-40917810D01*
X25916095Y-40774952D01*
X25963714Y-40584476D01*
X26011333Y-40489238D01*
X26106571Y-40394000D01*
X26249429Y-40346381D01*
X26344667Y-40346381D01*
X26487524Y-40394000D01*
X26535143Y-40441619D01*
X27487524Y-41346381D02*
X26916095Y-41346381D01*
X27201809Y-41346381D02*
X27201809Y-40346381D01*
X27106571Y-40489238D01*
X27011333Y-40584476D01*
X26916095Y-40632095D01*
X28344667Y-40346381D02*
X28154190Y-40346381D01*
X28058952Y-40394000D01*
X28011333Y-40441619D01*
X27916095Y-40584476D01*
X27868476Y-40774952D01*
X27868476Y-41155905D01*
X27916095Y-41251143D01*
X27963714Y-41298762D01*
X28058952Y-41346381D01*
X28249429Y-41346381D01*
X28344667Y-41298762D01*
X28392286Y-41251143D01*
X28439905Y-41155905D01*
X28439905Y-40917810D01*
X28392286Y-40822571D01*
X28344667Y-40774952D01*
X28249429Y-40727333D01*
X28058952Y-40727333D01*
X27963714Y-40774952D01*
X27916095Y-40822571D01*
X27868476Y-40917810D01*
X36679143Y-32900857D02*
X36726762Y-32948476D01*
X36774381Y-33091333D01*
X36774381Y-33186571D01*
X36726762Y-33329429D01*
X36631524Y-33424667D01*
X36536286Y-33472286D01*
X36345810Y-33519905D01*
X36202952Y-33519905D01*
X36012476Y-33472286D01*
X35917238Y-33424667D01*
X35822000Y-33329429D01*
X35774381Y-33186571D01*
X35774381Y-33091333D01*
X35822000Y-32948476D01*
X35869619Y-32900857D01*
X36774381Y-31948476D02*
X36774381Y-32519905D01*
X36774381Y-32234191D02*
X35774381Y-32234191D01*
X35917238Y-32329429D01*
X36012476Y-32424667D01*
X36060095Y-32519905D01*
X35774381Y-31615143D02*
X35774381Y-30948476D01*
X36774381Y-31377048D01*
X38711143Y-31376857D02*
X38758762Y-31424476D01*
X38806381Y-31567333D01*
X38806381Y-31662571D01*
X38758762Y-31805429D01*
X38663524Y-31900667D01*
X38568286Y-31948286D01*
X38377810Y-31995905D01*
X38234952Y-31995905D01*
X38044476Y-31948286D01*
X37949238Y-31900667D01*
X37854000Y-31805429D01*
X37806381Y-31662571D01*
X37806381Y-31567333D01*
X37854000Y-31424476D01*
X37901619Y-31376857D01*
X38806381Y-30424476D02*
X38806381Y-30995905D01*
X38806381Y-30710191D02*
X37806381Y-30710191D01*
X37949238Y-30805429D01*
X38044476Y-30900667D01*
X38092095Y-30995905D01*
X38234952Y-29853048D02*
X38187333Y-29948286D01*
X38139714Y-29995905D01*
X38044476Y-30043524D01*
X37996857Y-30043524D01*
X37901619Y-29995905D01*
X37854000Y-29948286D01*
X37806381Y-29853048D01*
X37806381Y-29662571D01*
X37854000Y-29567333D01*
X37901619Y-29519714D01*
X37996857Y-29472095D01*
X38044476Y-29472095D01*
X38139714Y-29519714D01*
X38187333Y-29567333D01*
X38234952Y-29662571D01*
X38234952Y-29853048D01*
X38282571Y-29948286D01*
X38330190Y-29995905D01*
X38425429Y-30043524D01*
X38615905Y-30043524D01*
X38711143Y-29995905D01*
X38758762Y-29948286D01*
X38806381Y-29853048D01*
X38806381Y-29662571D01*
X38758762Y-29567333D01*
X38711143Y-29519714D01*
X38615905Y-29472095D01*
X38425429Y-29472095D01*
X38330190Y-29519714D01*
X38282571Y-29567333D01*
X38234952Y-29662571D01*
X26789143Y-39219143D02*
X26741524Y-39266762D01*
X26598667Y-39314381D01*
X26503429Y-39314381D01*
X26360571Y-39266762D01*
X26265333Y-39171524D01*
X26217714Y-39076286D01*
X26170095Y-38885810D01*
X26170095Y-38742952D01*
X26217714Y-38552476D01*
X26265333Y-38457238D01*
X26360571Y-38362000D01*
X26503429Y-38314381D01*
X26598667Y-38314381D01*
X26741524Y-38362000D01*
X26789143Y-38409619D01*
X27741524Y-39314381D02*
X27170095Y-39314381D01*
X27455809Y-39314381D02*
X27455809Y-38314381D01*
X27360571Y-38457238D01*
X27265333Y-38552476D01*
X27170095Y-38600095D01*
X28217714Y-39314381D02*
X28408190Y-39314381D01*
X28503429Y-39266762D01*
X28551048Y-39219143D01*
X28646286Y-39076286D01*
X28693905Y-38885810D01*
X28693905Y-38504857D01*
X28646286Y-38409619D01*
X28598667Y-38362000D01*
X28503429Y-38314381D01*
X28312952Y-38314381D01*
X28217714Y-38362000D01*
X28170095Y-38409619D01*
X28122476Y-38504857D01*
X28122476Y-38742952D01*
X28170095Y-38838190D01*
X28217714Y-38885810D01*
X28312952Y-38933429D01*
X28503429Y-38933429D01*
X28598667Y-38885810D01*
X28646286Y-38838190D01*
X28693905Y-38742952D01*
X69461143Y-35917143D02*
X69413524Y-35964762D01*
X69270667Y-36012381D01*
X69175429Y-36012381D01*
X69032571Y-35964762D01*
X68937333Y-35869524D01*
X68889714Y-35774286D01*
X68842095Y-35583810D01*
X68842095Y-35440952D01*
X68889714Y-35250476D01*
X68937333Y-35155238D01*
X69032571Y-35060000D01*
X69175429Y-35012381D01*
X69270667Y-35012381D01*
X69413524Y-35060000D01*
X69461143Y-35107619D01*
X69842095Y-35107619D02*
X69889714Y-35060000D01*
X69984952Y-35012381D01*
X70223048Y-35012381D01*
X70318286Y-35060000D01*
X70365905Y-35107619D01*
X70413524Y-35202857D01*
X70413524Y-35298095D01*
X70365905Y-35440952D01*
X69794476Y-36012381D01*
X70413524Y-36012381D01*
X71032571Y-35012381D02*
X71127810Y-35012381D01*
X71223048Y-35060000D01*
X71270667Y-35107619D01*
X71318286Y-35202857D01*
X71365905Y-35393333D01*
X71365905Y-35631429D01*
X71318286Y-35821905D01*
X71270667Y-35917143D01*
X71223048Y-35964762D01*
X71127810Y-36012381D01*
X71032571Y-36012381D01*
X70937333Y-35964762D01*
X70889714Y-35917143D01*
X70842095Y-35821905D01*
X70794476Y-35631429D01*
X70794476Y-35393333D01*
X70842095Y-35202857D01*
X70889714Y-35107619D01*
X70937333Y-35060000D01*
X71032571Y-35012381D01*
X66159143Y-40235143D02*
X66111524Y-40282762D01*
X65968667Y-40330381D01*
X65873429Y-40330381D01*
X65730571Y-40282762D01*
X65635333Y-40187524D01*
X65587714Y-40092286D01*
X65540095Y-39901810D01*
X65540095Y-39758952D01*
X65587714Y-39568476D01*
X65635333Y-39473238D01*
X65730571Y-39378000D01*
X65873429Y-39330381D01*
X65968667Y-39330381D01*
X66111524Y-39378000D01*
X66159143Y-39425619D01*
X66540095Y-39425619D02*
X66587714Y-39378000D01*
X66682952Y-39330381D01*
X66921048Y-39330381D01*
X67016286Y-39378000D01*
X67063905Y-39425619D01*
X67111524Y-39520857D01*
X67111524Y-39616095D01*
X67063905Y-39758952D01*
X66492476Y-40330381D01*
X67111524Y-40330381D01*
X68063905Y-40330381D02*
X67492476Y-40330381D01*
X67778190Y-40330381D02*
X67778190Y-39330381D01*
X67682952Y-39473238D01*
X67587714Y-39568476D01*
X67492476Y-39616095D01*
X64571643Y-30459643D02*
X64524024Y-30507262D01*
X64381167Y-30554881D01*
X64285929Y-30554881D01*
X64143071Y-30507262D01*
X64047833Y-30412024D01*
X64000214Y-30316786D01*
X63952595Y-30126310D01*
X63952595Y-29983452D01*
X64000214Y-29792976D01*
X64047833Y-29697738D01*
X64143071Y-29602500D01*
X64285929Y-29554881D01*
X64381167Y-29554881D01*
X64524024Y-29602500D01*
X64571643Y-29650119D01*
X64952595Y-29650119D02*
X65000214Y-29602500D01*
X65095452Y-29554881D01*
X65333548Y-29554881D01*
X65428786Y-29602500D01*
X65476405Y-29650119D01*
X65524024Y-29745357D01*
X65524024Y-29840595D01*
X65476405Y-29983452D01*
X64904976Y-30554881D01*
X65524024Y-30554881D01*
X65904976Y-29650119D02*
X65952595Y-29602500D01*
X66047833Y-29554881D01*
X66285929Y-29554881D01*
X66381167Y-29602500D01*
X66428786Y-29650119D01*
X66476405Y-29745357D01*
X66476405Y-29840595D01*
X66428786Y-29983452D01*
X65857357Y-30554881D01*
X66476405Y-30554881D01*
X57269143Y-40743143D02*
X57221524Y-40790762D01*
X57078667Y-40838381D01*
X56983429Y-40838381D01*
X56840571Y-40790762D01*
X56745333Y-40695524D01*
X56697714Y-40600286D01*
X56650095Y-40409810D01*
X56650095Y-40266952D01*
X56697714Y-40076476D01*
X56745333Y-39981238D01*
X56840571Y-39886000D01*
X56983429Y-39838381D01*
X57078667Y-39838381D01*
X57221524Y-39886000D01*
X57269143Y-39933619D01*
X57650095Y-39933619D02*
X57697714Y-39886000D01*
X57792952Y-39838381D01*
X58031048Y-39838381D01*
X58126286Y-39886000D01*
X58173905Y-39933619D01*
X58221524Y-40028857D01*
X58221524Y-40124095D01*
X58173905Y-40266952D01*
X57602476Y-40838381D01*
X58221524Y-40838381D01*
X58554857Y-39838381D02*
X59173905Y-39838381D01*
X58840571Y-40219333D01*
X58983429Y-40219333D01*
X59078667Y-40266952D01*
X59126286Y-40314571D01*
X59173905Y-40409810D01*
X59173905Y-40647905D01*
X59126286Y-40743143D01*
X59078667Y-40790762D01*
X58983429Y-40838381D01*
X58697714Y-40838381D01*
X58602476Y-40790762D01*
X58554857Y-40743143D01*
X57269143Y-42267143D02*
X57221524Y-42314762D01*
X57078667Y-42362381D01*
X56983429Y-42362381D01*
X56840571Y-42314762D01*
X56745333Y-42219524D01*
X56697714Y-42124286D01*
X56650095Y-41933810D01*
X56650095Y-41790952D01*
X56697714Y-41600476D01*
X56745333Y-41505238D01*
X56840571Y-41410000D01*
X56983429Y-41362381D01*
X57078667Y-41362381D01*
X57221524Y-41410000D01*
X57269143Y-41457619D01*
X57650095Y-41457619D02*
X57697714Y-41410000D01*
X57792952Y-41362381D01*
X58031048Y-41362381D01*
X58126286Y-41410000D01*
X58173905Y-41457619D01*
X58221524Y-41552857D01*
X58221524Y-41648095D01*
X58173905Y-41790952D01*
X57602476Y-42362381D01*
X58221524Y-42362381D01*
X59078667Y-41695714D02*
X59078667Y-42362381D01*
X58840571Y-41314762D02*
X58602476Y-42029048D01*
X59221524Y-42029048D01*
X71481643Y-33281857D02*
X71529262Y-33329476D01*
X71576881Y-33472333D01*
X71576881Y-33567571D01*
X71529262Y-33710429D01*
X71434024Y-33805667D01*
X71338786Y-33853286D01*
X71148310Y-33900905D01*
X71005452Y-33900905D01*
X70814976Y-33853286D01*
X70719738Y-33805667D01*
X70624500Y-33710429D01*
X70576881Y-33567571D01*
X70576881Y-33472333D01*
X70624500Y-33329476D01*
X70672119Y-33281857D01*
X70672119Y-32900905D02*
X70624500Y-32853286D01*
X70576881Y-32758048D01*
X70576881Y-32519952D01*
X70624500Y-32424714D01*
X70672119Y-32377095D01*
X70767357Y-32329476D01*
X70862595Y-32329476D01*
X71005452Y-32377095D01*
X71576881Y-32948524D01*
X71576881Y-32329476D01*
X70576881Y-31424714D02*
X70576881Y-31900905D01*
X71053071Y-31948524D01*
X71005452Y-31900905D01*
X70957833Y-31805667D01*
X70957833Y-31567571D01*
X71005452Y-31472333D01*
X71053071Y-31424714D01*
X71148310Y-31377095D01*
X71386405Y-31377095D01*
X71481643Y-31424714D01*
X71529262Y-31472333D01*
X71576881Y-31567571D01*
X71576881Y-31805667D01*
X71529262Y-31900905D01*
X71481643Y-31948524D01*
X85443643Y-30106857D02*
X85491262Y-30154476D01*
X85538881Y-30297333D01*
X85538881Y-30392571D01*
X85491262Y-30535429D01*
X85396024Y-30630667D01*
X85300786Y-30678286D01*
X85110310Y-30725905D01*
X84967452Y-30725905D01*
X84776976Y-30678286D01*
X84681738Y-30630667D01*
X84586500Y-30535429D01*
X84538881Y-30392571D01*
X84538881Y-30297333D01*
X84586500Y-30154476D01*
X84634119Y-30106857D01*
X84634119Y-29725905D02*
X84586500Y-29678286D01*
X84538881Y-29583048D01*
X84538881Y-29344952D01*
X84586500Y-29249714D01*
X84634119Y-29202095D01*
X84729357Y-29154476D01*
X84824595Y-29154476D01*
X84967452Y-29202095D01*
X85538881Y-29773524D01*
X85538881Y-29154476D01*
X84538881Y-28297333D02*
X84538881Y-28487810D01*
X84586500Y-28583048D01*
X84634119Y-28630667D01*
X84776976Y-28725905D01*
X84967452Y-28773524D01*
X85348405Y-28773524D01*
X85443643Y-28725905D01*
X85491262Y-28678286D01*
X85538881Y-28583048D01*
X85538881Y-28392571D01*
X85491262Y-28297333D01*
X85443643Y-28249714D01*
X85348405Y-28202095D01*
X85110310Y-28202095D01*
X85015071Y-28249714D01*
X84967452Y-28297333D01*
X84919833Y-28392571D01*
X84919833Y-28583048D01*
X84967452Y-28678286D01*
X85015071Y-28725905D01*
X85110310Y-28773524D01*
X62338143Y-58361857D02*
X62385762Y-58409476D01*
X62433381Y-58552333D01*
X62433381Y-58647571D01*
X62385762Y-58790429D01*
X62290524Y-58885667D01*
X62195286Y-58933286D01*
X62004810Y-58980905D01*
X61861952Y-58980905D01*
X61671476Y-58933286D01*
X61576238Y-58885667D01*
X61481000Y-58790429D01*
X61433381Y-58647571D01*
X61433381Y-58552333D01*
X61481000Y-58409476D01*
X61528619Y-58361857D01*
X61528619Y-57980905D02*
X61481000Y-57933286D01*
X61433381Y-57838048D01*
X61433381Y-57599952D01*
X61481000Y-57504714D01*
X61528619Y-57457095D01*
X61623857Y-57409476D01*
X61719095Y-57409476D01*
X61861952Y-57457095D01*
X62433381Y-58028524D01*
X62433381Y-57409476D01*
X61433381Y-57076143D02*
X61433381Y-56409476D01*
X62433381Y-56838048D01*
X76319143Y-44045143D02*
X76271524Y-44092762D01*
X76128667Y-44140381D01*
X76033429Y-44140381D01*
X75890571Y-44092762D01*
X75795333Y-43997524D01*
X75747714Y-43902286D01*
X75700095Y-43711810D01*
X75700095Y-43568952D01*
X75747714Y-43378476D01*
X75795333Y-43283238D01*
X75890571Y-43188000D01*
X76033429Y-43140381D01*
X76128667Y-43140381D01*
X76271524Y-43188000D01*
X76319143Y-43235619D01*
X76700095Y-43235619D02*
X76747714Y-43188000D01*
X76842952Y-43140381D01*
X77081048Y-43140381D01*
X77176286Y-43188000D01*
X77223905Y-43235619D01*
X77271524Y-43330857D01*
X77271524Y-43426095D01*
X77223905Y-43568952D01*
X76652476Y-44140381D01*
X77271524Y-44140381D01*
X77842952Y-43568952D02*
X77747714Y-43521333D01*
X77700095Y-43473714D01*
X77652476Y-43378476D01*
X77652476Y-43330857D01*
X77700095Y-43235619D01*
X77747714Y-43188000D01*
X77842952Y-43140381D01*
X78033429Y-43140381D01*
X78128667Y-43188000D01*
X78176286Y-43235619D01*
X78223905Y-43330857D01*
X78223905Y-43378476D01*
X78176286Y-43473714D01*
X78128667Y-43521333D01*
X78033429Y-43568952D01*
X77842952Y-43568952D01*
X77747714Y-43616571D01*
X77700095Y-43664190D01*
X77652476Y-43759429D01*
X77652476Y-43949905D01*
X77700095Y-44045143D01*
X77747714Y-44092762D01*
X77842952Y-44140381D01*
X78033429Y-44140381D01*
X78128667Y-44092762D01*
X78176286Y-44045143D01*
X78223905Y-43949905D01*
X78223905Y-43759429D01*
X78176286Y-43664190D01*
X78128667Y-43616571D01*
X78033429Y-43568952D01*
X69715143Y-45823143D02*
X69667524Y-45870762D01*
X69524667Y-45918381D01*
X69429429Y-45918381D01*
X69286571Y-45870762D01*
X69191333Y-45775524D01*
X69143714Y-45680286D01*
X69096095Y-45489810D01*
X69096095Y-45346952D01*
X69143714Y-45156476D01*
X69191333Y-45061238D01*
X69286571Y-44966000D01*
X69429429Y-44918381D01*
X69524667Y-44918381D01*
X69667524Y-44966000D01*
X69715143Y-45013619D01*
X70096095Y-45013619D02*
X70143714Y-44966000D01*
X70238952Y-44918381D01*
X70477048Y-44918381D01*
X70572286Y-44966000D01*
X70619905Y-45013619D01*
X70667524Y-45108857D01*
X70667524Y-45204095D01*
X70619905Y-45346952D01*
X70048476Y-45918381D01*
X70667524Y-45918381D01*
X71143714Y-45918381D02*
X71334190Y-45918381D01*
X71429429Y-45870762D01*
X71477048Y-45823143D01*
X71572286Y-45680286D01*
X71619905Y-45489810D01*
X71619905Y-45108857D01*
X71572286Y-45013619D01*
X71524667Y-44966000D01*
X71429429Y-44918381D01*
X71238952Y-44918381D01*
X71143714Y-44966000D01*
X71096095Y-45013619D01*
X71048476Y-45108857D01*
X71048476Y-45346952D01*
X71096095Y-45442190D01*
X71143714Y-45489810D01*
X71238952Y-45537429D01*
X71429429Y-45537429D01*
X71524667Y-45489810D01*
X71572286Y-45442190D01*
X71619905Y-45346952D01*
X22296381Y-44172095D02*
X21296381Y-44172095D01*
X21296381Y-43934000D01*
X21344000Y-43791142D01*
X21439238Y-43695904D01*
X21534476Y-43648285D01*
X21724952Y-43600666D01*
X21867810Y-43600666D01*
X22058286Y-43648285D01*
X22153524Y-43695904D01*
X22248762Y-43791142D01*
X22296381Y-43934000D01*
X22296381Y-44172095D01*
X22296381Y-42648285D02*
X22296381Y-43219714D01*
X22296381Y-42934000D02*
X21296381Y-42934000D01*
X21439238Y-43029238D01*
X21534476Y-43124476D01*
X21582095Y-43219714D01*
X17176762Y-38139619D02*
X17081524Y-38092000D01*
X16986286Y-37996762D01*
X16843429Y-37853905D01*
X16748190Y-37806286D01*
X16652952Y-37806286D01*
X16700571Y-38044381D02*
X16605333Y-37996762D01*
X16510095Y-37901524D01*
X16462476Y-37711048D01*
X16462476Y-37377714D01*
X16510095Y-37187238D01*
X16605333Y-37092000D01*
X16700571Y-37044381D01*
X16891048Y-37044381D01*
X16986286Y-37092000D01*
X17081524Y-37187238D01*
X17129143Y-37377714D01*
X17129143Y-37711048D01*
X17081524Y-37901524D01*
X16986286Y-37996762D01*
X16891048Y-38044381D01*
X16700571Y-38044381D01*
X18081524Y-38044381D02*
X17510095Y-38044381D01*
X17795809Y-38044381D02*
X17795809Y-37044381D01*
X17700571Y-37187238D01*
X17605333Y-37282476D01*
X17510095Y-37330095D01*
X17198762Y-46747619D02*
X17103524Y-46700000D01*
X17008286Y-46604762D01*
X16865429Y-46461905D01*
X16770190Y-46414286D01*
X16674952Y-46414286D01*
X16722571Y-46652381D02*
X16627333Y-46604762D01*
X16532095Y-46509524D01*
X16484476Y-46319048D01*
X16484476Y-45985714D01*
X16532095Y-45795238D01*
X16627333Y-45700000D01*
X16722571Y-45652381D01*
X16913048Y-45652381D01*
X17008286Y-45700000D01*
X17103524Y-45795238D01*
X17151143Y-45985714D01*
X17151143Y-46319048D01*
X17103524Y-46509524D01*
X17008286Y-46604762D01*
X16913048Y-46652381D01*
X16722571Y-46652381D01*
X17532095Y-45747619D02*
X17579714Y-45700000D01*
X17674952Y-45652381D01*
X17913048Y-45652381D01*
X18008286Y-45700000D01*
X18055905Y-45747619D01*
X18103524Y-45842857D01*
X18103524Y-45938095D01*
X18055905Y-46080952D01*
X17484476Y-46652381D01*
X18103524Y-46652381D01*
X11009334Y-39568381D02*
X10676000Y-39092190D01*
X10437905Y-39568381D02*
X10437905Y-38568381D01*
X10818858Y-38568381D01*
X10914096Y-38616000D01*
X10961715Y-38663619D01*
X11009334Y-38758857D01*
X11009334Y-38901714D01*
X10961715Y-38996952D01*
X10914096Y-39044571D01*
X10818858Y-39092190D01*
X10437905Y-39092190D01*
X11961715Y-39568381D02*
X11390286Y-39568381D01*
X11676000Y-39568381D02*
X11676000Y-38568381D01*
X11580762Y-38711238D01*
X11485524Y-38806476D01*
X11390286Y-38854095D01*
X11263334Y-45410381D02*
X10930000Y-44934190D01*
X10691905Y-45410381D02*
X10691905Y-44410381D01*
X11072858Y-44410381D01*
X11168096Y-44458000D01*
X11215715Y-44505619D01*
X11263334Y-44600857D01*
X11263334Y-44743714D01*
X11215715Y-44838952D01*
X11168096Y-44886571D01*
X11072858Y-44934190D01*
X10691905Y-44934190D01*
X11644286Y-44505619D02*
X11691905Y-44458000D01*
X11787143Y-44410381D01*
X12025239Y-44410381D01*
X12120477Y-44458000D01*
X12168096Y-44505619D01*
X12215715Y-44600857D01*
X12215715Y-44696095D01*
X12168096Y-44838952D01*
X11596667Y-45410381D01*
X12215715Y-45410381D01*
X11009334Y-41346381D02*
X10676000Y-40870190D01*
X10437905Y-41346381D02*
X10437905Y-40346381D01*
X10818858Y-40346381D01*
X10914096Y-40394000D01*
X10961715Y-40441619D01*
X11009334Y-40536857D01*
X11009334Y-40679714D01*
X10961715Y-40774952D01*
X10914096Y-40822571D01*
X10818858Y-40870190D01*
X10437905Y-40870190D01*
X11342667Y-40346381D02*
X11961715Y-40346381D01*
X11628381Y-40727333D01*
X11771239Y-40727333D01*
X11866477Y-40774952D01*
X11914096Y-40822571D01*
X11961715Y-40917810D01*
X11961715Y-41155905D01*
X11914096Y-41251143D01*
X11866477Y-41298762D01*
X11771239Y-41346381D01*
X11485524Y-41346381D01*
X11390286Y-41298762D01*
X11342667Y-41251143D01*
X11009334Y-43378381D02*
X10676000Y-42902190D01*
X10437905Y-43378381D02*
X10437905Y-42378381D01*
X10818858Y-42378381D01*
X10914096Y-42426000D01*
X10961715Y-42473619D01*
X11009334Y-42568857D01*
X11009334Y-42711714D01*
X10961715Y-42806952D01*
X10914096Y-42854571D01*
X10818858Y-42902190D01*
X10437905Y-42902190D01*
X11866477Y-42711714D02*
X11866477Y-43378381D01*
X11628381Y-42330762D02*
X11390286Y-43045048D01*
X12009334Y-43045048D01*
X39711334Y-57856381D02*
X39378000Y-57380190D01*
X39139905Y-57856381D02*
X39139905Y-56856381D01*
X39520858Y-56856381D01*
X39616096Y-56904000D01*
X39663715Y-56951619D01*
X39711334Y-57046857D01*
X39711334Y-57189714D01*
X39663715Y-57284952D01*
X39616096Y-57332571D01*
X39520858Y-57380190D01*
X39139905Y-57380190D01*
X40568477Y-56856381D02*
X40378000Y-56856381D01*
X40282762Y-56904000D01*
X40235143Y-56951619D01*
X40139905Y-57094476D01*
X40092286Y-57284952D01*
X40092286Y-57665905D01*
X40139905Y-57761143D01*
X40187524Y-57808762D01*
X40282762Y-57856381D01*
X40473239Y-57856381D01*
X40568477Y-57808762D01*
X40616096Y-57761143D01*
X40663715Y-57665905D01*
X40663715Y-57427810D01*
X40616096Y-57332571D01*
X40568477Y-57284952D01*
X40473239Y-57237333D01*
X40282762Y-57237333D01*
X40187524Y-57284952D01*
X40139905Y-57332571D01*
X40092286Y-57427810D01*
X49363334Y-57602381D02*
X49030000Y-57126190D01*
X48791905Y-57602381D02*
X48791905Y-56602381D01*
X49172858Y-56602381D01*
X49268096Y-56650000D01*
X49315715Y-56697619D01*
X49363334Y-56792857D01*
X49363334Y-56935714D01*
X49315715Y-57030952D01*
X49268096Y-57078571D01*
X49172858Y-57126190D01*
X48791905Y-57126190D01*
X49696667Y-56602381D02*
X50363334Y-56602381D01*
X49934762Y-57602381D01*
X54824334Y-58432381D02*
X54491000Y-57956190D01*
X54252905Y-58432381D02*
X54252905Y-57432381D01*
X54633858Y-57432381D01*
X54729096Y-57480000D01*
X54776715Y-57527619D01*
X54824334Y-57622857D01*
X54824334Y-57765714D01*
X54776715Y-57860952D01*
X54729096Y-57908571D01*
X54633858Y-57956190D01*
X54252905Y-57956190D01*
X55395762Y-57860952D02*
X55300524Y-57813333D01*
X55252905Y-57765714D01*
X55205286Y-57670476D01*
X55205286Y-57622857D01*
X55252905Y-57527619D01*
X55300524Y-57480000D01*
X55395762Y-57432381D01*
X55586239Y-57432381D01*
X55681477Y-57480000D01*
X55729096Y-57527619D01*
X55776715Y-57622857D01*
X55776715Y-57670476D01*
X55729096Y-57765714D01*
X55681477Y-57813333D01*
X55586239Y-57860952D01*
X55395762Y-57860952D01*
X55300524Y-57908571D01*
X55252905Y-57956190D01*
X55205286Y-58051429D01*
X55205286Y-58241905D01*
X55252905Y-58337143D01*
X55300524Y-58384762D01*
X55395762Y-58432381D01*
X55586239Y-58432381D01*
X55681477Y-58384762D01*
X55729096Y-58337143D01*
X55776715Y-58241905D01*
X55776715Y-58051429D01*
X55729096Y-57956190D01*
X55681477Y-57908571D01*
X55586239Y-57860952D01*
X51252381Y-50204666D02*
X50776190Y-50538000D01*
X51252381Y-50776095D02*
X50252381Y-50776095D01*
X50252381Y-50395142D01*
X50300000Y-50299904D01*
X50347619Y-50252285D01*
X50442857Y-50204666D01*
X50585714Y-50204666D01*
X50680952Y-50252285D01*
X50728571Y-50299904D01*
X50776190Y-50395142D01*
X50776190Y-50776095D01*
X51252381Y-49728476D02*
X51252381Y-49538000D01*
X51204762Y-49442761D01*
X51157143Y-49395142D01*
X51014286Y-49299904D01*
X50823810Y-49252285D01*
X50442857Y-49252285D01*
X50347619Y-49299904D01*
X50300000Y-49347523D01*
X50252381Y-49442761D01*
X50252381Y-49633238D01*
X50300000Y-49728476D01*
X50347619Y-49776095D01*
X50442857Y-49823714D01*
X50680952Y-49823714D01*
X50776190Y-49776095D01*
X50823810Y-49728476D01*
X50871429Y-49633238D01*
X50871429Y-49442761D01*
X50823810Y-49347523D01*
X50776190Y-49299904D01*
X50680952Y-49252285D01*
X55248381Y-53220857D02*
X54772190Y-53554191D01*
X55248381Y-53792286D02*
X54248381Y-53792286D01*
X54248381Y-53411333D01*
X54296000Y-53316095D01*
X54343619Y-53268476D01*
X54438857Y-53220857D01*
X54581714Y-53220857D01*
X54676952Y-53268476D01*
X54724571Y-53316095D01*
X54772190Y-53411333D01*
X54772190Y-53792286D01*
X55248381Y-52268476D02*
X55248381Y-52839905D01*
X55248381Y-52554191D02*
X54248381Y-52554191D01*
X54391238Y-52649429D01*
X54486476Y-52744667D01*
X54534095Y-52839905D01*
X54248381Y-51649429D02*
X54248381Y-51554190D01*
X54296000Y-51458952D01*
X54343619Y-51411333D01*
X54438857Y-51363714D01*
X54629333Y-51316095D01*
X54867429Y-51316095D01*
X55057905Y-51363714D01*
X55153143Y-51411333D01*
X55200762Y-51458952D01*
X55248381Y-51554190D01*
X55248381Y-51649429D01*
X55200762Y-51744667D01*
X55153143Y-51792286D01*
X55057905Y-51839905D01*
X54867429Y-51887524D01*
X54629333Y-51887524D01*
X54438857Y-51839905D01*
X54343619Y-51792286D01*
X54296000Y-51744667D01*
X54248381Y-51649429D01*
X74874381Y-62872857D02*
X74398190Y-63206191D01*
X74874381Y-63444286D02*
X73874381Y-63444286D01*
X73874381Y-63063333D01*
X73922000Y-62968095D01*
X73969619Y-62920476D01*
X74064857Y-62872857D01*
X74207714Y-62872857D01*
X74302952Y-62920476D01*
X74350571Y-62968095D01*
X74398190Y-63063333D01*
X74398190Y-63444286D01*
X74874381Y-61920476D02*
X74874381Y-62491905D01*
X74874381Y-62206191D02*
X73874381Y-62206191D01*
X74017238Y-62301429D01*
X74112476Y-62396667D01*
X74160095Y-62491905D01*
X74874381Y-60968095D02*
X74874381Y-61539524D01*
X74874381Y-61253810D02*
X73874381Y-61253810D01*
X74017238Y-61349048D01*
X74112476Y-61444286D01*
X74160095Y-61539524D01*
X69969143Y-61666381D02*
X69635809Y-61190190D01*
X69397714Y-61666381D02*
X69397714Y-60666381D01*
X69778667Y-60666381D01*
X69873905Y-60714000D01*
X69921524Y-60761619D01*
X69969143Y-60856857D01*
X69969143Y-60999714D01*
X69921524Y-61094952D01*
X69873905Y-61142571D01*
X69778667Y-61190190D01*
X69397714Y-61190190D01*
X70921524Y-61666381D02*
X70350095Y-61666381D01*
X70635809Y-61666381D02*
X70635809Y-60666381D01*
X70540571Y-60809238D01*
X70445333Y-60904476D01*
X70350095Y-60952095D01*
X71302476Y-60761619D02*
X71350095Y-60714000D01*
X71445333Y-60666381D01*
X71683429Y-60666381D01*
X71778667Y-60714000D01*
X71826286Y-60761619D01*
X71873905Y-60856857D01*
X71873905Y-60952095D01*
X71826286Y-61094952D01*
X71254857Y-61666381D01*
X71873905Y-61666381D01*
X69969143Y-55062381D02*
X69635809Y-54586190D01*
X69397714Y-55062381D02*
X69397714Y-54062381D01*
X69778667Y-54062381D01*
X69873905Y-54110000D01*
X69921524Y-54157619D01*
X69969143Y-54252857D01*
X69969143Y-54395714D01*
X69921524Y-54490952D01*
X69873905Y-54538571D01*
X69778667Y-54586190D01*
X69397714Y-54586190D01*
X70921524Y-55062381D02*
X70350095Y-55062381D01*
X70635809Y-55062381D02*
X70635809Y-54062381D01*
X70540571Y-54205238D01*
X70445333Y-54300476D01*
X70350095Y-54348095D01*
X71254857Y-54062381D02*
X71873905Y-54062381D01*
X71540571Y-54443333D01*
X71683429Y-54443333D01*
X71778667Y-54490952D01*
X71826286Y-54538571D01*
X71873905Y-54633810D01*
X71873905Y-54871905D01*
X71826286Y-54967143D01*
X71778667Y-55014762D01*
X71683429Y-55062381D01*
X71397714Y-55062381D01*
X71302476Y-55014762D01*
X71254857Y-54967143D01*
X66413143Y-63190381D02*
X66079809Y-62714190D01*
X65841714Y-63190381D02*
X65841714Y-62190381D01*
X66222667Y-62190381D01*
X66317905Y-62238000D01*
X66365524Y-62285619D01*
X66413143Y-62380857D01*
X66413143Y-62523714D01*
X66365524Y-62618952D01*
X66317905Y-62666571D01*
X66222667Y-62714190D01*
X65841714Y-62714190D01*
X67365524Y-63190381D02*
X66794095Y-63190381D01*
X67079809Y-63190381D02*
X67079809Y-62190381D01*
X66984571Y-62333238D01*
X66889333Y-62428476D01*
X66794095Y-62476095D01*
X68222667Y-62523714D02*
X68222667Y-63190381D01*
X67984571Y-62142762D02*
X67746476Y-62857048D01*
X68365524Y-62857048D01*
X59555143Y-52014381D02*
X59221809Y-51538190D01*
X58983714Y-52014381D02*
X58983714Y-51014381D01*
X59364667Y-51014381D01*
X59459905Y-51062000D01*
X59507524Y-51109619D01*
X59555143Y-51204857D01*
X59555143Y-51347714D01*
X59507524Y-51442952D01*
X59459905Y-51490571D01*
X59364667Y-51538190D01*
X58983714Y-51538190D01*
X60507524Y-52014381D02*
X59936095Y-52014381D01*
X60221809Y-52014381D02*
X60221809Y-51014381D01*
X60126571Y-51157238D01*
X60031333Y-51252476D01*
X59936095Y-51300095D01*
X61412286Y-51014381D02*
X60936095Y-51014381D01*
X60888476Y-51490571D01*
X60936095Y-51442952D01*
X61031333Y-51395333D01*
X61269429Y-51395333D01*
X61364667Y-51442952D01*
X61412286Y-51490571D01*
X61459905Y-51585810D01*
X61459905Y-51823905D01*
X61412286Y-51919143D01*
X61364667Y-51966762D01*
X61269429Y-52014381D01*
X61031333Y-52014381D01*
X60936095Y-51966762D01*
X60888476Y-51919143D01*
X59555143Y-50236381D02*
X59221809Y-49760190D01*
X58983714Y-50236381D02*
X58983714Y-49236381D01*
X59364667Y-49236381D01*
X59459905Y-49284000D01*
X59507524Y-49331619D01*
X59555143Y-49426857D01*
X59555143Y-49569714D01*
X59507524Y-49664952D01*
X59459905Y-49712571D01*
X59364667Y-49760190D01*
X58983714Y-49760190D01*
X60507524Y-50236381D02*
X59936095Y-50236381D01*
X60221809Y-50236381D02*
X60221809Y-49236381D01*
X60126571Y-49379238D01*
X60031333Y-49474476D01*
X59936095Y-49522095D01*
X61364667Y-49236381D02*
X61174190Y-49236381D01*
X61078952Y-49284000D01*
X61031333Y-49331619D01*
X60936095Y-49474476D01*
X60888476Y-49664952D01*
X60888476Y-50045905D01*
X60936095Y-50141143D01*
X60983714Y-50188762D01*
X61078952Y-50236381D01*
X61269429Y-50236381D01*
X61364667Y-50188762D01*
X61412286Y-50141143D01*
X61459905Y-50045905D01*
X61459905Y-49807810D01*
X61412286Y-49712571D01*
X61364667Y-49664952D01*
X61269429Y-49617333D01*
X61078952Y-49617333D01*
X60983714Y-49664952D01*
X60936095Y-49712571D01*
X60888476Y-49807810D01*
X55237143Y-2230381D02*
X54903809Y-1754190D01*
X54665714Y-2230381D02*
X54665714Y-1230381D01*
X55046667Y-1230381D01*
X55141905Y-1278000D01*
X55189524Y-1325619D01*
X55237143Y-1420857D01*
X55237143Y-1563714D01*
X55189524Y-1658952D01*
X55141905Y-1706571D01*
X55046667Y-1754190D01*
X54665714Y-1754190D01*
X56189524Y-2230381D02*
X55618095Y-2230381D01*
X55903809Y-2230381D02*
X55903809Y-1230381D01*
X55808571Y-1373238D01*
X55713333Y-1468476D01*
X55618095Y-1516095D01*
X56522857Y-1230381D02*
X57189524Y-1230381D01*
X56760952Y-2230381D01*
X82748381Y-44330857D02*
X82272190Y-44664191D01*
X82748381Y-44902286D02*
X81748381Y-44902286D01*
X81748381Y-44521333D01*
X81796000Y-44426095D01*
X81843619Y-44378476D01*
X81938857Y-44330857D01*
X82081714Y-44330857D01*
X82176952Y-44378476D01*
X82224571Y-44426095D01*
X82272190Y-44521333D01*
X82272190Y-44902286D01*
X82748381Y-43378476D02*
X82748381Y-43949905D01*
X82748381Y-43664191D02*
X81748381Y-43664191D01*
X81891238Y-43759429D01*
X81986476Y-43854667D01*
X82034095Y-43949905D01*
X82176952Y-42807048D02*
X82129333Y-42902286D01*
X82081714Y-42949905D01*
X81986476Y-42997524D01*
X81938857Y-42997524D01*
X81843619Y-42949905D01*
X81796000Y-42902286D01*
X81748381Y-42807048D01*
X81748381Y-42616571D01*
X81796000Y-42521333D01*
X81843619Y-42473714D01*
X81938857Y-42426095D01*
X81986476Y-42426095D01*
X82081714Y-42473714D01*
X82129333Y-42521333D01*
X82176952Y-42616571D01*
X82176952Y-42807048D01*
X82224571Y-42902286D01*
X82272190Y-42949905D01*
X82367429Y-42997524D01*
X82557905Y-42997524D01*
X82653143Y-42949905D01*
X82700762Y-42902286D01*
X82748381Y-42807048D01*
X82748381Y-42616571D01*
X82700762Y-42521333D01*
X82653143Y-42473714D01*
X82557905Y-42426095D01*
X82367429Y-42426095D01*
X82272190Y-42473714D01*
X82224571Y-42521333D01*
X82176952Y-42616571D01*
X80716381Y-52966857D02*
X80240190Y-53300191D01*
X80716381Y-53538286D02*
X79716381Y-53538286D01*
X79716381Y-53157333D01*
X79764000Y-53062095D01*
X79811619Y-53014476D01*
X79906857Y-52966857D01*
X80049714Y-52966857D01*
X80144952Y-53014476D01*
X80192571Y-53062095D01*
X80240190Y-53157333D01*
X80240190Y-53538286D01*
X80716381Y-52014476D02*
X80716381Y-52585905D01*
X80716381Y-52300191D02*
X79716381Y-52300191D01*
X79859238Y-52395429D01*
X79954476Y-52490667D01*
X80002095Y-52585905D01*
X80716381Y-51538286D02*
X80716381Y-51347810D01*
X80668762Y-51252571D01*
X80621143Y-51204952D01*
X80478286Y-51109714D01*
X80287810Y-51062095D01*
X79906857Y-51062095D01*
X79811619Y-51109714D01*
X79764000Y-51157333D01*
X79716381Y-51252571D01*
X79716381Y-51443048D01*
X79764000Y-51538286D01*
X79811619Y-51585905D01*
X79906857Y-51633524D01*
X80144952Y-51633524D01*
X80240190Y-51585905D01*
X80287810Y-51538286D01*
X80335429Y-51443048D01*
X80335429Y-51252571D01*
X80287810Y-51157333D01*
X80240190Y-51109714D01*
X80144952Y-51062095D01*
X55824381Y-37980857D02*
X55348190Y-38314191D01*
X55824381Y-38552286D02*
X54824381Y-38552286D01*
X54824381Y-38171333D01*
X54872000Y-38076095D01*
X54919619Y-38028476D01*
X55014857Y-37980857D01*
X55157714Y-37980857D01*
X55252952Y-38028476D01*
X55300571Y-38076095D01*
X55348190Y-38171333D01*
X55348190Y-38552286D01*
X54919619Y-37599905D02*
X54872000Y-37552286D01*
X54824381Y-37457048D01*
X54824381Y-37218952D01*
X54872000Y-37123714D01*
X54919619Y-37076095D01*
X55014857Y-37028476D01*
X55110095Y-37028476D01*
X55252952Y-37076095D01*
X55824381Y-37647524D01*
X55824381Y-37028476D01*
X54824381Y-36409429D02*
X54824381Y-36314190D01*
X54872000Y-36218952D01*
X54919619Y-36171333D01*
X55014857Y-36123714D01*
X55205333Y-36076095D01*
X55443429Y-36076095D01*
X55633905Y-36123714D01*
X55729143Y-36171333D01*
X55776762Y-36218952D01*
X55824381Y-36314190D01*
X55824381Y-36409429D01*
X55776762Y-36504667D01*
X55729143Y-36552286D01*
X55633905Y-36599905D01*
X55443429Y-36647524D01*
X55205333Y-36647524D01*
X55014857Y-36599905D01*
X54919619Y-36552286D01*
X54872000Y-36504667D01*
X54824381Y-36409429D01*
X62972381Y-16612857D02*
X62496190Y-16946191D01*
X62972381Y-17184286D02*
X61972381Y-17184286D01*
X61972381Y-16803333D01*
X62020000Y-16708095D01*
X62067619Y-16660476D01*
X62162857Y-16612857D01*
X62305714Y-16612857D01*
X62400952Y-16660476D01*
X62448571Y-16708095D01*
X62496190Y-16803333D01*
X62496190Y-17184286D01*
X62067619Y-16231905D02*
X62020000Y-16184286D01*
X61972381Y-16089048D01*
X61972381Y-15850952D01*
X62020000Y-15755714D01*
X62067619Y-15708095D01*
X62162857Y-15660476D01*
X62258095Y-15660476D01*
X62400952Y-15708095D01*
X62972381Y-16279524D01*
X62972381Y-15660476D01*
X62972381Y-14708095D02*
X62972381Y-15279524D01*
X62972381Y-14993810D02*
X61972381Y-14993810D01*
X62115238Y-15089048D01*
X62210476Y-15184286D01*
X62258095Y-15279524D01*
X81907143Y-38044381D02*
X81573809Y-37568190D01*
X81335714Y-38044381D02*
X81335714Y-37044381D01*
X81716667Y-37044381D01*
X81811905Y-37092000D01*
X81859524Y-37139619D01*
X81907143Y-37234857D01*
X81907143Y-37377714D01*
X81859524Y-37472952D01*
X81811905Y-37520571D01*
X81716667Y-37568190D01*
X81335714Y-37568190D01*
X82288095Y-37139619D02*
X82335714Y-37092000D01*
X82430952Y-37044381D01*
X82669048Y-37044381D01*
X82764286Y-37092000D01*
X82811905Y-37139619D01*
X82859524Y-37234857D01*
X82859524Y-37330095D01*
X82811905Y-37472952D01*
X82240476Y-38044381D01*
X82859524Y-38044381D01*
X83240476Y-37139619D02*
X83288095Y-37092000D01*
X83383333Y-37044381D01*
X83621429Y-37044381D01*
X83716667Y-37092000D01*
X83764286Y-37139619D01*
X83811905Y-37234857D01*
X83811905Y-37330095D01*
X83764286Y-37472952D01*
X83192857Y-38044381D01*
X83811905Y-38044381D01*
X82161143Y-39568381D02*
X81827809Y-39092190D01*
X81589714Y-39568381D02*
X81589714Y-38568381D01*
X81970667Y-38568381D01*
X82065905Y-38616000D01*
X82113524Y-38663619D01*
X82161143Y-38758857D01*
X82161143Y-38901714D01*
X82113524Y-38996952D01*
X82065905Y-39044571D01*
X81970667Y-39092190D01*
X81589714Y-39092190D01*
X82542095Y-38663619D02*
X82589714Y-38616000D01*
X82684952Y-38568381D01*
X82923048Y-38568381D01*
X83018286Y-38616000D01*
X83065905Y-38663619D01*
X83113524Y-38758857D01*
X83113524Y-38854095D01*
X83065905Y-38996952D01*
X82494476Y-39568381D01*
X83113524Y-39568381D01*
X83446857Y-38568381D02*
X84065905Y-38568381D01*
X83732571Y-38949333D01*
X83875429Y-38949333D01*
X83970667Y-38996952D01*
X84018286Y-39044571D01*
X84065905Y-39139810D01*
X84065905Y-39377905D01*
X84018286Y-39473143D01*
X83970667Y-39520762D01*
X83875429Y-39568381D01*
X83589714Y-39568381D01*
X83494476Y-39520762D01*
X83446857Y-39473143D01*
X66667143Y-51760381D02*
X66333809Y-51284190D01*
X66095714Y-51760381D02*
X66095714Y-50760381D01*
X66476667Y-50760381D01*
X66571905Y-50808000D01*
X66619524Y-50855619D01*
X66667143Y-50950857D01*
X66667143Y-51093714D01*
X66619524Y-51188952D01*
X66571905Y-51236571D01*
X66476667Y-51284190D01*
X66095714Y-51284190D01*
X67048095Y-50855619D02*
X67095714Y-50808000D01*
X67190952Y-50760381D01*
X67429048Y-50760381D01*
X67524286Y-50808000D01*
X67571905Y-50855619D01*
X67619524Y-50950857D01*
X67619524Y-51046095D01*
X67571905Y-51188952D01*
X67000476Y-51760381D01*
X67619524Y-51760381D01*
X68476667Y-51093714D02*
X68476667Y-51760381D01*
X68238571Y-50712762D02*
X68000476Y-51427048D01*
X68619524Y-51427048D01*
X63873143Y-48458381D02*
X63539809Y-47982190D01*
X63301714Y-48458381D02*
X63301714Y-47458381D01*
X63682667Y-47458381D01*
X63777905Y-47506000D01*
X63825524Y-47553619D01*
X63873143Y-47648857D01*
X63873143Y-47791714D01*
X63825524Y-47886952D01*
X63777905Y-47934571D01*
X63682667Y-47982190D01*
X63301714Y-47982190D01*
X64254095Y-47553619D02*
X64301714Y-47506000D01*
X64396952Y-47458381D01*
X64635048Y-47458381D01*
X64730286Y-47506000D01*
X64777905Y-47553619D01*
X64825524Y-47648857D01*
X64825524Y-47744095D01*
X64777905Y-47886952D01*
X64206476Y-48458381D01*
X64825524Y-48458381D01*
X65730286Y-47458381D02*
X65254095Y-47458381D01*
X65206476Y-47934571D01*
X65254095Y-47886952D01*
X65349333Y-47839333D01*
X65587429Y-47839333D01*
X65682667Y-47886952D01*
X65730286Y-47934571D01*
X65777905Y-48029810D01*
X65777905Y-48267905D01*
X65730286Y-48363143D01*
X65682667Y-48410762D01*
X65587429Y-48458381D01*
X65349333Y-48458381D01*
X65254095Y-48410762D01*
X65206476Y-48363143D01*
X81907143Y-41092381D02*
X81573809Y-40616190D01*
X81335714Y-41092381D02*
X81335714Y-40092381D01*
X81716667Y-40092381D01*
X81811905Y-40140000D01*
X81859524Y-40187619D01*
X81907143Y-40282857D01*
X81907143Y-40425714D01*
X81859524Y-40520952D01*
X81811905Y-40568571D01*
X81716667Y-40616190D01*
X81335714Y-40616190D01*
X82288095Y-40187619D02*
X82335714Y-40140000D01*
X82430952Y-40092381D01*
X82669048Y-40092381D01*
X82764286Y-40140000D01*
X82811905Y-40187619D01*
X82859524Y-40282857D01*
X82859524Y-40378095D01*
X82811905Y-40520952D01*
X82240476Y-41092381D01*
X82859524Y-41092381D01*
X83716667Y-40092381D02*
X83526190Y-40092381D01*
X83430952Y-40140000D01*
X83383333Y-40187619D01*
X83288095Y-40330476D01*
X83240476Y-40520952D01*
X83240476Y-40901905D01*
X83288095Y-40997143D01*
X83335714Y-41044762D01*
X83430952Y-41092381D01*
X83621429Y-41092381D01*
X83716667Y-41044762D01*
X83764286Y-40997143D01*
X83811905Y-40901905D01*
X83811905Y-40663810D01*
X83764286Y-40568571D01*
X83716667Y-40520952D01*
X83621429Y-40473333D01*
X83430952Y-40473333D01*
X83335714Y-40520952D01*
X83288095Y-40568571D01*
X83240476Y-40663810D01*
X22596381Y-40092857D02*
X22120190Y-40426191D01*
X22596381Y-40664286D02*
X21596381Y-40664286D01*
X21596381Y-40283333D01*
X21644000Y-40188095D01*
X21691619Y-40140476D01*
X21786857Y-40092857D01*
X21929714Y-40092857D01*
X22024952Y-40140476D01*
X22072571Y-40188095D01*
X22120190Y-40283333D01*
X22120190Y-40664286D01*
X21691619Y-39711905D02*
X21644000Y-39664286D01*
X21596381Y-39569048D01*
X21596381Y-39330952D01*
X21644000Y-39235714D01*
X21691619Y-39188095D01*
X21786857Y-39140476D01*
X21882095Y-39140476D01*
X22024952Y-39188095D01*
X22596381Y-39759524D01*
X22596381Y-39140476D01*
X21596381Y-38807143D02*
X21596381Y-38140476D01*
X22596381Y-38569048D01*
X72263095Y-12342881D02*
X72263095Y-13152405D01*
X72310714Y-13247643D01*
X72358333Y-13295262D01*
X72453571Y-13342881D01*
X72644048Y-13342881D01*
X72739286Y-13295262D01*
X72786905Y-13247643D01*
X72834524Y-13152405D01*
X72834524Y-12342881D01*
X73834524Y-13342881D02*
X73263095Y-13342881D01*
X73548809Y-13342881D02*
X73548809Y-12342881D01*
X73453571Y-12485738D01*
X73358333Y-12580976D01*
X73263095Y-12628595D01*
X52458095Y-18310381D02*
X52458095Y-19119905D01*
X52505714Y-19215143D01*
X52553333Y-19262762D01*
X52648571Y-19310381D01*
X52839048Y-19310381D01*
X52934286Y-19262762D01*
X52981905Y-19215143D01*
X53029524Y-19119905D01*
X53029524Y-18310381D01*
X53458095Y-18405619D02*
X53505714Y-18358000D01*
X53600952Y-18310381D01*
X53839048Y-18310381D01*
X53934286Y-18358000D01*
X53981905Y-18405619D01*
X54029524Y-18500857D01*
X54029524Y-18596095D01*
X53981905Y-18738952D01*
X53410476Y-19310381D01*
X54029524Y-19310381D01*
X63541095Y-60307381D02*
X63541095Y-61116905D01*
X63588714Y-61212143D01*
X63636333Y-61259762D01*
X63731571Y-61307381D01*
X63922048Y-61307381D01*
X64017286Y-61259762D01*
X64064905Y-61212143D01*
X64112524Y-61116905D01*
X64112524Y-60307381D01*
X65017286Y-60640714D02*
X65017286Y-61307381D01*
X64779190Y-60259762D02*
X64541095Y-60974048D01*
X65160143Y-60974048D01*
X40691095Y-40768381D02*
X40691095Y-41577905D01*
X40738714Y-41673143D01*
X40786333Y-41720762D01*
X40881571Y-41768381D01*
X41072048Y-41768381D01*
X41167286Y-41720762D01*
X41214905Y-41673143D01*
X41262524Y-41577905D01*
X41262524Y-40768381D01*
X42214905Y-40768381D02*
X41738714Y-40768381D01*
X41691095Y-41244571D01*
X41738714Y-41196952D01*
X41833952Y-41149333D01*
X42072048Y-41149333D01*
X42167286Y-41196952D01*
X42214905Y-41244571D01*
X42262524Y-41339810D01*
X42262524Y-41577905D01*
X42214905Y-41673143D01*
X42167286Y-41720762D01*
X42072048Y-41768381D01*
X41833952Y-41768381D01*
X41738714Y-41720762D01*
X41691095Y-41673143D01*
X72898095Y-35266381D02*
X72898095Y-36075905D01*
X72945714Y-36171143D01*
X72993333Y-36218762D01*
X73088571Y-36266381D01*
X73279048Y-36266381D01*
X73374286Y-36218762D01*
X73421905Y-36171143D01*
X73469524Y-36075905D01*
X73469524Y-35266381D01*
X74374286Y-35266381D02*
X74183809Y-35266381D01*
X74088571Y-35314000D01*
X74040952Y-35361619D01*
X73945714Y-35504476D01*
X73898095Y-35694952D01*
X73898095Y-36075905D01*
X73945714Y-36171143D01*
X73993333Y-36218762D01*
X74088571Y-36266381D01*
X74279048Y-36266381D01*
X74374286Y-36218762D01*
X74421905Y-36171143D01*
X74469524Y-36075905D01*
X74469524Y-35837810D01*
X74421905Y-35742571D01*
X74374286Y-35694952D01*
X74279048Y-35647333D01*
X74088571Y-35647333D01*
X73993333Y-35694952D01*
X73945714Y-35742571D01*
X73898095Y-35837810D01*
X72898095Y-47458381D02*
X72898095Y-48267905D01*
X72945714Y-48363143D01*
X72993333Y-48410762D01*
X73088571Y-48458381D01*
X73279048Y-48458381D01*
X73374286Y-48410762D01*
X73421905Y-48363143D01*
X73469524Y-48267905D01*
X73469524Y-47458381D01*
X73850476Y-47458381D02*
X74517143Y-47458381D01*
X74088571Y-48458381D01*
X60198095Y-32980381D02*
X60198095Y-33789905D01*
X60245714Y-33885143D01*
X60293333Y-33932762D01*
X60388571Y-33980381D01*
X60579048Y-33980381D01*
X60674286Y-33932762D01*
X60721905Y-33885143D01*
X60769524Y-33789905D01*
X60769524Y-32980381D01*
X61388571Y-33408952D02*
X61293333Y-33361333D01*
X61245714Y-33313714D01*
X61198095Y-33218476D01*
X61198095Y-33170857D01*
X61245714Y-33075619D01*
X61293333Y-33028000D01*
X61388571Y-32980381D01*
X61579048Y-32980381D01*
X61674286Y-33028000D01*
X61721905Y-33075619D01*
X61769524Y-33170857D01*
X61769524Y-33218476D01*
X61721905Y-33313714D01*
X61674286Y-33361333D01*
X61579048Y-33408952D01*
X61388571Y-33408952D01*
X61293333Y-33456571D01*
X61245714Y-33504190D01*
X61198095Y-33599429D01*
X61198095Y-33789905D01*
X61245714Y-33885143D01*
X61293333Y-33932762D01*
X61388571Y-33980381D01*
X61579048Y-33980381D01*
X61674286Y-33932762D01*
X61721905Y-33885143D01*
X61769524Y-33789905D01*
X61769524Y-33599429D01*
X61721905Y-33504190D01*
X61674286Y-33456571D01*
X61579048Y-33408952D01*
X41933905Y-55316381D02*
X41933905Y-54316381D01*
X42172000Y-54316381D01*
X42314858Y-54364000D01*
X42410096Y-54459238D01*
X42457715Y-54554476D01*
X42505334Y-54744952D01*
X42505334Y-54887810D01*
X42457715Y-55078286D01*
X42410096Y-55173524D01*
X42314858Y-55268762D01*
X42172000Y-55316381D01*
X41933905Y-55316381D01*
X42886286Y-54411619D02*
X42933905Y-54364000D01*
X43029143Y-54316381D01*
X43267239Y-54316381D01*
X43362477Y-54364000D01*
X43410096Y-54411619D01*
X43457715Y-54506857D01*
X43457715Y-54602095D01*
X43410096Y-54744952D01*
X42838667Y-55316381D01*
X43457715Y-55316381D01*
X53363905Y-55280381D02*
X53363905Y-54280381D01*
X53602000Y-54280381D01*
X53744858Y-54328000D01*
X53840096Y-54423238D01*
X53887715Y-54518476D01*
X53935334Y-54708952D01*
X53935334Y-54851810D01*
X53887715Y-55042286D01*
X53840096Y-55137524D01*
X53744858Y-55232762D01*
X53602000Y-55280381D01*
X53363905Y-55280381D01*
X54268667Y-54280381D02*
X54887715Y-54280381D01*
X54554381Y-54661333D01*
X54697239Y-54661333D01*
X54792477Y-54708952D01*
X54840096Y-54756571D01*
X54887715Y-54851810D01*
X54887715Y-55089905D01*
X54840096Y-55185143D01*
X54792477Y-55232762D01*
X54697239Y-55280381D01*
X54411524Y-55280381D01*
X54316286Y-55232762D01*
X54268667Y-55185143D01*
X45997905Y-55316381D02*
X45997905Y-54316381D01*
X46236000Y-54316381D01*
X46378858Y-54364000D01*
X46474096Y-54459238D01*
X46521715Y-54554476D01*
X46569334Y-54744952D01*
X46569334Y-54887810D01*
X46521715Y-55078286D01*
X46474096Y-55173524D01*
X46378858Y-55268762D01*
X46236000Y-55316381D01*
X45997905Y-55316381D01*
X47426477Y-54649714D02*
X47426477Y-55316381D01*
X47188381Y-54268762D02*
X46950286Y-54983048D01*
X47569334Y-54983048D01*
X56919905Y-50236381D02*
X56919905Y-49236381D01*
X57158000Y-49236381D01*
X57300858Y-49284000D01*
X57396096Y-49379238D01*
X57443715Y-49474476D01*
X57491334Y-49664952D01*
X57491334Y-49807810D01*
X57443715Y-49998286D01*
X57396096Y-50093524D01*
X57300858Y-50188762D01*
X57158000Y-50236381D01*
X56919905Y-50236381D01*
X57824667Y-49236381D02*
X58491334Y-49236381D01*
X58062762Y-50236381D01*
X33393143Y-48871143D02*
X33345524Y-48918762D01*
X33202667Y-48966381D01*
X33107429Y-48966381D01*
X32964571Y-48918762D01*
X32869333Y-48823524D01*
X32821714Y-48728286D01*
X32774095Y-48537810D01*
X32774095Y-48394952D01*
X32821714Y-48204476D01*
X32869333Y-48109238D01*
X32964571Y-48014000D01*
X33107429Y-47966381D01*
X33202667Y-47966381D01*
X33345524Y-48014000D01*
X33393143Y-48061619D01*
X33726476Y-47966381D02*
X34345524Y-47966381D01*
X34012190Y-48347333D01*
X34155048Y-48347333D01*
X34250286Y-48394952D01*
X34297905Y-48442571D01*
X34345524Y-48537810D01*
X34345524Y-48775905D01*
X34297905Y-48871143D01*
X34250286Y-48918762D01*
X34155048Y-48966381D01*
X33869333Y-48966381D01*
X33774095Y-48918762D01*
X33726476Y-48871143D01*
X34964571Y-47966381D02*
X35059810Y-47966381D01*
X35155048Y-48014000D01*
X35202667Y-48061619D01*
X35250286Y-48156857D01*
X35297905Y-48347333D01*
X35297905Y-48585429D01*
X35250286Y-48775905D01*
X35202667Y-48871143D01*
X35155048Y-48918762D01*
X35059810Y-48966381D01*
X34964571Y-48966381D01*
X34869333Y-48918762D01*
X34821714Y-48871143D01*
X34774095Y-48775905D01*
X34726476Y-48585429D01*
X34726476Y-48347333D01*
X34774095Y-48156857D01*
X34821714Y-48061619D01*
X34869333Y-48014000D01*
X34964571Y-47966381D01*
X31615143Y-47415143D02*
X31567524Y-47462762D01*
X31424667Y-47510381D01*
X31329429Y-47510381D01*
X31186571Y-47462762D01*
X31091333Y-47367524D01*
X31043714Y-47272286D01*
X30996095Y-47081810D01*
X30996095Y-46938952D01*
X31043714Y-46748476D01*
X31091333Y-46653238D01*
X31186571Y-46558000D01*
X31329429Y-46510381D01*
X31424667Y-46510381D01*
X31567524Y-46558000D01*
X31615143Y-46605619D01*
X31948476Y-46510381D02*
X32567524Y-46510381D01*
X32234190Y-46891333D01*
X32377048Y-46891333D01*
X32472286Y-46938952D01*
X32519905Y-46986571D01*
X32567524Y-47081810D01*
X32567524Y-47319905D01*
X32519905Y-47415143D01*
X32472286Y-47462762D01*
X32377048Y-47510381D01*
X32091333Y-47510381D01*
X31996095Y-47462762D01*
X31948476Y-47415143D01*
X33519905Y-47510381D02*
X32948476Y-47510381D01*
X33234190Y-47510381D02*
X33234190Y-46510381D01*
X33138952Y-46653238D01*
X33043714Y-46748476D01*
X32948476Y-46796095D01*
X26185905Y-55316381D02*
X26185905Y-54316381D01*
X26424000Y-54316381D01*
X26566858Y-54364000D01*
X26662096Y-54459238D01*
X26709715Y-54554476D01*
X26757334Y-54744952D01*
X26757334Y-54887810D01*
X26709715Y-55078286D01*
X26662096Y-55173524D01*
X26566858Y-55268762D01*
X26424000Y-55316381D01*
X26185905Y-55316381D01*
X27662096Y-54316381D02*
X27185905Y-54316381D01*
X27138286Y-54792571D01*
X27185905Y-54744952D01*
X27281143Y-54697333D01*
X27519239Y-54697333D01*
X27614477Y-54744952D01*
X27662096Y-54792571D01*
X27709715Y-54887810D01*
X27709715Y-55125905D01*
X27662096Y-55221143D01*
X27614477Y-55268762D01*
X27519239Y-55316381D01*
X27281143Y-55316381D01*
X27185905Y-55268762D01*
X27138286Y-55221143D01*
X36091905Y-55316381D02*
X36091905Y-54316381D01*
X36330000Y-54316381D01*
X36472858Y-54364000D01*
X36568096Y-54459238D01*
X36615715Y-54554476D01*
X36663334Y-54744952D01*
X36663334Y-54887810D01*
X36615715Y-55078286D01*
X36568096Y-55173524D01*
X36472858Y-55268762D01*
X36330000Y-55316381D01*
X36091905Y-55316381D01*
X37520477Y-54316381D02*
X37330000Y-54316381D01*
X37234762Y-54364000D01*
X37187143Y-54411619D01*
X37091905Y-54554476D01*
X37044286Y-54744952D01*
X37044286Y-55125905D01*
X37091905Y-55221143D01*
X37139524Y-55268762D01*
X37234762Y-55316381D01*
X37425239Y-55316381D01*
X37520477Y-55268762D01*
X37568096Y-55221143D01*
X37615715Y-55125905D01*
X37615715Y-54887810D01*
X37568096Y-54792571D01*
X37520477Y-54744952D01*
X37425239Y-54697333D01*
X37234762Y-54697333D01*
X37139524Y-54744952D01*
X37091905Y-54792571D01*
X37044286Y-54887810D01*
X29805334Y-57856381D02*
X29472000Y-57380190D01*
X29233905Y-57856381D02*
X29233905Y-56856381D01*
X29614858Y-56856381D01*
X29710096Y-56904000D01*
X29757715Y-56951619D01*
X29805334Y-57046857D01*
X29805334Y-57189714D01*
X29757715Y-57284952D01*
X29710096Y-57332571D01*
X29614858Y-57380190D01*
X29233905Y-57380190D01*
X30710096Y-56856381D02*
X30233905Y-56856381D01*
X30186286Y-57332571D01*
X30233905Y-57284952D01*
X30329143Y-57237333D01*
X30567239Y-57237333D01*
X30662477Y-57284952D01*
X30710096Y-57332571D01*
X30757715Y-57427810D01*
X30757715Y-57665905D01*
X30710096Y-57761143D01*
X30662477Y-57808762D01*
X30567239Y-57856381D01*
X30329143Y-57856381D01*
X30233905Y-57808762D01*
X30186286Y-57761143D01*
X33139143Y-57856381D02*
X32805809Y-57380190D01*
X32567714Y-57856381D02*
X32567714Y-56856381D01*
X32948667Y-56856381D01*
X33043905Y-56904000D01*
X33091524Y-56951619D01*
X33139143Y-57046857D01*
X33139143Y-57189714D01*
X33091524Y-57284952D01*
X33043905Y-57332571D01*
X32948667Y-57380190D01*
X32567714Y-57380190D01*
X33520095Y-56951619D02*
X33567714Y-56904000D01*
X33662952Y-56856381D01*
X33901048Y-56856381D01*
X33996286Y-56904000D01*
X34043905Y-56951619D01*
X34091524Y-57046857D01*
X34091524Y-57142095D01*
X34043905Y-57284952D01*
X33472476Y-57856381D01*
X34091524Y-57856381D01*
X34662952Y-57284952D02*
X34567714Y-57237333D01*
X34520095Y-57189714D01*
X34472476Y-57094476D01*
X34472476Y-57046857D01*
X34520095Y-56951619D01*
X34567714Y-56904000D01*
X34662952Y-56856381D01*
X34853429Y-56856381D01*
X34948667Y-56904000D01*
X34996286Y-56951619D01*
X35043905Y-57046857D01*
X35043905Y-57094476D01*
X34996286Y-57189714D01*
X34948667Y-57237333D01*
X34853429Y-57284952D01*
X34662952Y-57284952D01*
X34567714Y-57332571D01*
X34520095Y-57380190D01*
X34472476Y-57475429D01*
X34472476Y-57665905D01*
X34520095Y-57761143D01*
X34567714Y-57808762D01*
X34662952Y-57856381D01*
X34853429Y-57856381D01*
X34948667Y-57808762D01*
X34996286Y-57761143D01*
X35043905Y-57665905D01*
X35043905Y-57475429D01*
X34996286Y-57380190D01*
X34948667Y-57332571D01*
X34853429Y-57284952D01*
X33472381Y-52712857D02*
X32996190Y-53046191D01*
X33472381Y-53284286D02*
X32472381Y-53284286D01*
X32472381Y-52903333D01*
X32520000Y-52808095D01*
X32567619Y-52760476D01*
X32662857Y-52712857D01*
X32805714Y-52712857D01*
X32900952Y-52760476D01*
X32948571Y-52808095D01*
X32996190Y-52903333D01*
X32996190Y-53284286D01*
X32567619Y-52331905D02*
X32520000Y-52284286D01*
X32472381Y-52189048D01*
X32472381Y-51950952D01*
X32520000Y-51855714D01*
X32567619Y-51808095D01*
X32662857Y-51760476D01*
X32758095Y-51760476D01*
X32900952Y-51808095D01*
X33472381Y-52379524D01*
X33472381Y-51760476D01*
X33472381Y-51284286D02*
X33472381Y-51093810D01*
X33424762Y-50998571D01*
X33377143Y-50950952D01*
X33234286Y-50855714D01*
X33043810Y-50808095D01*
X32662857Y-50808095D01*
X32567619Y-50855714D01*
X32520000Y-50903333D01*
X32472381Y-50998571D01*
X32472381Y-51189048D01*
X32520000Y-51284286D01*
X32567619Y-51331905D01*
X32662857Y-51379524D01*
X32900952Y-51379524D01*
X32996190Y-51331905D01*
X33043810Y-51284286D01*
X33091429Y-51189048D01*
X33091429Y-50998571D01*
X33043810Y-50903333D01*
X32996190Y-50855714D01*
X32900952Y-50808095D01*
X38298381Y-50172857D02*
X37822190Y-50506191D01*
X38298381Y-50744286D02*
X37298381Y-50744286D01*
X37298381Y-50363333D01*
X37346000Y-50268095D01*
X37393619Y-50220476D01*
X37488857Y-50172857D01*
X37631714Y-50172857D01*
X37726952Y-50220476D01*
X37774571Y-50268095D01*
X37822190Y-50363333D01*
X37822190Y-50744286D01*
X37298381Y-49839524D02*
X37298381Y-49220476D01*
X37679333Y-49553810D01*
X37679333Y-49410952D01*
X37726952Y-49315714D01*
X37774571Y-49268095D01*
X37869810Y-49220476D01*
X38107905Y-49220476D01*
X38203143Y-49268095D01*
X38250762Y-49315714D01*
X38298381Y-49410952D01*
X38298381Y-49696667D01*
X38250762Y-49791905D01*
X38203143Y-49839524D01*
X37298381Y-48601429D02*
X37298381Y-48506190D01*
X37346000Y-48410952D01*
X37393619Y-48363333D01*
X37488857Y-48315714D01*
X37679333Y-48268095D01*
X37917429Y-48268095D01*
X38107905Y-48315714D01*
X38203143Y-48363333D01*
X38250762Y-48410952D01*
X38298381Y-48506190D01*
X38298381Y-48601429D01*
X38250762Y-48696667D01*
X38203143Y-48744286D01*
X38107905Y-48791905D01*
X37917429Y-48839524D01*
X37679333Y-48839524D01*
X37488857Y-48791905D01*
X37393619Y-48744286D01*
X37346000Y-48696667D01*
X37298381Y-48601429D01*
X44648381Y-50172857D02*
X44172190Y-50506191D01*
X44648381Y-50744286D02*
X43648381Y-50744286D01*
X43648381Y-50363333D01*
X43696000Y-50268095D01*
X43743619Y-50220476D01*
X43838857Y-50172857D01*
X43981714Y-50172857D01*
X44076952Y-50220476D01*
X44124571Y-50268095D01*
X44172190Y-50363333D01*
X44172190Y-50744286D01*
X43648381Y-49839524D02*
X43648381Y-49220476D01*
X44029333Y-49553810D01*
X44029333Y-49410952D01*
X44076952Y-49315714D01*
X44124571Y-49268095D01*
X44219810Y-49220476D01*
X44457905Y-49220476D01*
X44553143Y-49268095D01*
X44600762Y-49315714D01*
X44648381Y-49410952D01*
X44648381Y-49696667D01*
X44600762Y-49791905D01*
X44553143Y-49839524D01*
X44648381Y-48268095D02*
X44648381Y-48839524D01*
X44648381Y-48553810D02*
X43648381Y-48553810D01*
X43791238Y-48649048D01*
X43886476Y-48744286D01*
X43934095Y-48839524D01*
X86415714Y-65730381D02*
X86415714Y-64730381D01*
X86796667Y-64730381D01*
X86891905Y-64778000D01*
X86939524Y-64825619D01*
X86987143Y-64920857D01*
X86987143Y-65063714D01*
X86939524Y-65158952D01*
X86891905Y-65206571D01*
X86796667Y-65254190D01*
X86415714Y-65254190D01*
X87939524Y-65730381D02*
X87368095Y-65730381D01*
X87653809Y-65730381D02*
X87653809Y-64730381D01*
X87558571Y-64873238D01*
X87463333Y-64968476D01*
X87368095Y-65016095D01*
X88320476Y-64825619D02*
X88368095Y-64778000D01*
X88463333Y-64730381D01*
X88701429Y-64730381D01*
X88796667Y-64778000D01*
X88844286Y-64825619D01*
X88891905Y-64920857D01*
X88891905Y-65016095D01*
X88844286Y-65158952D01*
X88272857Y-65730381D01*
X88891905Y-65730381D01*
X1452714Y-65222381D02*
X1452714Y-64222381D01*
X1833667Y-64222381D01*
X1928905Y-64270000D01*
X1976524Y-64317619D01*
X2024143Y-64412857D01*
X2024143Y-64555714D01*
X1976524Y-64650952D01*
X1928905Y-64698571D01*
X1833667Y-64746190D01*
X1452714Y-64746190D01*
X2976524Y-65222381D02*
X2405095Y-65222381D01*
X2690809Y-65222381D02*
X2690809Y-64222381D01*
X2595571Y-64365238D01*
X2500333Y-64460476D01*
X2405095Y-64508095D01*
X3309857Y-64222381D02*
X3928905Y-64222381D01*
X3595571Y-64603333D01*
X3738429Y-64603333D01*
X3833667Y-64650952D01*
X3881286Y-64698571D01*
X3928905Y-64793810D01*
X3928905Y-65031905D01*
X3881286Y-65127143D01*
X3833667Y-65174762D01*
X3738429Y-65222381D01*
X3452714Y-65222381D01*
X3357476Y-65174762D01*
X3309857Y-65127143D01*
X1198714Y-198381D02*
X1198714Y801619D01*
X1579667Y801619D01*
X1674905Y754000D01*
X1722524Y706381D01*
X1770143Y611143D01*
X1770143Y468286D01*
X1722524Y373048D01*
X1674905Y325429D01*
X1579667Y277810D01*
X1198714Y277810D01*
X2722524Y-198381D02*
X2151095Y-198381D01*
X2436809Y-198381D02*
X2436809Y801619D01*
X2341571Y658762D01*
X2246333Y563524D01*
X2151095Y515905D01*
X3579667Y468286D02*
X3579667Y-198381D01*
X3341571Y849238D02*
X3103476Y134952D01*
X3722524Y134952D01*
X86542714Y-71381D02*
X86542714Y928619D01*
X86923667Y928619D01*
X87018905Y881000D01*
X87066524Y833381D01*
X87114143Y738143D01*
X87114143Y595286D01*
X87066524Y500048D01*
X87018905Y452429D01*
X86923667Y404810D01*
X86542714Y404810D01*
X88066524Y-71381D02*
X87495095Y-71381D01*
X87780809Y-71381D02*
X87780809Y928619D01*
X87685571Y785762D01*
X87590333Y690524D01*
X87495095Y642905D01*
X88971286Y928619D02*
X88495095Y928619D01*
X88447476Y452429D01*
X88495095Y500048D01*
X88590333Y547667D01*
X88828429Y547667D01*
X88923667Y500048D01*
X88971286Y452429D01*
X89018905Y357190D01*
X89018905Y119095D01*
X88971286Y23857D01*
X88923667Y-23762D01*
X88828429Y-71381D01*
X88590333Y-71381D01*
X88495095Y-23762D01*
X88447476Y23857D01*
X85447143Y-10834666D02*
X85494762Y-10882285D01*
X85542381Y-11025142D01*
X85542381Y-11120380D01*
X85494762Y-11263238D01*
X85399524Y-11358476D01*
X85304286Y-11406095D01*
X85113810Y-11453714D01*
X84970952Y-11453714D01*
X84780476Y-11406095D01*
X84685238Y-11358476D01*
X84590000Y-11263238D01*
X84542381Y-11120380D01*
X84542381Y-11025142D01*
X84590000Y-10882285D01*
X84637619Y-10834666D01*
X85542381Y-9882285D02*
X85542381Y-10453714D01*
X85542381Y-10168000D02*
X84542381Y-10168000D01*
X84685238Y-10263238D01*
X84780476Y-10358476D01*
X84828095Y-10453714D01*
%LPC*%
D12*
X48450500Y-6540500D03*
D13*
X53530500Y-6540500D03*
X58610500Y-6540500D03*
D14*
X63811000Y-24844500D03*
X63811000Y-22304500D03*
X63811000Y-19764500D03*
X63811000Y-17224500D03*
X63811000Y-14684500D03*
X63811000Y-12144500D03*
X63811000Y-9604500D03*
D15*
X63811000Y-7064500D03*
X86811000Y-7064500D03*
D14*
X86811000Y-9604500D03*
X86811000Y-12144500D03*
X86811000Y-14684500D03*
X86811000Y-17224500D03*
X86811000Y-19764500D03*
X86811000Y-22304500D03*
X86811000Y-24844500D03*
D16*
X41275000Y-21844000D03*
X10795000Y-21844000D03*
X15875000Y-21844000D03*
X41275000Y-4664000D03*
X36195000Y-4664000D03*
D17*
X64250000Y-66500000D03*
D18*
X61710000Y-66500000D03*
D12*
X4572000Y-40386000D03*
D13*
X4572000Y-35306000D03*
D12*
X4572000Y-45847000D03*
D13*
X4572000Y-50927000D03*
D19*
X67564000Y-44259500D03*
X79502000Y-34544000D03*
X63246000Y-50165000D03*
D20*
X57895000Y-28618000D03*
X57895000Y-25698000D03*
D21*
X75520000Y-19370000D03*
X75520000Y-21370000D03*
X54995000Y-25258000D03*
X54995000Y-27258000D03*
X68961000Y-19256500D03*
X68961000Y-21256500D03*
X52995000Y-25258000D03*
X52995000Y-27258000D03*
D20*
X71882000Y-22605500D03*
X71882000Y-19685500D03*
X50195000Y-28618000D03*
X50195000Y-25698000D03*
D22*
X37544500Y-13906500D03*
X39544500Y-13906500D03*
D23*
X36344860Y-9461500D03*
X40744140Y-9461500D03*
D22*
X49292000Y-38608000D03*
X51292000Y-38608000D03*
X49292000Y-40767000D03*
X51292000Y-40767000D03*
X49292000Y-42926000D03*
X51292000Y-42926000D03*
X49292000Y-45085000D03*
X51292000Y-45085000D03*
X31258000Y-36296600D03*
X33258000Y-36296600D03*
D24*
X29858000Y-41566000D03*
X32778000Y-41566000D03*
D21*
X35941000Y-34560000D03*
X35941000Y-36560000D03*
D25*
X38227000Y-33488000D03*
X38227000Y-36108000D03*
D26*
X30258000Y-38566000D03*
X32878000Y-38566000D03*
D22*
X65702500Y-35493500D03*
X67702500Y-35493500D03*
X65675000Y-37973000D03*
X67675000Y-37973000D03*
D24*
X66674500Y-32702500D03*
X63754500Y-32702500D03*
D22*
X61420500Y-39179500D03*
X63420500Y-39179500D03*
D24*
X63880500Y-41973500D03*
X60960500Y-41973500D03*
D21*
X69024500Y-31639000D03*
X69024500Y-33639000D03*
D20*
X82486500Y-30924000D03*
X82486500Y-28004000D03*
D21*
X64121000Y-56849000D03*
X64121000Y-58849000D03*
D22*
X72619000Y-42942000D03*
X74619000Y-42942000D03*
X74678000Y-45600000D03*
X72678000Y-45600000D03*
D27*
X20581500Y-42350000D03*
X19506500Y-42350000D03*
X20581500Y-45050000D03*
D28*
X20044000Y-45650000D03*
X20044000Y-41750000D03*
D27*
X19506500Y-45050000D03*
D13*
X21638260Y-29083000D03*
X26636980Y-29083000D03*
X11635740Y-29083000D03*
X6637020Y-29083000D03*
D29*
X33860740Y-30226000D03*
X44020740Y-30226000D03*
D30*
X67500500Y-7048500D03*
D31*
X67500500Y-9588500D03*
D19*
X80500000Y-64340000D03*
D32*
X80500000Y-59260000D03*
D33*
X46228000Y-66040000D03*
X51308000Y-66040000D03*
D34*
X41148000Y-66040000D03*
D33*
X56388000Y-66040000D03*
D12*
X85598000Y-41910000D03*
D13*
X85598000Y-36830000D03*
D30*
X78820000Y-3270000D03*
D31*
X81360000Y-3270000D03*
D35*
X18244000Y-38949240D03*
X16344000Y-38949240D03*
X17294000Y-40948220D03*
X18244000Y-42949240D03*
X16344000Y-42949240D03*
X17294000Y-44948220D03*
D36*
X14744000Y-38950000D03*
X12844000Y-38950000D03*
X14744000Y-44950000D03*
X12844000Y-44950000D03*
X12844000Y-40950000D03*
X14744000Y-40950000D03*
X12844000Y-42950000D03*
X14744000Y-42950000D03*
X40828000Y-55626000D03*
X38928000Y-55626000D03*
X50734000Y-55753000D03*
X48834000Y-55753000D03*
X55941000Y-55880000D03*
X54041000Y-55880000D03*
D37*
X50546000Y-53528000D03*
X50546000Y-51628000D03*
X56896000Y-53528000D03*
X56896000Y-51628000D03*
D38*
X74549000Y-59235000D03*
X74549000Y-56335000D03*
D36*
X69535000Y-59309000D03*
X71435000Y-59309000D03*
X69535000Y-56261000D03*
X71435000Y-56261000D03*
X65979000Y-60833000D03*
X67879000Y-60833000D03*
X65979000Y-54991000D03*
X67879000Y-54991000D03*
X65979000Y-52959000D03*
X67879000Y-52959000D03*
X56770000Y-3620000D03*
X54870000Y-3620000D03*
D37*
X82042000Y-47813000D03*
X82042000Y-45913000D03*
X82042000Y-50739000D03*
X82042000Y-52639000D03*
X57023000Y-38478500D03*
X57023000Y-36578500D03*
X60420000Y-15020000D03*
X60420000Y-16920000D03*
D36*
X80420000Y-38070000D03*
X78520000Y-38070000D03*
X78519000Y-40117000D03*
X80419000Y-40117000D03*
X68514000Y-49784000D03*
X66614000Y-49784000D03*
X68514000Y-47752000D03*
X66614000Y-47752000D03*
X80420000Y-42170000D03*
X78520000Y-42170000D03*
D37*
X20044000Y-38500000D03*
X20044000Y-40400000D03*
D39*
X23068000Y-36176500D03*
D40*
X23068000Y-48376500D03*
X11018000Y-48426500D03*
D39*
X11068000Y-36176500D03*
D40*
X17018000Y-34226500D03*
D41*
X79542640Y-49362360D03*
X84582000Y-51861720D03*
X84582000Y-46863000D03*
D42*
X73025000Y-10350500D03*
D43*
X73025000Y-16954500D03*
X75311000Y-16954500D03*
X70739000Y-16954500D03*
D42*
X53220000Y-16318000D03*
D43*
X53220000Y-22922000D03*
X55506000Y-22922000D03*
X50934000Y-22922000D03*
D44*
X66522600Y-58801000D03*
X67843400Y-58801000D03*
X67183000Y-58801000D03*
X67843400Y-56769000D03*
X66522600Y-56769000D03*
D45*
X36881000Y-39411000D03*
X39421000Y-39411000D03*
X40691000Y-39411000D03*
X41961000Y-39411000D03*
X43231000Y-39411000D03*
X44501000Y-39411000D03*
X45771000Y-39411000D03*
X45771000Y-45761000D03*
X44501000Y-45761000D03*
X43231000Y-45761000D03*
X41961000Y-45761000D03*
X40691000Y-45761000D03*
X39421000Y-45761000D03*
X38151000Y-45761000D03*
X36881000Y-45761000D03*
X38151000Y-39411000D03*
D46*
X76474000Y-40987000D03*
X76474000Y-39717000D03*
X76474000Y-38447000D03*
X76474000Y-37177000D03*
X71074000Y-37177000D03*
X71074000Y-38447000D03*
X71074000Y-39717000D03*
X71074000Y-40987000D03*
X71018000Y-47515000D03*
X71018000Y-48785000D03*
X71018000Y-50055000D03*
X71018000Y-51325000D03*
X76418000Y-51325000D03*
X76418000Y-50055000D03*
X76418000Y-48785000D03*
X76418000Y-47515000D03*
D47*
X63462500Y-37113500D03*
X63462500Y-36163500D03*
X63462500Y-35213500D03*
X61262500Y-35213500D03*
X61262500Y-37113500D03*
X61262500Y-36163500D03*
D35*
X41844000Y-51577240D03*
X39944000Y-51577240D03*
X40894000Y-53576220D03*
X55052000Y-51577240D03*
X53152000Y-51577240D03*
X54102000Y-53576220D03*
X48702000Y-51577240D03*
X46802000Y-51577240D03*
X47752000Y-53576220D03*
X62677000Y-54975760D03*
X64577000Y-54975760D03*
X63627000Y-52976780D03*
D30*
X46620000Y-15220000D03*
D31*
X46620000Y-12680000D03*
D30*
X59817000Y-22352000D03*
D31*
X59817000Y-19812000D03*
D30*
X46620000Y-19570000D03*
D31*
X46620000Y-22110000D03*
D22*
X31734000Y-49657000D03*
X29734000Y-49657000D03*
X33258000Y-44958000D03*
X31258000Y-44958000D03*
D35*
X29652000Y-51577240D03*
X27752000Y-51577240D03*
X28702000Y-53576220D03*
X36129000Y-51577240D03*
X34229000Y-51577240D03*
X35179000Y-53576220D03*
D33*
X25908000Y-66040000D03*
X30988000Y-66040000D03*
D34*
X20828000Y-66040000D03*
D33*
X36068000Y-66040000D03*
D48*
X54356000Y-60198000D03*
D49*
X51816000Y-60198000D03*
X49276000Y-60198000D03*
X46736000Y-60198000D03*
D48*
X37084000Y-60198000D03*
D49*
X34544000Y-60198000D03*
X32004000Y-60198000D03*
X29464000Y-60198000D03*
D36*
X29022000Y-55626000D03*
X30922000Y-55626000D03*
X32832000Y-55626000D03*
X34732000Y-55626000D03*
D37*
X31496000Y-53528000D03*
X31496000Y-51628000D03*
X37973000Y-53528000D03*
X37973000Y-51628000D03*
X43688000Y-53528000D03*
X43688000Y-51628000D03*
D50*
X87630000Y-68326000D03*
X2667000Y-67818000D03*
X2413000Y-2794000D03*
X87757000Y-2667000D03*
D51*
X80620000Y-15720820D03*
X80620000Y-10219180D03*
D52*
X51520000Y-11820000D03*
D53*
X56520000Y-11820000D03*
D29*
X79920000Y-45495000D03*
X74420000Y-25270000D03*
X72820000Y-33970000D03*
X58170000Y-44720000D03*
X25654000Y-34544000D03*
X45974000Y-9652000D03*
X78520000Y-19420000D03*
X68389500Y-41211500D03*
X60706000Y-56388000D03*
X36830000Y-41910000D03*
X59182000Y-53721000D03*
X49022000Y-50165000D03*
X42545000Y-49911000D03*
X29718000Y-47498000D03*
X72326500Y-6477000D03*
X29210000Y-44704000D03*
X59118500Y-38735000D03*
X76431500Y-45600000D03*
X40513000Y-35306000D03*
X53086000Y-49784000D03*
X47117000Y-49784000D03*
X39878000Y-49657000D03*
X27559000Y-49784000D03*
X35052000Y-50038000D03*
X12636500Y-54038500D03*
X60579000Y-12573000D03*
X83629500Y-14033500D03*
X15430500Y-53911500D03*
X63246000Y-46609000D03*
X70358000Y-43561000D03*
X66865500Y-15494000D03*
X59055000Y-36703000D03*
X58928000Y-34544000D03*
X66865500Y-13589000D03*
D54*
X21100000Y-59500000D03*
X74900000Y-63600000D03*
M02*
