M48
;DRILL file {KiCad 4.0.2+dfsg1-stable} date czw, 7 mar 2019, 19:46:19
;FORMAT={-:-/ absolute / inch / decimal}
FMAT,2
INCH,TZ
T1C0.020
T2C0.028
T3C0.030
T4C0.031
T5C0.039
T6C0.040
T7C0.047
T8C0.051
T9C0.053
T10C0.060
T11C0.120
%
G90
G05
M72
T1
X0.5548Y-1.9449
X0.6448Y-1.9449
X1.085Y-1.96
X1.15Y-1.76
X1.17Y-1.87
X1.2148Y-1.0549
X1.2148Y-1.2249
X1.45Y-1.65
X1.595Y-1.39
X1.5965Y-1.9488
X1.675Y-1.965
X1.855Y-1.96
X1.9311Y-1.9606
X2.09Y-1.96
X2.2948Y-1.3949
X2.3209Y-1.5827
X2.33Y-2.115
X2.3445Y-1.7657
X2.4048Y-1.3249
X2.4134Y-2.2185
X2.49Y-1.835
X2.77Y-1.715
X2.8475Y-0.255
X2.8669Y-1.3374
X2.9299Y-0.9949
X3.0091Y-1.7953
X3.1465Y-1.7911
T2
X1.3331Y-1.19
X1.7331Y-1.19
X2.6925Y-1.6225
X3.0913Y-0.7646
T3
X1.3937Y-0.8339
X1.5937Y-0.1575
X1.5937Y-0.8339
T4
X0.3937Y-0.1575
X0.5937Y-0.1575
X2.0283Y-0.4654
X2.1661Y-0.4654
T5
X0.4357Y-1.4243
X0.9082Y-1.4243
T6
X1.16Y-2.37
X1.26Y-2.37
X1.36Y-2.37
X1.46Y-2.37
X1.8354Y-0.4992
X1.8354Y-0.5992
X1.8354Y-0.7705
X1.8354Y-0.8705
X1.84Y-2.37
X1.94Y-2.37
X2.04Y-2.37
X2.14Y-2.37
X2.355Y-0.78
X2.355Y-0.88
X2.4295Y-2.6181
X2.5122Y-0.2781
X2.5122Y-0.3781
X2.5122Y-0.4781
X2.5122Y-0.5781
X2.5122Y-0.6781
X2.5122Y-0.7781
X2.5122Y-0.8781
X2.5122Y-0.9781
X2.5295Y-2.6181
X2.6575Y-0.2775
X2.6575Y-0.3775
X3.1031Y-0.1287
X3.2031Y-0.1287
X3.4178Y-0.2781
X3.4178Y-0.3781
X3.4178Y-0.4781
X3.4178Y-0.5781
X3.4178Y-0.6781
X3.4178Y-0.7781
X3.4178Y-0.8781
X3.4178Y-0.9781
T7
X3.1316Y-1.9434
X3.33Y-1.845
X3.33Y-2.0418
T8
X0.4338Y-1.9066
X0.67Y-1.3475
X0.9082Y-1.9046
T9
X0.2613Y-1.145
X0.4581Y-1.145
X0.8519Y-1.145
X1.0487Y-1.145
T10
X0.1969Y-1.9472
X0.1969Y-2.1472
X0.2047Y-1.3961
X0.2047Y-1.5961
X0.82Y-2.6
X1.02Y-2.6
X1.22Y-2.6
X1.42Y-2.6
X1.62Y-2.6
X1.82Y-2.6
X1.9075Y-0.2575
X2.02Y-2.6
X2.1075Y-0.2575
X2.22Y-2.6
X2.3075Y-0.2575
X3.1693Y-2.3331
X3.1693Y-2.5331
X3.37Y-1.45
X3.37Y-1.65
T11
X0.0984Y-0.0984
X0.0984Y-2.6575
X3.4449Y-0.0984
X3.4449Y-2.6575
T0
M30
