M48
;DRILL file {KiCad 4.0.2+dfsg1-stable} date pon, 19 lis 2018, 23:53:04
;FORMAT={-:-/ absolute / metric / decimal}
FMAT,2
METRIC,TZ
T1C0.800
T2C0.800
T3C0.813
T4C0.900
T5C1.000
T6C1.001
T7C1.016
T8C1.143
T9C1.300
T10C1.349
T11C1.501
T12C1.524
T13C3.048
%
G90
G05
M71
T1
X68.5Y-111.
X68.5Y-113.54
X68.5Y-116.08
X74.Y-108.5
X74.97Y-118.999
X76.2Y-101.
X76.5Y-108.5
X77.47Y-118.999
X80.Y-101.
X82.5Y-125.
X84.5Y-97.5
X84.5Y-130.
X85.Y-89.
X85.Y-91.5
X103.632Y-136.855
X106.538Y-134.457
T2
X84.5Y-95.
X84.5Y-132.5
X85.Y-125.
X103.632Y-134.355
X106.538Y-136.957
T3
X64.516Y-149.352
X64.516Y-155.448
X72.771Y-139.065
X74.676Y-149.352
X74.676Y-155.448
X77.851Y-152.781
X77.851Y-162.941
X79.502Y-106.426
X81.153Y-152.908
X81.153Y-163.068
X82.931Y-139.065
X84.455Y-151.765
X84.455Y-164.465
X89.662Y-106.426
X98.75Y-85.17
X98.75Y-95.33
X114.49Y-149.415
X114.49Y-159.576
X118.11Y-149.479
X118.11Y-159.639
T4
X82.Y-129.
X82.Y-134.
T5
X46.273Y-108.286
X46.273Y-120.286
X83.82Y-100.457
X88.5Y-158.
X89.753Y-150.429
X89.774Y-139.944
X89.835Y-143.398
X89.896Y-146.914
X102.489Y-130.429
X103.632Y-117.348
T6
X75.486Y-79.804
X75.486Y-85.804
X81.486Y-79.804
X81.486Y-85.804
T7
X40.195Y-109.093
X40.195Y-119.253
X58.293Y-148.971
X60.833Y-148.971
X65.024Y-160.02
X65.024Y-162.56
X70.612Y-134.62
X73.152Y-134.62
X90.932Y-81.534
X90.932Y-84.074
X95.39Y-82.
X95.39Y-84.54
X95.39Y-87.08
X95.39Y-89.62
X95.39Y-92.16
X95.39Y-94.7
X95.39Y-97.24
X95.39Y-99.78
X95.39Y-102.32
X95.39Y-104.86
X95.39Y-107.4
X95.39Y-109.94
X95.39Y-112.48
X95.39Y-115.02
X95.39Y-117.56
X98.87Y-161.353
X98.87Y-163.893
X99.822Y-109.982
X99.822Y-112.522
X103.441Y-159.702
X105.981Y-159.702
X108.521Y-159.702
X118.25Y-82.
X118.25Y-84.54
X118.25Y-87.08
X118.25Y-89.62
X118.25Y-92.16
X118.25Y-94.7
X118.25Y-97.24
X118.25Y-99.78
X118.25Y-102.32
X118.25Y-104.86
X118.25Y-107.4
X118.25Y-109.94
X118.25Y-112.48
X118.25Y-115.02
X118.25Y-117.56
T8
X103.95Y-164.465
X106.489Y-164.465
X109.029Y-164.465
T9
X44.323Y-114.236
X58.473Y-120.286
X58.523Y-108.236
T10
X39.53Y-129.54
X39.784Y-138.684
X44.529Y-129.54
X44.783Y-138.684
X54.531Y-129.54
X54.785Y-138.684
X59.53Y-129.54
X59.784Y-138.684
T11
X45.88Y-79.408
X45.88Y-99.408
X50.879Y-79.408
X50.879Y-99.408
X55.88Y-79.408
X55.88Y-99.408
X60.881Y-79.408
X60.881Y-99.408
X65.88Y-79.408
X65.88Y-99.408
T12
X30.48Y-86.36
X30.48Y-91.44
X30.48Y-96.52
X30.48Y-119.38
X30.48Y-124.46
X30.48Y-129.54
X30.734Y-144.78
X30.734Y-149.86
X41.656Y-162.56
X46.736Y-162.56
X51.816Y-162.56
X56.896Y-162.56
X89.027Y-163.703
X94.107Y-163.703
X116.84Y-133.35
X116.84Y-138.43
X116.84Y-143.51
T13
X27.94Y-77.47
X27.94Y-165.1
X116.84Y-77.47
X116.84Y-165.1
T0
M30
