G04 #@! TF.FileFunction,Copper,L1,Top,Signal*
%FSLAX46Y46*%
G04 Gerber Fmt 4.6, Leading zero omitted, Abs format (unit mm)*
G04 Created by KiCad (PCBNEW 4.0.2+dfsg1-stable) date pon, 19 lis 2018, 23:32:54*
%MOMM*%
G01*
G04 APERTURE LIST*
%ADD10C,0.100000*%
%ADD11O,2.032000X1.727200*%
%ADD12R,2.000000X2.000000*%
%ADD13C,2.000000*%
%ADD14C,2.200000*%
%ADD15O,2.032000X2.540000*%
%ADD16R,3.810000X3.810000*%
%ADD17C,3.810000*%
%ADD18C,2.540000*%
%ADD19R,2.032000X2.032000*%
%ADD20O,2.032000X2.032000*%
%ADD21C,1.524000*%
%ADD22C,2.999740*%
%ADD23R,1.727200X2.032000*%
%ADD24O,1.727200X2.032000*%
%ADD25R,1.300000X1.300000*%
%ADD26C,1.300000*%
%ADD27C,4.064000*%
%ADD28C,2.500000*%
%ADD29C,3.000000*%
%ADD30R,3.000000X3.000000*%
%ADD31R,2.540000X2.540000*%
%ADD32C,0.700000*%
%ADD33C,1.500000*%
G04 APERTURE END LIST*
D10*
D11*
X118250000Y-82000000D03*
X118250000Y-84540000D03*
X118250000Y-87080000D03*
X118250000Y-89620000D03*
X118250000Y-92160000D03*
X118250000Y-94700000D03*
X118250000Y-97240000D03*
X118250000Y-99780000D03*
X118250000Y-102320000D03*
X118250000Y-104860000D03*
X118250000Y-107400000D03*
X118250000Y-109940000D03*
X118250000Y-112480000D03*
X118250000Y-115020000D03*
X118250000Y-117560000D03*
X95390000Y-82000000D03*
X95390000Y-112480000D03*
X95390000Y-115020000D03*
X95390000Y-109940000D03*
X95390000Y-94700000D03*
X95390000Y-92160000D03*
X95390000Y-97240000D03*
X95390000Y-117560000D03*
X95390000Y-102320000D03*
X95390000Y-99780000D03*
X95390000Y-104860000D03*
X95390000Y-107400000D03*
X95390000Y-87080000D03*
X95390000Y-89620000D03*
X95390000Y-84540000D03*
D12*
X103632000Y-136855200D03*
D13*
X103632000Y-134355200D03*
X76500000Y-108500000D03*
D12*
X74000000Y-108500000D03*
D14*
X82931000Y-139065000D03*
X72771000Y-139065000D03*
X74676000Y-149352000D03*
X64516000Y-149352000D03*
D15*
X106489500Y-164465000D03*
X103949500Y-164465000D03*
X109029500Y-164465000D03*
D16*
X116840000Y-143510000D03*
D17*
X116840000Y-138430000D03*
X116840000Y-133350000D03*
D12*
X106537760Y-134457440D03*
D13*
X106537760Y-136957440D03*
D16*
X30480000Y-119380000D03*
D17*
X30480000Y-124460000D03*
X30480000Y-129540000D03*
D12*
X80000000Y-101000000D03*
D13*
X76200000Y-101000000D03*
D12*
X85000000Y-89000000D03*
D13*
X85000000Y-91500000D03*
D12*
X77470000Y-118999000D03*
D13*
X74970000Y-118999000D03*
D18*
X75486000Y-85804000D03*
X81486000Y-85804000D03*
X81486000Y-79804000D03*
X75486000Y-79804000D03*
D17*
X54531260Y-129540000D03*
X59529980Y-129540000D03*
X44528740Y-129540000D03*
X39530020Y-129540000D03*
X54785260Y-138684000D03*
X59783980Y-138684000D03*
X44782740Y-138684000D03*
X39784020Y-138684000D03*
D19*
X73152000Y-134620000D03*
D20*
X70612000Y-134620000D03*
D19*
X60833000Y-148971000D03*
D20*
X58293000Y-148971000D03*
D19*
X65024000Y-160020000D03*
D20*
X65024000Y-162560000D03*
D19*
X98869500Y-161353500D03*
D20*
X98869500Y-163893500D03*
D16*
X30480000Y-86360000D03*
D17*
X30480000Y-91440000D03*
X30480000Y-96520000D03*
X51816000Y-162560000D03*
X46736000Y-162560000D03*
D16*
X56896000Y-162560000D03*
D17*
X41656000Y-162560000D03*
D19*
X90932000Y-81534000D03*
D20*
X90932000Y-84074000D03*
D19*
X99822000Y-109982000D03*
D20*
X99822000Y-112522000D03*
D21*
X68500000Y-113540000D03*
X68500000Y-116080000D03*
X68500000Y-111000000D03*
D17*
X65879980Y-99407980D03*
D22*
X60881260Y-99407980D03*
X55880000Y-99407980D03*
X50878740Y-99407980D03*
D17*
X45880020Y-99407980D03*
D22*
X45880020Y-79408020D03*
D17*
X50878740Y-79408020D03*
D22*
X55880000Y-79408020D03*
D17*
X60881260Y-79408020D03*
D22*
X65879980Y-79408020D03*
D14*
X74676000Y-155448000D03*
X64516000Y-155448000D03*
X84455000Y-164465000D03*
X84455000Y-151765000D03*
X81153000Y-163068000D03*
X81153000Y-152908000D03*
X77851000Y-162941000D03*
X77851000Y-152781000D03*
D12*
X82000000Y-129000000D03*
D13*
X82000000Y-134000000D03*
X79502000Y-106426000D03*
X89662000Y-106426000D03*
X98750000Y-95330000D03*
X98750000Y-85170000D03*
D14*
X114490500Y-149415500D03*
X114490500Y-159575500D03*
X118110000Y-159639000D03*
X118110000Y-149479000D03*
D23*
X108521500Y-159702500D03*
D24*
X105981500Y-159702500D03*
X103441500Y-159702500D03*
D12*
X84500000Y-97500000D03*
D13*
X84500000Y-95000000D03*
D12*
X82500000Y-125000000D03*
D13*
X85000000Y-125000000D03*
D25*
X84500000Y-130000000D03*
D26*
X84500000Y-132500000D03*
D27*
X27940000Y-77470000D03*
X27940000Y-165100000D03*
X116840000Y-165100000D03*
X116840000Y-77470000D03*
D28*
X46273000Y-120286000D03*
D29*
X58473000Y-120286000D03*
X58523000Y-108236000D03*
D28*
X46273000Y-108286000D03*
D29*
X44323000Y-114236000D03*
D30*
X30734000Y-144780000D03*
D29*
X30734000Y-149860000D03*
D31*
X89027000Y-163703000D03*
D18*
X94107000Y-163703000D03*
D13*
X40195500Y-109093000D03*
D12*
X40195500Y-119253000D03*
D14*
X83820000Y-100457000D03*
X88500000Y-158000000D03*
D13*
X89773760Y-139943840D03*
X89834720Y-143398240D03*
X89753440Y-150428960D03*
X89895680Y-146913600D03*
D14*
X102489000Y-130429000D03*
X103632000Y-117348000D03*
D32*
X81486000Y-79804000D02*
X87074000Y-79804000D01*
X114554000Y-101164000D02*
X118250000Y-104860000D01*
X114554000Y-93472000D02*
X114554000Y-101164000D01*
X100838000Y-79756000D02*
X114554000Y-93472000D01*
X87122000Y-79756000D02*
X100838000Y-79756000D01*
X87074000Y-79804000D02*
X87122000Y-79756000D01*
X118250000Y-115020000D02*
X116752280Y-115020000D01*
X97519400Y-97240000D02*
X95390000Y-97240000D01*
X98795840Y-98516440D02*
X97519400Y-97240000D01*
X100248720Y-98516440D02*
X98795840Y-98516440D01*
X116752280Y-115020000D02*
X100248720Y-98516440D01*
X86927500Y-149927500D02*
X86927500Y-153221500D01*
X86927500Y-153221500D02*
X88500000Y-154794000D01*
X84328000Y-100965000D02*
X84328000Y-102235000D01*
X83820000Y-100457000D02*
X84328000Y-100965000D01*
X87500000Y-117500000D02*
X87500000Y-121000060D01*
X83500000Y-101500000D02*
X87500000Y-105500000D01*
X87500000Y-105500000D02*
X87500000Y-117500000D01*
X92500000Y-125031500D02*
X92500000Y-129500000D01*
X92500000Y-129500000D02*
X86000000Y-136000000D01*
X86000000Y-136000000D02*
X86000000Y-149000000D01*
X86000000Y-149000000D02*
X86927500Y-149927500D01*
X88500000Y-154794000D02*
X88500000Y-158000000D01*
X87500000Y-121000060D02*
X91531440Y-125031500D01*
X91531440Y-125031500D02*
X92500000Y-125031500D01*
D33*
X30480000Y-124460000D02*
X27940000Y-124460000D01*
X26670000Y-95250000D02*
X30480000Y-91440000D01*
X26670000Y-123190000D02*
X26670000Y-95250000D01*
X27940000Y-124460000D02*
X26670000Y-123190000D01*
D32*
X89773760Y-139943840D02*
X89773760Y-137073640D01*
X96418400Y-130429000D02*
X102489000Y-130429000D01*
X89773760Y-137073640D02*
X96418400Y-130429000D01*
X89834720Y-143398240D02*
X89834720Y-140004800D01*
X89834720Y-140004800D02*
X89773760Y-139943840D01*
X89895680Y-143459200D02*
X89895680Y-146913600D01*
X89834720Y-143398240D02*
X89895680Y-143459200D01*
X89753440Y-147055840D02*
X89753440Y-150428960D01*
X89895680Y-146913600D02*
X89753440Y-147055840D01*
X103238300Y-130898900D02*
X102958900Y-130898900D01*
X102958900Y-130898900D02*
X102489000Y-130429000D01*
X103238300Y-117741700D02*
X103238300Y-130898900D01*
X103378000Y-117602000D02*
X103238300Y-117741700D01*
X95390000Y-94700000D02*
X93260000Y-94700000D01*
X92456000Y-114626000D02*
X95390000Y-117560000D01*
X92456000Y-95504000D02*
X92456000Y-114626000D01*
X93260000Y-94700000D02*
X92456000Y-95504000D01*
X98750000Y-95330000D02*
X103458000Y-95330000D01*
X115528000Y-107400000D02*
X118250000Y-107400000D01*
X103458000Y-95330000D02*
X115528000Y-107400000D01*
M02*
