%TF.GenerationSoftware,KiCad,Pcbnew,4.0.2+dfsg1-stable*%
%TF.CreationDate,2019-03-07T19:49:12+01:00*%
%TF.ProjectId,v2,76322E6B696361645F70636200000000,rev?*%
%TF.FileFunction,Soldermask,Top*%
%FSLAX46Y46*%
G04 Gerber Fmt 4.6, Leading zero omitted, Abs format (unit mm)*
G04 Created by KiCad (PCBNEW 4.0.2+dfsg1-stable) date czw, 7 mar 2019, 19:49:12*
%MOMM*%
G01*
G04 APERTURE LIST*
%ADD10C,0.100000*%
%ADD11C,0.150000*%
%ADD12R,2.000200X3.999180*%
%ADD13R,3.900000X3.900000*%
%ADD14C,3.900000*%
%ADD15O,2.432000X2.127200*%
%ADD16R,2.432000X2.127200*%
%ADD17C,2.700000*%
%ADD18O,2.100000X2.600000*%
%ADD19O,2.120000X2.600000*%
%ADD20R,2.940000X2.940000*%
%ADD21R,2.630000X2.200000*%
%ADD22R,1.650000X1.400000*%
%ADD23R,1.400000X1.650000*%
%ADD24R,3.399740X2.000200*%
%ADD25R,2.200000X2.630000*%
%ADD26R,1.630000X2.200000*%
%ADD27R,2.200000X1.630000*%
%ADD28R,0.975000X1.000000*%
%ADD29R,2.050000X1.000000*%
%ADD30C,1.900000*%
%ADD31R,2.432000X2.432000*%
%ADD32O,2.432000X2.432000*%
%ADD33O,4.200000X3.400000*%
%ADD34C,4.210000*%
%ADD35R,4.210000X4.210000*%
%ADD36R,1.200100X1.200100*%
%ADD37R,1.100000X1.700000*%
%ADD38R,1.700000X1.100000*%
%ADD39R,2.100000X1.300000*%
%ADD40C,2.900000*%
%ADD41C,3.400000*%
%ADD42C,2.899360*%
%ADD43R,4.057600X2.432000*%
%ADD44R,1.416000X2.432000*%
%ADD45R,0.806400X1.060400*%
%ADD46R,0.908000X1.543000*%
%ADD47R,1.950000X1.000000*%
%ADD48R,1.460000X1.050000*%
%ADD49R,2.127200X2.432000*%
%ADD50O,2.127200X2.432000*%
%ADD51C,4.464000*%
%ADD52R,1.900000X1.900000*%
G04 APERTURE END LIST*
D10*
D11*
X0Y0D02*
X90000000Y0D01*
X0Y-70000000D02*
X0Y0D01*
X90000000Y-70000000D02*
X0Y-70000000D01*
X90000000Y0D02*
X90000000Y-70000000D01*
D12*
X80620000Y-15720820D03*
X80620000Y-10219180D03*
D13*
X48450500Y-6540500D03*
D14*
X53530500Y-6540500D03*
X58610500Y-6540500D03*
D15*
X63811000Y-24844500D03*
X63811000Y-22304500D03*
X63811000Y-19764500D03*
X63811000Y-17224500D03*
X63811000Y-14684500D03*
X63811000Y-12144500D03*
X63811000Y-9604500D03*
D16*
X63811000Y-7064500D03*
X86811000Y-7064500D03*
D15*
X86811000Y-9604500D03*
X86811000Y-12144500D03*
X86811000Y-14684500D03*
X86811000Y-17224500D03*
X86811000Y-19764500D03*
X86811000Y-22304500D03*
X86811000Y-24844500D03*
D17*
X40480000Y-4000000D03*
X10000000Y-4000000D03*
X15080000Y-4000000D03*
X40480000Y-21180000D03*
X35400000Y-21180000D03*
D18*
X64250000Y-66500000D03*
D19*
X61710000Y-66500000D03*
D13*
X5200000Y-40540000D03*
D14*
X5200000Y-35460000D03*
D13*
X5000000Y-49460000D03*
D14*
X5000000Y-54540000D03*
D20*
X67564000Y-44259500D03*
X79502000Y-34544000D03*
X63246000Y-50165000D03*
D21*
X57895000Y-28618000D03*
X57895000Y-25698000D03*
D22*
X75520000Y-19370000D03*
X75520000Y-21370000D03*
X54995000Y-25258000D03*
X54995000Y-27258000D03*
X68961000Y-19256500D03*
X68961000Y-21256500D03*
X52995000Y-25258000D03*
X52995000Y-27258000D03*
D21*
X71882000Y-22605500D03*
X71882000Y-19685500D03*
X50195000Y-28618000D03*
X50195000Y-25698000D03*
D23*
X37544500Y-13906500D03*
X39544500Y-13906500D03*
D24*
X36344860Y-9461500D03*
X40744140Y-9461500D03*
D23*
X49292000Y-38608000D03*
X51292000Y-38608000D03*
X49292000Y-40767000D03*
X51292000Y-40767000D03*
X49292000Y-42926000D03*
X51292000Y-42926000D03*
X49292000Y-45085000D03*
X51292000Y-45085000D03*
X31258000Y-36296600D03*
X33258000Y-36296600D03*
D25*
X29858000Y-41566000D03*
X32778000Y-41566000D03*
D22*
X35941000Y-34560000D03*
X35941000Y-36560000D03*
D26*
X38227000Y-33488000D03*
X38227000Y-36108000D03*
D27*
X30258000Y-38566000D03*
X32878000Y-38566000D03*
D23*
X65702500Y-35493500D03*
X67702500Y-35493500D03*
X65675000Y-37973000D03*
X67675000Y-37973000D03*
D25*
X66674500Y-32702500D03*
X63754500Y-32702500D03*
D23*
X61420500Y-39179500D03*
X63420500Y-39179500D03*
D25*
X63880500Y-41973500D03*
X60960500Y-41973500D03*
D22*
X69024500Y-31639000D03*
X69024500Y-33639000D03*
D21*
X82486500Y-30924000D03*
X82486500Y-28004000D03*
D22*
X64121000Y-56849000D03*
X64121000Y-58849000D03*
D23*
X72619000Y-42942000D03*
X74619000Y-42942000D03*
X74678000Y-45600000D03*
X72678000Y-45600000D03*
D28*
X20581500Y-42350000D03*
X19506500Y-42350000D03*
X20581500Y-45050000D03*
D29*
X20044000Y-45650000D03*
X20044000Y-41750000D03*
D28*
X19506500Y-45050000D03*
D14*
X21638260Y-29083000D03*
X26636980Y-29083000D03*
X11635740Y-29083000D03*
X6637020Y-29083000D03*
D30*
X33860740Y-30226000D03*
X44020740Y-30226000D03*
D31*
X67500500Y-7048500D03*
D32*
X67500500Y-9588500D03*
D20*
X80500000Y-64340000D03*
D33*
X80500000Y-59260000D03*
D34*
X46228000Y-66040000D03*
X51308000Y-66040000D03*
D35*
X41148000Y-66040000D03*
D34*
X56388000Y-66040000D03*
D13*
X85598000Y-41910000D03*
D14*
X85598000Y-36830000D03*
D31*
X78820000Y-3270000D03*
D32*
X81360000Y-3270000D03*
D36*
X18244000Y-38949240D03*
X16344000Y-38949240D03*
X17294000Y-40948220D03*
X18244000Y-42949240D03*
X16344000Y-42949240D03*
X17294000Y-44948220D03*
D37*
X14744000Y-38950000D03*
X12844000Y-38950000D03*
X14744000Y-44950000D03*
X12844000Y-44950000D03*
X12844000Y-40950000D03*
X14744000Y-40950000D03*
X12844000Y-42950000D03*
X14744000Y-42950000D03*
X40828000Y-55626000D03*
X38928000Y-55626000D03*
X50734000Y-55753000D03*
X48834000Y-55753000D03*
X55941000Y-55880000D03*
X54041000Y-55880000D03*
D38*
X50546000Y-53528000D03*
X50546000Y-51628000D03*
X56896000Y-53528000D03*
X56896000Y-51628000D03*
D39*
X74549000Y-59235000D03*
X74549000Y-56335000D03*
D37*
X69535000Y-59309000D03*
X71435000Y-59309000D03*
X69535000Y-56261000D03*
X71435000Y-56261000D03*
X65979000Y-60833000D03*
X67879000Y-60833000D03*
X65979000Y-54991000D03*
X67879000Y-54991000D03*
X65979000Y-52959000D03*
X67879000Y-52959000D03*
D38*
X61082000Y-9334000D03*
X61082000Y-11234000D03*
X82042000Y-47813000D03*
X82042000Y-45913000D03*
X82042000Y-50739000D03*
X82042000Y-52639000D03*
D37*
X57338000Y-36700000D03*
X59238000Y-36700000D03*
X57338000Y-33652000D03*
X59238000Y-33652000D03*
X80420000Y-38070000D03*
X78520000Y-38070000D03*
X78519000Y-40117000D03*
X80419000Y-40117000D03*
X68514000Y-49784000D03*
X66614000Y-49784000D03*
X68514000Y-47752000D03*
X66614000Y-47752000D03*
X80420000Y-42170000D03*
X78520000Y-42170000D03*
D38*
X20044000Y-38500000D03*
X20044000Y-40400000D03*
D40*
X23068000Y-36176500D03*
D41*
X23068000Y-48376500D03*
X11018000Y-48426500D03*
D40*
X11068000Y-36176500D03*
D41*
X17018000Y-34226500D03*
D42*
X79542640Y-49362360D03*
X84582000Y-51861720D03*
X84582000Y-46863000D03*
D43*
X73025000Y-10350500D03*
D44*
X73025000Y-16954500D03*
X75311000Y-16954500D03*
X70739000Y-16954500D03*
D43*
X53220000Y-16318000D03*
D44*
X53220000Y-22922000D03*
X55506000Y-22922000D03*
X50934000Y-22922000D03*
D45*
X66522600Y-58801000D03*
X67843400Y-58801000D03*
X67183000Y-58801000D03*
X67843400Y-56769000D03*
X66522600Y-56769000D03*
D46*
X36881000Y-39411000D03*
X39421000Y-39411000D03*
X40691000Y-39411000D03*
X41961000Y-39411000D03*
X43231000Y-39411000D03*
X44501000Y-39411000D03*
X45771000Y-39411000D03*
X45771000Y-45761000D03*
X44501000Y-45761000D03*
X43231000Y-45761000D03*
X41961000Y-45761000D03*
X40691000Y-45761000D03*
X39421000Y-45761000D03*
X38151000Y-45761000D03*
X36881000Y-45761000D03*
X38151000Y-39411000D03*
D47*
X76474000Y-40987000D03*
X76474000Y-39717000D03*
X76474000Y-38447000D03*
X76474000Y-37177000D03*
X71074000Y-37177000D03*
X71074000Y-38447000D03*
X71074000Y-39717000D03*
X71074000Y-40987000D03*
X71018000Y-47515000D03*
X71018000Y-48785000D03*
X71018000Y-50055000D03*
X71018000Y-51325000D03*
X76418000Y-51325000D03*
X76418000Y-50055000D03*
X76418000Y-48785000D03*
X76418000Y-47515000D03*
D48*
X63462500Y-37113500D03*
X63462500Y-36163500D03*
X63462500Y-35213500D03*
X61262500Y-35213500D03*
X61262500Y-37113500D03*
X61262500Y-36163500D03*
D36*
X41844000Y-51577240D03*
X39944000Y-51577240D03*
X40894000Y-53576220D03*
X55052000Y-51577240D03*
X53152000Y-51577240D03*
X54102000Y-53576220D03*
X48702000Y-51577240D03*
X46802000Y-51577240D03*
X47752000Y-53576220D03*
X62677000Y-54975760D03*
X64577000Y-54975760D03*
X63627000Y-52976780D03*
D31*
X46620000Y-15220000D03*
D32*
X46620000Y-12680000D03*
D31*
X59817000Y-22352000D03*
D32*
X59817000Y-19812000D03*
D31*
X46620000Y-19570000D03*
D32*
X46620000Y-22110000D03*
D23*
X31734000Y-49657000D03*
X29734000Y-49657000D03*
X33258000Y-44958000D03*
X31258000Y-44958000D03*
D36*
X29652000Y-51577240D03*
X27752000Y-51577240D03*
X28702000Y-53576220D03*
X36129000Y-51577240D03*
X34229000Y-51577240D03*
X35179000Y-53576220D03*
D34*
X25908000Y-66040000D03*
X30988000Y-66040000D03*
D35*
X20828000Y-66040000D03*
D34*
X36068000Y-66040000D03*
D49*
X54356000Y-60198000D03*
D50*
X51816000Y-60198000D03*
X49276000Y-60198000D03*
X46736000Y-60198000D03*
D49*
X37084000Y-60198000D03*
D50*
X34544000Y-60198000D03*
X32004000Y-60198000D03*
X29464000Y-60198000D03*
D37*
X29022000Y-55626000D03*
X30922000Y-55626000D03*
X32832000Y-55626000D03*
X34732000Y-55626000D03*
D38*
X31496000Y-53528000D03*
X31496000Y-51628000D03*
X37973000Y-53528000D03*
X37973000Y-51628000D03*
X43688000Y-53528000D03*
X43688000Y-51628000D03*
D51*
X87500000Y-67500000D03*
X2500000Y-67500000D03*
X2500000Y-2500000D03*
X87500000Y-2500000D03*
D30*
X55020000Y-11820000D03*
D52*
X51520000Y-11820000D03*
M02*
