G04 #@! TF.FileFunction,Legend,Top*
%FSLAX46Y46*%
G04 Gerber Fmt 4.6, Leading zero omitted, Abs format (unit mm)*
G04 Created by KiCad (PCBNEW 4.0.2+dfsg1-stable) date pon, 19 lis 2018, 23:52:54*
%MOMM*%
G01*
G04 APERTURE LIST*
%ADD10C,0.100000*%
%ADD11C,0.150000*%
%ADD12C,0.304800*%
G04 APERTURE END LIST*
D10*
D11*
X102382000Y-137105200D02*
X102382000Y-134105200D01*
X104882000Y-134105200D02*
X104882000Y-137105200D01*
X75325000Y-105351000D02*
X75325000Y-111649000D01*
X75465000Y-105357000D02*
X75465000Y-111643000D01*
X75605000Y-105370000D02*
X75605000Y-108054000D01*
X75605000Y-108946000D02*
X75605000Y-111630000D01*
X75745000Y-105389000D02*
X75745000Y-107844000D01*
X75745000Y-109156000D02*
X75745000Y-111611000D01*
X75885000Y-105415000D02*
X75885000Y-107711000D01*
X75885000Y-109289000D02*
X75885000Y-111585000D01*
X76025000Y-105447000D02*
X76025000Y-107620000D01*
X76025000Y-109380000D02*
X76025000Y-111553000D01*
X76165000Y-105486000D02*
X76165000Y-107558000D01*
X76165000Y-109442000D02*
X76165000Y-111514000D01*
X76305000Y-105532000D02*
X76305000Y-107519000D01*
X76305000Y-109481000D02*
X76305000Y-111468000D01*
X76445000Y-105585000D02*
X76445000Y-107502000D01*
X76445000Y-109498000D02*
X76445000Y-111415000D01*
X76585000Y-105647000D02*
X76585000Y-107504000D01*
X76585000Y-109496000D02*
X76585000Y-111353000D01*
X76725000Y-105717000D02*
X76725000Y-107526000D01*
X76725000Y-109474000D02*
X76725000Y-111283000D01*
X76865000Y-105796000D02*
X76865000Y-107569000D01*
X76865000Y-109431000D02*
X76865000Y-111204000D01*
X77005000Y-105884000D02*
X77005000Y-107637000D01*
X77005000Y-109363000D02*
X77005000Y-111116000D01*
X77145000Y-105984000D02*
X77145000Y-107736000D01*
X77145000Y-109264000D02*
X77145000Y-111016000D01*
X77285000Y-106096000D02*
X77285000Y-107881000D01*
X77285000Y-109119000D02*
X77285000Y-110904000D01*
X77425000Y-106221000D02*
X77425000Y-108120000D01*
X77425000Y-108880000D02*
X77425000Y-110779000D01*
X77565000Y-106364000D02*
X77565000Y-110636000D01*
X77705000Y-106526000D02*
X77705000Y-110474000D01*
X77845000Y-106714000D02*
X77845000Y-110286000D01*
X77985000Y-106937000D02*
X77985000Y-110063000D01*
X78125000Y-107213000D02*
X78125000Y-109787000D01*
X78265000Y-107588000D02*
X78265000Y-109412000D01*
X77500000Y-108500000D02*
G75*
G03X77500000Y-108500000I-1000000J0D01*
G01*
X78437500Y-108500000D02*
G75*
G03X78437500Y-108500000I-3187500J0D01*
G01*
X82931000Y-139065000D02*
X81915000Y-139065000D01*
X81915000Y-139065000D02*
X81915000Y-140081000D01*
X81915000Y-140081000D02*
X73787000Y-140081000D01*
X73787000Y-140081000D02*
X73787000Y-138049000D01*
X73787000Y-138049000D02*
X81915000Y-138049000D01*
X81915000Y-138049000D02*
X81915000Y-139065000D01*
X81915000Y-139573000D02*
X81407000Y-140081000D01*
X72771000Y-139065000D02*
X73787000Y-139065000D01*
X74676000Y-149352000D02*
X73660000Y-149352000D01*
X73660000Y-149352000D02*
X73660000Y-150368000D01*
X73660000Y-150368000D02*
X65532000Y-150368000D01*
X65532000Y-150368000D02*
X65532000Y-148336000D01*
X65532000Y-148336000D02*
X73660000Y-148336000D01*
X73660000Y-148336000D02*
X73660000Y-149352000D01*
X73660000Y-149860000D02*
X73152000Y-150368000D01*
X64516000Y-149352000D02*
X65532000Y-149352000D01*
X101663500Y-166116000D02*
X101663500Y-162687000D01*
X111315500Y-166116000D02*
X111315500Y-162687000D01*
X101155500Y-167259000D02*
X111823500Y-167259000D01*
X104711500Y-166243000D02*
X104711500Y-167513000D01*
X108267500Y-166243000D02*
X108267500Y-167513000D01*
X111823500Y-166116000D02*
X101155500Y-166116000D01*
X101155500Y-162687000D02*
X111823500Y-162687000D01*
X111823500Y-167513000D02*
X111823500Y-162687000D01*
X101155500Y-167513000D02*
X101155500Y-162687000D01*
X101155500Y-167513000D02*
X111823500Y-167513000D01*
X120650000Y-146050000D02*
X113030000Y-146050000D01*
X120650000Y-130810000D02*
X113030000Y-130810000D01*
X119380000Y-146050000D02*
X119380000Y-130810000D01*
X113030000Y-146050000D02*
X113030000Y-130810000D01*
X120650000Y-146050000D02*
X120650000Y-130810000D01*
X107787760Y-134207440D02*
X107787760Y-137207440D01*
X105287760Y-137207440D02*
X105287760Y-134207440D01*
X26670000Y-116840000D02*
X34290000Y-116840000D01*
X26670000Y-132080000D02*
X34290000Y-132080000D01*
X27940000Y-116840000D02*
X27940000Y-132080000D01*
X34290000Y-116840000D02*
X34290000Y-132080000D01*
X26670000Y-116840000D02*
X26670000Y-132080000D01*
X78025000Y-104999000D02*
X78025000Y-97001000D01*
X77885000Y-104994000D02*
X77885000Y-97006000D01*
X77745000Y-104984000D02*
X77745000Y-97016000D01*
X77605000Y-104969000D02*
X77605000Y-97031000D01*
X77465000Y-104949000D02*
X77465000Y-97051000D01*
X77325000Y-104924000D02*
X77325000Y-97076000D01*
X77185000Y-104894000D02*
X77185000Y-101173000D01*
X77185000Y-100827000D02*
X77185000Y-97106000D01*
X77045000Y-104858000D02*
X77045000Y-101535000D01*
X77045000Y-100465000D02*
X77045000Y-97142000D01*
X76905000Y-104817000D02*
X76905000Y-101709000D01*
X76905000Y-100291000D02*
X76905000Y-97183000D01*
X76765000Y-104771000D02*
X76765000Y-101825000D01*
X76765000Y-100175000D02*
X76765000Y-97229000D01*
X76625000Y-104718000D02*
X76625000Y-101905000D01*
X76625000Y-100095000D02*
X76625000Y-97282000D01*
X76485000Y-104659000D02*
X76485000Y-101959000D01*
X76485000Y-100041000D02*
X76485000Y-97341000D01*
X76345000Y-104594000D02*
X76345000Y-101989000D01*
X76345000Y-100011000D02*
X76345000Y-97406000D01*
X76205000Y-104523000D02*
X76205000Y-102000000D01*
X76205000Y-100000000D02*
X76205000Y-97477000D01*
X76065000Y-104444000D02*
X76065000Y-101991000D01*
X76065000Y-100009000D02*
X76065000Y-97556000D01*
X75925000Y-104357000D02*
X75925000Y-101961000D01*
X75925000Y-100039000D02*
X75925000Y-97643000D01*
X75785000Y-104262000D02*
X75785000Y-101910000D01*
X75785000Y-100090000D02*
X75785000Y-97738000D01*
X75645000Y-104158000D02*
X75645000Y-101832000D01*
X75645000Y-100168000D02*
X75645000Y-97842000D01*
X75505000Y-104044000D02*
X75505000Y-101719000D01*
X75505000Y-100281000D02*
X75505000Y-97956000D01*
X75365000Y-103919000D02*
X75365000Y-101550000D01*
X75365000Y-100450000D02*
X75365000Y-98081000D01*
X75225000Y-103781000D02*
X75225000Y-101222000D01*
X75225000Y-100778000D02*
X75225000Y-98219000D01*
X75085000Y-103629000D02*
X75085000Y-98371000D01*
X74945000Y-103459000D02*
X74945000Y-98541000D01*
X74805000Y-103268000D02*
X74805000Y-98732000D01*
X74665000Y-103050000D02*
X74665000Y-98950000D01*
X74525000Y-102794000D02*
X74525000Y-99206000D01*
X74385000Y-102483000D02*
X74385000Y-99517000D01*
X74245000Y-102067000D02*
X74245000Y-99933000D01*
X74105000Y-101200000D02*
X74105000Y-100800000D01*
X77200000Y-101000000D02*
G75*
G03X77200000Y-101000000I-1000000J0D01*
G01*
X82137500Y-101000000D02*
G75*
G03X82137500Y-101000000I-4037500J0D01*
G01*
X87499000Y-90325000D02*
X82501000Y-90325000D01*
X87491000Y-90465000D02*
X82509000Y-90465000D01*
X87475000Y-90605000D02*
X85095000Y-90605000D01*
X84905000Y-90605000D02*
X82525000Y-90605000D01*
X87451000Y-90745000D02*
X85490000Y-90745000D01*
X84510000Y-90745000D02*
X82549000Y-90745000D01*
X87418000Y-90885000D02*
X85657000Y-90885000D01*
X84343000Y-90885000D02*
X82582000Y-90885000D01*
X87377000Y-91025000D02*
X85764000Y-91025000D01*
X84236000Y-91025000D02*
X82623000Y-91025000D01*
X87327000Y-91165000D02*
X85835000Y-91165000D01*
X84165000Y-91165000D02*
X82673000Y-91165000D01*
X87266000Y-91305000D02*
X85879000Y-91305000D01*
X84121000Y-91305000D02*
X82734000Y-91305000D01*
X87196000Y-91445000D02*
X85898000Y-91445000D01*
X84102000Y-91445000D02*
X82804000Y-91445000D01*
X87114000Y-91585000D02*
X85896000Y-91585000D01*
X84104000Y-91585000D02*
X82886000Y-91585000D01*
X87019000Y-91725000D02*
X85871000Y-91725000D01*
X84129000Y-91725000D02*
X82981000Y-91725000D01*
X86908000Y-91865000D02*
X85823000Y-91865000D01*
X84177000Y-91865000D02*
X83092000Y-91865000D01*
X86780000Y-92005000D02*
X85745000Y-92005000D01*
X84255000Y-92005000D02*
X83220000Y-92005000D01*
X86631000Y-92145000D02*
X85628000Y-92145000D01*
X84372000Y-92145000D02*
X83369000Y-92145000D01*
X86452000Y-92285000D02*
X85440000Y-92285000D01*
X84560000Y-92285000D02*
X83548000Y-92285000D01*
X86233000Y-92425000D02*
X83767000Y-92425000D01*
X85944000Y-92565000D02*
X84056000Y-92565000D01*
X85472000Y-92705000D02*
X84528000Y-92705000D01*
X85900000Y-91500000D02*
G75*
G03X85900000Y-91500000I-900000J0D01*
G01*
X87537500Y-90250000D02*
G75*
G03X87537500Y-90250000I-2537500J0D01*
G01*
X76145000Y-121498000D02*
X76145000Y-116500000D01*
X76005000Y-121490000D02*
X76005000Y-116508000D01*
X75865000Y-121474000D02*
X75865000Y-119094000D01*
X75865000Y-118904000D02*
X75865000Y-116524000D01*
X75725000Y-121450000D02*
X75725000Y-119489000D01*
X75725000Y-118509000D02*
X75725000Y-116548000D01*
X75585000Y-121417000D02*
X75585000Y-119656000D01*
X75585000Y-118342000D02*
X75585000Y-116581000D01*
X75445000Y-121376000D02*
X75445000Y-119763000D01*
X75445000Y-118235000D02*
X75445000Y-116622000D01*
X75305000Y-121326000D02*
X75305000Y-119834000D01*
X75305000Y-118164000D02*
X75305000Y-116672000D01*
X75165000Y-121265000D02*
X75165000Y-119878000D01*
X75165000Y-118120000D02*
X75165000Y-116733000D01*
X75025000Y-121195000D02*
X75025000Y-119897000D01*
X75025000Y-118101000D02*
X75025000Y-116803000D01*
X74885000Y-121113000D02*
X74885000Y-119895000D01*
X74885000Y-118103000D02*
X74885000Y-116885000D01*
X74745000Y-121018000D02*
X74745000Y-119870000D01*
X74745000Y-118128000D02*
X74745000Y-116980000D01*
X74605000Y-120907000D02*
X74605000Y-119822000D01*
X74605000Y-118176000D02*
X74605000Y-117091000D01*
X74465000Y-120779000D02*
X74465000Y-119744000D01*
X74465000Y-118254000D02*
X74465000Y-117219000D01*
X74325000Y-120630000D02*
X74325000Y-119627000D01*
X74325000Y-118371000D02*
X74325000Y-117368000D01*
X74185000Y-120451000D02*
X74185000Y-119439000D01*
X74185000Y-118559000D02*
X74185000Y-117547000D01*
X74045000Y-120232000D02*
X74045000Y-117766000D01*
X73905000Y-119943000D02*
X73905000Y-118055000D01*
X73765000Y-119471000D02*
X73765000Y-118527000D01*
X75870000Y-118999000D02*
G75*
G03X75870000Y-118999000I-900000J0D01*
G01*
X78757500Y-118999000D02*
G75*
G03X78757500Y-118999000I-2537500J0D01*
G01*
X83486000Y-82804000D02*
G75*
G03X83486000Y-82804000I-5000000J0D01*
G01*
D12*
X79586000Y-83904000D02*
G75*
G03X79286000Y-83604000I-300000J0D01*
G01*
X79286000Y-83604000D02*
G75*
G03X78986000Y-83904000I0J-300000D01*
G01*
X79586000Y-83904000D02*
G75*
G03X79886000Y-84204000I300000J0D01*
G01*
X79886000Y-84204000D02*
G75*
G03X80186000Y-83904000I0J300000D01*
G01*
X77686000Y-82004000D02*
G75*
G03X77986000Y-81704000I0J300000D01*
G01*
X77386000Y-81704000D02*
G75*
G03X77686000Y-82004000I300000J0D01*
G01*
X77086000Y-81404000D02*
G75*
G03X76786000Y-81704000I0J-300000D01*
G01*
X77386000Y-81704000D02*
G75*
G03X77086000Y-81404000I-300000J0D01*
G01*
X80186000Y-81704000D02*
X78986000Y-81704000D01*
X77986000Y-83904000D02*
X76786000Y-83904000D01*
X77386000Y-83304000D02*
X77386000Y-84504000D01*
D11*
X52781200Y-129540000D02*
X46278800Y-129540000D01*
X52781200Y-126039880D02*
X52781200Y-133040120D01*
X61528960Y-133040120D02*
X52781200Y-133040120D01*
X61528960Y-126039880D02*
X52781200Y-126039880D01*
X38780720Y-132039360D02*
X37531040Y-132039360D01*
X39029640Y-127040640D02*
X37531040Y-127040640D01*
X51031140Y-132039360D02*
X38780720Y-132039360D01*
X50779680Y-127040640D02*
X39029640Y-127040640D01*
X61528960Y-132039360D02*
X51031140Y-132039360D01*
X61528960Y-127040640D02*
X50779680Y-127040640D01*
X61528960Y-127040640D02*
X61528960Y-132039360D01*
X62529720Y-126039880D02*
X61528960Y-126039880D01*
X62529720Y-126039880D02*
X62529720Y-133040120D01*
X62529720Y-133040120D02*
X61528960Y-133040120D01*
X37531040Y-127040640D02*
X37531040Y-132039360D01*
X46278800Y-126039880D02*
X36530280Y-126039880D01*
X36530280Y-126039880D02*
X36530280Y-133040120D01*
X46278800Y-133040120D02*
X36530280Y-133040120D01*
X46278800Y-126039880D02*
X46278800Y-133040120D01*
X53035200Y-138684000D02*
X46532800Y-138684000D01*
X53035200Y-135183880D02*
X53035200Y-142184120D01*
X61782960Y-142184120D02*
X53035200Y-142184120D01*
X61782960Y-135183880D02*
X53035200Y-135183880D01*
X39034720Y-141183360D02*
X37785040Y-141183360D01*
X39283640Y-136184640D02*
X37785040Y-136184640D01*
X51285140Y-141183360D02*
X39034720Y-141183360D01*
X51033680Y-136184640D02*
X39283640Y-136184640D01*
X61782960Y-141183360D02*
X51285140Y-141183360D01*
X61782960Y-136184640D02*
X51033680Y-136184640D01*
X61782960Y-136184640D02*
X61782960Y-141183360D01*
X62783720Y-135183880D02*
X61782960Y-135183880D01*
X62783720Y-135183880D02*
X62783720Y-142184120D01*
X62783720Y-142184120D02*
X61782960Y-142184120D01*
X37785040Y-136184640D02*
X37785040Y-141183360D01*
X46532800Y-135183880D02*
X36784280Y-135183880D01*
X36784280Y-135183880D02*
X36784280Y-142184120D01*
X46532800Y-142184120D02*
X36784280Y-142184120D01*
X46532800Y-135183880D02*
X46532800Y-142184120D01*
X71882000Y-135890000D02*
X69342000Y-135890000D01*
X74702000Y-136170000D02*
X73152000Y-136170000D01*
X71882000Y-135890000D02*
X71882000Y-133350000D01*
X73152000Y-133070000D02*
X74702000Y-133070000D01*
X74702000Y-133070000D02*
X74702000Y-136170000D01*
X71882000Y-133350000D02*
X69342000Y-133350000D01*
X69342000Y-133350000D02*
X69342000Y-135890000D01*
X59563000Y-150241000D02*
X57023000Y-150241000D01*
X62383000Y-150521000D02*
X60833000Y-150521000D01*
X59563000Y-150241000D02*
X59563000Y-147701000D01*
X60833000Y-147421000D02*
X62383000Y-147421000D01*
X62383000Y-147421000D02*
X62383000Y-150521000D01*
X59563000Y-147701000D02*
X57023000Y-147701000D01*
X57023000Y-147701000D02*
X57023000Y-150241000D01*
X66294000Y-161290000D02*
X66294000Y-163830000D01*
X66574000Y-158470000D02*
X66574000Y-160020000D01*
X66294000Y-161290000D02*
X63754000Y-161290000D01*
X63474000Y-160020000D02*
X63474000Y-158470000D01*
X63474000Y-158470000D02*
X66574000Y-158470000D01*
X63754000Y-161290000D02*
X63754000Y-163830000D01*
X63754000Y-163830000D02*
X66294000Y-163830000D01*
X100139500Y-162623500D02*
X100139500Y-165163500D01*
X100419500Y-159803500D02*
X100419500Y-161353500D01*
X100139500Y-162623500D02*
X97599500Y-162623500D01*
X97319500Y-161353500D02*
X97319500Y-159803500D01*
X97319500Y-159803500D02*
X100419500Y-159803500D01*
X97599500Y-162623500D02*
X97599500Y-165163500D01*
X97599500Y-165163500D02*
X100139500Y-165163500D01*
X26670000Y-83820000D02*
X34290000Y-83820000D01*
X26670000Y-99060000D02*
X34290000Y-99060000D01*
X27940000Y-83820000D02*
X27940000Y-99060000D01*
X34290000Y-83820000D02*
X34290000Y-99060000D01*
X26670000Y-83820000D02*
X26670000Y-99060000D01*
X59436000Y-166370000D02*
X59436000Y-158750000D01*
X39116000Y-158750000D02*
X39116000Y-166370000D01*
X39116000Y-160020000D02*
X59436000Y-160020000D01*
X59436000Y-166370000D02*
X39116000Y-166370000D01*
X59436000Y-158750000D02*
X39116000Y-158750000D01*
X92202000Y-82804000D02*
X92202000Y-85344000D01*
X92482000Y-79984000D02*
X92482000Y-81534000D01*
X92202000Y-82804000D02*
X89662000Y-82804000D01*
X89382000Y-81534000D02*
X89382000Y-79984000D01*
X89382000Y-79984000D02*
X92482000Y-79984000D01*
X89662000Y-82804000D02*
X89662000Y-85344000D01*
X89662000Y-85344000D02*
X92202000Y-85344000D01*
X101092000Y-111252000D02*
X101092000Y-113792000D01*
X101372000Y-108432000D02*
X101372000Y-109982000D01*
X101092000Y-111252000D02*
X98552000Y-111252000D01*
X98272000Y-109982000D02*
X98272000Y-108432000D01*
X98272000Y-108432000D02*
X101372000Y-108432000D01*
X98552000Y-111252000D02*
X98552000Y-113792000D01*
X98552000Y-113792000D02*
X101092000Y-113792000D01*
X67503010Y-111352305D02*
G75*
G03X66800000Y-111840000I996990J-2187695D01*
G01*
X67503010Y-115727695D02*
G75*
G02X66800000Y-115240000I996990J2187695D01*
G01*
X66800000Y-111840000D02*
X66800000Y-115240000D01*
X69493127Y-111355121D02*
G75*
G02X70900000Y-113540000I-993127J-2184879D01*
G01*
X69493127Y-115724879D02*
G75*
G03X70900000Y-113540000I-993127J2184879D01*
G01*
X71879460Y-102908100D02*
X71879460Y-75907900D01*
X71879460Y-75907900D02*
X39880540Y-75907900D01*
X39880540Y-75907900D02*
X39880540Y-102908100D01*
X39880540Y-102908100D02*
X71879460Y-102908100D01*
X74676000Y-155448000D02*
X73660000Y-155448000D01*
X73660000Y-155448000D02*
X73660000Y-156464000D01*
X73660000Y-156464000D02*
X65532000Y-156464000D01*
X65532000Y-156464000D02*
X65532000Y-154432000D01*
X65532000Y-154432000D02*
X73660000Y-154432000D01*
X73660000Y-154432000D02*
X73660000Y-155448000D01*
X73660000Y-155956000D02*
X73152000Y-156464000D01*
X64516000Y-155448000D02*
X65532000Y-155448000D01*
X84455000Y-164465000D02*
X84455000Y-163449000D01*
X84455000Y-151765000D02*
X84455000Y-152781000D01*
X83185000Y-152781000D02*
X85725000Y-152781000D01*
X85725000Y-152781000D02*
X85725000Y-163449000D01*
X85725000Y-163449000D02*
X83185000Y-163449000D01*
X83185000Y-163449000D02*
X83185000Y-152781000D01*
X83693000Y-163449000D02*
X83185000Y-162941000D01*
X81153000Y-163068000D02*
X81153000Y-162052000D01*
X81153000Y-162052000D02*
X80137000Y-162052000D01*
X80137000Y-162052000D02*
X80137000Y-153924000D01*
X80137000Y-153924000D02*
X82169000Y-153924000D01*
X82169000Y-153924000D02*
X82169000Y-162052000D01*
X82169000Y-162052000D02*
X81153000Y-162052000D01*
X80645000Y-162052000D02*
X80137000Y-161544000D01*
X81153000Y-152908000D02*
X81153000Y-153924000D01*
X77851000Y-162941000D02*
X77851000Y-161925000D01*
X77851000Y-161925000D02*
X76835000Y-161925000D01*
X76835000Y-161925000D02*
X76835000Y-153797000D01*
X76835000Y-153797000D02*
X78867000Y-153797000D01*
X78867000Y-153797000D02*
X78867000Y-161925000D01*
X78867000Y-161925000D02*
X77851000Y-161925000D01*
X77343000Y-161925000D02*
X76835000Y-161417000D01*
X77851000Y-152781000D02*
X77851000Y-153797000D01*
X84250000Y-128500000D02*
X84250000Y-134500000D01*
X79750000Y-134500000D02*
X79750000Y-128500000D01*
X79502000Y-106426000D02*
X80518000Y-106426000D01*
X80518000Y-106426000D02*
X80518000Y-105410000D01*
X80518000Y-105410000D02*
X88646000Y-105410000D01*
X88646000Y-105410000D02*
X88646000Y-107442000D01*
X88646000Y-107442000D02*
X80518000Y-107442000D01*
X80518000Y-107442000D02*
X80518000Y-106426000D01*
X80518000Y-105918000D02*
X81026000Y-105410000D01*
X89662000Y-106426000D02*
X88646000Y-106426000D01*
X98750000Y-95330000D02*
X98750000Y-94314000D01*
X98750000Y-94314000D02*
X97734000Y-94314000D01*
X97734000Y-94314000D02*
X97734000Y-86186000D01*
X97734000Y-86186000D02*
X99766000Y-86186000D01*
X99766000Y-86186000D02*
X99766000Y-94314000D01*
X99766000Y-94314000D02*
X98750000Y-94314000D01*
X98242000Y-94314000D02*
X97734000Y-93806000D01*
X98750000Y-85170000D02*
X98750000Y-86186000D01*
X114490500Y-149415500D02*
X114490500Y-150431500D01*
X114490500Y-150431500D02*
X115506500Y-150431500D01*
X115506500Y-150431500D02*
X115506500Y-158559500D01*
X115506500Y-158559500D02*
X113474500Y-158559500D01*
X113474500Y-158559500D02*
X113474500Y-150431500D01*
X113474500Y-150431500D02*
X114490500Y-150431500D01*
X114998500Y-150431500D02*
X115506500Y-150939500D01*
X114490500Y-159575500D02*
X114490500Y-158559500D01*
X118110000Y-159639000D02*
X118110000Y-158623000D01*
X118110000Y-158623000D02*
X117094000Y-158623000D01*
X117094000Y-158623000D02*
X117094000Y-150495000D01*
X117094000Y-150495000D02*
X119126000Y-150495000D01*
X119126000Y-150495000D02*
X119126000Y-158623000D01*
X119126000Y-158623000D02*
X118110000Y-158623000D01*
X117602000Y-158623000D02*
X117094000Y-158115000D01*
X118110000Y-149479000D02*
X118110000Y-150495000D01*
X107251500Y-158432500D02*
X102171500Y-158432500D01*
X102171500Y-158432500D02*
X102171500Y-160972500D01*
X102171500Y-160972500D02*
X107251500Y-160972500D01*
X110071500Y-161252500D02*
X108521500Y-161252500D01*
X107251500Y-160972500D02*
X107251500Y-158432500D01*
X108521500Y-158152500D02*
X110071500Y-158152500D01*
X110071500Y-158152500D02*
X110071500Y-161252500D01*
X83250000Y-97750000D02*
X83250000Y-94750000D01*
X85750000Y-94750000D02*
X85750000Y-97750000D01*
X82250000Y-123750000D02*
X85250000Y-123750000D01*
X85250000Y-126250000D02*
X82250000Y-126250000D01*
X85750000Y-129750000D02*
X85750000Y-132750000D01*
X83250000Y-132750000D02*
X83250000Y-129750000D01*
X30226000Y-77470000D02*
G75*
G03X30226000Y-77470000I-2286000J0D01*
G01*
X30226000Y-165100000D02*
G75*
G03X30226000Y-165100000I-2286000J0D01*
G01*
X119126000Y-165100000D02*
G75*
G03X119126000Y-165100000I-2286000J0D01*
G01*
X119126000Y-77470000D02*
G75*
G03X119126000Y-77470000I-2286000J0D01*
G01*
X59323000Y-121936000D02*
X62623000Y-121936000D01*
X62623000Y-121936000D02*
X62623000Y-106536000D01*
X62623000Y-106536000D02*
X59273000Y-106536000D01*
X43023000Y-115586000D02*
X43023000Y-121936000D01*
X43023000Y-121936000D02*
X57573000Y-121936000D01*
X43023000Y-112836000D02*
X43023000Y-106536000D01*
X43023000Y-106536000D02*
X57773000Y-106536000D01*
X43023000Y-106586000D02*
X43023000Y-112836000D01*
X58473000Y-118436000D02*
X58473000Y-115986000D01*
X58473000Y-110036000D02*
X58473000Y-112536000D01*
X47873000Y-120286000D02*
X50373000Y-120286000D01*
X46973000Y-114286000D02*
X46173000Y-114286000D01*
X50373000Y-108286000D02*
X47873000Y-108286000D01*
X53773000Y-114286000D02*
X55273000Y-114286000D01*
X55273000Y-114286000D02*
X59873000Y-111786000D01*
X53773000Y-117886000D02*
X46973000Y-117886000D01*
X53773000Y-114286000D02*
X53773000Y-117886000D01*
X46973000Y-114286000D02*
X46973000Y-117886000D01*
X50373000Y-108286000D02*
X50373000Y-112486000D01*
X50373000Y-116086000D02*
X50373000Y-120286000D01*
X52373000Y-116086000D02*
X48373000Y-112486000D01*
X48373000Y-116086000D02*
X48373000Y-112486000D01*
X48373000Y-112486000D02*
X52373000Y-112486000D01*
X52373000Y-112486000D02*
X52373000Y-116086000D01*
X52373000Y-116086000D02*
X48373000Y-116086000D01*
X28194000Y-152400000D02*
X28194000Y-142240000D01*
X26924000Y-152400000D02*
X34544000Y-152400000D01*
X34544000Y-152400000D02*
X34544000Y-142240000D01*
X34544000Y-142240000D02*
X26924000Y-142240000D01*
X26924000Y-142240000D02*
X26924000Y-152400000D01*
X96647000Y-166243000D02*
X86487000Y-166243000D01*
X96647000Y-167513000D02*
X96647000Y-159893000D01*
X96647000Y-159893000D02*
X86487000Y-159893000D01*
X86487000Y-159893000D02*
X86487000Y-167513000D01*
X86487000Y-167513000D02*
X96647000Y-167513000D01*
X41465500Y-110363000D02*
X41465500Y-117983000D01*
X41465500Y-117983000D02*
X38925500Y-117983000D01*
X38925500Y-117983000D02*
X38925500Y-110363000D01*
X38925500Y-110363000D02*
X41465500Y-110363000D01*
X41465500Y-117348000D02*
X38925500Y-117348000D01*
X38925500Y-116713000D02*
X41465500Y-116713000D01*
X40195500Y-110363000D02*
X40195500Y-109093000D01*
X40195500Y-117983000D02*
X40195500Y-119253000D01*
X101489143Y-135771866D02*
X101536762Y-135819485D01*
X101584381Y-135962342D01*
X101584381Y-136057580D01*
X101536762Y-136200438D01*
X101441524Y-136295676D01*
X101346286Y-136343295D01*
X101155810Y-136390914D01*
X101012952Y-136390914D01*
X100822476Y-136343295D01*
X100727238Y-136295676D01*
X100632000Y-136200438D01*
X100584381Y-136057580D01*
X100584381Y-135962342D01*
X100632000Y-135819485D01*
X100679619Y-135771866D01*
X101584381Y-135295676D02*
X101584381Y-135105200D01*
X101536762Y-135009961D01*
X101489143Y-134962342D01*
X101346286Y-134867104D01*
X101155810Y-134819485D01*
X100774857Y-134819485D01*
X100679619Y-134867104D01*
X100632000Y-134914723D01*
X100584381Y-135009961D01*
X100584381Y-135200438D01*
X100632000Y-135295676D01*
X100679619Y-135343295D01*
X100774857Y-135390914D01*
X101012952Y-135390914D01*
X101108190Y-135343295D01*
X101155810Y-135295676D01*
X101203429Y-135200438D01*
X101203429Y-135009961D01*
X101155810Y-134914723D01*
X101108190Y-134867104D01*
X101012952Y-134819485D01*
X70699334Y-107037143D02*
X70651715Y-107084762D01*
X70508858Y-107132381D01*
X70413620Y-107132381D01*
X70270762Y-107084762D01*
X70175524Y-106989524D01*
X70127905Y-106894286D01*
X70080286Y-106703810D01*
X70080286Y-106560952D01*
X70127905Y-106370476D01*
X70175524Y-106275238D01*
X70270762Y-106180000D01*
X70413620Y-106132381D01*
X70508858Y-106132381D01*
X70651715Y-106180000D01*
X70699334Y-106227619D01*
X71604096Y-106132381D02*
X71127905Y-106132381D01*
X71080286Y-106608571D01*
X71127905Y-106560952D01*
X71223143Y-106513333D01*
X71461239Y-106513333D01*
X71556477Y-106560952D01*
X71604096Y-106608571D01*
X71651715Y-106703810D01*
X71651715Y-106941905D01*
X71604096Y-107037143D01*
X71556477Y-107084762D01*
X71461239Y-107132381D01*
X71223143Y-107132381D01*
X71127905Y-107084762D01*
X71080286Y-107037143D01*
X77684334Y-139517381D02*
X77351000Y-139041190D01*
X77112905Y-139517381D02*
X77112905Y-138517381D01*
X77493858Y-138517381D01*
X77589096Y-138565000D01*
X77636715Y-138612619D01*
X77684334Y-138707857D01*
X77684334Y-138850714D01*
X77636715Y-138945952D01*
X77589096Y-138993571D01*
X77493858Y-139041190D01*
X77112905Y-139041190D01*
X78017667Y-138517381D02*
X78636715Y-138517381D01*
X78303381Y-138898333D01*
X78446239Y-138898333D01*
X78541477Y-138945952D01*
X78589096Y-138993571D01*
X78636715Y-139088810D01*
X78636715Y-139326905D01*
X78589096Y-139422143D01*
X78541477Y-139469762D01*
X78446239Y-139517381D01*
X78160524Y-139517381D01*
X78065286Y-139469762D01*
X78017667Y-139422143D01*
X69429334Y-149804381D02*
X69096000Y-149328190D01*
X68857905Y-149804381D02*
X68857905Y-148804381D01*
X69238858Y-148804381D01*
X69334096Y-148852000D01*
X69381715Y-148899619D01*
X69429334Y-148994857D01*
X69429334Y-149137714D01*
X69381715Y-149232952D01*
X69334096Y-149280571D01*
X69238858Y-149328190D01*
X68857905Y-149328190D01*
X70286477Y-149137714D02*
X70286477Y-149804381D01*
X70048381Y-148756762D02*
X69810286Y-149471048D01*
X70429334Y-149471048D01*
X106394262Y-169330619D02*
X106299024Y-169283000D01*
X106203786Y-169187762D01*
X106060929Y-169044905D01*
X105965690Y-168997286D01*
X105870452Y-168997286D01*
X105918071Y-169235381D02*
X105822833Y-169187762D01*
X105727595Y-169092524D01*
X105679976Y-168902048D01*
X105679976Y-168568714D01*
X105727595Y-168378238D01*
X105822833Y-168283000D01*
X105918071Y-168235381D01*
X106108548Y-168235381D01*
X106203786Y-168283000D01*
X106299024Y-168378238D01*
X106346643Y-168568714D01*
X106346643Y-168902048D01*
X106299024Y-169092524D01*
X106203786Y-169187762D01*
X106108548Y-169235381D01*
X105918071Y-169235381D01*
X106727595Y-168330619D02*
X106775214Y-168283000D01*
X106870452Y-168235381D01*
X107108548Y-168235381D01*
X107203786Y-168283000D01*
X107251405Y-168330619D01*
X107299024Y-168425857D01*
X107299024Y-168521095D01*
X107251405Y-168663952D01*
X106679976Y-169235381D01*
X107299024Y-169235381D01*
X112212381Y-139168095D02*
X111212381Y-139168095D01*
X111212381Y-138787142D01*
X111260000Y-138691904D01*
X111307619Y-138644285D01*
X111402857Y-138596666D01*
X111545714Y-138596666D01*
X111640952Y-138644285D01*
X111688571Y-138691904D01*
X111736190Y-138787142D01*
X111736190Y-139168095D01*
X111545714Y-137739523D02*
X112212381Y-137739523D01*
X111164762Y-137977619D02*
X111879048Y-138215714D01*
X111879048Y-137596666D01*
X109394903Y-136350297D02*
X109442522Y-136397916D01*
X109490141Y-136540773D01*
X109490141Y-136636011D01*
X109442522Y-136778869D01*
X109347284Y-136874107D01*
X109252046Y-136921726D01*
X109061570Y-136969345D01*
X108918712Y-136969345D01*
X108728236Y-136921726D01*
X108632998Y-136874107D01*
X108537760Y-136778869D01*
X108490141Y-136636011D01*
X108490141Y-136540773D01*
X108537760Y-136397916D01*
X108585379Y-136350297D01*
X109490141Y-135397916D02*
X109490141Y-135969345D01*
X109490141Y-135683631D02*
X108490141Y-135683631D01*
X108632998Y-135778869D01*
X108728236Y-135874107D01*
X108775855Y-135969345D01*
X108490141Y-134778869D02*
X108490141Y-134683630D01*
X108537760Y-134588392D01*
X108585379Y-134540773D01*
X108680617Y-134493154D01*
X108871093Y-134445535D01*
X109109189Y-134445535D01*
X109299665Y-134493154D01*
X109394903Y-134540773D01*
X109442522Y-134588392D01*
X109490141Y-134683630D01*
X109490141Y-134778869D01*
X109442522Y-134874107D01*
X109394903Y-134921726D01*
X109299665Y-134969345D01*
X109109189Y-135016964D01*
X108871093Y-135016964D01*
X108680617Y-134969345D01*
X108585379Y-134921726D01*
X108537760Y-134874107D01*
X108490141Y-134778869D01*
X36012381Y-125198095D02*
X35012381Y-125198095D01*
X35012381Y-124817142D01*
X35060000Y-124721904D01*
X35107619Y-124674285D01*
X35202857Y-124626666D01*
X35345714Y-124626666D01*
X35440952Y-124674285D01*
X35488571Y-124721904D01*
X35536190Y-124817142D01*
X35536190Y-125198095D01*
X35012381Y-124293333D02*
X35012381Y-123674285D01*
X35393333Y-124007619D01*
X35393333Y-123864761D01*
X35440952Y-123769523D01*
X35488571Y-123721904D01*
X35583810Y-123674285D01*
X35821905Y-123674285D01*
X35917143Y-123721904D01*
X35964762Y-123769523D01*
X36012381Y-123864761D01*
X36012381Y-124150476D01*
X35964762Y-124245714D01*
X35917143Y-124293333D01*
X83399334Y-101957143D02*
X83351715Y-102004762D01*
X83208858Y-102052381D01*
X83113620Y-102052381D01*
X82970762Y-102004762D01*
X82875524Y-101909524D01*
X82827905Y-101814286D01*
X82780286Y-101623810D01*
X82780286Y-101480952D01*
X82827905Y-101290476D01*
X82875524Y-101195238D01*
X82970762Y-101100000D01*
X83113620Y-101052381D01*
X83208858Y-101052381D01*
X83351715Y-101100000D01*
X83399334Y-101147619D01*
X84351715Y-102052381D02*
X83780286Y-102052381D01*
X84066000Y-102052381D02*
X84066000Y-101052381D01*
X83970762Y-101195238D01*
X83875524Y-101290476D01*
X83780286Y-101338095D01*
X89157143Y-90416666D02*
X89204762Y-90464285D01*
X89252381Y-90607142D01*
X89252381Y-90702380D01*
X89204762Y-90845238D01*
X89109524Y-90940476D01*
X89014286Y-90988095D01*
X88823810Y-91035714D01*
X88680952Y-91035714D01*
X88490476Y-90988095D01*
X88395238Y-90940476D01*
X88300000Y-90845238D01*
X88252381Y-90702380D01*
X88252381Y-90607142D01*
X88300000Y-90464285D01*
X88347619Y-90416666D01*
X88252381Y-90083333D02*
X88252381Y-89464285D01*
X88633333Y-89797619D01*
X88633333Y-89654761D01*
X88680952Y-89559523D01*
X88728571Y-89511904D01*
X88823810Y-89464285D01*
X89061905Y-89464285D01*
X89157143Y-89511904D01*
X89204762Y-89559523D01*
X89252381Y-89654761D01*
X89252381Y-89940476D01*
X89204762Y-90035714D01*
X89157143Y-90083333D01*
X76053334Y-123156143D02*
X76005715Y-123203762D01*
X75862858Y-123251381D01*
X75767620Y-123251381D01*
X75624762Y-123203762D01*
X75529524Y-123108524D01*
X75481905Y-123013286D01*
X75434286Y-122822810D01*
X75434286Y-122679952D01*
X75481905Y-122489476D01*
X75529524Y-122394238D01*
X75624762Y-122299000D01*
X75767620Y-122251381D01*
X75862858Y-122251381D01*
X76005715Y-122299000D01*
X76053334Y-122346619D01*
X76910477Y-122584714D02*
X76910477Y-123251381D01*
X76672381Y-122203762D02*
X76434286Y-122918048D01*
X77053334Y-122918048D01*
D12*
X77361143Y-89208429D02*
X77361143Y-87684429D01*
X77724000Y-87684429D01*
X77941715Y-87757000D01*
X78086857Y-87902143D01*
X78159429Y-88047286D01*
X78232000Y-88337571D01*
X78232000Y-88555286D01*
X78159429Y-88845571D01*
X78086857Y-88990714D01*
X77941715Y-89135857D01*
X77724000Y-89208429D01*
X77361143Y-89208429D01*
X78812572Y-87829571D02*
X78885143Y-87757000D01*
X79030286Y-87684429D01*
X79393143Y-87684429D01*
X79538286Y-87757000D01*
X79610857Y-87829571D01*
X79683429Y-87974714D01*
X79683429Y-88119857D01*
X79610857Y-88337571D01*
X78740000Y-89208429D01*
X79683429Y-89208429D01*
D11*
X48688667Y-130484571D02*
X48355333Y-130484571D01*
X48355333Y-131008381D02*
X48355333Y-130008381D01*
X48831524Y-130008381D01*
X49736286Y-131008381D02*
X49164857Y-131008381D01*
X49450571Y-131008381D02*
X49450571Y-130008381D01*
X49355333Y-130151238D01*
X49260095Y-130246476D01*
X49164857Y-130294095D01*
X49196667Y-139628571D02*
X48863333Y-139628571D01*
X48863333Y-140152381D02*
X48863333Y-139152381D01*
X49339524Y-139152381D01*
X49672857Y-139247619D02*
X49720476Y-139200000D01*
X49815714Y-139152381D01*
X50053810Y-139152381D01*
X50149048Y-139200000D01*
X50196667Y-139247619D01*
X50244286Y-139342857D01*
X50244286Y-139438095D01*
X50196667Y-139580952D01*
X49625238Y-140152381D01*
X50244286Y-140152381D01*
X75620667Y-135088381D02*
X75620667Y-135802667D01*
X75573047Y-135945524D01*
X75477809Y-136040762D01*
X75334952Y-136088381D01*
X75239714Y-136088381D01*
X76096857Y-136088381D02*
X76096857Y-135088381D01*
X76477810Y-135088381D01*
X76573048Y-135136000D01*
X76620667Y-135183619D01*
X76668286Y-135278857D01*
X76668286Y-135421714D01*
X76620667Y-135516952D01*
X76573048Y-135564571D01*
X76477810Y-135612190D01*
X76096857Y-135612190D01*
X77620667Y-136088381D02*
X77049238Y-136088381D01*
X77334952Y-136088381D02*
X77334952Y-135088381D01*
X77239714Y-135231238D01*
X77144476Y-135326476D01*
X77049238Y-135374095D01*
X58856667Y-151852381D02*
X58856667Y-152566667D01*
X58809047Y-152709524D01*
X58713809Y-152804762D01*
X58570952Y-152852381D01*
X58475714Y-152852381D01*
X59332857Y-152852381D02*
X59332857Y-151852381D01*
X59713810Y-151852381D01*
X59809048Y-151900000D01*
X59856667Y-151947619D01*
X59904286Y-152042857D01*
X59904286Y-152185714D01*
X59856667Y-152280952D01*
X59809048Y-152328571D01*
X59713810Y-152376190D01*
X59332857Y-152376190D01*
X60285238Y-151947619D02*
X60332857Y-151900000D01*
X60428095Y-151852381D01*
X60666191Y-151852381D01*
X60761429Y-151900000D01*
X60809048Y-151947619D01*
X60856667Y-152042857D01*
X60856667Y-152138095D01*
X60809048Y-152280952D01*
X60237619Y-152852381D01*
X60856667Y-152852381D01*
X67746667Y-160742381D02*
X67746667Y-161456667D01*
X67699047Y-161599524D01*
X67603809Y-161694762D01*
X67460952Y-161742381D01*
X67365714Y-161742381D01*
X68222857Y-161742381D02*
X68222857Y-160742381D01*
X68603810Y-160742381D01*
X68699048Y-160790000D01*
X68746667Y-160837619D01*
X68794286Y-160932857D01*
X68794286Y-161075714D01*
X68746667Y-161170952D01*
X68699048Y-161218571D01*
X68603810Y-161266190D01*
X68222857Y-161266190D01*
X69127619Y-160742381D02*
X69746667Y-160742381D01*
X69413333Y-161123333D01*
X69556191Y-161123333D01*
X69651429Y-161170952D01*
X69699048Y-161218571D01*
X69746667Y-161313810D01*
X69746667Y-161551905D01*
X69699048Y-161647143D01*
X69651429Y-161694762D01*
X69556191Y-161742381D01*
X69270476Y-161742381D01*
X69175238Y-161694762D01*
X69127619Y-161647143D01*
X97972667Y-157440381D02*
X97972667Y-158154667D01*
X97925047Y-158297524D01*
X97829809Y-158392762D01*
X97686952Y-158440381D01*
X97591714Y-158440381D01*
X98448857Y-158440381D02*
X98448857Y-157440381D01*
X98829810Y-157440381D01*
X98925048Y-157488000D01*
X98972667Y-157535619D01*
X99020286Y-157630857D01*
X99020286Y-157773714D01*
X98972667Y-157868952D01*
X98925048Y-157916571D01*
X98829810Y-157964190D01*
X98448857Y-157964190D01*
X99877429Y-157773714D02*
X99877429Y-158440381D01*
X99639333Y-157392762D02*
X99401238Y-158107048D01*
X100020286Y-158107048D01*
X36012381Y-92178095D02*
X35012381Y-92178095D01*
X35012381Y-91797142D01*
X35060000Y-91701904D01*
X35107619Y-91654285D01*
X35202857Y-91606666D01*
X35345714Y-91606666D01*
X35440952Y-91654285D01*
X35488571Y-91701904D01*
X35536190Y-91797142D01*
X35536190Y-92178095D01*
X35107619Y-91225714D02*
X35060000Y-91178095D01*
X35012381Y-91082857D01*
X35012381Y-90844761D01*
X35060000Y-90749523D01*
X35107619Y-90701904D01*
X35202857Y-90654285D01*
X35298095Y-90654285D01*
X35440952Y-90701904D01*
X36012381Y-91273333D01*
X36012381Y-90654285D01*
X52601905Y-157932381D02*
X52601905Y-156932381D01*
X52982858Y-156932381D01*
X53078096Y-156980000D01*
X53125715Y-157027619D01*
X53173334Y-157122857D01*
X53173334Y-157265714D01*
X53125715Y-157360952D01*
X53078096Y-157408571D01*
X52982858Y-157456190D01*
X52601905Y-157456190D01*
X54030477Y-156932381D02*
X53840000Y-156932381D01*
X53744762Y-156980000D01*
X53697143Y-157027619D01*
X53601905Y-157170476D01*
X53554286Y-157360952D01*
X53554286Y-157741905D01*
X53601905Y-157837143D01*
X53649524Y-157884762D01*
X53744762Y-157932381D01*
X53935239Y-157932381D01*
X54030477Y-157884762D01*
X54078096Y-157837143D01*
X54125715Y-157741905D01*
X54125715Y-157503810D01*
X54078096Y-157408571D01*
X54030477Y-157360952D01*
X53935239Y-157313333D01*
X53744762Y-157313333D01*
X53649524Y-157360952D01*
X53601905Y-157408571D01*
X53554286Y-157503810D01*
X86891905Y-82748381D02*
X86891905Y-81748381D01*
X87272858Y-81748381D01*
X87368096Y-81796000D01*
X87415715Y-81843619D01*
X87463334Y-81938857D01*
X87463334Y-82081714D01*
X87415715Y-82176952D01*
X87368096Y-82224571D01*
X87272858Y-82272190D01*
X86891905Y-82272190D01*
X88034762Y-82176952D02*
X87939524Y-82129333D01*
X87891905Y-82081714D01*
X87844286Y-81986476D01*
X87844286Y-81938857D01*
X87891905Y-81843619D01*
X87939524Y-81796000D01*
X88034762Y-81748381D01*
X88225239Y-81748381D01*
X88320477Y-81796000D01*
X88368096Y-81843619D01*
X88415715Y-81938857D01*
X88415715Y-81986476D01*
X88368096Y-82081714D01*
X88320477Y-82129333D01*
X88225239Y-82176952D01*
X88034762Y-82176952D01*
X87939524Y-82224571D01*
X87891905Y-82272190D01*
X87844286Y-82367429D01*
X87844286Y-82557905D01*
X87891905Y-82653143D01*
X87939524Y-82700762D01*
X88034762Y-82748381D01*
X88225239Y-82748381D01*
X88320477Y-82700762D01*
X88368096Y-82653143D01*
X88415715Y-82557905D01*
X88415715Y-82367429D01*
X88368096Y-82272190D01*
X88320477Y-82224571D01*
X88225239Y-82176952D01*
X102131905Y-111704381D02*
X102131905Y-110704381D01*
X102512858Y-110704381D01*
X102608096Y-110752000D01*
X102655715Y-110799619D01*
X102703334Y-110894857D01*
X102703334Y-111037714D01*
X102655715Y-111132952D01*
X102608096Y-111180571D01*
X102512858Y-111228190D01*
X102131905Y-111228190D01*
X103179524Y-111704381D02*
X103370000Y-111704381D01*
X103465239Y-111656762D01*
X103512858Y-111609143D01*
X103608096Y-111466286D01*
X103655715Y-111275810D01*
X103655715Y-110894857D01*
X103608096Y-110799619D01*
X103560477Y-110752000D01*
X103465239Y-110704381D01*
X103274762Y-110704381D01*
X103179524Y-110752000D01*
X103131905Y-110799619D01*
X103084286Y-110894857D01*
X103084286Y-111132952D01*
X103131905Y-111228190D01*
X103179524Y-111275810D01*
X103274762Y-111323429D01*
X103465239Y-111323429D01*
X103560477Y-111275810D01*
X103608096Y-111228190D01*
X103655715Y-111132952D01*
X65825619Y-113887238D02*
X65778000Y-113982476D01*
X65682762Y-114077714D01*
X65539905Y-114220571D01*
X65492286Y-114315810D01*
X65492286Y-114411048D01*
X65730381Y-114363429D02*
X65682762Y-114458667D01*
X65587524Y-114553905D01*
X65397048Y-114601524D01*
X65063714Y-114601524D01*
X64873238Y-114553905D01*
X64778000Y-114458667D01*
X64730381Y-114363429D01*
X64730381Y-114172952D01*
X64778000Y-114077714D01*
X64873238Y-113982476D01*
X65063714Y-113934857D01*
X65397048Y-113934857D01*
X65587524Y-113982476D01*
X65682762Y-114077714D01*
X65730381Y-114172952D01*
X65730381Y-114363429D01*
X65730381Y-112982476D02*
X65730381Y-113553905D01*
X65730381Y-113268191D02*
X64730381Y-113268191D01*
X64873238Y-113363429D01*
X64968476Y-113458667D01*
X65016095Y-113553905D01*
X37552381Y-90169905D02*
X37552381Y-89598476D01*
X38552381Y-89884191D02*
X37552381Y-89884191D01*
X38552381Y-88741333D02*
X38552381Y-89312762D01*
X38552381Y-89027048D02*
X37552381Y-89027048D01*
X37695238Y-89122286D01*
X37790476Y-89217524D01*
X37838095Y-89312762D01*
X65849524Y-83510381D02*
X65278095Y-83510381D01*
X65563809Y-83510381D02*
X65563809Y-82510381D01*
X65468571Y-82653238D01*
X65373333Y-82748476D01*
X65278095Y-82796095D01*
X66468571Y-82510381D02*
X66563810Y-82510381D01*
X66659048Y-82558000D01*
X66706667Y-82605619D01*
X66754286Y-82700857D01*
X66801905Y-82891333D01*
X66801905Y-83129429D01*
X66754286Y-83319905D01*
X66706667Y-83415143D01*
X66659048Y-83462762D01*
X66563810Y-83510381D01*
X66468571Y-83510381D01*
X66373333Y-83462762D01*
X66325714Y-83415143D01*
X66278095Y-83319905D01*
X66230476Y-83129429D01*
X66230476Y-82891333D01*
X66278095Y-82700857D01*
X66325714Y-82605619D01*
X66373333Y-82558000D01*
X66468571Y-82510381D01*
X45910477Y-82510381D02*
X45720000Y-82510381D01*
X45624762Y-82558000D01*
X45577143Y-82605619D01*
X45481905Y-82748476D01*
X45434286Y-82938952D01*
X45434286Y-83319905D01*
X45481905Y-83415143D01*
X45529524Y-83462762D01*
X45624762Y-83510381D01*
X45815239Y-83510381D01*
X45910477Y-83462762D01*
X45958096Y-83415143D01*
X46005715Y-83319905D01*
X46005715Y-83081810D01*
X45958096Y-82986571D01*
X45910477Y-82938952D01*
X45815239Y-82891333D01*
X45624762Y-82891333D01*
X45529524Y-82938952D01*
X45481905Y-82986571D01*
X45434286Y-83081810D01*
X45958096Y-95210381D02*
X45481905Y-95210381D01*
X45434286Y-95686571D01*
X45481905Y-95638952D01*
X45577143Y-95591333D01*
X45815239Y-95591333D01*
X45910477Y-95638952D01*
X45958096Y-95686571D01*
X46005715Y-95781810D01*
X46005715Y-96019905D01*
X45958096Y-96115143D01*
X45910477Y-96162762D01*
X45815239Y-96210381D01*
X45577143Y-96210381D01*
X45481905Y-96162762D01*
X45434286Y-96115143D01*
X66325715Y-96210381D02*
X65754286Y-96210381D01*
X66040000Y-96210381D02*
X66040000Y-95210381D01*
X65944762Y-95353238D01*
X65849524Y-95448476D01*
X65754286Y-95496095D01*
X69429334Y-155900381D02*
X69096000Y-155424190D01*
X68857905Y-155900381D02*
X68857905Y-154900381D01*
X69238858Y-154900381D01*
X69334096Y-154948000D01*
X69381715Y-154995619D01*
X69429334Y-155090857D01*
X69429334Y-155233714D01*
X69381715Y-155328952D01*
X69334096Y-155376571D01*
X69238858Y-155424190D01*
X68857905Y-155424190D01*
X70334096Y-154900381D02*
X69857905Y-154900381D01*
X69810286Y-155376571D01*
X69857905Y-155328952D01*
X69953143Y-155281333D01*
X70191239Y-155281333D01*
X70286477Y-155328952D01*
X70334096Y-155376571D01*
X70381715Y-155471810D01*
X70381715Y-155709905D01*
X70334096Y-155805143D01*
X70286477Y-155852762D01*
X70191239Y-155900381D01*
X69953143Y-155900381D01*
X69857905Y-155852762D01*
X69810286Y-155805143D01*
X84907381Y-158281666D02*
X84431190Y-158615000D01*
X84907381Y-158853095D02*
X83907381Y-158853095D01*
X83907381Y-158472142D01*
X83955000Y-158376904D01*
X84002619Y-158329285D01*
X84097857Y-158281666D01*
X84240714Y-158281666D01*
X84335952Y-158329285D01*
X84383571Y-158376904D01*
X84431190Y-158472142D01*
X84431190Y-158853095D01*
X83907381Y-157424523D02*
X83907381Y-157615000D01*
X83955000Y-157710238D01*
X84002619Y-157757857D01*
X84145476Y-157853095D01*
X84335952Y-157900714D01*
X84716905Y-157900714D01*
X84812143Y-157853095D01*
X84859762Y-157805476D01*
X84907381Y-157710238D01*
X84907381Y-157519761D01*
X84859762Y-157424523D01*
X84812143Y-157376904D01*
X84716905Y-157329285D01*
X84478810Y-157329285D01*
X84383571Y-157376904D01*
X84335952Y-157424523D01*
X84288333Y-157519761D01*
X84288333Y-157710238D01*
X84335952Y-157805476D01*
X84383571Y-157853095D01*
X84478810Y-157900714D01*
X81605381Y-158154666D02*
X81129190Y-158488000D01*
X81605381Y-158726095D02*
X80605381Y-158726095D01*
X80605381Y-158345142D01*
X80653000Y-158249904D01*
X80700619Y-158202285D01*
X80795857Y-158154666D01*
X80938714Y-158154666D01*
X81033952Y-158202285D01*
X81081571Y-158249904D01*
X81129190Y-158345142D01*
X81129190Y-158726095D01*
X81605381Y-157678476D02*
X81605381Y-157488000D01*
X81557762Y-157392761D01*
X81510143Y-157345142D01*
X81367286Y-157249904D01*
X81176810Y-157202285D01*
X80795857Y-157202285D01*
X80700619Y-157249904D01*
X80653000Y-157297523D01*
X80605381Y-157392761D01*
X80605381Y-157583238D01*
X80653000Y-157678476D01*
X80700619Y-157726095D01*
X80795857Y-157773714D01*
X81033952Y-157773714D01*
X81129190Y-157726095D01*
X81176810Y-157678476D01*
X81224429Y-157583238D01*
X81224429Y-157392761D01*
X81176810Y-157297523D01*
X81129190Y-157249904D01*
X81033952Y-157202285D01*
X78303381Y-158503857D02*
X77827190Y-158837191D01*
X78303381Y-159075286D02*
X77303381Y-159075286D01*
X77303381Y-158694333D01*
X77351000Y-158599095D01*
X77398619Y-158551476D01*
X77493857Y-158503857D01*
X77636714Y-158503857D01*
X77731952Y-158551476D01*
X77779571Y-158599095D01*
X77827190Y-158694333D01*
X77827190Y-159075286D01*
X78303381Y-157551476D02*
X78303381Y-158122905D01*
X78303381Y-157837191D02*
X77303381Y-157837191D01*
X77446238Y-157932429D01*
X77541476Y-158027667D01*
X77589095Y-158122905D01*
X77303381Y-156932429D02*
X77303381Y-156837190D01*
X77351000Y-156741952D01*
X77398619Y-156694333D01*
X77493857Y-156646714D01*
X77684333Y-156599095D01*
X77922429Y-156599095D01*
X78112905Y-156646714D01*
X78208143Y-156694333D01*
X78255762Y-156741952D01*
X78303381Y-156837190D01*
X78303381Y-156932429D01*
X78255762Y-157027667D01*
X78208143Y-157075286D01*
X78112905Y-157122905D01*
X77922429Y-157170524D01*
X77684333Y-157170524D01*
X77493857Y-157122905D01*
X77398619Y-157075286D01*
X77351000Y-157027667D01*
X77303381Y-156932429D01*
X81383143Y-131738666D02*
X81430762Y-131786285D01*
X81478381Y-131929142D01*
X81478381Y-132024380D01*
X81430762Y-132167238D01*
X81335524Y-132262476D01*
X81240286Y-132310095D01*
X81049810Y-132357714D01*
X80906952Y-132357714D01*
X80716476Y-132310095D01*
X80621238Y-132262476D01*
X80526000Y-132167238D01*
X80478381Y-132024380D01*
X80478381Y-131929142D01*
X80526000Y-131786285D01*
X80573619Y-131738666D01*
X80478381Y-130881523D02*
X80478381Y-131072000D01*
X80526000Y-131167238D01*
X80573619Y-131214857D01*
X80716476Y-131310095D01*
X80906952Y-131357714D01*
X81287905Y-131357714D01*
X81383143Y-131310095D01*
X81430762Y-131262476D01*
X81478381Y-131167238D01*
X81478381Y-130976761D01*
X81430762Y-130881523D01*
X81383143Y-130833904D01*
X81287905Y-130786285D01*
X81049810Y-130786285D01*
X80954571Y-130833904D01*
X80906952Y-130881523D01*
X80859333Y-130976761D01*
X80859333Y-131167238D01*
X80906952Y-131262476D01*
X80954571Y-131310095D01*
X81049810Y-131357714D01*
X84415334Y-106878381D02*
X84082000Y-106402190D01*
X83843905Y-106878381D02*
X83843905Y-105878381D01*
X84224858Y-105878381D01*
X84320096Y-105926000D01*
X84367715Y-105973619D01*
X84415334Y-106068857D01*
X84415334Y-106211714D01*
X84367715Y-106306952D01*
X84320096Y-106354571D01*
X84224858Y-106402190D01*
X83843905Y-106402190D01*
X85367715Y-106878381D02*
X84796286Y-106878381D01*
X85082000Y-106878381D02*
X85082000Y-105878381D01*
X84986762Y-106021238D01*
X84891524Y-106116476D01*
X84796286Y-106164095D01*
X99202381Y-90416666D02*
X98726190Y-90750000D01*
X99202381Y-90988095D02*
X98202381Y-90988095D01*
X98202381Y-90607142D01*
X98250000Y-90511904D01*
X98297619Y-90464285D01*
X98392857Y-90416666D01*
X98535714Y-90416666D01*
X98630952Y-90464285D01*
X98678571Y-90511904D01*
X98726190Y-90607142D01*
X98726190Y-90988095D01*
X98297619Y-90035714D02*
X98250000Y-89988095D01*
X98202381Y-89892857D01*
X98202381Y-89654761D01*
X98250000Y-89559523D01*
X98297619Y-89511904D01*
X98392857Y-89464285D01*
X98488095Y-89464285D01*
X98630952Y-89511904D01*
X99202381Y-90083333D01*
X99202381Y-89464285D01*
X114942881Y-154662166D02*
X114466690Y-154995500D01*
X114942881Y-155233595D02*
X113942881Y-155233595D01*
X113942881Y-154852642D01*
X113990500Y-154757404D01*
X114038119Y-154709785D01*
X114133357Y-154662166D01*
X114276214Y-154662166D01*
X114371452Y-154709785D01*
X114419071Y-154757404D01*
X114466690Y-154852642D01*
X114466690Y-155233595D01*
X113942881Y-154328833D02*
X113942881Y-153662166D01*
X114942881Y-154090738D01*
X118562381Y-154725666D02*
X118086190Y-155059000D01*
X118562381Y-155297095D02*
X117562381Y-155297095D01*
X117562381Y-154916142D01*
X117610000Y-154820904D01*
X117657619Y-154773285D01*
X117752857Y-154725666D01*
X117895714Y-154725666D01*
X117990952Y-154773285D01*
X118038571Y-154820904D01*
X118086190Y-154916142D01*
X118086190Y-155297095D01*
X117990952Y-154154238D02*
X117943333Y-154249476D01*
X117895714Y-154297095D01*
X117800476Y-154344714D01*
X117752857Y-154344714D01*
X117657619Y-154297095D01*
X117610000Y-154249476D01*
X117562381Y-154154238D01*
X117562381Y-153963761D01*
X117610000Y-153868523D01*
X117657619Y-153820904D01*
X117752857Y-153773285D01*
X117800476Y-153773285D01*
X117895714Y-153820904D01*
X117943333Y-153868523D01*
X117990952Y-153963761D01*
X117990952Y-154154238D01*
X118038571Y-154249476D01*
X118086190Y-154297095D01*
X118181429Y-154344714D01*
X118371905Y-154344714D01*
X118467143Y-154297095D01*
X118514762Y-154249476D01*
X118562381Y-154154238D01*
X118562381Y-153963761D01*
X118514762Y-153868523D01*
X118467143Y-153820904D01*
X118371905Y-153773285D01*
X118181429Y-153773285D01*
X118086190Y-153820904D01*
X118038571Y-153868523D01*
X117990952Y-153963761D01*
X105084667Y-156424381D02*
X105084667Y-157138667D01*
X105037047Y-157281524D01*
X104941809Y-157376762D01*
X104798952Y-157424381D01*
X104703714Y-157424381D01*
X105560857Y-157424381D02*
X105560857Y-156424381D01*
X105941810Y-156424381D01*
X106037048Y-156472000D01*
X106084667Y-156519619D01*
X106132286Y-156614857D01*
X106132286Y-156757714D01*
X106084667Y-156852952D01*
X106037048Y-156900571D01*
X105941810Y-156948190D01*
X105560857Y-156948190D01*
X107037048Y-156424381D02*
X106560857Y-156424381D01*
X106513238Y-156900571D01*
X106560857Y-156852952D01*
X106656095Y-156805333D01*
X106894191Y-156805333D01*
X106989429Y-156852952D01*
X107037048Y-156900571D01*
X107084667Y-156995810D01*
X107084667Y-157233905D01*
X107037048Y-157329143D01*
X106989429Y-157376762D01*
X106894191Y-157424381D01*
X106656095Y-157424381D01*
X106560857Y-157376762D01*
X106513238Y-157329143D01*
X87987143Y-96178666D02*
X88034762Y-96226285D01*
X88082381Y-96369142D01*
X88082381Y-96464380D01*
X88034762Y-96607238D01*
X87939524Y-96702476D01*
X87844286Y-96750095D01*
X87653810Y-96797714D01*
X87510952Y-96797714D01*
X87320476Y-96750095D01*
X87225238Y-96702476D01*
X87130000Y-96607238D01*
X87082381Y-96464380D01*
X87082381Y-96369142D01*
X87130000Y-96226285D01*
X87177619Y-96178666D01*
X87177619Y-95797714D02*
X87130000Y-95750095D01*
X87082381Y-95654857D01*
X87082381Y-95416761D01*
X87130000Y-95321523D01*
X87177619Y-95273904D01*
X87272857Y-95226285D01*
X87368095Y-95226285D01*
X87510952Y-95273904D01*
X88082381Y-95845333D01*
X88082381Y-95226285D01*
X83583334Y-122857143D02*
X83535715Y-122904762D01*
X83392858Y-122952381D01*
X83297620Y-122952381D01*
X83154762Y-122904762D01*
X83059524Y-122809524D01*
X83011905Y-122714286D01*
X82964286Y-122523810D01*
X82964286Y-122380952D01*
X83011905Y-122190476D01*
X83059524Y-122095238D01*
X83154762Y-122000000D01*
X83297620Y-121952381D01*
X83392858Y-121952381D01*
X83535715Y-122000000D01*
X83583334Y-122047619D01*
X83916667Y-121952381D02*
X84583334Y-121952381D01*
X84154762Y-122952381D01*
X87357143Y-131416666D02*
X87404762Y-131464285D01*
X87452381Y-131607142D01*
X87452381Y-131702380D01*
X87404762Y-131845238D01*
X87309524Y-131940476D01*
X87214286Y-131988095D01*
X87023810Y-132035714D01*
X86880952Y-132035714D01*
X86690476Y-131988095D01*
X86595238Y-131940476D01*
X86500000Y-131845238D01*
X86452381Y-131702380D01*
X86452381Y-131607142D01*
X86500000Y-131464285D01*
X86547619Y-131416666D01*
X86880952Y-130845238D02*
X86833333Y-130940476D01*
X86785714Y-130988095D01*
X86690476Y-131035714D01*
X86642857Y-131035714D01*
X86547619Y-130988095D01*
X86500000Y-130940476D01*
X86452381Y-130845238D01*
X86452381Y-130654761D01*
X86500000Y-130559523D01*
X86547619Y-130511904D01*
X86642857Y-130464285D01*
X86690476Y-130464285D01*
X86785714Y-130511904D01*
X86833333Y-130559523D01*
X86880952Y-130654761D01*
X86880952Y-130845238D01*
X86928571Y-130940476D01*
X86976190Y-130988095D01*
X87071429Y-131035714D01*
X87261905Y-131035714D01*
X87357143Y-130988095D01*
X87404762Y-130940476D01*
X87452381Y-130845238D01*
X87452381Y-130654761D01*
X87404762Y-130559523D01*
X87357143Y-130511904D01*
X87261905Y-130464285D01*
X87071429Y-130464285D01*
X86976190Y-130511904D01*
X86928571Y-130559523D01*
X86880952Y-130654761D01*
X27035238Y-73874381D02*
X27273333Y-74874381D01*
X27463810Y-74160095D01*
X27654286Y-74874381D01*
X27892381Y-73874381D01*
X28797143Y-74874381D02*
X28225714Y-74874381D01*
X28511428Y-74874381D02*
X28511428Y-73874381D01*
X28416190Y-74017238D01*
X28320952Y-74112476D01*
X28225714Y-74160095D01*
X27035238Y-161504381D02*
X27273333Y-162504381D01*
X27463810Y-161790095D01*
X27654286Y-162504381D01*
X27892381Y-161504381D01*
X28225714Y-161599619D02*
X28273333Y-161552000D01*
X28368571Y-161504381D01*
X28606667Y-161504381D01*
X28701905Y-161552000D01*
X28749524Y-161599619D01*
X28797143Y-161694857D01*
X28797143Y-161790095D01*
X28749524Y-161932952D01*
X28178095Y-162504381D01*
X28797143Y-162504381D01*
X115935238Y-161504381D02*
X116173333Y-162504381D01*
X116363810Y-161790095D01*
X116554286Y-162504381D01*
X116792381Y-161504381D01*
X117078095Y-161504381D02*
X117697143Y-161504381D01*
X117363809Y-161885333D01*
X117506667Y-161885333D01*
X117601905Y-161932952D01*
X117649524Y-161980571D01*
X117697143Y-162075810D01*
X117697143Y-162313905D01*
X117649524Y-162409143D01*
X117601905Y-162456762D01*
X117506667Y-162504381D01*
X117220952Y-162504381D01*
X117125714Y-162456762D01*
X117078095Y-162409143D01*
X115935238Y-73874381D02*
X116173333Y-74874381D01*
X116363810Y-74160095D01*
X116554286Y-74874381D01*
X116792381Y-73874381D01*
X117601905Y-74207714D02*
X117601905Y-74874381D01*
X117363809Y-73826762D02*
X117125714Y-74541048D01*
X117744762Y-74541048D01*
X52594000Y-120848381D02*
X52260666Y-120372190D01*
X52022571Y-120848381D02*
X52022571Y-119848381D01*
X52403524Y-119848381D01*
X52498762Y-119896000D01*
X52546381Y-119943619D01*
X52594000Y-120038857D01*
X52594000Y-120181714D01*
X52546381Y-120276952D01*
X52498762Y-120324571D01*
X52403524Y-120372190D01*
X52022571Y-120372190D01*
X53498762Y-120848381D02*
X53022571Y-120848381D01*
X53022571Y-119848381D01*
X54022571Y-120372190D02*
X54022571Y-120848381D01*
X53689238Y-119848381D02*
X54022571Y-120372190D01*
X54355905Y-119848381D01*
X55213048Y-120848381D02*
X54641619Y-120848381D01*
X54927333Y-120848381D02*
X54927333Y-119848381D01*
X54832095Y-119991238D01*
X54736857Y-120086476D01*
X54641619Y-120134095D01*
X36266381Y-148058095D02*
X35266381Y-148058095D01*
X35266381Y-147677142D01*
X35314000Y-147581904D01*
X35361619Y-147534285D01*
X35456857Y-147486666D01*
X35599714Y-147486666D01*
X35694952Y-147534285D01*
X35742571Y-147581904D01*
X35790190Y-147677142D01*
X35790190Y-148058095D01*
X36266381Y-146534285D02*
X36266381Y-147105714D01*
X36266381Y-146820000D02*
X35266381Y-146820000D01*
X35409238Y-146915238D01*
X35504476Y-147010476D01*
X35552095Y-147105714D01*
X90828905Y-159075381D02*
X90828905Y-158075381D01*
X91209858Y-158075381D01*
X91305096Y-158123000D01*
X91352715Y-158170619D01*
X91400334Y-158265857D01*
X91400334Y-158408714D01*
X91352715Y-158503952D01*
X91305096Y-158551571D01*
X91209858Y-158599190D01*
X90828905Y-158599190D01*
X92305096Y-158075381D02*
X91828905Y-158075381D01*
X91781286Y-158551571D01*
X91828905Y-158503952D01*
X91924143Y-158456333D01*
X92162239Y-158456333D01*
X92257477Y-158503952D01*
X92305096Y-158551571D01*
X92352715Y-158646810D01*
X92352715Y-158884905D01*
X92305096Y-158980143D01*
X92257477Y-159027762D01*
X92162239Y-159075381D01*
X91924143Y-159075381D01*
X91828905Y-159027762D01*
X91781286Y-158980143D01*
X40647881Y-114911095D02*
X39647881Y-114911095D01*
X39647881Y-114673000D01*
X39695500Y-114530142D01*
X39790738Y-114434904D01*
X39885976Y-114387285D01*
X40076452Y-114339666D01*
X40219310Y-114339666D01*
X40409786Y-114387285D01*
X40505024Y-114434904D01*
X40600262Y-114530142D01*
X40647881Y-114673000D01*
X40647881Y-114911095D01*
X40647881Y-113387285D02*
X40647881Y-113958714D01*
X40647881Y-113673000D02*
X39647881Y-113673000D01*
X39790738Y-113768238D01*
X39885976Y-113863476D01*
X39933595Y-113958714D01*
M02*
