G04 #@! TF.FileFunction,Legend,Bot*
%FSLAX46Y46*%
G04 Gerber Fmt 4.6, Leading zero omitted, Abs format (unit mm)*
G04 Created by KiCad (PCBNEW 4.0.2+dfsg1-stable) date pon, 19 lis 2018, 23:52:54*
%MOMM*%
G01*
G04 APERTURE LIST*
%ADD10C,0.100000*%
%ADD11C,0.150000*%
G04 APERTURE END LIST*
D10*
D11*
X119520000Y-83270000D02*
X119520000Y-118830000D01*
X119520000Y-118830000D02*
X116980000Y-118830000D01*
X116980000Y-118830000D02*
X116980000Y-83270000D01*
X116700000Y-80450000D02*
X116700000Y-82000000D01*
X116980000Y-83270000D02*
X119520000Y-83270000D01*
X119800000Y-82000000D02*
X119800000Y-80450000D01*
X119800000Y-80450000D02*
X116700000Y-80450000D01*
X96660000Y-118830000D02*
X94120000Y-118830000D01*
X96660000Y-80730000D02*
X96660000Y-118830000D01*
X94120000Y-80730000D02*
X96660000Y-80730000D01*
X94120000Y-118830000D02*
X94120000Y-80730000D01*
X93804740Y-148306840D02*
X93804740Y-148355100D01*
X93103700Y-151105820D02*
X93804740Y-151105820D01*
X93804740Y-151105820D02*
X93804740Y-150856900D01*
X93804740Y-148306840D02*
X93804740Y-148106180D01*
X93804740Y-148106180D02*
X93103700Y-148106180D01*
X93868240Y-144814340D02*
X93868240Y-144862600D01*
X93167200Y-147613320D02*
X93868240Y-147613320D01*
X93868240Y-147613320D02*
X93868240Y-147364400D01*
X93868240Y-144814340D02*
X93868240Y-144613680D01*
X93868240Y-144613680D02*
X93167200Y-144613680D01*
X93868240Y-141321840D02*
X93868240Y-141370100D01*
X93167200Y-144120820D02*
X93868240Y-144120820D01*
X93868240Y-144120820D02*
X93868240Y-143871900D01*
X93868240Y-141321840D02*
X93868240Y-141121180D01*
X93868240Y-141121180D02*
X93167200Y-141121180D01*
X93868240Y-137892840D02*
X93868240Y-137941100D01*
X93167200Y-140691820D02*
X93868240Y-140691820D01*
X93868240Y-140691820D02*
X93868240Y-140442900D01*
X93868240Y-137892840D02*
X93868240Y-137692180D01*
X93868240Y-137692180D02*
X93167200Y-137692180D01*
X97725000Y-148962000D02*
X97725000Y-148607000D01*
X105475000Y-148962000D02*
X105475000Y-148607000D01*
X105475000Y-138312000D02*
X105475000Y-138667000D01*
X97725000Y-138312000D02*
X97725000Y-138667000D01*
X97725000Y-148962000D02*
X105475000Y-148962000D01*
X97725000Y-138312000D02*
X105475000Y-138312000D01*
X97725000Y-148607000D02*
X96200000Y-148607000D01*
X74760000Y-130464000D02*
X74760000Y-130319000D01*
X78910000Y-130464000D02*
X78910000Y-130319000D01*
X78910000Y-125314000D02*
X78910000Y-125459000D01*
X74760000Y-125314000D02*
X74760000Y-125459000D01*
X74760000Y-130464000D02*
X78910000Y-130464000D01*
X74760000Y-125314000D02*
X78910000Y-125314000D01*
X74760000Y-130319000D02*
X73360000Y-130319000D01*
X79524000Y-91444000D02*
X82572000Y-91444000D01*
X82572000Y-91444000D02*
X82572000Y-98556000D01*
X82572000Y-98556000D02*
X79524000Y-98556000D01*
X76476000Y-91444000D02*
X75714000Y-91444000D01*
X75714000Y-91444000D02*
X73428000Y-92968000D01*
X73428000Y-92968000D02*
X73428000Y-97032000D01*
X73428000Y-97032000D02*
X75714000Y-98556000D01*
X75714000Y-98556000D02*
X76476000Y-98556000D01*
X78613000Y-110617000D02*
X81661000Y-110617000D01*
X81661000Y-110617000D02*
X81661000Y-117729000D01*
X81661000Y-117729000D02*
X78613000Y-117729000D01*
X75565000Y-110617000D02*
X74803000Y-110617000D01*
X74803000Y-110617000D02*
X72517000Y-112141000D01*
X72517000Y-112141000D02*
X72517000Y-116205000D01*
X72517000Y-116205000D02*
X74803000Y-117729000D01*
X74803000Y-117729000D02*
X75565000Y-117729000D01*
X107581905Y-94132381D02*
X107581905Y-94941905D01*
X107534286Y-95037143D01*
X107486667Y-95084762D01*
X107391429Y-95132381D01*
X107200952Y-95132381D01*
X107105714Y-95084762D01*
X107058095Y-95037143D01*
X107010476Y-94941905D01*
X107010476Y-94132381D01*
X106629524Y-94132381D02*
X106010476Y-94132381D01*
X106343810Y-94513333D01*
X106200952Y-94513333D01*
X106105714Y-94560952D01*
X106058095Y-94608571D01*
X106010476Y-94703810D01*
X106010476Y-94941905D01*
X106058095Y-95037143D01*
X106105714Y-95084762D01*
X106200952Y-95132381D01*
X106486667Y-95132381D01*
X106581905Y-95084762D01*
X106629524Y-95037143D01*
X95856881Y-148867905D02*
X94856881Y-148867905D01*
X94856881Y-149106000D01*
X94904500Y-149248858D01*
X94999738Y-149344096D01*
X95094976Y-149391715D01*
X95285452Y-149439334D01*
X95428310Y-149439334D01*
X95618786Y-149391715D01*
X95714024Y-149344096D01*
X95809262Y-149248858D01*
X95856881Y-149106000D01*
X95856881Y-148867905D01*
X94856881Y-149772667D02*
X94856881Y-150391715D01*
X95237833Y-150058381D01*
X95237833Y-150201239D01*
X95285452Y-150296477D01*
X95333071Y-150344096D01*
X95428310Y-150391715D01*
X95666405Y-150391715D01*
X95761643Y-150344096D01*
X95809262Y-150296477D01*
X95856881Y-150201239D01*
X95856881Y-149915524D01*
X95809262Y-149820286D01*
X95761643Y-149772667D01*
X95920381Y-145375405D02*
X94920381Y-145375405D01*
X94920381Y-145613500D01*
X94968000Y-145756358D01*
X95063238Y-145851596D01*
X95158476Y-145899215D01*
X95348952Y-145946834D01*
X95491810Y-145946834D01*
X95682286Y-145899215D01*
X95777524Y-145851596D01*
X95872762Y-145756358D01*
X95920381Y-145613500D01*
X95920381Y-145375405D01*
X95253714Y-146803977D02*
X95920381Y-146803977D01*
X94872762Y-146565881D02*
X95587048Y-146327786D01*
X95587048Y-146946834D01*
X95920381Y-141882905D02*
X94920381Y-141882905D01*
X94920381Y-142121000D01*
X94968000Y-142263858D01*
X95063238Y-142359096D01*
X95158476Y-142406715D01*
X95348952Y-142454334D01*
X95491810Y-142454334D01*
X95682286Y-142406715D01*
X95777524Y-142359096D01*
X95872762Y-142263858D01*
X95920381Y-142121000D01*
X95920381Y-141882905D01*
X94920381Y-143359096D02*
X94920381Y-142882905D01*
X95396571Y-142835286D01*
X95348952Y-142882905D01*
X95301333Y-142978143D01*
X95301333Y-143216239D01*
X95348952Y-143311477D01*
X95396571Y-143359096D01*
X95491810Y-143406715D01*
X95729905Y-143406715D01*
X95825143Y-143359096D01*
X95872762Y-143311477D01*
X95920381Y-143216239D01*
X95920381Y-142978143D01*
X95872762Y-142882905D01*
X95825143Y-142835286D01*
X95920381Y-138453905D02*
X94920381Y-138453905D01*
X94920381Y-138692000D01*
X94968000Y-138834858D01*
X95063238Y-138930096D01*
X95158476Y-138977715D01*
X95348952Y-139025334D01*
X95491810Y-139025334D01*
X95682286Y-138977715D01*
X95777524Y-138930096D01*
X95872762Y-138834858D01*
X95920381Y-138692000D01*
X95920381Y-138453905D01*
X94920381Y-139882477D02*
X94920381Y-139692000D01*
X94968000Y-139596762D01*
X95015619Y-139549143D01*
X95158476Y-139453905D01*
X95348952Y-139406286D01*
X95729905Y-139406286D01*
X95825143Y-139453905D01*
X95872762Y-139501524D01*
X95920381Y-139596762D01*
X95920381Y-139787239D01*
X95872762Y-139882477D01*
X95825143Y-139930096D01*
X95729905Y-139977715D01*
X95491810Y-139977715D01*
X95396571Y-139930096D01*
X95348952Y-139882477D01*
X95301333Y-139787239D01*
X95301333Y-139596762D01*
X95348952Y-139501524D01*
X95396571Y-139453905D01*
X95491810Y-139406286D01*
X102361905Y-149339381D02*
X102361905Y-150148905D01*
X102314286Y-150244143D01*
X102266667Y-150291762D01*
X102171429Y-150339381D01*
X101980952Y-150339381D01*
X101885714Y-150291762D01*
X101838095Y-150244143D01*
X101790476Y-150148905D01*
X101790476Y-149339381D01*
X100838095Y-149339381D02*
X101314286Y-149339381D01*
X101361905Y-149815571D01*
X101314286Y-149767952D01*
X101219048Y-149720333D01*
X100980952Y-149720333D01*
X100885714Y-149767952D01*
X100838095Y-149815571D01*
X100790476Y-149910810D01*
X100790476Y-150148905D01*
X100838095Y-150244143D01*
X100885714Y-150291762D01*
X100980952Y-150339381D01*
X101219048Y-150339381D01*
X101314286Y-150291762D01*
X101361905Y-150244143D01*
X77596905Y-130841381D02*
X77596905Y-131650905D01*
X77549286Y-131746143D01*
X77501667Y-131793762D01*
X77406429Y-131841381D01*
X77215952Y-131841381D01*
X77120714Y-131793762D01*
X77073095Y-131746143D01*
X77025476Y-131650905D01*
X77025476Y-130841381D01*
X76025476Y-131841381D02*
X76596905Y-131841381D01*
X76311191Y-131841381D02*
X76311191Y-130841381D01*
X76406429Y-130984238D01*
X76501667Y-131079476D01*
X76596905Y-131127095D01*
X76690381Y-94238095D02*
X77499905Y-94238095D01*
X77595143Y-94285714D01*
X77642762Y-94333333D01*
X77690381Y-94428571D01*
X77690381Y-94619048D01*
X77642762Y-94714286D01*
X77595143Y-94761905D01*
X77499905Y-94809524D01*
X76690381Y-94809524D01*
X76785619Y-95238095D02*
X76738000Y-95285714D01*
X76690381Y-95380952D01*
X76690381Y-95619048D01*
X76738000Y-95714286D01*
X76785619Y-95761905D01*
X76880857Y-95809524D01*
X76976095Y-95809524D01*
X77118952Y-95761905D01*
X77690381Y-95190476D01*
X77690381Y-95809524D01*
X75779381Y-113411095D02*
X76588905Y-113411095D01*
X76684143Y-113458714D01*
X76731762Y-113506333D01*
X76779381Y-113601571D01*
X76779381Y-113792048D01*
X76731762Y-113887286D01*
X76684143Y-113934905D01*
X76588905Y-113982524D01*
X75779381Y-113982524D01*
X76112714Y-114887286D02*
X76779381Y-114887286D01*
X75731762Y-114649190D02*
X76446048Y-114411095D01*
X76446048Y-115030143D01*
M02*
