G04 #@! TF.FileFunction,Copper,L2,Bot,Signal*
%FSLAX46Y46*%
G04 Gerber Fmt 4.6, Leading zero omitted, Abs format (unit mm)*
G04 Created by KiCad (PCBNEW 4.0.2+dfsg1-stable) date pon, 19 lis 2018, 23:52:53*
%MOMM*%
G01*
G04 APERTURE LIST*
%ADD10C,0.100000*%
%ADD11O,2.032000X1.727200*%
%ADD12R,0.800100X0.800100*%
%ADD13R,2.000000X2.000000*%
%ADD14C,2.000000*%
%ADD15R,1.500000X0.600000*%
%ADD16R,1.550000X0.600000*%
%ADD17R,2.032000X3.657600*%
%ADD18R,2.032000X1.016000*%
%ADD19C,2.200000*%
%ADD20O,2.032000X2.540000*%
%ADD21R,3.810000X3.810000*%
%ADD22C,3.810000*%
%ADD23C,2.540000*%
%ADD24R,2.032000X2.032000*%
%ADD25O,2.032000X2.032000*%
%ADD26C,1.524000*%
%ADD27C,2.999740*%
%ADD28R,1.727200X2.032000*%
%ADD29O,1.727200X2.032000*%
%ADD30R,1.300000X1.300000*%
%ADD31C,1.300000*%
%ADD32C,4.064000*%
%ADD33C,2.500000*%
%ADD34C,3.000000*%
%ADD35R,3.000000X3.000000*%
%ADD36R,2.540000X2.540000*%
%ADD37C,0.700000*%
%ADD38C,0.500000*%
%ADD39C,1.500000*%
%ADD40C,0.350000*%
G04 APERTURE END LIST*
D10*
D11*
X118250000Y-82000000D03*
X118250000Y-84540000D03*
X118250000Y-87080000D03*
X118250000Y-89620000D03*
X118250000Y-92160000D03*
X118250000Y-94700000D03*
X118250000Y-97240000D03*
X118250000Y-99780000D03*
X118250000Y-102320000D03*
X118250000Y-104860000D03*
X118250000Y-107400000D03*
X118250000Y-109940000D03*
X118250000Y-112480000D03*
X118250000Y-115020000D03*
X118250000Y-117560000D03*
X95390000Y-82000000D03*
X95390000Y-112480000D03*
X95390000Y-115020000D03*
X95390000Y-109940000D03*
X95390000Y-94700000D03*
X95390000Y-92160000D03*
X95390000Y-97240000D03*
X95390000Y-117560000D03*
X95390000Y-102320000D03*
X95390000Y-99780000D03*
X95390000Y-104860000D03*
X95390000Y-107400000D03*
X95390000Y-87080000D03*
X95390000Y-89620000D03*
X95390000Y-84540000D03*
D12*
X92153740Y-150556000D03*
X92153740Y-148656000D03*
X94152720Y-149606000D03*
X92217240Y-147063500D03*
X92217240Y-145163500D03*
X94216220Y-146113500D03*
X92217240Y-143571000D03*
X92217240Y-141671000D03*
X94216220Y-142621000D03*
X92217240Y-140142000D03*
X92217240Y-138242000D03*
X94216220Y-139192000D03*
D13*
X103632000Y-136855200D03*
D14*
X103632000Y-134355200D03*
D15*
X96950000Y-148082000D03*
X96950000Y-146812000D03*
X96950000Y-145542000D03*
X96950000Y-144272000D03*
X96950000Y-143002000D03*
X96950000Y-141732000D03*
X96950000Y-140462000D03*
X96950000Y-139192000D03*
X106250000Y-139192000D03*
X106250000Y-140462000D03*
X106250000Y-141732000D03*
X106250000Y-143002000D03*
X106250000Y-144272000D03*
X106250000Y-145542000D03*
X106250000Y-146812000D03*
X106250000Y-148082000D03*
D16*
X74135000Y-129794000D03*
X74135000Y-128524000D03*
X74135000Y-127254000D03*
X74135000Y-125984000D03*
X79535000Y-125984000D03*
X79535000Y-127254000D03*
X79535000Y-128524000D03*
X79535000Y-129794000D03*
D14*
X76500000Y-108500000D03*
D13*
X74000000Y-108500000D03*
D17*
X74698000Y-95000000D03*
D18*
X81302000Y-95000000D03*
X81302000Y-97286000D03*
X81302000Y-92714000D03*
D17*
X73787000Y-114173000D03*
D18*
X80391000Y-114173000D03*
X80391000Y-116459000D03*
X80391000Y-111887000D03*
D19*
X82931000Y-139065000D03*
X72771000Y-139065000D03*
X74676000Y-149352000D03*
X64516000Y-149352000D03*
D20*
X106489500Y-164465000D03*
X103949500Y-164465000D03*
X109029500Y-164465000D03*
D21*
X116840000Y-143510000D03*
D22*
X116840000Y-138430000D03*
X116840000Y-133350000D03*
D13*
X106537760Y-134457440D03*
D14*
X106537760Y-136957440D03*
D21*
X30480000Y-119380000D03*
D22*
X30480000Y-124460000D03*
X30480000Y-129540000D03*
D13*
X80000000Y-101000000D03*
D14*
X76200000Y-101000000D03*
D13*
X85000000Y-89000000D03*
D14*
X85000000Y-91500000D03*
D13*
X77470000Y-118999000D03*
D14*
X74970000Y-118999000D03*
D23*
X75486000Y-85804000D03*
X81486000Y-85804000D03*
X81486000Y-79804000D03*
X75486000Y-79804000D03*
D22*
X54531260Y-129540000D03*
X59529980Y-129540000D03*
X44528740Y-129540000D03*
X39530020Y-129540000D03*
X54785260Y-138684000D03*
X59783980Y-138684000D03*
X44782740Y-138684000D03*
X39784020Y-138684000D03*
D24*
X73152000Y-134620000D03*
D25*
X70612000Y-134620000D03*
D24*
X60833000Y-148971000D03*
D25*
X58293000Y-148971000D03*
D24*
X65024000Y-160020000D03*
D25*
X65024000Y-162560000D03*
D24*
X98869500Y-161353500D03*
D25*
X98869500Y-163893500D03*
D21*
X30480000Y-86360000D03*
D22*
X30480000Y-91440000D03*
X30480000Y-96520000D03*
X51816000Y-162560000D03*
X46736000Y-162560000D03*
D21*
X56896000Y-162560000D03*
D22*
X41656000Y-162560000D03*
D24*
X90932000Y-81534000D03*
D25*
X90932000Y-84074000D03*
D24*
X99822000Y-109982000D03*
D25*
X99822000Y-112522000D03*
D26*
X68500000Y-113540000D03*
X68500000Y-116080000D03*
X68500000Y-111000000D03*
D22*
X65879980Y-99407980D03*
D27*
X60881260Y-99407980D03*
X55880000Y-99407980D03*
X50878740Y-99407980D03*
D22*
X45880020Y-99407980D03*
D27*
X45880020Y-79408020D03*
D22*
X50878740Y-79408020D03*
D27*
X55880000Y-79408020D03*
D22*
X60881260Y-79408020D03*
D27*
X65879980Y-79408020D03*
D19*
X74676000Y-155448000D03*
X64516000Y-155448000D03*
X84455000Y-164465000D03*
X84455000Y-151765000D03*
X81153000Y-163068000D03*
X81153000Y-152908000D03*
X77851000Y-162941000D03*
X77851000Y-152781000D03*
D13*
X82000000Y-129000000D03*
D14*
X82000000Y-134000000D03*
X79502000Y-106426000D03*
X89662000Y-106426000D03*
X98750000Y-95330000D03*
X98750000Y-85170000D03*
D19*
X114490500Y-149415500D03*
X114490500Y-159575500D03*
X118110000Y-159639000D03*
X118110000Y-149479000D03*
D28*
X108521500Y-159702500D03*
D29*
X105981500Y-159702500D03*
X103441500Y-159702500D03*
D13*
X84500000Y-97500000D03*
D14*
X84500000Y-95000000D03*
D13*
X82500000Y-125000000D03*
D14*
X85000000Y-125000000D03*
D30*
X84500000Y-130000000D03*
D31*
X84500000Y-132500000D03*
D32*
X27940000Y-77470000D03*
X27940000Y-165100000D03*
X116840000Y-165100000D03*
X116840000Y-77470000D03*
D33*
X46273000Y-120286000D03*
D34*
X58473000Y-120286000D03*
X58523000Y-108236000D03*
D33*
X46273000Y-108286000D03*
D34*
X44323000Y-114236000D03*
D35*
X30734000Y-144780000D03*
D34*
X30734000Y-149860000D03*
D36*
X89027000Y-163703000D03*
D23*
X94107000Y-163703000D03*
D14*
X40195500Y-109093000D03*
D13*
X40195500Y-119253000D03*
D19*
X83820000Y-100457000D03*
X88500000Y-158000000D03*
D14*
X89773760Y-139943840D03*
X89834720Y-143398240D03*
X89753440Y-150428960D03*
X89895680Y-146913600D03*
D19*
X102489000Y-130429000D03*
X103632000Y-117348000D03*
D37*
X75486000Y-85804000D02*
X75486000Y-87486000D01*
X78500000Y-97088000D02*
X80000000Y-98588000D01*
X78500000Y-90500000D02*
X78500000Y-97088000D01*
X75486000Y-87486000D02*
X78500000Y-90500000D01*
X80000000Y-101000000D02*
X80000000Y-98588000D01*
X80000000Y-98588000D02*
X81302000Y-97286000D01*
X81302000Y-97286000D02*
X84286000Y-97286000D01*
X84286000Y-97286000D02*
X84500000Y-97500000D01*
X81486000Y-79804000D02*
X85138000Y-79804000D01*
X88138000Y-82804000D02*
X88138000Y-86456000D01*
X85138000Y-79804000D02*
X88138000Y-82804000D01*
X100584000Y-115570000D02*
X100838000Y-115570000D01*
X102997000Y-113411000D02*
X104140000Y-113411000D01*
X100838000Y-115570000D02*
X102997000Y-113411000D01*
X106680000Y-118364000D02*
X106680000Y-115951000D01*
X106680000Y-115951000D02*
X104140000Y-113411000D01*
X104140000Y-113411000D02*
X103632000Y-113411000D01*
X97240000Y-97240000D02*
X103632000Y-103632000D01*
X103632000Y-103632000D02*
X103632000Y-113411000D01*
X95390000Y-97240000D02*
X97240000Y-97240000D01*
X118250000Y-104860000D02*
X119592000Y-104860000D01*
X120142000Y-113128000D02*
X118250000Y-115020000D01*
X120142000Y-105410000D02*
X120142000Y-113128000D01*
X119592000Y-104860000D02*
X120142000Y-105410000D01*
X116840000Y-133350000D02*
X116840000Y-128524000D01*
X100584000Y-115570000D02*
X95940000Y-115570000D01*
X116840000Y-128524000D02*
X106680000Y-118364000D01*
X95940000Y-115570000D02*
X95390000Y-115020000D01*
X106537760Y-134457440D02*
X108295440Y-134457440D01*
X108295440Y-134457440D02*
X108938018Y-135100018D01*
X116840000Y-133350000D02*
X117094000Y-133350000D01*
X84963000Y-112395000D02*
X85852000Y-111506000D01*
X85852000Y-104394000D02*
X88900000Y-101346000D01*
X85852000Y-111506000D02*
X85852000Y-104394000D01*
X85000000Y-125000000D02*
X85000000Y-123862000D01*
X88900000Y-101346000D02*
X89500000Y-100746000D01*
X83312000Y-114046000D02*
X84963000Y-112395000D01*
X83312000Y-122174000D02*
X83312000Y-114046000D01*
X85000000Y-123862000D02*
X83312000Y-122174000D01*
X89500000Y-87818000D02*
X88138000Y-86456000D01*
X89500000Y-100746000D02*
X89500000Y-87818000D01*
X80518000Y-108500000D02*
X81322000Y-108500000D01*
X81788000Y-108034000D02*
X81788000Y-104000000D01*
X81322000Y-108500000D02*
X81788000Y-108034000D01*
X118110000Y-149479000D02*
X118110000Y-151980900D01*
X103949500Y-166547800D02*
X103949500Y-164465000D01*
X105308400Y-167906700D02*
X103949500Y-166547800D01*
X118224300Y-167906700D02*
X105308400Y-167906700D01*
X119976900Y-166154100D02*
X118224300Y-167906700D01*
X119976900Y-153847800D02*
X119976900Y-166154100D01*
X118110000Y-151980900D02*
X119976900Y-153847800D01*
X84455000Y-164465000D02*
X84612480Y-164465000D01*
X84612480Y-164465000D02*
X86334600Y-166187120D01*
X96575880Y-166187120D02*
X98869500Y-163893500D01*
X86334600Y-166187120D02*
X96575880Y-166187120D01*
X82000000Y-134000000D02*
X84465000Y-134000000D01*
X84465000Y-134000000D02*
X88707000Y-138242000D01*
X106250000Y-148082000D02*
X105084880Y-148082000D01*
X105115360Y-141732000D02*
X106250000Y-141732000D01*
X104729280Y-142118080D02*
X105115360Y-141732000D01*
X104729280Y-147726400D02*
X104729280Y-142118080D01*
X105084880Y-148082000D02*
X104729280Y-147726400D01*
X106250000Y-141732000D02*
X108630720Y-141732000D01*
X108938018Y-141424702D02*
X108938018Y-135100018D01*
X108630720Y-141732000D02*
X108938018Y-141424702D01*
X103632000Y-134355200D02*
X106435520Y-134355200D01*
X106435520Y-134355200D02*
X106537760Y-134457440D01*
X106250000Y-148082000D02*
X111099600Y-148082000D01*
X115910360Y-147279360D02*
X118110000Y-149479000D01*
X111902240Y-147279360D02*
X115910360Y-147279360D01*
X111099600Y-148082000D02*
X111902240Y-147279360D01*
X107162000Y-134442000D02*
X107249000Y-134528000D01*
X106250000Y-148082000D02*
X105888000Y-148082000D01*
X84500000Y-132500000D02*
X82000000Y-132500000D01*
X79535000Y-129794000D02*
X79535000Y-130035000D01*
X79535000Y-130035000D02*
X82000000Y-132500000D01*
X82000000Y-132500000D02*
X82000000Y-134000000D01*
X68500000Y-116080000D02*
X68580000Y-116080000D01*
X68580000Y-116080000D02*
X73500000Y-121000000D01*
X68580000Y-116080000D02*
X71499000Y-118999000D01*
X71499000Y-118999000D02*
X74970000Y-118999000D01*
X80391000Y-119609000D02*
X80391000Y-116459000D01*
X79000000Y-121000000D02*
X80391000Y-119609000D01*
X73500000Y-121000000D02*
X79000000Y-121000000D01*
X76200000Y-101000000D02*
X76200000Y-101700000D01*
X76200000Y-101700000D02*
X78500000Y-104000000D01*
X78500000Y-104000000D02*
X81788000Y-104000000D01*
X80518000Y-108500000D02*
X76500000Y-108500000D01*
X76500000Y-108500000D02*
X76500000Y-113000000D01*
X76000000Y-117000000D02*
X74970000Y-118030000D01*
X76000000Y-113500000D02*
X76000000Y-117000000D01*
X76500000Y-113000000D02*
X76000000Y-113500000D01*
X74970000Y-118030000D02*
X74970000Y-118999000D01*
X76200000Y-101000000D02*
X76200000Y-100700000D01*
X76200000Y-100700000D02*
X74698000Y-99198000D01*
X74698000Y-99198000D02*
X74698000Y-95000000D01*
X85000000Y-91500000D02*
X85000000Y-94500000D01*
X85000000Y-94500000D02*
X84500000Y-95000000D01*
X84500000Y-95000000D02*
X81302000Y-95000000D01*
X74970000Y-118999000D02*
X74970000Y-118273200D01*
X77851000Y-162941000D02*
X81026000Y-162941000D01*
X81026000Y-162941000D02*
X82550000Y-164465000D01*
X82550000Y-164465000D02*
X84455000Y-164465000D01*
X84455000Y-164465000D02*
X85344000Y-164592000D01*
X77851000Y-162941000D02*
X81089500Y-163131500D01*
X81089500Y-163131500D02*
X81153000Y-163068000D01*
X103949500Y-164465000D02*
X99441000Y-164465000D01*
X99441000Y-164465000D02*
X98869500Y-163893500D01*
X103251000Y-165163500D02*
X103949500Y-164465000D01*
X116840000Y-133350000D02*
X116840000Y-132969000D01*
X82344000Y-79804000D02*
X81486000Y-79804000D01*
X80391000Y-116459000D02*
X80010000Y-116459000D01*
X87884000Y-145161000D02*
X92214740Y-145161000D01*
X92214740Y-145161000D02*
X92217240Y-145163500D01*
X92217240Y-141671000D02*
X88199000Y-141671000D01*
X88199000Y-141671000D02*
X87884000Y-141986000D01*
X92153740Y-148656000D02*
X88331000Y-148656000D01*
X88707000Y-138242000D02*
X92217240Y-138242000D01*
X87884000Y-139065000D02*
X88707000Y-138242000D01*
X87884000Y-141986000D02*
X87884000Y-139065000D01*
X87884000Y-148209000D02*
X87884000Y-145161000D01*
X87884000Y-145161000D02*
X87884000Y-141986000D01*
X88331000Y-148656000D02*
X87884000Y-148209000D01*
X84899500Y-101917500D02*
X84899500Y-101536500D01*
X84899500Y-101536500D02*
X83820000Y-100457000D01*
X85915500Y-100901500D02*
X84098500Y-100901500D01*
X84098500Y-100901500D02*
X83500000Y-101500000D01*
X83058000Y-104013000D02*
X83058000Y-103759000D01*
X87000000Y-99817000D02*
X87000000Y-99000000D01*
X83058000Y-103759000D02*
X84899500Y-101917500D01*
X84899500Y-101917500D02*
X85915500Y-100901500D01*
X85915500Y-100901500D02*
X87000000Y-99817000D01*
X87000000Y-90500000D02*
X87000000Y-99000000D01*
X85500000Y-89000000D02*
X87000000Y-90500000D01*
X83058000Y-110942000D02*
X82113000Y-111887000D01*
X83058000Y-104013000D02*
X83058000Y-110942000D01*
X85000000Y-89000000D02*
X85500000Y-89000000D01*
X88500000Y-158000000D02*
X89281500Y-158781500D01*
X89281500Y-158781500D02*
X91281500Y-158781500D01*
X80391000Y-111887000D02*
X82113000Y-111887000D01*
X77470000Y-118999000D02*
X77470000Y-113530000D01*
X79113000Y-111887000D02*
X80391000Y-111887000D01*
X77470000Y-113530000D02*
X79113000Y-111887000D01*
X81302000Y-92714000D02*
X81302000Y-90198000D01*
X82500000Y-89000000D02*
X85000000Y-89000000D01*
X81302000Y-90198000D02*
X82500000Y-89000000D01*
X91567000Y-158496000D02*
X91281500Y-158781500D01*
X108521500Y-157670500D02*
X108077000Y-157226000D01*
X108521500Y-159702500D02*
X108521500Y-157670500D01*
X108077000Y-157226000D02*
X96901000Y-157226000D01*
X96901000Y-157226000D02*
X95631000Y-158496000D01*
X95631000Y-158496000D02*
X91567000Y-158496000D01*
X91281500Y-158781500D02*
X89535000Y-160528000D01*
X89027000Y-161036000D02*
X89027000Y-163703000D01*
X89535000Y-160528000D02*
X89027000Y-161036000D01*
X108521500Y-159702500D02*
X108521500Y-159321500D01*
X81026000Y-82550000D02*
X85344000Y-82550000D01*
X86614000Y-83820000D02*
X86614000Y-87376000D01*
X85344000Y-82550000D02*
X86614000Y-83820000D01*
X65786000Y-109220000D02*
X65786000Y-108204000D01*
X63036000Y-92964000D02*
X58500000Y-97500000D01*
X68326000Y-92964000D02*
X63036000Y-92964000D01*
X70866000Y-95504000D02*
X68326000Y-92964000D01*
X70866000Y-103124000D02*
X70866000Y-95504000D01*
X65786000Y-108204000D02*
X70866000Y-103124000D01*
X72898000Y-122500000D02*
X71446000Y-122500000D01*
X65786000Y-116840000D02*
X65786000Y-109220000D01*
X71446000Y-122500000D02*
X65786000Y-116840000D01*
X118250000Y-117560000D02*
X117560000Y-117560000D01*
X117560000Y-117560000D02*
X114300000Y-114300000D01*
X114300000Y-114300000D02*
X114300000Y-83058000D01*
X114300000Y-83058000D02*
X108484000Y-77242000D01*
X108484000Y-77242000D02*
X80492000Y-77242000D01*
X85995000Y-102505000D02*
X85995000Y-102727000D01*
X88250000Y-100250000D02*
X88250000Y-89012000D01*
X88250000Y-89012000D02*
X86614000Y-87376000D01*
X85995000Y-102505000D02*
X88250000Y-100250000D01*
X82250000Y-113584000D02*
X84328000Y-111506000D01*
X82250000Y-114300000D02*
X82250000Y-113584000D01*
X85995000Y-102727000D02*
X84328000Y-104394000D01*
X84328000Y-104394000D02*
X84328000Y-111506000D01*
X82250000Y-114173000D02*
X82250000Y-114300000D01*
X82250000Y-114300000D02*
X82250000Y-120823000D01*
X81750000Y-121250000D02*
X81750000Y-121323000D01*
X81823000Y-121250000D02*
X81750000Y-121250000D01*
X82250000Y-120823000D02*
X81823000Y-121250000D01*
X78740000Y-78994000D02*
X80010000Y-77724000D01*
X78740000Y-80772000D02*
X78740000Y-79502000D01*
X80518000Y-82550000D02*
X78740000Y-80772000D01*
X81026000Y-82550000D02*
X80518000Y-82550000D01*
X78740000Y-79502000D02*
X78740000Y-78994000D01*
X80492000Y-77242000D02*
X80518000Y-77216000D01*
X80010000Y-77724000D02*
X80492000Y-77242000D01*
X79535000Y-125984000D02*
X79535000Y-122500000D01*
X79535000Y-122500000D02*
X80573000Y-122500000D01*
X80573000Y-122500000D02*
X81750000Y-121323000D01*
X82250000Y-114173000D02*
X80391000Y-114173000D01*
X79535000Y-125984000D02*
X81516000Y-125984000D01*
X81516000Y-125984000D02*
X82500000Y-125000000D01*
X79535000Y-125984000D02*
X79535000Y-123035000D01*
X79535000Y-123035000D02*
X79500000Y-123000000D01*
X46273000Y-120286000D02*
X47714000Y-120286000D01*
X58500000Y-102500000D02*
X58500000Y-97500000D01*
X52000000Y-109000000D02*
X58500000Y-102500000D01*
X52000000Y-116000000D02*
X52000000Y-109000000D01*
X47714000Y-120286000D02*
X52000000Y-116000000D01*
X72898000Y-122500000D02*
X80573000Y-122500000D01*
X73787000Y-114173000D02*
X73787000Y-108713000D01*
X73787000Y-108713000D02*
X74000000Y-108500000D01*
X73787000Y-114173000D02*
X74422000Y-114173000D01*
X40195500Y-119253000D02*
X40195500Y-119443500D01*
X40195500Y-119443500D02*
X41038000Y-120286000D01*
X41038000Y-120286000D02*
X46273000Y-120286000D01*
X46273000Y-120286000D02*
X46273000Y-120097000D01*
X46273000Y-120286000D02*
X46273000Y-119526000D01*
D38*
X84500000Y-130000000D02*
X83000000Y-130000000D01*
X83000000Y-130000000D02*
X82000000Y-129000000D01*
X79535000Y-128524000D02*
X81524000Y-128524000D01*
X81524000Y-128524000D02*
X82000000Y-129000000D01*
D37*
X68500000Y-107696000D02*
X68500000Y-107522000D01*
X57467500Y-91440000D02*
X53340000Y-95567500D01*
X69342000Y-91440000D02*
X57467500Y-91440000D01*
X72390000Y-94488000D02*
X69342000Y-91440000D01*
X72390000Y-103632000D02*
X72390000Y-94488000D01*
X68500000Y-107522000D02*
X72390000Y-103632000D01*
X53340000Y-103759000D02*
X53340000Y-95567500D01*
X48813000Y-108286000D02*
X53340000Y-103759000D01*
X46273000Y-108286000D02*
X48813000Y-108286000D01*
X68500000Y-107696000D02*
X68500000Y-111000000D01*
X46273000Y-108286000D02*
X41458600Y-108286000D01*
X41458600Y-108286000D02*
X40651600Y-109093000D01*
X40651600Y-109093000D02*
X40195500Y-109093000D01*
X81486000Y-85804000D02*
X78946000Y-85804000D01*
X76454000Y-83312000D02*
X75946000Y-83312000D01*
X78946000Y-85804000D02*
X76454000Y-83312000D01*
X54102000Y-83312000D02*
X50878740Y-80088740D01*
X75946000Y-83312000D02*
X54102000Y-83312000D01*
X50878740Y-80088740D02*
X50878740Y-79408020D01*
X73681800Y-81608200D02*
X75486000Y-79804000D01*
X64968800Y-81608200D02*
X73681800Y-81608200D01*
X62768700Y-79408100D02*
X64968800Y-81608200D01*
X62768700Y-79408000D02*
X62768700Y-79408100D01*
X60881300Y-79408000D02*
X62768700Y-79408000D01*
D39*
X65879980Y-99407980D02*
X65879980Y-101620020D01*
X62500000Y-105000000D02*
X62500000Y-108950000D01*
X65879980Y-101620020D02*
X62500000Y-105000000D01*
X59529980Y-129540000D02*
X54531260Y-129540000D01*
X54531260Y-129540000D02*
X54610000Y-129461260D01*
X54610000Y-129461260D02*
X54610000Y-124149000D01*
X54610000Y-124149000D02*
X58473000Y-120286000D01*
X58473000Y-112977000D02*
X62500000Y-108950000D01*
X58473000Y-120286000D02*
X58473000Y-112977000D01*
X30480000Y-96520000D02*
X26670000Y-100330000D01*
X27178000Y-133858000D02*
X32385000Y-133858000D01*
X26670000Y-133350000D02*
X27178000Y-133858000D01*
X26670000Y-100330000D02*
X26670000Y-133350000D01*
X39530020Y-129540000D02*
X36703000Y-129540000D01*
X36703000Y-129540000D02*
X32385000Y-133858000D01*
X44528740Y-129540000D02*
X39530020Y-129540000D01*
X41562020Y-129794000D02*
X36449000Y-129794000D01*
X36449000Y-129794000D02*
X32385000Y-133858000D01*
X74135000Y-125984000D02*
X72632000Y-125984000D01*
X72632000Y-125984000D02*
X71997000Y-126619000D01*
X71997000Y-126619000D02*
X66611500Y-126619000D01*
X59783980Y-138684000D02*
X62992000Y-138684000D01*
X65024000Y-136652000D02*
X65024000Y-128206500D01*
X62992000Y-138684000D02*
X65024000Y-136652000D01*
X54785260Y-138684000D02*
X59783980Y-138684000D01*
X65024000Y-128206500D02*
X66611500Y-126619000D01*
X66611500Y-126619000D02*
X70497000Y-126619000D01*
D38*
X74135000Y-125984000D02*
X74135000Y-127254000D01*
D39*
X39784020Y-138684000D02*
X36830000Y-138684000D01*
X36830000Y-138684000D02*
X30734000Y-144780000D01*
X39593520Y-138684000D02*
X44592240Y-138684000D01*
D37*
X91821000Y-153162000D02*
X94996000Y-153162000D01*
X94996000Y-153162000D02*
X96950000Y-151208000D01*
X82931000Y-139065000D02*
X82931000Y-147497800D01*
X84455000Y-149021800D02*
X84455000Y-151765000D01*
X82931000Y-147497800D02*
X84455000Y-149021800D01*
X84455000Y-151765000D02*
X84709000Y-151765000D01*
X84709000Y-151765000D02*
X86106000Y-153162000D01*
X86106000Y-153162000D02*
X91821000Y-153162000D01*
X82931000Y-139065000D02*
X83566000Y-139065000D01*
X84455000Y-151765000D02*
X84582000Y-151765000D01*
X84455000Y-151765000D02*
X84455000Y-151638000D01*
X94152720Y-149606000D02*
X94361000Y-149606000D01*
X94361000Y-149606000D02*
X95885000Y-148082000D01*
X96950000Y-151208000D02*
X96950000Y-148082000D01*
X95885000Y-148082000D02*
X96950000Y-148082000D01*
D39*
X74135000Y-129794000D02*
X69342000Y-129794000D01*
X69342000Y-129794000D02*
X68135000Y-131001000D01*
X70612000Y-134620000D02*
X69596000Y-134620000D01*
X69596000Y-134620000D02*
X68135000Y-136081000D01*
X62484000Y-144780000D02*
X64008000Y-144780000D01*
X64008000Y-144780000D02*
X68135000Y-140653000D01*
X68135000Y-140653000D02*
X68135000Y-136081000D01*
X68135000Y-136081000D02*
X68135000Y-131001000D01*
X41656000Y-162560000D02*
X41656000Y-152908000D01*
X49784000Y-144780000D02*
X62484000Y-144780000D01*
X41656000Y-152908000D02*
X49784000Y-144780000D01*
D38*
X72474500Y-129764000D02*
X72060500Y-129350000D01*
X74135000Y-128524000D02*
X74135000Y-129794000D01*
X74104500Y-129764000D02*
X72474500Y-129764000D01*
X74135000Y-129794000D02*
X74104500Y-129764000D01*
D39*
X58293000Y-148971000D02*
X51181000Y-148971000D01*
X49276000Y-150876000D02*
X49276000Y-162560000D01*
X51181000Y-148971000D02*
X49276000Y-150876000D01*
X46736000Y-162560000D02*
X49276000Y-162560000D01*
X49276000Y-162560000D02*
X51816000Y-162560000D01*
D37*
X74676000Y-155448000D02*
X77216000Y-155448000D01*
X77851000Y-154813000D02*
X77851000Y-152781000D01*
X77216000Y-155448000D02*
X77851000Y-154813000D01*
X74676000Y-155448000D02*
X75184000Y-155448000D01*
X77851000Y-152781000D02*
X77851000Y-154178000D01*
X100076000Y-144272000D02*
X98806000Y-143002000D01*
X100076000Y-151892000D02*
X100076000Y-144272000D01*
X96012000Y-155956000D02*
X100076000Y-151892000D01*
X85217000Y-155956000D02*
X96012000Y-155956000D01*
X98806000Y-143002000D02*
X96950000Y-143002000D01*
X77851000Y-154178000D02*
X79629000Y-155956000D01*
X79629000Y-155956000D02*
X85217000Y-155956000D01*
X77851000Y-152781000D02*
X77597000Y-152781000D01*
X94216220Y-142621000D02*
X94996000Y-142621000D01*
X77914500Y-153162000D02*
X78359000Y-152717500D01*
X94996000Y-142621000D02*
X95377000Y-143002000D01*
X95377000Y-143002000D02*
X96950000Y-143002000D01*
D39*
X30734000Y-149860000D02*
X30734000Y-159258000D01*
X30734000Y-159258000D02*
X38100000Y-166624000D01*
X56896000Y-165608000D02*
X56896000Y-162560000D01*
X38100000Y-166624000D02*
X55880000Y-166624000D01*
X55880000Y-166624000D02*
X56896000Y-165608000D01*
X56896000Y-162560000D02*
X65024000Y-162560000D01*
X57213500Y-162877500D02*
X56896000Y-162560000D01*
D37*
X94107000Y-163703000D02*
X94107000Y-161925000D01*
X94678500Y-161353500D02*
X98869500Y-161353500D01*
X94107000Y-161925000D02*
X94678500Y-161353500D01*
X98869500Y-161353500D02*
X101790500Y-161353500D01*
X101790500Y-161353500D02*
X103441500Y-159702500D01*
D39*
X30480000Y-119380000D02*
X30480000Y-106426000D01*
X37498020Y-99407980D02*
X45880020Y-99407980D01*
X30480000Y-106426000D02*
X37498020Y-99407980D01*
X30480000Y-86360000D02*
X34290000Y-86360000D01*
X34290000Y-86360000D02*
X45880020Y-97950020D01*
X45880020Y-97950020D02*
X45880020Y-99407980D01*
X36258500Y-123762000D02*
X30480000Y-129540000D01*
X36258500Y-116459000D02*
X36258500Y-123762000D01*
X38481000Y-114236000D02*
X36258500Y-116459000D01*
X44323000Y-114236000D02*
X38481000Y-114236000D01*
D37*
X89971920Y-140142000D02*
X92217240Y-140142000D01*
X89773760Y-139943840D02*
X89971920Y-140142000D01*
X92217240Y-143571000D02*
X90007480Y-143571000D01*
X90007480Y-143571000D02*
X89834720Y-143398240D01*
X92217240Y-147063500D02*
X90065900Y-147063500D01*
X89880480Y-150556000D02*
X92153740Y-150556000D01*
X89753440Y-150428960D02*
X89880480Y-150556000D01*
X89916000Y-146913600D02*
X89895680Y-146913600D01*
X90065900Y-147063500D02*
X89916000Y-146913600D01*
X102489000Y-130429000D02*
X102958900Y-130898900D01*
X103124000Y-117560000D02*
X103420000Y-117560000D01*
X103420000Y-117560000D02*
X103632000Y-117348000D01*
X101473000Y-117560000D02*
X103124000Y-117560000D01*
X103124000Y-117560000D02*
X103336000Y-117560000D01*
X103336000Y-117560000D02*
X103378000Y-117602000D01*
X101473000Y-117560000D02*
X101515000Y-117560000D01*
X104775000Y-116713000D02*
X104775000Y-118999000D01*
X104267000Y-116205000D02*
X104775000Y-116713000D01*
X102870000Y-116205000D02*
X104267000Y-116205000D01*
X101515000Y-117560000D02*
X102870000Y-116205000D01*
X116840000Y-143510000D02*
X116840000Y-143383000D01*
X116840000Y-143383000D02*
X114173000Y-140716000D01*
X114173000Y-140716000D02*
X114173000Y-128397000D01*
X114173000Y-128397000D02*
X104775000Y-118999000D01*
X104775000Y-118999000D02*
X103378000Y-117602000D01*
X100330000Y-117560000D02*
X101473000Y-117560000D01*
X103336000Y-117560000D02*
X103378000Y-117602000D01*
X116840000Y-143510000D02*
X115681760Y-143510000D01*
X95390000Y-117560000D02*
X100330000Y-117560000D01*
X101394260Y-134112000D02*
X101394260Y-132742940D01*
X101394260Y-135509000D02*
X101394260Y-134112000D01*
X102740460Y-136855200D02*
X101394260Y-135509000D01*
X101394260Y-132742940D02*
X103238300Y-130898900D01*
X95390000Y-94700000D02*
X98120000Y-94700000D01*
X98120000Y-94700000D02*
X98750000Y-95330000D01*
X103632000Y-136855200D02*
X102740460Y-136855200D01*
X103632000Y-136855200D02*
X106435520Y-136855200D01*
X106435520Y-136855200D02*
X106537760Y-136957440D01*
X106250000Y-140462000D02*
X104597200Y-140462000D01*
X103632000Y-139496800D02*
X103632000Y-136855200D01*
X104597200Y-140462000D02*
X103632000Y-139496800D01*
X106250000Y-139192000D02*
X106250000Y-137245200D01*
X106250000Y-137245200D02*
X106537760Y-136957440D01*
X116840000Y-143510000D02*
X115346480Y-143510000D01*
X107163000Y-136942000D02*
X107249000Y-137028000D01*
X107162000Y-136942000D02*
X107249000Y-137028000D01*
D38*
X118872000Y-124714000D02*
X118872000Y-130937000D01*
X119380000Y-135890000D02*
X116840000Y-138430000D01*
X119380000Y-131445000D02*
X119380000Y-135890000D01*
X118872000Y-130937000D02*
X119380000Y-131445000D01*
X118872000Y-124714000D02*
X110744000Y-116586000D01*
X95390000Y-89620000D02*
X101812000Y-89620000D01*
X101812000Y-89620000D02*
X110744000Y-98552000D01*
X110744000Y-98552000D02*
X110744000Y-116586000D01*
X95390000Y-89620000D02*
X97578000Y-89620000D01*
X98750000Y-88448000D02*
X98750000Y-85170000D01*
X97578000Y-89620000D02*
X98750000Y-88448000D01*
X116840000Y-138430000D02*
X116840000Y-138308080D01*
X116840000Y-138430000D02*
X116430000Y-138430000D01*
X116840000Y-138430000D02*
X116332000Y-138430000D01*
X90932000Y-81534000D02*
X94924000Y-81534000D01*
X94924000Y-81534000D02*
X95390000Y-82000000D01*
X95390000Y-84540000D02*
X91398000Y-84540000D01*
X91398000Y-84540000D02*
X90932000Y-84074000D01*
X95390000Y-109940000D02*
X99780000Y-109940000D01*
X99780000Y-109940000D02*
X99822000Y-109982000D01*
X99822000Y-112522000D02*
X95432000Y-112522000D01*
X95432000Y-112522000D02*
X95390000Y-112480000D01*
X68500000Y-113540000D02*
X69960000Y-113540000D01*
X71500000Y-106500000D02*
X79502000Y-106426000D01*
X70500000Y-107500000D02*
X71500000Y-106500000D01*
X70500000Y-113000000D02*
X70500000Y-107500000D01*
X69960000Y-113540000D02*
X70500000Y-113000000D01*
X68500000Y-113540000D02*
X68500000Y-113343500D01*
X68500000Y-113540000D02*
X68500000Y-113350000D01*
D37*
X118110000Y-159639000D02*
X118110000Y-158496000D01*
X114490500Y-154876500D02*
X114490500Y-149415500D01*
X118110000Y-158496000D02*
X114490500Y-154876500D01*
X118110000Y-159639000D02*
X117475000Y-159639000D01*
X117475000Y-159639000D02*
X115570000Y-161544000D01*
X111950500Y-161544000D02*
X109029500Y-164465000D01*
X115570000Y-161544000D02*
X111950500Y-161544000D01*
D38*
X89662000Y-106426000D02*
X89662000Y-104140000D01*
X94276000Y-92160000D02*
X95390000Y-92160000D01*
X93472000Y-92964000D02*
X94276000Y-92160000D01*
X93472000Y-100330000D02*
X93472000Y-92964000D01*
X89662000Y-104140000D02*
X93472000Y-100330000D01*
D37*
X93535500Y-125412500D02*
X89852500Y-125412500D01*
X84836000Y-115062000D02*
X87630000Y-112268000D01*
X84836000Y-120396000D02*
X84836000Y-115062000D01*
X89852500Y-125412500D02*
X84836000Y-120396000D01*
X93535500Y-125412500D02*
X98933000Y-130810000D01*
X95390000Y-87080000D02*
X93768000Y-87080000D01*
X93768000Y-87080000D02*
X90678000Y-90170000D01*
X90678000Y-90170000D02*
X90678000Y-101600000D01*
X90678000Y-101600000D02*
X87630000Y-104648000D01*
X87630000Y-104648000D02*
X87630000Y-112268000D01*
X98933000Y-139700000D02*
X98933000Y-130810000D01*
X98806000Y-139700000D02*
X98933000Y-139700000D01*
X101126002Y-142020002D02*
X98806000Y-139700000D01*
X101126002Y-154085002D02*
X101126002Y-142020002D01*
X102616000Y-155575000D02*
X101126002Y-154085002D01*
X112649000Y-155575000D02*
X102616000Y-155575000D01*
X98933000Y-139573000D02*
X98933000Y-139700000D01*
X98044000Y-140462000D02*
X98933000Y-139573000D01*
X114490500Y-159575500D02*
X114490500Y-157416500D01*
X114490500Y-157416500D02*
X112649000Y-155575000D01*
X96950000Y-140462000D02*
X98044000Y-140462000D01*
X96950000Y-130950000D02*
X96950000Y-139192000D01*
X79535000Y-127254000D02*
X93254000Y-127254000D01*
X93254000Y-127254000D02*
X96950000Y-130950000D01*
X94216200Y-139192000D02*
X95440500Y-139192000D01*
X95440500Y-139192000D02*
X96950000Y-139192000D01*
D38*
X92009998Y-107188000D02*
X92009998Y-107761002D01*
X110998000Y-133223000D02*
X110998000Y-133542002D01*
X100838000Y-123063000D02*
X110998000Y-133223000D01*
X91059000Y-123063000D02*
X100838000Y-123063000D01*
X87122000Y-119126000D02*
X91059000Y-123063000D01*
X87122000Y-115824000D02*
X87122000Y-119126000D01*
X89535000Y-113411000D02*
X87122000Y-115824000D01*
X89535000Y-110236000D02*
X89535000Y-113411000D01*
X92009998Y-107761002D02*
X89535000Y-110236000D01*
X110998000Y-133542002D02*
X111059998Y-133542002D01*
X111059998Y-133542002D02*
X110998000Y-133542002D01*
X95390000Y-102320000D02*
X95292000Y-102320000D01*
X95292000Y-102320000D02*
X92009998Y-105602002D01*
X92009998Y-105602002D02*
X92009998Y-107188000D01*
X110998000Y-133542002D02*
X110998000Y-143256000D01*
X110998000Y-143256000D02*
X109982000Y-144272000D01*
X109982000Y-144272000D02*
X106250000Y-144272000D01*
X91186000Y-107061000D02*
X91186000Y-107188000D01*
X109982000Y-134112000D02*
X109982000Y-134620000D01*
X100076000Y-124206000D02*
X109982000Y-134112000D01*
X90678000Y-124206000D02*
X100076000Y-124206000D01*
X85979000Y-119507000D02*
X90678000Y-124206000D01*
X85979000Y-115316000D02*
X85979000Y-119507000D01*
X88646000Y-112649000D02*
X85979000Y-115316000D01*
X88646000Y-109728000D02*
X88646000Y-112649000D01*
X91186000Y-107188000D02*
X88646000Y-109728000D01*
X106250000Y-143002000D02*
X109220000Y-143002000D01*
X109982000Y-142240000D02*
X109982000Y-134620000D01*
X109220000Y-143002000D02*
X109982000Y-142240000D01*
X91186000Y-103984000D02*
X95390000Y-99780000D01*
X91186000Y-107061000D02*
X91186000Y-103984000D01*
X109982000Y-145542000D02*
X110043998Y-145542000D01*
X93345000Y-106299000D02*
X94784000Y-104860000D01*
X93345000Y-107950000D02*
X93345000Y-106299000D01*
X91059000Y-110236000D02*
X93345000Y-107950000D01*
X91059000Y-114173000D02*
X91059000Y-110236000D01*
X89027000Y-116205000D02*
X91059000Y-114173000D01*
X89027000Y-118110000D02*
X89027000Y-116205000D01*
X92583000Y-121666000D02*
X89027000Y-118110000D01*
X102108000Y-121666000D02*
X92583000Y-121666000D01*
X112141000Y-131699000D02*
X102108000Y-121666000D01*
X112141000Y-143444998D02*
X112141000Y-131699000D01*
X110043998Y-145542000D02*
X112141000Y-143444998D01*
X94784000Y-104860000D02*
X95390000Y-104860000D01*
X106250000Y-145542000D02*
X109982000Y-145542000D01*
X93683560Y-109106440D02*
X93683560Y-109160840D01*
X94604840Y-120309640D02*
X104307640Y-120309640D01*
X92313760Y-118018560D02*
X94604840Y-120309640D01*
X92313760Y-110530640D02*
X92313760Y-118018560D01*
X93683560Y-109160840D02*
X92313760Y-110530640D01*
X110134400Y-146812000D02*
X110134400Y-146786600D01*
X113157000Y-129159000D02*
X104307640Y-120309640D01*
X113157000Y-143764000D02*
X113157000Y-129159000D01*
X110134400Y-146786600D02*
X113157000Y-143764000D01*
X106250000Y-146812000D02*
X110134400Y-146812000D01*
X93683560Y-109106440D02*
X95390000Y-107400000D01*
D37*
X74676000Y-149352000D02*
X79756000Y-149352000D01*
X81153000Y-150749000D02*
X81153000Y-152908000D01*
X79756000Y-149352000D02*
X81153000Y-150749000D01*
X98552000Y-151384000D02*
X95504000Y-154432000D01*
X95504000Y-154432000D02*
X88646000Y-154432000D01*
X95313500Y-145542000D02*
X96950000Y-145542000D01*
X94742000Y-146113500D02*
X95313500Y-145542000D01*
X96950000Y-145542000D02*
X98298000Y-145542000D01*
X98298000Y-145542000D02*
X98552000Y-145796000D01*
X81153000Y-152908000D02*
X81153000Y-153289000D01*
X81153000Y-153289000D02*
X82296000Y-154432000D01*
X98552000Y-145796000D02*
X98552000Y-151384000D01*
X82296000Y-154432000D02*
X88646000Y-154432000D01*
X94216220Y-146113500D02*
X94742000Y-146113500D01*
D39*
X73152000Y-134620000D02*
X73152000Y-138684000D01*
X73152000Y-138684000D02*
X72771000Y-139065000D01*
X60833000Y-148971000D02*
X64516000Y-149352000D01*
X65024000Y-160020000D02*
X65024000Y-155956000D01*
X65024000Y-155956000D02*
X64516000Y-155448000D01*
D37*
X106489500Y-164465000D02*
X106489500Y-163131500D01*
X106489500Y-163131500D02*
X105981500Y-162623500D01*
X105981500Y-162623500D02*
X105981500Y-159702500D01*
D38*
X105981500Y-162623500D02*
X105981500Y-159702500D01*
X106489500Y-163131500D02*
X105981500Y-162623500D01*
D40*
G36*
X120475000Y-168735000D02*
X70025000Y-168735000D01*
X70025000Y-165684254D01*
X83347469Y-165684254D01*
X83451369Y-165980783D01*
X84107831Y-166249474D01*
X84817146Y-166246495D01*
X85458631Y-165980783D01*
X85562531Y-165684254D01*
X84455000Y-164576723D01*
X83347469Y-165684254D01*
X70025000Y-165684254D01*
X70025000Y-164160254D01*
X76743469Y-164160254D01*
X76847369Y-164456783D01*
X77503831Y-164725474D01*
X78213146Y-164722495D01*
X78854631Y-164456783D01*
X78914031Y-164287254D01*
X80045469Y-164287254D01*
X80149369Y-164583783D01*
X80805831Y-164852474D01*
X81515146Y-164849495D01*
X82156631Y-164583783D01*
X82260531Y-164287254D01*
X81153000Y-163179723D01*
X80045469Y-164287254D01*
X78914031Y-164287254D01*
X78958531Y-164160254D01*
X77851000Y-163052723D01*
X76743469Y-164160254D01*
X70025000Y-164160254D01*
X70025000Y-162593831D01*
X76066526Y-162593831D01*
X76069505Y-163303146D01*
X76335217Y-163944631D01*
X76631746Y-164048531D01*
X77739277Y-162941000D01*
X77962723Y-162941000D01*
X79070254Y-164048531D01*
X79366783Y-163944631D01*
X79475048Y-163680120D01*
X79637217Y-164071631D01*
X79933746Y-164175531D01*
X81041277Y-163068000D01*
X81264723Y-163068000D01*
X82372254Y-164175531D01*
X82536928Y-164117831D01*
X82670526Y-164117831D01*
X82673505Y-164827146D01*
X82939217Y-165468631D01*
X83235746Y-165572531D01*
X84343277Y-164465000D01*
X84566723Y-164465000D01*
X85674254Y-165572531D01*
X85970783Y-165468631D01*
X86239474Y-164812169D01*
X86236495Y-164102854D01*
X85970783Y-163461369D01*
X85674254Y-163357469D01*
X84566723Y-164465000D01*
X84343277Y-164465000D01*
X83235746Y-163357469D01*
X82939217Y-163461369D01*
X82670526Y-164117831D01*
X82536928Y-164117831D01*
X82668783Y-164071631D01*
X82937474Y-163415169D01*
X82936763Y-163245746D01*
X83347469Y-163245746D01*
X84455000Y-164353277D01*
X85562531Y-163245746D01*
X85458631Y-162949217D01*
X84802169Y-162680526D01*
X84092854Y-162683505D01*
X83451369Y-162949217D01*
X83347469Y-163245746D01*
X82936763Y-163245746D01*
X82934495Y-162705854D01*
X82668783Y-162064369D01*
X82372254Y-161960469D01*
X81264723Y-163068000D01*
X81041277Y-163068000D01*
X79933746Y-161960469D01*
X79637217Y-162064369D01*
X79528952Y-162328880D01*
X79366783Y-161937369D01*
X79113855Y-161848746D01*
X80045469Y-161848746D01*
X81153000Y-162956277D01*
X82260531Y-161848746D01*
X82156631Y-161552217D01*
X81500169Y-161283526D01*
X80790854Y-161286505D01*
X80149369Y-161552217D01*
X80045469Y-161848746D01*
X79113855Y-161848746D01*
X79070254Y-161833469D01*
X77962723Y-162941000D01*
X77739277Y-162941000D01*
X76631746Y-161833469D01*
X76335217Y-161937369D01*
X76066526Y-162593831D01*
X70025000Y-162593831D01*
X70025000Y-161721746D01*
X76743469Y-161721746D01*
X77851000Y-162829277D01*
X78958531Y-161721746D01*
X78854631Y-161425217D01*
X78198169Y-161156526D01*
X77488854Y-161159505D01*
X76847369Y-161425217D01*
X76743469Y-161721746D01*
X70025000Y-161721746D01*
X70025000Y-146122488D01*
X77593744Y-138553744D01*
X77631212Y-138498085D01*
X77645000Y-138430000D01*
X77645000Y-135147069D01*
X80964654Y-135147069D01*
X81056358Y-135433214D01*
X81676656Y-135685233D01*
X82346180Y-135680691D01*
X82943642Y-135433214D01*
X83035346Y-135147069D01*
X82000000Y-134111723D01*
X80964654Y-135147069D01*
X77645000Y-135147069D01*
X77645000Y-133676656D01*
X80314767Y-133676656D01*
X80319309Y-134346180D01*
X80566786Y-134943642D01*
X80852931Y-135035346D01*
X81888277Y-134000000D01*
X80852931Y-132964654D01*
X80566786Y-133056358D01*
X80314767Y-133676656D01*
X77645000Y-133676656D01*
X77645000Y-132852931D01*
X80964654Y-132852931D01*
X82000000Y-133888277D01*
X82014142Y-133874135D01*
X82125865Y-133985858D01*
X82111723Y-134000000D01*
X83147069Y-135035346D01*
X83433214Y-134943642D01*
X83685233Y-134323344D01*
X83680691Y-133653820D01*
X83615438Y-133496287D01*
X83717419Y-133394306D01*
X83766395Y-133644123D01*
X84260074Y-133837770D01*
X84790279Y-133827753D01*
X85233605Y-133644123D01*
X85282581Y-133394303D01*
X84500000Y-132611723D01*
X84485858Y-132625865D01*
X84374135Y-132514142D01*
X84388277Y-132500000D01*
X84611723Y-132500000D01*
X85394303Y-133282581D01*
X85644123Y-133233605D01*
X85837770Y-132739926D01*
X85827753Y-132209721D01*
X85644123Y-131766395D01*
X85394303Y-131717419D01*
X84611723Y-132500000D01*
X84388277Y-132500000D01*
X83605697Y-131717419D01*
X83355877Y-131766395D01*
X83162230Y-132260074D01*
X83171478Y-132749576D01*
X83155088Y-132733186D01*
X83035345Y-132852929D01*
X82943642Y-132566786D01*
X82323344Y-132314767D01*
X81653820Y-132319309D01*
X81056358Y-132566786D01*
X80964654Y-132852931D01*
X77645000Y-132852931D01*
X77645000Y-130043750D01*
X78077000Y-130043750D01*
X78077000Y-130229857D01*
X78180981Y-130480889D01*
X78373112Y-130673019D01*
X78624143Y-130777000D01*
X79285250Y-130777000D01*
X79456000Y-130606250D01*
X79456000Y-129873000D01*
X78247750Y-129873000D01*
X78077000Y-130043750D01*
X77645000Y-130043750D01*
X77645000Y-124460000D01*
X77633032Y-124396395D01*
X77595441Y-124337978D01*
X77538085Y-124298788D01*
X77470000Y-124285000D01*
X64770000Y-124285000D01*
X64704149Y-124297862D01*
X64646256Y-124336256D01*
X61310620Y-127671892D01*
X60993341Y-127354058D01*
X60045425Y-126960449D01*
X59019038Y-126959553D01*
X58070437Y-127351507D01*
X57344038Y-128076639D01*
X57328109Y-128115000D01*
X56734026Y-128115000D01*
X56719753Y-128080457D01*
X56035000Y-127394508D01*
X56035000Y-124739254D01*
X58313392Y-122460862D01*
X58903736Y-122461377D01*
X59703429Y-122130951D01*
X60315800Y-121519647D01*
X60647622Y-120720532D01*
X60648377Y-119855264D01*
X60317951Y-119055571D01*
X59898000Y-118634887D01*
X59898000Y-113567254D01*
X63507627Y-109957627D01*
X63816528Y-109495324D01*
X63925000Y-108950000D01*
X63925000Y-105590254D01*
X66887607Y-102627647D01*
X66977359Y-102493324D01*
X67196508Y-102165344D01*
X67304980Y-101620020D01*
X67304980Y-101610746D01*
X67339523Y-101596473D01*
X68065922Y-100871341D01*
X68459531Y-99923425D01*
X68460427Y-98897038D01*
X68068473Y-97948437D01*
X67343341Y-97222038D01*
X66395425Y-96828429D01*
X65369038Y-96827533D01*
X64420437Y-97219487D01*
X63694038Y-97944619D01*
X63300429Y-98892535D01*
X63299533Y-99918922D01*
X63691487Y-100867523D01*
X64153951Y-101330795D01*
X61492373Y-103992373D01*
X61183472Y-104454676D01*
X61075000Y-105000000D01*
X61075000Y-108359746D01*
X60650335Y-108784411D01*
X60697622Y-108670532D01*
X60698377Y-107805264D01*
X60367951Y-107005571D01*
X59756647Y-106393200D01*
X58957532Y-106061378D01*
X58092264Y-106060623D01*
X57292571Y-106391049D01*
X56680200Y-107002353D01*
X56348378Y-107801468D01*
X56347623Y-108666736D01*
X56678049Y-109466429D01*
X57289353Y-110078800D01*
X58088468Y-110410622D01*
X58953736Y-110411377D01*
X59072400Y-110362346D01*
X57465373Y-111969373D01*
X57156472Y-112431676D01*
X57048000Y-112977000D01*
X57048000Y-118635281D01*
X56630200Y-119052353D01*
X56298378Y-119851468D01*
X56297859Y-120445887D01*
X53602373Y-123141373D01*
X53293472Y-123603676D01*
X53185000Y-124149000D01*
X53185000Y-127304699D01*
X53071717Y-127351507D01*
X52345318Y-128076639D01*
X51951709Y-129024555D01*
X51950813Y-130050942D01*
X52342767Y-130999543D01*
X53067899Y-131725942D01*
X54015815Y-132119551D01*
X55042202Y-132120447D01*
X55990803Y-131728493D01*
X56717202Y-131003361D01*
X56733131Y-130965000D01*
X57327214Y-130965000D01*
X57341487Y-130999543D01*
X57661948Y-131320564D01*
X55807512Y-133175000D01*
X35083254Y-133175000D01*
X37039254Y-131219000D01*
X37560601Y-131219000D01*
X38066659Y-131725942D01*
X39014575Y-132119551D01*
X40040962Y-132120447D01*
X40989563Y-131728493D01*
X41499946Y-131219000D01*
X41562020Y-131219000D01*
X42107344Y-131110528D01*
X42325142Y-130965000D01*
X42325974Y-130965000D01*
X42340247Y-130999543D01*
X43065379Y-131725942D01*
X44013295Y-132119551D01*
X45039682Y-132120447D01*
X45988283Y-131728493D01*
X46714682Y-131003361D01*
X47108291Y-130055445D01*
X47109187Y-129029058D01*
X46717233Y-128080457D01*
X45992101Y-127354058D01*
X45044185Y-126960449D01*
X44017798Y-126959553D01*
X43069197Y-127351507D01*
X42342798Y-128076639D01*
X42326869Y-128115000D01*
X41732786Y-128115000D01*
X41718513Y-128080457D01*
X40993381Y-127354058D01*
X40045465Y-126960449D01*
X39019078Y-126959553D01*
X38070477Y-127351507D01*
X37344078Y-128076639D01*
X37328149Y-128115000D01*
X36703000Y-128115000D01*
X36157676Y-128223472D01*
X35695373Y-128532373D01*
X31794746Y-132433000D01*
X28095000Y-132433000D01*
X28095000Y-130523960D01*
X28291507Y-130999543D01*
X29016639Y-131725942D01*
X29964555Y-132119551D01*
X30990942Y-132120447D01*
X31939543Y-131728493D01*
X32665942Y-131003361D01*
X33059551Y-130055445D01*
X33060447Y-129029058D01*
X33044625Y-128990765D01*
X37266084Y-124769670D01*
X37266101Y-124769644D01*
X37266127Y-124769627D01*
X37419739Y-124539731D01*
X37575005Y-124307380D01*
X37575011Y-124307349D01*
X37575028Y-124307324D01*
X37628636Y-124037821D01*
X37683500Y-123762061D01*
X37683494Y-123762030D01*
X37683500Y-123762000D01*
X37683500Y-118253000D01*
X38507276Y-118253000D01*
X38507276Y-120253000D01*
X38554343Y-120503140D01*
X38702176Y-120732879D01*
X38927742Y-120887002D01*
X39195500Y-120941224D01*
X40243655Y-120941224D01*
X40313216Y-121010785D01*
X40477841Y-121120784D01*
X40645749Y-121232977D01*
X41038000Y-121311000D01*
X44613669Y-121311000D01*
X44640113Y-121375000D01*
X45181151Y-121916984D01*
X45888414Y-122210665D01*
X46654226Y-122211333D01*
X47362000Y-121918887D01*
X47903984Y-121377849D01*
X47951346Y-121263789D01*
X48106251Y-121232977D01*
X48438784Y-121010784D01*
X52724784Y-116724785D01*
X52946977Y-116392251D01*
X52949685Y-116378637D01*
X53025000Y-116000000D01*
X53025000Y-109424568D01*
X59224784Y-103224785D01*
X59446977Y-102892251D01*
X59525000Y-102500000D01*
X59525000Y-101127769D01*
X59647687Y-101250670D01*
X60446754Y-101582471D01*
X61311970Y-101583226D01*
X62111615Y-101252820D01*
X62723950Y-100641553D01*
X63055751Y-99842486D01*
X63056506Y-98977270D01*
X62726100Y-98177625D01*
X62114833Y-97565290D01*
X61315766Y-97233489D01*
X60450550Y-97232734D01*
X60052267Y-97397301D01*
X63460569Y-93989000D01*
X67901432Y-93989000D01*
X69841000Y-95928569D01*
X69841000Y-102699431D01*
X65061216Y-107479216D01*
X64839023Y-107811749D01*
X64761000Y-108204000D01*
X64761000Y-116840000D01*
X64834547Y-117209749D01*
X64839023Y-117232251D01*
X65061216Y-117564784D01*
X70721216Y-123224785D01*
X70910725Y-123351411D01*
X71053749Y-123446977D01*
X71446000Y-123525000D01*
X78510000Y-123525000D01*
X78510000Y-125042817D01*
X78509860Y-125042843D01*
X78280121Y-125190676D01*
X78125998Y-125416242D01*
X78071776Y-125684000D01*
X78071776Y-126284000D01*
X78118843Y-126534140D01*
X78172718Y-126617865D01*
X78125998Y-126686242D01*
X78071776Y-126954000D01*
X78071776Y-127554000D01*
X78118843Y-127804140D01*
X78172718Y-127887865D01*
X78125998Y-127956242D01*
X78071776Y-128224000D01*
X78071776Y-128824000D01*
X78118843Y-129074140D01*
X78164955Y-129145800D01*
X78077000Y-129358143D01*
X78077000Y-129544250D01*
X78247750Y-129715000D01*
X79456000Y-129715000D01*
X79456000Y-129695000D01*
X79614000Y-129695000D01*
X79614000Y-129715000D01*
X79634000Y-129715000D01*
X79634000Y-129873000D01*
X79614000Y-129873000D01*
X79614000Y-130606250D01*
X79784750Y-130777000D01*
X80445857Y-130777000D01*
X80696888Y-130673019D01*
X80735288Y-130634619D01*
X81000000Y-130688224D01*
X82397035Y-130688224D01*
X82550740Y-130790926D01*
X82646018Y-130854589D01*
X83000000Y-130925001D01*
X83000005Y-130925000D01*
X83224840Y-130925000D01*
X83356676Y-131129879D01*
X83582242Y-131284002D01*
X83822472Y-131332649D01*
X83766395Y-131355877D01*
X83717419Y-131605697D01*
X84500000Y-132388277D01*
X85282581Y-131605697D01*
X85233605Y-131355877D01*
X85176087Y-131333315D01*
X85400140Y-131291157D01*
X85629879Y-131143324D01*
X85784002Y-130917758D01*
X85838224Y-130650000D01*
X85838224Y-129350000D01*
X85791157Y-129099860D01*
X85643324Y-128870121D01*
X85417758Y-128715998D01*
X85150000Y-128661776D01*
X83850000Y-128661776D01*
X83688224Y-128692216D01*
X83688224Y-128279000D01*
X92829432Y-128279000D01*
X95925000Y-131374569D01*
X95925000Y-138167000D01*
X94897276Y-138167000D01*
X94884028Y-138157948D01*
X94616270Y-138103726D01*
X93816170Y-138103726D01*
X93566030Y-138150793D01*
X93336291Y-138298626D01*
X93243285Y-138434745D01*
X93129540Y-138321000D01*
X92296240Y-138321000D01*
X92296240Y-138341000D01*
X92138240Y-138341000D01*
X92138240Y-138321000D01*
X91304940Y-138321000D01*
X91134190Y-138491750D01*
X91134190Y-138777907D01*
X91238171Y-139028938D01*
X91326233Y-139117000D01*
X91244469Y-139117000D01*
X91194584Y-138996268D01*
X90723810Y-138524672D01*
X90108400Y-138269132D01*
X89442044Y-138268550D01*
X88826188Y-138523016D01*
X88354592Y-138993790D01*
X88099052Y-139609200D01*
X88098470Y-140275556D01*
X88352936Y-140891412D01*
X88823710Y-141363008D01*
X89439120Y-141618548D01*
X90105476Y-141619130D01*
X90721332Y-141364664D01*
X90919341Y-141167000D01*
X91134190Y-141167000D01*
X91134190Y-141421250D01*
X91304940Y-141592000D01*
X92138240Y-141592000D01*
X92138240Y-141572000D01*
X92296240Y-141572000D01*
X92296240Y-141592000D01*
X93129540Y-141592000D01*
X93300290Y-141421250D01*
X93300290Y-141135093D01*
X93197912Y-140887932D01*
X93251292Y-140809808D01*
X93305514Y-140542050D01*
X93305514Y-140044994D01*
X93322846Y-140071929D01*
X93548412Y-140226052D01*
X93816170Y-140280274D01*
X94616270Y-140280274D01*
X94866410Y-140233207D01*
X94891596Y-140217000D01*
X95511776Y-140217000D01*
X95511776Y-140762000D01*
X95558843Y-141012140D01*
X95612718Y-141095865D01*
X95565998Y-141164242D01*
X95511776Y-141432000D01*
X95511776Y-141756560D01*
X95388251Y-141674023D01*
X94996000Y-141596000D01*
X94897276Y-141596000D01*
X94884028Y-141586948D01*
X94616270Y-141532726D01*
X93816170Y-141532726D01*
X93566030Y-141579793D01*
X93336291Y-141727626D01*
X93243285Y-141863745D01*
X93129540Y-141750000D01*
X92296240Y-141750000D01*
X92296240Y-141770000D01*
X92138240Y-141770000D01*
X92138240Y-141750000D01*
X91304940Y-141750000D01*
X91134190Y-141920750D01*
X91134190Y-142206907D01*
X91220703Y-142415766D01*
X90784770Y-141979072D01*
X90169360Y-141723532D01*
X89503004Y-141722950D01*
X88887148Y-141977416D01*
X88415552Y-142448190D01*
X88160012Y-143063600D01*
X88159430Y-143729956D01*
X88413896Y-144345812D01*
X88884670Y-144817408D01*
X89500080Y-145072948D01*
X90166436Y-145073530D01*
X90782292Y-144819064D01*
X91005745Y-144596000D01*
X91147276Y-144596000D01*
X91134190Y-144627593D01*
X91134190Y-144913750D01*
X91304940Y-145084500D01*
X92138240Y-145084500D01*
X92138240Y-145064500D01*
X92296240Y-145064500D01*
X92296240Y-145084500D01*
X93129540Y-145084500D01*
X93300290Y-144913750D01*
X93300290Y-144627593D01*
X93196309Y-144376562D01*
X93173056Y-144353309D01*
X93251292Y-144238808D01*
X93305514Y-143971050D01*
X93305514Y-143473994D01*
X93322846Y-143500929D01*
X93548412Y-143655052D01*
X93816170Y-143709274D01*
X94616270Y-143709274D01*
X94631786Y-143706355D01*
X94652215Y-143726784D01*
X94914819Y-143902251D01*
X94984749Y-143948977D01*
X95377000Y-144027000D01*
X95511776Y-144027000D01*
X95511776Y-144517000D01*
X95313500Y-144517000D01*
X94921249Y-144595023D01*
X94588716Y-144817216D01*
X94380706Y-145025226D01*
X93816170Y-145025226D01*
X93566030Y-145072293D01*
X93336291Y-145220126D01*
X93243285Y-145356245D01*
X93129540Y-145242500D01*
X92296240Y-145242500D01*
X92296240Y-145262500D01*
X92138240Y-145262500D01*
X92138240Y-145242500D01*
X91304940Y-145242500D01*
X91134190Y-145413250D01*
X91134190Y-145699407D01*
X91193653Y-145842962D01*
X90845730Y-145494432D01*
X90230320Y-145238892D01*
X89563964Y-145238310D01*
X88948108Y-145492776D01*
X88476512Y-145963550D01*
X88220972Y-146578960D01*
X88220390Y-147245316D01*
X88474856Y-147861172D01*
X88945630Y-148332768D01*
X89561040Y-148588308D01*
X90227396Y-148588890D01*
X90843252Y-148334424D01*
X91079667Y-148098421D01*
X91070690Y-148120093D01*
X91070690Y-148406250D01*
X91241440Y-148577000D01*
X92074740Y-148577000D01*
X92074740Y-148557000D01*
X92232740Y-148557000D01*
X92232740Y-148577000D01*
X93066040Y-148577000D01*
X93236790Y-148406250D01*
X93236790Y-148120093D01*
X93142003Y-147891258D01*
X93251292Y-147731308D01*
X93305514Y-147463550D01*
X93305514Y-146966494D01*
X93322846Y-146993429D01*
X93548412Y-147147552D01*
X93816170Y-147201774D01*
X94616270Y-147201774D01*
X94866410Y-147154707D01*
X94958529Y-147095430D01*
X95134251Y-147060477D01*
X95466784Y-146838284D01*
X95511776Y-146793292D01*
X95511776Y-147112000D01*
X95515265Y-147130544D01*
X95492749Y-147135023D01*
X95160215Y-147357216D01*
X93999706Y-148517726D01*
X93752670Y-148517726D01*
X93502530Y-148564793D01*
X93272791Y-148712626D01*
X93179785Y-148848745D01*
X93066040Y-148735000D01*
X92232740Y-148735000D01*
X92232740Y-148755000D01*
X92074740Y-148755000D01*
X92074740Y-148735000D01*
X91241440Y-148735000D01*
X91070690Y-148905750D01*
X91070690Y-149191907D01*
X91174671Y-149442938D01*
X91262733Y-149531000D01*
X91194763Y-149531000D01*
X91174264Y-149481388D01*
X90703490Y-149009792D01*
X90088080Y-148754252D01*
X89421724Y-148753670D01*
X88805868Y-149008136D01*
X88334272Y-149478910D01*
X88078732Y-150094320D01*
X88078150Y-150760676D01*
X88332616Y-151376532D01*
X88803390Y-151848128D01*
X89418800Y-152103668D01*
X90085156Y-152104250D01*
X90701012Y-151849784D01*
X90970265Y-151581000D01*
X91472684Y-151581000D01*
X91485932Y-151590052D01*
X91753690Y-151644274D01*
X92553790Y-151644274D01*
X92803930Y-151597207D01*
X93033669Y-151449374D01*
X93187792Y-151223808D01*
X93242014Y-150956050D01*
X93242014Y-150458994D01*
X93259346Y-150485929D01*
X93484912Y-150640052D01*
X93752670Y-150694274D01*
X94552770Y-150694274D01*
X94802910Y-150647207D01*
X95032649Y-150499374D01*
X95186772Y-150273808D01*
X95197948Y-150218620D01*
X95925000Y-149491569D01*
X95925000Y-150783431D01*
X94571432Y-152137000D01*
X86530569Y-152137000D01*
X86229938Y-151836370D01*
X86230307Y-151413480D01*
X85960649Y-150760857D01*
X85480000Y-150279369D01*
X85480000Y-149021800D01*
X85401977Y-148629549D01*
X85374809Y-148588890D01*
X85179784Y-148297015D01*
X83956000Y-147073232D01*
X83956000Y-140549828D01*
X84434894Y-140071769D01*
X84705691Y-139419618D01*
X84706307Y-138713480D01*
X84436649Y-138060857D01*
X84082504Y-137706093D01*
X91134190Y-137706093D01*
X91134190Y-137992250D01*
X91304940Y-138163000D01*
X92138240Y-138163000D01*
X92138240Y-137329700D01*
X92296240Y-137329700D01*
X92296240Y-138163000D01*
X93129540Y-138163000D01*
X93300290Y-137992250D01*
X93300290Y-137706093D01*
X93196309Y-137455062D01*
X93004179Y-137262931D01*
X92753147Y-137158950D01*
X92466990Y-137158950D01*
X92296240Y-137329700D01*
X92138240Y-137329700D01*
X91967490Y-137158950D01*
X91681333Y-137158950D01*
X91430301Y-137262931D01*
X91238171Y-137455062D01*
X91134190Y-137706093D01*
X84082504Y-137706093D01*
X83937769Y-137561106D01*
X83285618Y-137290309D01*
X82579480Y-137289693D01*
X81926857Y-137559351D01*
X81427106Y-138058231D01*
X81156309Y-138710382D01*
X81155693Y-139416520D01*
X81425351Y-140069143D01*
X81906000Y-140550631D01*
X81906000Y-147497800D01*
X81972526Y-147832250D01*
X81984023Y-147890051D01*
X82206216Y-148222584D01*
X83430000Y-149446369D01*
X83430000Y-150280172D01*
X82951106Y-150758231D01*
X82680309Y-151410382D01*
X82679834Y-151955128D01*
X82658649Y-151903857D01*
X82178000Y-151422369D01*
X82178000Y-150749000D01*
X82099977Y-150356749D01*
X82082628Y-150330784D01*
X81877784Y-150024215D01*
X80480784Y-148627216D01*
X80148251Y-148405023D01*
X79756000Y-148327000D01*
X76160828Y-148327000D01*
X75682769Y-147848106D01*
X75030618Y-147577309D01*
X74324480Y-147576693D01*
X73671857Y-147846351D01*
X73172106Y-148345231D01*
X72901309Y-148997382D01*
X72900693Y-149703520D01*
X73170351Y-150356143D01*
X73669231Y-150855894D01*
X74321382Y-151126691D01*
X75027520Y-151127307D01*
X75680143Y-150857649D01*
X76161631Y-150377000D01*
X79331432Y-150377000D01*
X80128000Y-151173569D01*
X80128000Y-151423172D01*
X79649106Y-151901231D01*
X79528275Y-152192224D01*
X79356649Y-151776857D01*
X78857769Y-151277106D01*
X78205618Y-151006309D01*
X77499480Y-151005693D01*
X76846857Y-151275351D01*
X76347106Y-151774231D01*
X76076309Y-152426382D01*
X76075693Y-153132520D01*
X76345351Y-153785143D01*
X76826000Y-154266631D01*
X76826000Y-154388431D01*
X76791432Y-154423000D01*
X76160828Y-154423000D01*
X75682769Y-153944106D01*
X75030618Y-153673309D01*
X74324480Y-153672693D01*
X73671857Y-153942351D01*
X73172106Y-154441231D01*
X72901309Y-155093382D01*
X72900693Y-155799520D01*
X73170351Y-156452143D01*
X73669231Y-156951894D01*
X74321382Y-157222691D01*
X75027520Y-157223307D01*
X75680143Y-156953649D01*
X76161631Y-156473000D01*
X77216000Y-156473000D01*
X77608251Y-156394977D01*
X77940784Y-156172784D01*
X78168500Y-155945068D01*
X78904216Y-156680785D01*
X79103555Y-156813979D01*
X79236749Y-156902977D01*
X79629000Y-156981000D01*
X87008358Y-156981000D01*
X86996106Y-156993231D01*
X86725309Y-157645382D01*
X86724693Y-158351520D01*
X86994351Y-159004143D01*
X87493231Y-159503894D01*
X88145382Y-159774691D01*
X88838137Y-159775295D01*
X88810218Y-159803214D01*
X88810215Y-159803216D01*
X88302216Y-160311216D01*
X88080023Y-160643749D01*
X88002000Y-161036000D01*
X88002000Y-161744776D01*
X87757000Y-161744776D01*
X87506860Y-161791843D01*
X87277121Y-161939676D01*
X87122998Y-162165242D01*
X87068776Y-162433000D01*
X87068776Y-164973000D01*
X87115843Y-165223140D01*
X87263676Y-165452879D01*
X87489242Y-165607002D01*
X87757000Y-165661224D01*
X90297000Y-165661224D01*
X90547140Y-165614157D01*
X90776879Y-165466324D01*
X90931002Y-165240758D01*
X90985224Y-164973000D01*
X90985224Y-162433000D01*
X90938157Y-162182860D01*
X90790324Y-161953121D01*
X90564758Y-161798998D01*
X90297000Y-161744776D01*
X90052000Y-161744776D01*
X90052000Y-161460569D01*
X90259784Y-161252785D01*
X90259786Y-161252782D01*
X91991568Y-159521000D01*
X95631000Y-159521000D01*
X96023251Y-159442977D01*
X96355784Y-159220784D01*
X97325569Y-158251000D01*
X102619967Y-158251000D01*
X102353546Y-158429017D01*
X102020019Y-158928174D01*
X101902900Y-159516971D01*
X101902900Y-159791531D01*
X101365932Y-160328500D01*
X100572031Y-160328500D01*
X100526657Y-160087360D01*
X100378824Y-159857621D01*
X100153258Y-159703498D01*
X99885500Y-159649276D01*
X97853500Y-159649276D01*
X97603360Y-159696343D01*
X97373621Y-159844176D01*
X97219498Y-160069742D01*
X97167099Y-160328500D01*
X94678500Y-160328500D01*
X94294610Y-160404860D01*
X94286249Y-160406523D01*
X93953716Y-160628716D01*
X93382216Y-161200216D01*
X93160023Y-161532749D01*
X93082000Y-161925000D01*
X93082000Y-162022028D01*
X93006685Y-162053148D01*
X92459071Y-162599807D01*
X92162338Y-163314418D01*
X92161663Y-164088187D01*
X92457148Y-164803315D01*
X93003807Y-165350929D01*
X93718418Y-165647662D01*
X94492187Y-165648337D01*
X95207315Y-165352852D01*
X95754929Y-164806193D01*
X95991269Y-164237022D01*
X97205591Y-164237022D01*
X97450027Y-164827158D01*
X97915373Y-165299296D01*
X98525977Y-165557415D01*
X98790500Y-165419918D01*
X98790500Y-163972500D01*
X98948500Y-163972500D01*
X98948500Y-165419918D01*
X99213023Y-165557415D01*
X99823627Y-165299296D01*
X100288973Y-164827158D01*
X100406257Y-164544000D01*
X102250500Y-164544000D01*
X102250500Y-164798000D01*
X102410061Y-165442166D01*
X102803987Y-165976236D01*
X103372307Y-166318903D01*
X103605978Y-166382909D01*
X103870500Y-166245207D01*
X103870500Y-164544000D01*
X102250500Y-164544000D01*
X100406257Y-164544000D01*
X100533409Y-164237022D01*
X100478738Y-164132000D01*
X102250500Y-164132000D01*
X102250500Y-164386000D01*
X103870500Y-164386000D01*
X103870500Y-162684793D01*
X103605978Y-162547091D01*
X103372307Y-162611097D01*
X102803987Y-162953764D01*
X102410061Y-163487834D01*
X102250500Y-164132000D01*
X100478738Y-164132000D01*
X100395707Y-163972500D01*
X98948500Y-163972500D01*
X98790500Y-163972500D01*
X97343293Y-163972500D01*
X97205591Y-164237022D01*
X95991269Y-164237022D01*
X96051662Y-164091582D01*
X96052337Y-163317813D01*
X95756852Y-162602685D01*
X95533058Y-162378500D01*
X97166969Y-162378500D01*
X97212343Y-162619640D01*
X97360176Y-162849379D01*
X97478928Y-162930519D01*
X97450027Y-162959842D01*
X97205591Y-163549978D01*
X97343293Y-163814500D01*
X98790500Y-163814500D01*
X98790500Y-163794500D01*
X98948500Y-163794500D01*
X98948500Y-163814500D01*
X100395707Y-163814500D01*
X100533409Y-163549978D01*
X100288973Y-162959842D01*
X100260113Y-162930561D01*
X100365379Y-162862824D01*
X100519502Y-162637258D01*
X100571901Y-162378500D01*
X101790500Y-162378500D01*
X102182751Y-162300477D01*
X102515284Y-162078284D01*
X103212492Y-161381076D01*
X103441500Y-161426629D01*
X104030297Y-161309510D01*
X104529454Y-160975983D01*
X104711500Y-160703533D01*
X104893546Y-160975983D01*
X104956500Y-161018048D01*
X104956500Y-162623500D01*
X105012269Y-162903874D01*
X104526693Y-162611097D01*
X104293022Y-162547091D01*
X104028500Y-162684793D01*
X104028500Y-164386000D01*
X104048500Y-164386000D01*
X104048500Y-164544000D01*
X104028500Y-164544000D01*
X104028500Y-166245207D01*
X104293022Y-166382909D01*
X104526693Y-166318903D01*
X105095013Y-165976236D01*
X105207513Y-165823712D01*
X105293782Y-165952823D01*
X105842382Y-166319385D01*
X106489500Y-166448105D01*
X107136618Y-166319385D01*
X107685218Y-165952823D01*
X107759500Y-165841652D01*
X107833782Y-165952823D01*
X108382382Y-166319385D01*
X109029500Y-166448105D01*
X109676618Y-166319385D01*
X110225218Y-165952823D01*
X110436849Y-165636093D01*
X114132531Y-165636093D01*
X114543779Y-166631389D01*
X115304606Y-167393545D01*
X116299182Y-167806529D01*
X117376093Y-167807469D01*
X118371389Y-167396221D01*
X119133545Y-166635394D01*
X119546529Y-165640818D01*
X119547469Y-164563907D01*
X119136221Y-163568611D01*
X118375394Y-162806455D01*
X117380818Y-162393471D01*
X116303907Y-162392531D01*
X115308611Y-162803779D01*
X114546455Y-163564606D01*
X114133471Y-164559182D01*
X114132531Y-165636093D01*
X110436849Y-165636093D01*
X110591780Y-165404223D01*
X110720500Y-164757105D01*
X110720500Y-164223568D01*
X112375069Y-162569000D01*
X115570000Y-162569000D01*
X115962251Y-162490977D01*
X116294784Y-162268784D01*
X117327535Y-161236033D01*
X117755382Y-161413691D01*
X118461520Y-161414307D01*
X119114143Y-161144649D01*
X119613894Y-160645769D01*
X119884691Y-159993618D01*
X119885307Y-159287480D01*
X119615649Y-158634857D01*
X119116769Y-158135106D01*
X119058393Y-158110866D01*
X119056977Y-158103749D01*
X118834784Y-157771216D01*
X115515500Y-154451932D01*
X115515500Y-150900328D01*
X115717926Y-150698254D01*
X117002469Y-150698254D01*
X117106369Y-150994783D01*
X117762831Y-151263474D01*
X118472146Y-151260495D01*
X119113631Y-150994783D01*
X119217531Y-150698254D01*
X118110000Y-149590723D01*
X117002469Y-150698254D01*
X115717926Y-150698254D01*
X115994394Y-150422269D01*
X116265191Y-149770118D01*
X116265747Y-149131831D01*
X116325526Y-149131831D01*
X116328505Y-149841146D01*
X116594217Y-150482631D01*
X116890746Y-150586531D01*
X117998277Y-149479000D01*
X118221723Y-149479000D01*
X119329254Y-150586531D01*
X119625783Y-150482631D01*
X119894474Y-149826169D01*
X119891495Y-149116854D01*
X119625783Y-148475369D01*
X119329254Y-148371469D01*
X118221723Y-149479000D01*
X117998277Y-149479000D01*
X116890746Y-148371469D01*
X116594217Y-148475369D01*
X116325526Y-149131831D01*
X116265747Y-149131831D01*
X116265807Y-149063980D01*
X115996149Y-148411357D01*
X115844803Y-148259746D01*
X117002469Y-148259746D01*
X118110000Y-149367277D01*
X119217531Y-148259746D01*
X119113631Y-147963217D01*
X118457169Y-147694526D01*
X117747854Y-147697505D01*
X117106369Y-147963217D01*
X117002469Y-148259746D01*
X115844803Y-148259746D01*
X115497269Y-147911606D01*
X114845118Y-147640809D01*
X114138980Y-147640193D01*
X113486357Y-147909851D01*
X112986606Y-148408731D01*
X112715809Y-149060882D01*
X112715193Y-149767020D01*
X112984851Y-150419643D01*
X113465500Y-150901131D01*
X113465500Y-154876500D01*
X113481747Y-154958179D01*
X113373784Y-154850216D01*
X113041251Y-154628023D01*
X112649000Y-154550000D01*
X103040569Y-154550000D01*
X102151002Y-153660434D01*
X102151002Y-148331750D01*
X104817000Y-148331750D01*
X104817000Y-148517857D01*
X104920981Y-148768889D01*
X105113112Y-148961019D01*
X105364143Y-149065000D01*
X106000250Y-149065000D01*
X106171000Y-148894250D01*
X106171000Y-148161000D01*
X106329000Y-148161000D01*
X106329000Y-148894250D01*
X106499750Y-149065000D01*
X107135857Y-149065000D01*
X107386888Y-148961019D01*
X107579019Y-148768889D01*
X107683000Y-148517857D01*
X107683000Y-148331750D01*
X107512250Y-148161000D01*
X106329000Y-148161000D01*
X106171000Y-148161000D01*
X104987750Y-148161000D01*
X104817000Y-148331750D01*
X102151002Y-148331750D01*
X102151002Y-142020002D01*
X102072979Y-141627751D01*
X101975758Y-141482250D01*
X101850786Y-141295217D01*
X99958000Y-139402432D01*
X99958000Y-130810000D01*
X99879977Y-130417749D01*
X99779756Y-130267758D01*
X99657785Y-130085216D01*
X94703568Y-125131000D01*
X99692852Y-125131000D01*
X103480702Y-128918850D01*
X102843618Y-128654309D01*
X102137480Y-128653693D01*
X101484857Y-128923351D01*
X100985106Y-129422231D01*
X100714309Y-130074382D01*
X100713693Y-130780520D01*
X100983351Y-131433143D01*
X101118802Y-131568830D01*
X100669476Y-132018156D01*
X100447283Y-132350689D01*
X100369260Y-132742940D01*
X100369260Y-135509000D01*
X100436859Y-135848847D01*
X100447283Y-135901251D01*
X100669476Y-136233784D01*
X101943776Y-137508085D01*
X101943776Y-137855200D01*
X101990843Y-138105340D01*
X102138676Y-138335079D01*
X102364242Y-138489202D01*
X102607000Y-138538361D01*
X102607000Y-139496800D01*
X102661148Y-139769023D01*
X102685023Y-139889051D01*
X102907216Y-140221584D01*
X103872416Y-141186784D01*
X104204949Y-141408977D01*
X104597200Y-141487000D01*
X104821750Y-141487000D01*
X104987750Y-141653000D01*
X106171000Y-141653000D01*
X106171000Y-141633000D01*
X106329000Y-141633000D01*
X106329000Y-141653000D01*
X107512250Y-141653000D01*
X107683000Y-141482250D01*
X107683000Y-141296143D01*
X107595811Y-141085652D01*
X107634002Y-141029758D01*
X107688224Y-140762000D01*
X107688224Y-140162000D01*
X107641157Y-139911860D01*
X107587282Y-139828135D01*
X107634002Y-139759758D01*
X107688224Y-139492000D01*
X107688224Y-138892000D01*
X107641157Y-138641860D01*
X107493324Y-138412121D01*
X107459434Y-138388965D01*
X107485332Y-138378264D01*
X107956928Y-137907490D01*
X108098952Y-137565458D01*
X108195977Y-137420250D01*
X108196565Y-137417292D01*
X108198229Y-137414771D01*
X108235589Y-137221103D01*
X108273999Y-137028000D01*
X108273411Y-137025043D01*
X108273983Y-137022076D01*
X108234408Y-136828957D01*
X108212967Y-136721163D01*
X108213050Y-136625724D01*
X107958584Y-136009868D01*
X107954915Y-136006193D01*
X108116779Y-135844328D01*
X108220760Y-135593297D01*
X108220760Y-134707190D01*
X108050010Y-134536440D01*
X106616760Y-134536440D01*
X106616760Y-134556440D01*
X106458760Y-134556440D01*
X106458760Y-134536440D01*
X106438760Y-134536440D01*
X106438760Y-134378440D01*
X106458760Y-134378440D01*
X106458760Y-132945190D01*
X106288010Y-132774440D01*
X105401903Y-132774440D01*
X105150871Y-132878421D01*
X104958741Y-133070552D01*
X104854760Y-133321583D01*
X104854760Y-133344112D01*
X104779069Y-133319854D01*
X103743723Y-134355200D01*
X103757865Y-134369342D01*
X103646142Y-134481065D01*
X103632000Y-134466923D01*
X103617858Y-134481065D01*
X103506135Y-134369342D01*
X103520277Y-134355200D01*
X103506135Y-134341058D01*
X103617858Y-134229335D01*
X103632000Y-134243477D01*
X104667346Y-133208131D01*
X104575642Y-132921986D01*
X103955344Y-132669967D01*
X103285820Y-132674509D01*
X102688358Y-132921986D01*
X102596655Y-133208129D01*
X102487647Y-133099121D01*
X103963084Y-131623685D01*
X104185277Y-131291151D01*
X104263299Y-130898900D01*
X104247922Y-130821594D01*
X104263691Y-130783618D01*
X104264307Y-130077480D01*
X104000239Y-129438387D01*
X107336293Y-132774440D01*
X106787510Y-132774440D01*
X106616760Y-132945190D01*
X106616760Y-134378440D01*
X108050010Y-134378440D01*
X108220760Y-134207690D01*
X108220760Y-133658907D01*
X109057000Y-134495147D01*
X109057000Y-141856852D01*
X108836852Y-142077000D01*
X107683000Y-142077000D01*
X107683000Y-141981750D01*
X107512250Y-141811000D01*
X106329000Y-141811000D01*
X106329000Y-141831000D01*
X106171000Y-141831000D01*
X106171000Y-141811000D01*
X104987750Y-141811000D01*
X104817000Y-141981750D01*
X104817000Y-142167857D01*
X104904189Y-142378348D01*
X104865998Y-142434242D01*
X104811776Y-142702000D01*
X104811776Y-143302000D01*
X104858843Y-143552140D01*
X104912718Y-143635865D01*
X104865998Y-143704242D01*
X104811776Y-143972000D01*
X104811776Y-144572000D01*
X104858843Y-144822140D01*
X104912718Y-144905865D01*
X104865998Y-144974242D01*
X104811776Y-145242000D01*
X104811776Y-145842000D01*
X104858843Y-146092140D01*
X104912718Y-146175865D01*
X104865998Y-146244242D01*
X104811776Y-146512000D01*
X104811776Y-147112000D01*
X104858843Y-147362140D01*
X104904955Y-147433800D01*
X104817000Y-147646143D01*
X104817000Y-147832250D01*
X104987750Y-148003000D01*
X106171000Y-148003000D01*
X106171000Y-147983000D01*
X106329000Y-147983000D01*
X106329000Y-148003000D01*
X107512250Y-148003000D01*
X107683000Y-147832250D01*
X107683000Y-147737000D01*
X110134400Y-147737000D01*
X110488382Y-147666589D01*
X110788474Y-147466074D01*
X110839621Y-147389527D01*
X113811074Y-144418074D01*
X114011589Y-144117983D01*
X114082000Y-143764000D01*
X114082000Y-142074568D01*
X114246776Y-142239344D01*
X114246776Y-145415000D01*
X114293843Y-145665140D01*
X114441676Y-145894879D01*
X114667242Y-146049002D01*
X114935000Y-146103224D01*
X118745000Y-146103224D01*
X118995140Y-146056157D01*
X119224879Y-145908324D01*
X119379002Y-145682758D01*
X119433224Y-145415000D01*
X119433224Y-141605000D01*
X119386157Y-141354860D01*
X119238324Y-141125121D01*
X119012758Y-140970998D01*
X118745000Y-140916776D01*
X117577643Y-140916776D01*
X118299543Y-140618493D01*
X119025942Y-139893361D01*
X119419551Y-138945445D01*
X119420447Y-137919058D01*
X119197840Y-137380308D01*
X120034071Y-136544076D01*
X120034074Y-136544074D01*
X120234589Y-136243982D01*
X120305000Y-135890000D01*
X120305000Y-131445000D01*
X120234589Y-131091018D01*
X120034074Y-130790926D01*
X120034071Y-130790924D01*
X119797000Y-130553853D01*
X119797000Y-124714000D01*
X119726589Y-124360018D01*
X119526074Y-124059926D01*
X111669000Y-116202852D01*
X111669000Y-98552005D01*
X111669001Y-98552000D01*
X111598589Y-98198018D01*
X111495771Y-98044140D01*
X111398074Y-97897926D01*
X111398071Y-97897924D01*
X102466074Y-88965926D01*
X102165983Y-88765411D01*
X101812000Y-88695000D01*
X99625869Y-88695000D01*
X99675000Y-88448000D01*
X99675000Y-86600151D01*
X99697572Y-86590824D01*
X100169168Y-86120050D01*
X100424708Y-85504640D01*
X100425290Y-84838284D01*
X100170824Y-84222428D01*
X99700050Y-83750832D01*
X99084640Y-83495292D01*
X98418284Y-83494710D01*
X97802428Y-83749176D01*
X97330832Y-84219950D01*
X97075292Y-84835360D01*
X97074710Y-85501716D01*
X97329176Y-86117572D01*
X97799950Y-86589168D01*
X97825000Y-86599570D01*
X97825000Y-88064852D01*
X97194852Y-88695000D01*
X96772366Y-88695000D01*
X96663483Y-88532046D01*
X96391033Y-88350000D01*
X96663483Y-88167954D01*
X96997010Y-87668797D01*
X97114129Y-87080000D01*
X96997010Y-86491203D01*
X96663483Y-85992046D01*
X96391033Y-85810000D01*
X96663483Y-85627954D01*
X96997010Y-85128797D01*
X97114129Y-84540000D01*
X96997010Y-83951203D01*
X96663483Y-83452046D01*
X96391033Y-83270000D01*
X96663483Y-83087954D01*
X96997010Y-82588797D01*
X97114129Y-82000000D01*
X96997010Y-81411203D01*
X96663483Y-80912046D01*
X96164326Y-80578519D01*
X95575529Y-80461400D01*
X95204471Y-80461400D01*
X94615674Y-80578519D01*
X94570056Y-80609000D01*
X92636224Y-80609000D01*
X92636224Y-80518000D01*
X92589157Y-80267860D01*
X92441324Y-80038121D01*
X92215758Y-79883998D01*
X91948000Y-79829776D01*
X89916000Y-79829776D01*
X89665860Y-79876843D01*
X89436121Y-80024676D01*
X89281998Y-80250242D01*
X89227776Y-80518000D01*
X89227776Y-82550000D01*
X89274843Y-82800140D01*
X89422676Y-83029879D01*
X89545695Y-83113935D01*
X89336591Y-83426882D01*
X89207871Y-84074000D01*
X89336591Y-84721118D01*
X89703153Y-85269718D01*
X90251753Y-85636280D01*
X90898871Y-85765000D01*
X90965129Y-85765000D01*
X91612247Y-85636280D01*
X91868586Y-85465000D01*
X94007634Y-85465000D01*
X94116517Y-85627954D01*
X94388967Y-85810000D01*
X94116517Y-85992046D01*
X94074452Y-86055000D01*
X93768000Y-86055000D01*
X93375749Y-86133023D01*
X93242555Y-86222021D01*
X93043216Y-86355215D01*
X89953216Y-89445216D01*
X89731023Y-89777749D01*
X89653000Y-90170000D01*
X89653000Y-101175432D01*
X86905216Y-103923216D01*
X86683023Y-104255749D01*
X86605000Y-104648000D01*
X86605000Y-111843431D01*
X84111216Y-114337216D01*
X83889023Y-114669749D01*
X83811000Y-115062000D01*
X83811000Y-120396000D01*
X83874798Y-120716736D01*
X83889023Y-120788251D01*
X84111216Y-121120784D01*
X89127715Y-126137284D01*
X89264977Y-126229000D01*
X86009089Y-126229000D01*
X86035346Y-126147069D01*
X85000000Y-125111723D01*
X84985858Y-125125865D01*
X84874135Y-125014142D01*
X84888277Y-125000000D01*
X85111723Y-125000000D01*
X86147069Y-126035346D01*
X86433214Y-125943642D01*
X86685233Y-125323344D01*
X86680691Y-124653820D01*
X86433214Y-124056358D01*
X86147069Y-123964654D01*
X85111723Y-125000000D01*
X84888277Y-125000000D01*
X84874135Y-124985858D01*
X84985858Y-124874135D01*
X85000000Y-124888277D01*
X86035346Y-123852931D01*
X85943642Y-123566786D01*
X85323344Y-123314767D01*
X84653820Y-123319309D01*
X84056358Y-123566786D01*
X84045385Y-123601026D01*
X83993324Y-123520121D01*
X83767758Y-123365998D01*
X83500000Y-123311776D01*
X81500000Y-123311776D01*
X81249860Y-123358843D01*
X81020121Y-123506676D01*
X80865998Y-123732242D01*
X80811776Y-124000000D01*
X80811776Y-124959000D01*
X80560000Y-124959000D01*
X80560000Y-123525000D01*
X80573000Y-123525000D01*
X80965251Y-123446977D01*
X81297784Y-123224784D01*
X82474784Y-122047785D01*
X82504025Y-122004023D01*
X82547784Y-121974784D01*
X82974784Y-121547785D01*
X83196977Y-121215251D01*
X83207126Y-121164228D01*
X83275000Y-120823000D01*
X83275000Y-114008568D01*
X85052785Y-112230784D01*
X85242419Y-111946977D01*
X85274977Y-111898251D01*
X85353000Y-111506000D01*
X85353000Y-104818568D01*
X86719784Y-103451784D01*
X86941977Y-103119251D01*
X86969702Y-102979866D01*
X88974785Y-100974784D01*
X89173988Y-100676656D01*
X89196977Y-100642251D01*
X89275000Y-100250000D01*
X89275000Y-89012000D01*
X89196977Y-88619749D01*
X89124313Y-88511000D01*
X88974784Y-88287215D01*
X87639000Y-86951432D01*
X87639000Y-83820000D01*
X87560977Y-83427749D01*
X87555750Y-83419926D01*
X87338784Y-83095215D01*
X86068784Y-81825216D01*
X85736251Y-81603023D01*
X85344000Y-81525000D01*
X82434992Y-81525000D01*
X82591600Y-81460131D01*
X82716222Y-81145945D01*
X81486000Y-79915723D01*
X81471858Y-79929865D01*
X81360135Y-79818142D01*
X81374277Y-79804000D01*
X81597723Y-79804000D01*
X82827945Y-81034222D01*
X83142131Y-80909600D01*
X83439160Y-80191667D01*
X83438839Y-79414716D01*
X83142131Y-78698400D01*
X82827945Y-78573778D01*
X81597723Y-79804000D01*
X81374277Y-79804000D01*
X81360135Y-79789858D01*
X81471858Y-79678135D01*
X81486000Y-79692277D01*
X82716222Y-78462055D01*
X82638853Y-78267000D01*
X108059432Y-78267000D01*
X113275000Y-83482569D01*
X113275000Y-114300000D01*
X113336463Y-114608999D01*
X113353023Y-114692251D01*
X113575216Y-115024784D01*
X116629026Y-118078595D01*
X116642990Y-118148797D01*
X116976517Y-118647954D01*
X117475674Y-118981481D01*
X118064471Y-119098600D01*
X118435529Y-119098600D01*
X119024326Y-118981481D01*
X119523483Y-118647954D01*
X119857010Y-118148797D01*
X119974129Y-117560000D01*
X119857010Y-116971203D01*
X119523483Y-116472046D01*
X119252901Y-116291248D01*
X119611993Y-115989548D01*
X119890948Y-115452854D01*
X119915606Y-115339653D01*
X119775980Y-115099000D01*
X118329000Y-115099000D01*
X118329000Y-115119000D01*
X118171000Y-115119000D01*
X118171000Y-115099000D01*
X116724020Y-115099000D01*
X116659600Y-115210031D01*
X115325000Y-113875432D01*
X115325000Y-107400000D01*
X116525871Y-107400000D01*
X116642990Y-107988797D01*
X116976517Y-108487954D01*
X117248967Y-108670000D01*
X116976517Y-108852046D01*
X116642990Y-109351203D01*
X116525871Y-109940000D01*
X116642990Y-110528797D01*
X116976517Y-111027954D01*
X117248967Y-111210000D01*
X116976517Y-111392046D01*
X116642990Y-111891203D01*
X116525871Y-112480000D01*
X116642990Y-113068797D01*
X116976517Y-113567954D01*
X117247099Y-113748752D01*
X116888007Y-114050452D01*
X116609052Y-114587146D01*
X116584394Y-114700347D01*
X116724020Y-114941000D01*
X118171000Y-114941000D01*
X118171000Y-114921000D01*
X118329000Y-114921000D01*
X118329000Y-114941000D01*
X119775980Y-114941000D01*
X119915606Y-114700347D01*
X119890948Y-114587146D01*
X119611993Y-114050452D01*
X119252901Y-113748752D01*
X119523483Y-113567954D01*
X119857010Y-113068797D01*
X119974129Y-112480000D01*
X119857010Y-111891203D01*
X119523483Y-111392046D01*
X119251033Y-111210000D01*
X119523483Y-111027954D01*
X119857010Y-110528797D01*
X119974129Y-109940000D01*
X119857010Y-109351203D01*
X119523483Y-108852046D01*
X119251033Y-108670000D01*
X119523483Y-108487954D01*
X119857010Y-107988797D01*
X119974129Y-107400000D01*
X119857010Y-106811203D01*
X119523483Y-106312046D01*
X119252901Y-106131248D01*
X119611993Y-105829548D01*
X119890948Y-105292854D01*
X119915606Y-105179653D01*
X119775980Y-104939000D01*
X118329000Y-104939000D01*
X118329000Y-104959000D01*
X118171000Y-104959000D01*
X118171000Y-104939000D01*
X116724020Y-104939000D01*
X116584394Y-105179653D01*
X116609052Y-105292854D01*
X116888007Y-105829548D01*
X117247099Y-106131248D01*
X116976517Y-106312046D01*
X116642990Y-106811203D01*
X116525871Y-107400000D01*
X115325000Y-107400000D01*
X115325000Y-83058000D01*
X115246977Y-82665749D01*
X115173095Y-82555177D01*
X115024784Y-82333215D01*
X114691569Y-82000000D01*
X116525871Y-82000000D01*
X116642990Y-82588797D01*
X116976517Y-83087954D01*
X117248967Y-83270000D01*
X116976517Y-83452046D01*
X116642990Y-83951203D01*
X116525871Y-84540000D01*
X116642990Y-85128797D01*
X116976517Y-85627954D01*
X117248967Y-85810000D01*
X116976517Y-85992046D01*
X116642990Y-86491203D01*
X116525871Y-87080000D01*
X116642990Y-87668797D01*
X116976517Y-88167954D01*
X117248967Y-88350000D01*
X116976517Y-88532046D01*
X116642990Y-89031203D01*
X116525871Y-89620000D01*
X116642990Y-90208797D01*
X116976517Y-90707954D01*
X117248967Y-90890000D01*
X116976517Y-91072046D01*
X116642990Y-91571203D01*
X116525871Y-92160000D01*
X116642990Y-92748797D01*
X116976517Y-93247954D01*
X117248967Y-93430000D01*
X116976517Y-93612046D01*
X116642990Y-94111203D01*
X116525871Y-94700000D01*
X116642990Y-95288797D01*
X116976517Y-95787954D01*
X117248967Y-95970000D01*
X116976517Y-96152046D01*
X116642990Y-96651203D01*
X116525871Y-97240000D01*
X116642990Y-97828797D01*
X116976517Y-98327954D01*
X117248967Y-98510000D01*
X116976517Y-98692046D01*
X116642990Y-99191203D01*
X116525871Y-99780000D01*
X116642990Y-100368797D01*
X116976517Y-100867954D01*
X117248967Y-101050000D01*
X116976517Y-101232046D01*
X116642990Y-101731203D01*
X116525871Y-102320000D01*
X116642990Y-102908797D01*
X116976517Y-103407954D01*
X117247099Y-103588752D01*
X116888007Y-103890452D01*
X116609052Y-104427146D01*
X116584394Y-104540347D01*
X116724020Y-104781000D01*
X118171000Y-104781000D01*
X118171000Y-104761000D01*
X118329000Y-104761000D01*
X118329000Y-104781000D01*
X119775980Y-104781000D01*
X119915606Y-104540347D01*
X119890948Y-104427146D01*
X119611993Y-103890452D01*
X119252901Y-103588752D01*
X119523483Y-103407954D01*
X119857010Y-102908797D01*
X119974129Y-102320000D01*
X119857010Y-101731203D01*
X119523483Y-101232046D01*
X119251033Y-101050000D01*
X119523483Y-100867954D01*
X119857010Y-100368797D01*
X119974129Y-99780000D01*
X119857010Y-99191203D01*
X119523483Y-98692046D01*
X119251033Y-98510000D01*
X119523483Y-98327954D01*
X119857010Y-97828797D01*
X119974129Y-97240000D01*
X119857010Y-96651203D01*
X119523483Y-96152046D01*
X119251033Y-95970000D01*
X119523483Y-95787954D01*
X119857010Y-95288797D01*
X119974129Y-94700000D01*
X119857010Y-94111203D01*
X119523483Y-93612046D01*
X119251033Y-93430000D01*
X119523483Y-93247954D01*
X119857010Y-92748797D01*
X119974129Y-92160000D01*
X119857010Y-91571203D01*
X119523483Y-91072046D01*
X119251033Y-90890000D01*
X119523483Y-90707954D01*
X119857010Y-90208797D01*
X119974129Y-89620000D01*
X119857010Y-89031203D01*
X119523483Y-88532046D01*
X119251033Y-88350000D01*
X119523483Y-88167954D01*
X119857010Y-87668797D01*
X119974129Y-87080000D01*
X119857010Y-86491203D01*
X119523483Y-85992046D01*
X119251033Y-85810000D01*
X119523483Y-85627954D01*
X119857010Y-85128797D01*
X119974129Y-84540000D01*
X119857010Y-83951203D01*
X119523483Y-83452046D01*
X119251033Y-83270000D01*
X119523483Y-83087954D01*
X119857010Y-82588797D01*
X119974129Y-82000000D01*
X119857010Y-81411203D01*
X119523483Y-80912046D01*
X119024326Y-80578519D01*
X118435529Y-80461400D01*
X118064471Y-80461400D01*
X117475674Y-80578519D01*
X116976517Y-80912046D01*
X116642990Y-81411203D01*
X116525871Y-82000000D01*
X114691569Y-82000000D01*
X110697662Y-78006093D01*
X114132531Y-78006093D01*
X114543779Y-79001389D01*
X115304606Y-79763545D01*
X116299182Y-80176529D01*
X117376093Y-80177469D01*
X118371389Y-79766221D01*
X119133545Y-79005394D01*
X119546529Y-78010818D01*
X119547469Y-76933907D01*
X119136221Y-75938611D01*
X118375394Y-75176455D01*
X117380818Y-74763471D01*
X116303907Y-74762531D01*
X115308611Y-75173779D01*
X114546455Y-75934606D01*
X114133471Y-76929182D01*
X114132531Y-78006093D01*
X110697662Y-78006093D01*
X109208784Y-76517216D01*
X108876251Y-76295023D01*
X108484000Y-76217000D01*
X80648713Y-76217000D01*
X80518000Y-76191000D01*
X80125750Y-76269022D01*
X79793216Y-76491215D01*
X79767216Y-76517216D01*
X79285218Y-76999214D01*
X79285215Y-76999216D01*
X78015216Y-78269216D01*
X77793023Y-78601749D01*
X77715000Y-78994000D01*
X77715000Y-80772000D01*
X77782976Y-81113740D01*
X77793023Y-81164251D01*
X78015216Y-81496784D01*
X79793216Y-83274785D01*
X79992555Y-83407979D01*
X80125749Y-83496977D01*
X80518000Y-83575000D01*
X84919432Y-83575000D01*
X85589000Y-84244569D01*
X85589000Y-87311776D01*
X84000000Y-87311776D01*
X83749860Y-87358843D01*
X83520121Y-87506676D01*
X83365998Y-87732242D01*
X83316839Y-87975000D01*
X82500000Y-87975000D01*
X82107749Y-88053023D01*
X81974555Y-88142021D01*
X81775216Y-88275215D01*
X80577216Y-89473216D01*
X80355023Y-89805749D01*
X80277000Y-90198000D01*
X80277000Y-91519469D01*
X80035860Y-91564843D01*
X79806121Y-91712676D01*
X79651998Y-91938242D01*
X79597776Y-92206000D01*
X79597776Y-93222000D01*
X79644843Y-93472140D01*
X79792676Y-93701879D01*
X80018242Y-93856002D01*
X80030619Y-93858508D01*
X79899111Y-93912981D01*
X79706981Y-94105112D01*
X79603000Y-94356143D01*
X79603000Y-94750250D01*
X79773750Y-94921000D01*
X81223000Y-94921000D01*
X81223000Y-94901000D01*
X81381000Y-94901000D01*
X81381000Y-94921000D01*
X81401000Y-94921000D01*
X81401000Y-95079000D01*
X81381000Y-95079000D01*
X81381000Y-95099000D01*
X81223000Y-95099000D01*
X81223000Y-95079000D01*
X79773750Y-95079000D01*
X79603000Y-95249750D01*
X79603000Y-95643857D01*
X79706981Y-95894888D01*
X79899111Y-96087019D01*
X80029413Y-96140992D01*
X79806121Y-96284676D01*
X79651998Y-96510242D01*
X79604814Y-96743246D01*
X79525000Y-96663432D01*
X79525000Y-90500000D01*
X79446977Y-90107749D01*
X79339552Y-89946977D01*
X79224785Y-89775216D01*
X76745006Y-87295438D01*
X77133929Y-86907193D01*
X77430662Y-86192582D01*
X77431058Y-85738627D01*
X78221215Y-86528784D01*
X78404447Y-86651216D01*
X78553749Y-86750977D01*
X78946000Y-86829000D01*
X79805028Y-86829000D01*
X79836148Y-86904315D01*
X80382807Y-87451929D01*
X81097418Y-87748662D01*
X81871187Y-87749337D01*
X82586315Y-87453852D01*
X83133929Y-86907193D01*
X83430662Y-86192582D01*
X83431337Y-85418813D01*
X83135852Y-84703685D01*
X82589193Y-84156071D01*
X81874582Y-83859338D01*
X81100813Y-83858663D01*
X80385685Y-84154148D01*
X79838071Y-84700807D01*
X79805602Y-84779000D01*
X79370569Y-84779000D01*
X77178784Y-82587216D01*
X76846251Y-82365023D01*
X76454000Y-82287000D01*
X74452568Y-82287000D01*
X75022157Y-81717411D01*
X75097418Y-81748662D01*
X75871187Y-81749337D01*
X76586315Y-81453852D01*
X77133929Y-80907193D01*
X77430662Y-80192582D01*
X77431337Y-79418813D01*
X77135852Y-78703685D01*
X76589193Y-78156071D01*
X75874582Y-77859338D01*
X75100813Y-77858663D01*
X74385685Y-78154148D01*
X73838071Y-78700807D01*
X73541338Y-79415418D01*
X73540663Y-80189187D01*
X73572995Y-80267437D01*
X73257232Y-80583200D01*
X67746917Y-80583200D01*
X68054471Y-79842526D01*
X68055226Y-78977310D01*
X67724820Y-78177665D01*
X67113553Y-77565330D01*
X66314486Y-77233529D01*
X65449270Y-77232774D01*
X64649625Y-77563180D01*
X64037290Y-78174447D01*
X63728431Y-78918263D01*
X63493685Y-78683517D01*
X63493484Y-78683216D01*
X63327521Y-78572322D01*
X63069753Y-77948477D01*
X62344621Y-77222078D01*
X61396705Y-76828469D01*
X60370318Y-76827573D01*
X59421717Y-77219527D01*
X58695318Y-77944659D01*
X58301709Y-78892575D01*
X58300813Y-79918962D01*
X58692767Y-80867563D01*
X59417899Y-81593962D01*
X60365815Y-81987571D01*
X61392202Y-81988467D01*
X62340803Y-81596513D01*
X62924683Y-81013651D01*
X64198031Y-82287000D01*
X54526568Y-82287000D01*
X53078257Y-80838689D01*
X53458291Y-79923465D01*
X53458364Y-79838730D01*
X53704754Y-79838730D01*
X54035160Y-80638375D01*
X54646427Y-81250710D01*
X55445494Y-81582511D01*
X56310710Y-81583266D01*
X57110355Y-81252860D01*
X57722690Y-80641593D01*
X58054491Y-79842526D01*
X58055246Y-78977310D01*
X57724840Y-78177665D01*
X57113573Y-77565330D01*
X56314506Y-77233529D01*
X55449290Y-77232774D01*
X54649645Y-77563180D01*
X54037310Y-78174447D01*
X53705509Y-78973514D01*
X53704754Y-79838730D01*
X53458364Y-79838730D01*
X53459187Y-78897078D01*
X53067233Y-77948477D01*
X52342101Y-77222078D01*
X51394185Y-76828469D01*
X50367798Y-76827573D01*
X49419197Y-77219527D01*
X48692798Y-77944659D01*
X48299189Y-78892575D01*
X48298293Y-79918962D01*
X48690247Y-80867563D01*
X49415379Y-81593962D01*
X50363295Y-81987571D01*
X51328846Y-81988414D01*
X53377216Y-84036784D01*
X53709749Y-84258977D01*
X54102000Y-84337000D01*
X74202514Y-84337000D01*
X73838071Y-84700807D01*
X73541338Y-85415418D01*
X73540663Y-86189187D01*
X73836148Y-86904315D01*
X74382807Y-87451929D01*
X74461000Y-87484398D01*
X74461000Y-87486000D01*
X74522250Y-87793926D01*
X74539023Y-87878251D01*
X74761216Y-88210784D01*
X77475000Y-90924569D01*
X77475000Y-97088000D01*
X77553023Y-97480251D01*
X77775216Y-97812784D01*
X78975000Y-99012569D01*
X78975000Y-99316480D01*
X78749860Y-99358843D01*
X78520121Y-99506676D01*
X78365998Y-99732242D01*
X78311776Y-100000000D01*
X78311776Y-102000000D01*
X78358843Y-102250140D01*
X78506676Y-102479879D01*
X78732242Y-102634002D01*
X79000000Y-102688224D01*
X81000000Y-102688224D01*
X81250140Y-102641157D01*
X81479879Y-102493324D01*
X81634002Y-102267758D01*
X81688224Y-102000000D01*
X81688224Y-100000000D01*
X81641157Y-99749860D01*
X81493324Y-99520121D01*
X81267758Y-99365998D01*
X81025000Y-99316839D01*
X81025000Y-99012568D01*
X81555344Y-98482224D01*
X82318000Y-98482224D01*
X82568140Y-98435157D01*
X82761085Y-98311000D01*
X82811776Y-98311000D01*
X82811776Y-98500000D01*
X82858843Y-98750140D01*
X82952095Y-98895058D01*
X82815857Y-98951351D01*
X82316106Y-99450231D01*
X82045309Y-100102382D01*
X82044693Y-100808520D01*
X82314351Y-101461143D01*
X82505325Y-101652450D01*
X82553023Y-101892251D01*
X82775216Y-102224784D01*
X82995475Y-102371957D01*
X82333216Y-103034216D01*
X82111023Y-103366749D01*
X82033000Y-103759000D01*
X82033000Y-110517431D01*
X81752390Y-110798042D01*
X81674758Y-110744998D01*
X81407000Y-110690776D01*
X79375000Y-110690776D01*
X79124860Y-110737843D01*
X78895121Y-110885676D01*
X78879573Y-110908431D01*
X78720749Y-110940023D01*
X78691271Y-110959720D01*
X78388216Y-111162215D01*
X76745216Y-112805216D01*
X76523023Y-113137749D01*
X76445000Y-113530000D01*
X76445000Y-117315480D01*
X76219860Y-117357843D01*
X75990121Y-117505676D01*
X75924947Y-117601061D01*
X75913642Y-117565786D01*
X75293344Y-117313767D01*
X74623820Y-117318309D01*
X74026358Y-117565786D01*
X73934654Y-117851931D01*
X74970000Y-118887277D01*
X74984142Y-118873135D01*
X75095865Y-118984858D01*
X75081723Y-118999000D01*
X75095865Y-119013142D01*
X74984142Y-119124865D01*
X74970000Y-119110723D01*
X73934654Y-120146069D01*
X74026358Y-120432214D01*
X74646656Y-120684233D01*
X75316180Y-120679691D01*
X75913642Y-120432214D01*
X75924615Y-120397974D01*
X75976676Y-120478879D01*
X76202242Y-120633002D01*
X76470000Y-120687224D01*
X78470000Y-120687224D01*
X78720140Y-120640157D01*
X78949879Y-120492324D01*
X79104002Y-120266758D01*
X79158224Y-119999000D01*
X79158224Y-117999000D01*
X79111157Y-117748860D01*
X78967134Y-117525042D01*
X78988111Y-117546019D01*
X79239143Y-117650000D01*
X80141250Y-117650000D01*
X80312000Y-117479250D01*
X80312000Y-116538000D01*
X78862750Y-116538000D01*
X78692000Y-116708750D01*
X78692000Y-117102857D01*
X78795981Y-117353888D01*
X78956659Y-117514567D01*
X78737758Y-117364998D01*
X78495000Y-117315839D01*
X78495000Y-113954568D01*
X78686776Y-113762792D01*
X78686776Y-114681000D01*
X78733843Y-114931140D01*
X78881676Y-115160879D01*
X79107242Y-115315002D01*
X79119619Y-115317508D01*
X78988111Y-115371981D01*
X78795981Y-115564112D01*
X78692000Y-115815143D01*
X78692000Y-116209250D01*
X78862750Y-116380000D01*
X80312000Y-116380000D01*
X80312000Y-116360000D01*
X80470000Y-116360000D01*
X80470000Y-116380000D01*
X80490000Y-116380000D01*
X80490000Y-116538000D01*
X80470000Y-116538000D01*
X80470000Y-117479250D01*
X80640750Y-117650000D01*
X81225000Y-117650000D01*
X81225000Y-120391724D01*
X81025216Y-120525216D01*
X80878217Y-120745214D01*
X80148432Y-121475000D01*
X71870569Y-121475000D01*
X69071225Y-118675656D01*
X73284767Y-118675656D01*
X73289309Y-119345180D01*
X73536786Y-119942642D01*
X73822931Y-120034346D01*
X74858277Y-118999000D01*
X73822931Y-117963654D01*
X73536786Y-118055358D01*
X73284767Y-118675656D01*
X69071225Y-118675656D01*
X67720830Y-117325261D01*
X68233375Y-117528983D01*
X68808172Y-117520718D01*
X69300831Y-117316652D01*
X69363491Y-117055214D01*
X68500000Y-116191723D01*
X68485858Y-116205865D01*
X68374135Y-116094142D01*
X68388277Y-116080000D01*
X68611723Y-116080000D01*
X69475214Y-116943491D01*
X69736652Y-116880831D01*
X69948983Y-116346625D01*
X69940718Y-115771828D01*
X69736652Y-115279169D01*
X69475214Y-115216509D01*
X68611723Y-116080000D01*
X68388277Y-116080000D01*
X67524786Y-115216509D01*
X67263348Y-115279169D01*
X67051017Y-115813375D01*
X67059282Y-116388172D01*
X67254119Y-116858551D01*
X66811000Y-116415432D01*
X66811000Y-108628568D01*
X67475000Y-107964568D01*
X67475000Y-109992759D01*
X67282481Y-110184942D01*
X67063250Y-110712909D01*
X67062752Y-111284583D01*
X67281061Y-111812931D01*
X67684942Y-112217519D01*
X67810989Y-112269858D01*
X67687069Y-112321061D01*
X67282481Y-112724942D01*
X67063250Y-113252909D01*
X67062752Y-113824583D01*
X67281061Y-114352931D01*
X67684942Y-114757519D01*
X67795524Y-114803437D01*
X67699169Y-114843348D01*
X67636509Y-115104786D01*
X68500000Y-115968277D01*
X69363491Y-115104786D01*
X69300831Y-114843348D01*
X69202875Y-114804413D01*
X69312931Y-114758939D01*
X69607385Y-114465000D01*
X69960000Y-114465000D01*
X70313983Y-114394589D01*
X70614074Y-114194074D01*
X71154074Y-113654074D01*
X71354589Y-113353983D01*
X71425000Y-113000000D01*
X71425000Y-107883148D01*
X71886684Y-107421463D01*
X72328507Y-107417377D01*
X72311776Y-107500000D01*
X72311776Y-109500000D01*
X72358843Y-109750140D01*
X72506676Y-109979879D01*
X72732242Y-110134002D01*
X72762000Y-110140028D01*
X72762000Y-111657669D01*
X72520860Y-111703043D01*
X72291121Y-111850876D01*
X72136998Y-112076442D01*
X72082776Y-112344200D01*
X72082776Y-116001800D01*
X72129843Y-116251940D01*
X72277676Y-116481679D01*
X72503242Y-116635802D01*
X72771000Y-116690024D01*
X74803000Y-116690024D01*
X75053140Y-116642957D01*
X75282879Y-116495124D01*
X75437002Y-116269558D01*
X75491224Y-116001800D01*
X75491224Y-112344200D01*
X75444157Y-112094060D01*
X75296324Y-111864321D01*
X75070758Y-111710198D01*
X74812000Y-111657799D01*
X74812000Y-110188224D01*
X75000000Y-110188224D01*
X75250140Y-110141157D01*
X75479879Y-109993324D01*
X75545053Y-109897939D01*
X75556358Y-109933214D01*
X76176656Y-110185233D01*
X76846180Y-110180691D01*
X77443642Y-109933214D01*
X77535346Y-109647069D01*
X76500000Y-108611723D01*
X76485858Y-108625865D01*
X76374135Y-108514142D01*
X76388277Y-108500000D01*
X76374135Y-108485858D01*
X76485858Y-108374135D01*
X76500000Y-108388277D01*
X76514142Y-108374135D01*
X76625865Y-108485858D01*
X76611723Y-108500000D01*
X77647069Y-109535346D01*
X77933214Y-109443642D01*
X78185233Y-108823344D01*
X78180691Y-108153820D01*
X77933214Y-107556358D01*
X77647071Y-107464655D01*
X77744434Y-107367292D01*
X78077309Y-107364214D01*
X78081176Y-107373572D01*
X78551950Y-107845168D01*
X79167360Y-108100708D01*
X79833716Y-108101290D01*
X80449572Y-107846824D01*
X80921168Y-107376050D01*
X81176708Y-106760640D01*
X81177290Y-106094284D01*
X80922824Y-105478428D01*
X80452050Y-105006832D01*
X79836640Y-104751292D01*
X79170284Y-104750710D01*
X78554428Y-105005176D01*
X78082832Y-105475950D01*
X78066936Y-105514232D01*
X71900310Y-105571259D01*
X73114785Y-104356784D01*
X73305755Y-104070977D01*
X73336977Y-104024251D01*
X73415000Y-103632000D01*
X73415000Y-102147069D01*
X75164654Y-102147069D01*
X75256358Y-102433214D01*
X75876656Y-102685233D01*
X76546180Y-102680691D01*
X77143642Y-102433214D01*
X77235346Y-102147069D01*
X76200000Y-101111723D01*
X75164654Y-102147069D01*
X73415000Y-102147069D01*
X73415000Y-100676656D01*
X74514767Y-100676656D01*
X74519309Y-101346180D01*
X74766786Y-101943642D01*
X75052931Y-102035346D01*
X76088277Y-101000000D01*
X76311723Y-101000000D01*
X77347069Y-102035346D01*
X77633214Y-101943642D01*
X77885233Y-101323344D01*
X77880691Y-100653820D01*
X77633214Y-100056358D01*
X77347069Y-99964654D01*
X76311723Y-101000000D01*
X76088277Y-101000000D01*
X75052931Y-99964654D01*
X74766786Y-100056358D01*
X74514767Y-100676656D01*
X73415000Y-100676656D01*
X73415000Y-99852931D01*
X75164654Y-99852931D01*
X76200000Y-100888277D01*
X77235346Y-99852931D01*
X77143642Y-99566786D01*
X76523344Y-99314767D01*
X75853820Y-99319309D01*
X75256358Y-99566786D01*
X75164654Y-99852931D01*
X73415000Y-99852931D01*
X73415000Y-97457479D01*
X73546143Y-97511800D01*
X74448250Y-97511800D01*
X74619000Y-97341050D01*
X74619000Y-95079000D01*
X74777000Y-95079000D01*
X74777000Y-97341050D01*
X74947750Y-97511800D01*
X75849857Y-97511800D01*
X76100889Y-97407819D01*
X76293019Y-97215688D01*
X76397000Y-96964657D01*
X76397000Y-95249750D01*
X76226250Y-95079000D01*
X74777000Y-95079000D01*
X74619000Y-95079000D01*
X74599000Y-95079000D01*
X74599000Y-94921000D01*
X74619000Y-94921000D01*
X74619000Y-92658950D01*
X74777000Y-92658950D01*
X74777000Y-94921000D01*
X76226250Y-94921000D01*
X76397000Y-94750250D01*
X76397000Y-93035343D01*
X76293019Y-92784312D01*
X76100889Y-92592181D01*
X75849857Y-92488200D01*
X74947750Y-92488200D01*
X74777000Y-92658950D01*
X74619000Y-92658950D01*
X74448250Y-92488200D01*
X73546143Y-92488200D01*
X73295111Y-92592181D01*
X73102981Y-92784312D01*
X72999000Y-93035343D01*
X72999000Y-93647432D01*
X70066784Y-90715216D01*
X69734251Y-90493023D01*
X69342000Y-90415000D01*
X57467500Y-90415000D01*
X57075249Y-90493023D01*
X56742715Y-90715216D01*
X52615216Y-94842716D01*
X52393023Y-95175249D01*
X52315000Y-95567500D01*
X52315000Y-97768331D01*
X52112313Y-97565290D01*
X51313246Y-97233489D01*
X50448030Y-97232734D01*
X49648385Y-97563140D01*
X49036050Y-98174407D01*
X48704249Y-98973474D01*
X48703494Y-99838690D01*
X49033900Y-100638335D01*
X49645167Y-101250670D01*
X50444234Y-101582471D01*
X51309450Y-101583226D01*
X52109095Y-101252820D01*
X52315000Y-101047274D01*
X52315000Y-103334431D01*
X48388432Y-107261000D01*
X47932331Y-107261000D01*
X47905887Y-107197000D01*
X47364849Y-106655016D01*
X46657586Y-106361335D01*
X45891774Y-106360667D01*
X45184000Y-106653113D01*
X44642016Y-107194151D01*
X44614258Y-107261000D01*
X41458600Y-107261000D01*
X41066349Y-107339023D01*
X40787673Y-107525229D01*
X40530140Y-107418292D01*
X39863784Y-107417710D01*
X39247928Y-107672176D01*
X38776332Y-108142950D01*
X38520792Y-108758360D01*
X38520210Y-109424716D01*
X38774676Y-110040572D01*
X39245450Y-110512168D01*
X39860860Y-110767708D01*
X40527216Y-110768290D01*
X41143072Y-110513824D01*
X41614668Y-110043050D01*
X41870208Y-109427640D01*
X41870299Y-109323870D01*
X41883169Y-109311000D01*
X44613669Y-109311000D01*
X44640113Y-109375000D01*
X45181151Y-109916984D01*
X45888414Y-110210665D01*
X46654226Y-110211333D01*
X47362000Y-109918887D01*
X47903984Y-109377849D01*
X47931742Y-109311000D01*
X48813000Y-109311000D01*
X49205251Y-109232977D01*
X49537784Y-109010784D01*
X54064785Y-104483784D01*
X54250444Y-104205926D01*
X54286977Y-104151251D01*
X54365000Y-103759000D01*
X54365000Y-100968751D01*
X54646427Y-101250670D01*
X55445494Y-101582471D01*
X56310710Y-101583226D01*
X57110355Y-101252820D01*
X57475000Y-100888811D01*
X57475000Y-102075431D01*
X51275216Y-108275216D01*
X51053023Y-108607749D01*
X50975000Y-109000000D01*
X50975000Y-115575431D01*
X47629901Y-118920531D01*
X47364849Y-118655016D01*
X46657586Y-118361335D01*
X45891774Y-118360667D01*
X45184000Y-118653113D01*
X44642016Y-119194151D01*
X44614258Y-119261000D01*
X41883724Y-119261000D01*
X41883724Y-118253000D01*
X41836657Y-118002860D01*
X41688824Y-117773121D01*
X41463258Y-117618998D01*
X41195500Y-117564776D01*
X39195500Y-117564776D01*
X38945360Y-117611843D01*
X38715621Y-117759676D01*
X38561498Y-117985242D01*
X38507276Y-118253000D01*
X37683500Y-118253000D01*
X37683500Y-117049160D01*
X39071348Y-115661000D01*
X42672281Y-115661000D01*
X43089353Y-116078800D01*
X43888468Y-116410622D01*
X44753736Y-116411377D01*
X45553429Y-116080951D01*
X46165800Y-115469647D01*
X46497622Y-114670532D01*
X46498377Y-113805264D01*
X46167951Y-113005571D01*
X45556647Y-112393200D01*
X44757532Y-112061378D01*
X43892264Y-112060623D01*
X43092571Y-112391049D01*
X42671887Y-112811000D01*
X38481000Y-112811000D01*
X38480920Y-112811016D01*
X38480840Y-112811000D01*
X38207043Y-112865494D01*
X37935676Y-112919472D01*
X37935609Y-112919517D01*
X37935528Y-112919533D01*
X37701106Y-113076207D01*
X37473373Y-113228373D01*
X37473329Y-113228440D01*
X37473259Y-113228486D01*
X35250760Y-115451486D01*
X35095078Y-115684536D01*
X34941972Y-115913676D01*
X34941956Y-115913755D01*
X34941910Y-115913824D01*
X34887086Y-116189604D01*
X34833500Y-116459000D01*
X34833500Y-123171710D01*
X33059577Y-124945479D01*
X33060447Y-123949058D01*
X32668493Y-123000457D01*
X31943361Y-122274058D01*
X31218872Y-121973224D01*
X32385000Y-121973224D01*
X32635140Y-121926157D01*
X32864879Y-121778324D01*
X33019002Y-121552758D01*
X33073224Y-121285000D01*
X33073224Y-117475000D01*
X33026157Y-117224860D01*
X32878324Y-116995121D01*
X32652758Y-116840998D01*
X32385000Y-116786776D01*
X31905000Y-116786776D01*
X31905000Y-107016254D01*
X38088274Y-100832980D01*
X43677254Y-100832980D01*
X43691527Y-100867523D01*
X44416659Y-101593922D01*
X45364575Y-101987531D01*
X46390962Y-101988427D01*
X47339563Y-101596473D01*
X48065962Y-100871341D01*
X48459571Y-99923425D01*
X48460467Y-98897038D01*
X48068513Y-97948437D01*
X47343381Y-97222038D01*
X46971252Y-97067517D01*
X46887647Y-96942393D01*
X35297627Y-85352373D01*
X34835324Y-85043472D01*
X34290000Y-84935000D01*
X33073224Y-84935000D01*
X33073224Y-84455000D01*
X33026157Y-84204860D01*
X32878324Y-83975121D01*
X32652758Y-83820998D01*
X32385000Y-83766776D01*
X28575000Y-83766776D01*
X28324860Y-83813843D01*
X28095121Y-83961676D01*
X27940998Y-84187242D01*
X27886776Y-84455000D01*
X27886776Y-88265000D01*
X27933843Y-88515140D01*
X28081676Y-88744879D01*
X28307242Y-88899002D01*
X28575000Y-88953224D01*
X29742357Y-88953224D01*
X29020457Y-89251507D01*
X28294058Y-89976639D01*
X27900449Y-90924555D01*
X27899553Y-91950942D01*
X28291507Y-92899543D01*
X29016639Y-93625942D01*
X29870235Y-93980386D01*
X29020457Y-94331507D01*
X28294058Y-95056639D01*
X27900449Y-96004555D01*
X27899553Y-97030942D01*
X27915415Y-97069331D01*
X25662373Y-99322373D01*
X25353472Y-99784676D01*
X25245000Y-100330000D01*
X25245000Y-133175000D01*
X24305000Y-133175000D01*
X24305000Y-78006093D01*
X25232531Y-78006093D01*
X25643779Y-79001389D01*
X26404606Y-79763545D01*
X27399182Y-80176529D01*
X28476093Y-80177469D01*
X29295903Y-79838730D01*
X43704774Y-79838730D01*
X44035180Y-80638375D01*
X44646447Y-81250710D01*
X45445514Y-81582511D01*
X46310730Y-81583266D01*
X47110375Y-81252860D01*
X47722710Y-80641593D01*
X48054511Y-79842526D01*
X48055266Y-78977310D01*
X47724860Y-78177665D01*
X47113593Y-77565330D01*
X46314526Y-77233529D01*
X45449310Y-77232774D01*
X44649665Y-77563180D01*
X44037330Y-78174447D01*
X43705529Y-78973514D01*
X43704774Y-79838730D01*
X29295903Y-79838730D01*
X29471389Y-79766221D01*
X30233545Y-79005394D01*
X30646529Y-78010818D01*
X30647469Y-76933907D01*
X30236221Y-75938611D01*
X29475394Y-75176455D01*
X28480818Y-74763471D01*
X27403907Y-74762531D01*
X26408611Y-75173779D01*
X25646455Y-75934606D01*
X25233471Y-76929182D01*
X25232531Y-78006093D01*
X24305000Y-78006093D01*
X24305000Y-73835000D01*
X120475000Y-73835000D01*
X120475000Y-168735000D01*
X120475000Y-168735000D01*
G37*
X120475000Y-168735000D02*
X70025000Y-168735000D01*
X70025000Y-165684254D01*
X83347469Y-165684254D01*
X83451369Y-165980783D01*
X84107831Y-166249474D01*
X84817146Y-166246495D01*
X85458631Y-165980783D01*
X85562531Y-165684254D01*
X84455000Y-164576723D01*
X83347469Y-165684254D01*
X70025000Y-165684254D01*
X70025000Y-164160254D01*
X76743469Y-164160254D01*
X76847369Y-164456783D01*
X77503831Y-164725474D01*
X78213146Y-164722495D01*
X78854631Y-164456783D01*
X78914031Y-164287254D01*
X80045469Y-164287254D01*
X80149369Y-164583783D01*
X80805831Y-164852474D01*
X81515146Y-164849495D01*
X82156631Y-164583783D01*
X82260531Y-164287254D01*
X81153000Y-163179723D01*
X80045469Y-164287254D01*
X78914031Y-164287254D01*
X78958531Y-164160254D01*
X77851000Y-163052723D01*
X76743469Y-164160254D01*
X70025000Y-164160254D01*
X70025000Y-162593831D01*
X76066526Y-162593831D01*
X76069505Y-163303146D01*
X76335217Y-163944631D01*
X76631746Y-164048531D01*
X77739277Y-162941000D01*
X77962723Y-162941000D01*
X79070254Y-164048531D01*
X79366783Y-163944631D01*
X79475048Y-163680120D01*
X79637217Y-164071631D01*
X79933746Y-164175531D01*
X81041277Y-163068000D01*
X81264723Y-163068000D01*
X82372254Y-164175531D01*
X82536928Y-164117831D01*
X82670526Y-164117831D01*
X82673505Y-164827146D01*
X82939217Y-165468631D01*
X83235746Y-165572531D01*
X84343277Y-164465000D01*
X84566723Y-164465000D01*
X85674254Y-165572531D01*
X85970783Y-165468631D01*
X86239474Y-164812169D01*
X86236495Y-164102854D01*
X85970783Y-163461369D01*
X85674254Y-163357469D01*
X84566723Y-164465000D01*
X84343277Y-164465000D01*
X83235746Y-163357469D01*
X82939217Y-163461369D01*
X82670526Y-164117831D01*
X82536928Y-164117831D01*
X82668783Y-164071631D01*
X82937474Y-163415169D01*
X82936763Y-163245746D01*
X83347469Y-163245746D01*
X84455000Y-164353277D01*
X85562531Y-163245746D01*
X85458631Y-162949217D01*
X84802169Y-162680526D01*
X84092854Y-162683505D01*
X83451369Y-162949217D01*
X83347469Y-163245746D01*
X82936763Y-163245746D01*
X82934495Y-162705854D01*
X82668783Y-162064369D01*
X82372254Y-161960469D01*
X81264723Y-163068000D01*
X81041277Y-163068000D01*
X79933746Y-161960469D01*
X79637217Y-162064369D01*
X79528952Y-162328880D01*
X79366783Y-161937369D01*
X79113855Y-161848746D01*
X80045469Y-161848746D01*
X81153000Y-162956277D01*
X82260531Y-161848746D01*
X82156631Y-161552217D01*
X81500169Y-161283526D01*
X80790854Y-161286505D01*
X80149369Y-161552217D01*
X80045469Y-161848746D01*
X79113855Y-161848746D01*
X79070254Y-161833469D01*
X77962723Y-162941000D01*
X77739277Y-162941000D01*
X76631746Y-161833469D01*
X76335217Y-161937369D01*
X76066526Y-162593831D01*
X70025000Y-162593831D01*
X70025000Y-161721746D01*
X76743469Y-161721746D01*
X77851000Y-162829277D01*
X78958531Y-161721746D01*
X78854631Y-161425217D01*
X78198169Y-161156526D01*
X77488854Y-161159505D01*
X76847369Y-161425217D01*
X76743469Y-161721746D01*
X70025000Y-161721746D01*
X70025000Y-146122488D01*
X77593744Y-138553744D01*
X77631212Y-138498085D01*
X77645000Y-138430000D01*
X77645000Y-135147069D01*
X80964654Y-135147069D01*
X81056358Y-135433214D01*
X81676656Y-135685233D01*
X82346180Y-135680691D01*
X82943642Y-135433214D01*
X83035346Y-135147069D01*
X82000000Y-134111723D01*
X80964654Y-135147069D01*
X77645000Y-135147069D01*
X77645000Y-133676656D01*
X80314767Y-133676656D01*
X80319309Y-134346180D01*
X80566786Y-134943642D01*
X80852931Y-135035346D01*
X81888277Y-134000000D01*
X80852931Y-132964654D01*
X80566786Y-133056358D01*
X80314767Y-133676656D01*
X77645000Y-133676656D01*
X77645000Y-132852931D01*
X80964654Y-132852931D01*
X82000000Y-133888277D01*
X82014142Y-133874135D01*
X82125865Y-133985858D01*
X82111723Y-134000000D01*
X83147069Y-135035346D01*
X83433214Y-134943642D01*
X83685233Y-134323344D01*
X83680691Y-133653820D01*
X83615438Y-133496287D01*
X83717419Y-133394306D01*
X83766395Y-133644123D01*
X84260074Y-133837770D01*
X84790279Y-133827753D01*
X85233605Y-133644123D01*
X85282581Y-133394303D01*
X84500000Y-132611723D01*
X84485858Y-132625865D01*
X84374135Y-132514142D01*
X84388277Y-132500000D01*
X84611723Y-132500000D01*
X85394303Y-133282581D01*
X85644123Y-133233605D01*
X85837770Y-132739926D01*
X85827753Y-132209721D01*
X85644123Y-131766395D01*
X85394303Y-131717419D01*
X84611723Y-132500000D01*
X84388277Y-132500000D01*
X83605697Y-131717419D01*
X83355877Y-131766395D01*
X83162230Y-132260074D01*
X83171478Y-132749576D01*
X83155088Y-132733186D01*
X83035345Y-132852929D01*
X82943642Y-132566786D01*
X82323344Y-132314767D01*
X81653820Y-132319309D01*
X81056358Y-132566786D01*
X80964654Y-132852931D01*
X77645000Y-132852931D01*
X77645000Y-130043750D01*
X78077000Y-130043750D01*
X78077000Y-130229857D01*
X78180981Y-130480889D01*
X78373112Y-130673019D01*
X78624143Y-130777000D01*
X79285250Y-130777000D01*
X79456000Y-130606250D01*
X79456000Y-129873000D01*
X78247750Y-129873000D01*
X78077000Y-130043750D01*
X77645000Y-130043750D01*
X77645000Y-124460000D01*
X77633032Y-124396395D01*
X77595441Y-124337978D01*
X77538085Y-124298788D01*
X77470000Y-124285000D01*
X64770000Y-124285000D01*
X64704149Y-124297862D01*
X64646256Y-124336256D01*
X61310620Y-127671892D01*
X60993341Y-127354058D01*
X60045425Y-126960449D01*
X59019038Y-126959553D01*
X58070437Y-127351507D01*
X57344038Y-128076639D01*
X57328109Y-128115000D01*
X56734026Y-128115000D01*
X56719753Y-128080457D01*
X56035000Y-127394508D01*
X56035000Y-124739254D01*
X58313392Y-122460862D01*
X58903736Y-122461377D01*
X59703429Y-122130951D01*
X60315800Y-121519647D01*
X60647622Y-120720532D01*
X60648377Y-119855264D01*
X60317951Y-119055571D01*
X59898000Y-118634887D01*
X59898000Y-113567254D01*
X63507627Y-109957627D01*
X63816528Y-109495324D01*
X63925000Y-108950000D01*
X63925000Y-105590254D01*
X66887607Y-102627647D01*
X66977359Y-102493324D01*
X67196508Y-102165344D01*
X67304980Y-101620020D01*
X67304980Y-101610746D01*
X67339523Y-101596473D01*
X68065922Y-100871341D01*
X68459531Y-99923425D01*
X68460427Y-98897038D01*
X68068473Y-97948437D01*
X67343341Y-97222038D01*
X66395425Y-96828429D01*
X65369038Y-96827533D01*
X64420437Y-97219487D01*
X63694038Y-97944619D01*
X63300429Y-98892535D01*
X63299533Y-99918922D01*
X63691487Y-100867523D01*
X64153951Y-101330795D01*
X61492373Y-103992373D01*
X61183472Y-104454676D01*
X61075000Y-105000000D01*
X61075000Y-108359746D01*
X60650335Y-108784411D01*
X60697622Y-108670532D01*
X60698377Y-107805264D01*
X60367951Y-107005571D01*
X59756647Y-106393200D01*
X58957532Y-106061378D01*
X58092264Y-106060623D01*
X57292571Y-106391049D01*
X56680200Y-107002353D01*
X56348378Y-107801468D01*
X56347623Y-108666736D01*
X56678049Y-109466429D01*
X57289353Y-110078800D01*
X58088468Y-110410622D01*
X58953736Y-110411377D01*
X59072400Y-110362346D01*
X57465373Y-111969373D01*
X57156472Y-112431676D01*
X57048000Y-112977000D01*
X57048000Y-118635281D01*
X56630200Y-119052353D01*
X56298378Y-119851468D01*
X56297859Y-120445887D01*
X53602373Y-123141373D01*
X53293472Y-123603676D01*
X53185000Y-124149000D01*
X53185000Y-127304699D01*
X53071717Y-127351507D01*
X52345318Y-128076639D01*
X51951709Y-129024555D01*
X51950813Y-130050942D01*
X52342767Y-130999543D01*
X53067899Y-131725942D01*
X54015815Y-132119551D01*
X55042202Y-132120447D01*
X55990803Y-131728493D01*
X56717202Y-131003361D01*
X56733131Y-130965000D01*
X57327214Y-130965000D01*
X57341487Y-130999543D01*
X57661948Y-131320564D01*
X55807512Y-133175000D01*
X35083254Y-133175000D01*
X37039254Y-131219000D01*
X37560601Y-131219000D01*
X38066659Y-131725942D01*
X39014575Y-132119551D01*
X40040962Y-132120447D01*
X40989563Y-131728493D01*
X41499946Y-131219000D01*
X41562020Y-131219000D01*
X42107344Y-131110528D01*
X42325142Y-130965000D01*
X42325974Y-130965000D01*
X42340247Y-130999543D01*
X43065379Y-131725942D01*
X44013295Y-132119551D01*
X45039682Y-132120447D01*
X45988283Y-131728493D01*
X46714682Y-131003361D01*
X47108291Y-130055445D01*
X47109187Y-129029058D01*
X46717233Y-128080457D01*
X45992101Y-127354058D01*
X45044185Y-126960449D01*
X44017798Y-126959553D01*
X43069197Y-127351507D01*
X42342798Y-128076639D01*
X42326869Y-128115000D01*
X41732786Y-128115000D01*
X41718513Y-128080457D01*
X40993381Y-127354058D01*
X40045465Y-126960449D01*
X39019078Y-126959553D01*
X38070477Y-127351507D01*
X37344078Y-128076639D01*
X37328149Y-128115000D01*
X36703000Y-128115000D01*
X36157676Y-128223472D01*
X35695373Y-128532373D01*
X31794746Y-132433000D01*
X28095000Y-132433000D01*
X28095000Y-130523960D01*
X28291507Y-130999543D01*
X29016639Y-131725942D01*
X29964555Y-132119551D01*
X30990942Y-132120447D01*
X31939543Y-131728493D01*
X32665942Y-131003361D01*
X33059551Y-130055445D01*
X33060447Y-129029058D01*
X33044625Y-128990765D01*
X37266084Y-124769670D01*
X37266101Y-124769644D01*
X37266127Y-124769627D01*
X37419739Y-124539731D01*
X37575005Y-124307380D01*
X37575011Y-124307349D01*
X37575028Y-124307324D01*
X37628636Y-124037821D01*
X37683500Y-123762061D01*
X37683494Y-123762030D01*
X37683500Y-123762000D01*
X37683500Y-118253000D01*
X38507276Y-118253000D01*
X38507276Y-120253000D01*
X38554343Y-120503140D01*
X38702176Y-120732879D01*
X38927742Y-120887002D01*
X39195500Y-120941224D01*
X40243655Y-120941224D01*
X40313216Y-121010785D01*
X40477841Y-121120784D01*
X40645749Y-121232977D01*
X41038000Y-121311000D01*
X44613669Y-121311000D01*
X44640113Y-121375000D01*
X45181151Y-121916984D01*
X45888414Y-122210665D01*
X46654226Y-122211333D01*
X47362000Y-121918887D01*
X47903984Y-121377849D01*
X47951346Y-121263789D01*
X48106251Y-121232977D01*
X48438784Y-121010784D01*
X52724784Y-116724785D01*
X52946977Y-116392251D01*
X52949685Y-116378637D01*
X53025000Y-116000000D01*
X53025000Y-109424568D01*
X59224784Y-103224785D01*
X59446977Y-102892251D01*
X59525000Y-102500000D01*
X59525000Y-101127769D01*
X59647687Y-101250670D01*
X60446754Y-101582471D01*
X61311970Y-101583226D01*
X62111615Y-101252820D01*
X62723950Y-100641553D01*
X63055751Y-99842486D01*
X63056506Y-98977270D01*
X62726100Y-98177625D01*
X62114833Y-97565290D01*
X61315766Y-97233489D01*
X60450550Y-97232734D01*
X60052267Y-97397301D01*
X63460569Y-93989000D01*
X67901432Y-93989000D01*
X69841000Y-95928569D01*
X69841000Y-102699431D01*
X65061216Y-107479216D01*
X64839023Y-107811749D01*
X64761000Y-108204000D01*
X64761000Y-116840000D01*
X64834547Y-117209749D01*
X64839023Y-117232251D01*
X65061216Y-117564784D01*
X70721216Y-123224785D01*
X70910725Y-123351411D01*
X71053749Y-123446977D01*
X71446000Y-123525000D01*
X78510000Y-123525000D01*
X78510000Y-125042817D01*
X78509860Y-125042843D01*
X78280121Y-125190676D01*
X78125998Y-125416242D01*
X78071776Y-125684000D01*
X78071776Y-126284000D01*
X78118843Y-126534140D01*
X78172718Y-126617865D01*
X78125998Y-126686242D01*
X78071776Y-126954000D01*
X78071776Y-127554000D01*
X78118843Y-127804140D01*
X78172718Y-127887865D01*
X78125998Y-127956242D01*
X78071776Y-128224000D01*
X78071776Y-128824000D01*
X78118843Y-129074140D01*
X78164955Y-129145800D01*
X78077000Y-129358143D01*
X78077000Y-129544250D01*
X78247750Y-129715000D01*
X79456000Y-129715000D01*
X79456000Y-129695000D01*
X79614000Y-129695000D01*
X79614000Y-129715000D01*
X79634000Y-129715000D01*
X79634000Y-129873000D01*
X79614000Y-129873000D01*
X79614000Y-130606250D01*
X79784750Y-130777000D01*
X80445857Y-130777000D01*
X80696888Y-130673019D01*
X80735288Y-130634619D01*
X81000000Y-130688224D01*
X82397035Y-130688224D01*
X82550740Y-130790926D01*
X82646018Y-130854589D01*
X83000000Y-130925001D01*
X83000005Y-130925000D01*
X83224840Y-130925000D01*
X83356676Y-131129879D01*
X83582242Y-131284002D01*
X83822472Y-131332649D01*
X83766395Y-131355877D01*
X83717419Y-131605697D01*
X84500000Y-132388277D01*
X85282581Y-131605697D01*
X85233605Y-131355877D01*
X85176087Y-131333315D01*
X85400140Y-131291157D01*
X85629879Y-131143324D01*
X85784002Y-130917758D01*
X85838224Y-130650000D01*
X85838224Y-129350000D01*
X85791157Y-129099860D01*
X85643324Y-128870121D01*
X85417758Y-128715998D01*
X85150000Y-128661776D01*
X83850000Y-128661776D01*
X83688224Y-128692216D01*
X83688224Y-128279000D01*
X92829432Y-128279000D01*
X95925000Y-131374569D01*
X95925000Y-138167000D01*
X94897276Y-138167000D01*
X94884028Y-138157948D01*
X94616270Y-138103726D01*
X93816170Y-138103726D01*
X93566030Y-138150793D01*
X93336291Y-138298626D01*
X93243285Y-138434745D01*
X93129540Y-138321000D01*
X92296240Y-138321000D01*
X92296240Y-138341000D01*
X92138240Y-138341000D01*
X92138240Y-138321000D01*
X91304940Y-138321000D01*
X91134190Y-138491750D01*
X91134190Y-138777907D01*
X91238171Y-139028938D01*
X91326233Y-139117000D01*
X91244469Y-139117000D01*
X91194584Y-138996268D01*
X90723810Y-138524672D01*
X90108400Y-138269132D01*
X89442044Y-138268550D01*
X88826188Y-138523016D01*
X88354592Y-138993790D01*
X88099052Y-139609200D01*
X88098470Y-140275556D01*
X88352936Y-140891412D01*
X88823710Y-141363008D01*
X89439120Y-141618548D01*
X90105476Y-141619130D01*
X90721332Y-141364664D01*
X90919341Y-141167000D01*
X91134190Y-141167000D01*
X91134190Y-141421250D01*
X91304940Y-141592000D01*
X92138240Y-141592000D01*
X92138240Y-141572000D01*
X92296240Y-141572000D01*
X92296240Y-141592000D01*
X93129540Y-141592000D01*
X93300290Y-141421250D01*
X93300290Y-141135093D01*
X93197912Y-140887932D01*
X93251292Y-140809808D01*
X93305514Y-140542050D01*
X93305514Y-140044994D01*
X93322846Y-140071929D01*
X93548412Y-140226052D01*
X93816170Y-140280274D01*
X94616270Y-140280274D01*
X94866410Y-140233207D01*
X94891596Y-140217000D01*
X95511776Y-140217000D01*
X95511776Y-140762000D01*
X95558843Y-141012140D01*
X95612718Y-141095865D01*
X95565998Y-141164242D01*
X95511776Y-141432000D01*
X95511776Y-141756560D01*
X95388251Y-141674023D01*
X94996000Y-141596000D01*
X94897276Y-141596000D01*
X94884028Y-141586948D01*
X94616270Y-141532726D01*
X93816170Y-141532726D01*
X93566030Y-141579793D01*
X93336291Y-141727626D01*
X93243285Y-141863745D01*
X93129540Y-141750000D01*
X92296240Y-141750000D01*
X92296240Y-141770000D01*
X92138240Y-141770000D01*
X92138240Y-141750000D01*
X91304940Y-141750000D01*
X91134190Y-141920750D01*
X91134190Y-142206907D01*
X91220703Y-142415766D01*
X90784770Y-141979072D01*
X90169360Y-141723532D01*
X89503004Y-141722950D01*
X88887148Y-141977416D01*
X88415552Y-142448190D01*
X88160012Y-143063600D01*
X88159430Y-143729956D01*
X88413896Y-144345812D01*
X88884670Y-144817408D01*
X89500080Y-145072948D01*
X90166436Y-145073530D01*
X90782292Y-144819064D01*
X91005745Y-144596000D01*
X91147276Y-144596000D01*
X91134190Y-144627593D01*
X91134190Y-144913750D01*
X91304940Y-145084500D01*
X92138240Y-145084500D01*
X92138240Y-145064500D01*
X92296240Y-145064500D01*
X92296240Y-145084500D01*
X93129540Y-145084500D01*
X93300290Y-144913750D01*
X93300290Y-144627593D01*
X93196309Y-144376562D01*
X93173056Y-144353309D01*
X93251292Y-144238808D01*
X93305514Y-143971050D01*
X93305514Y-143473994D01*
X93322846Y-143500929D01*
X93548412Y-143655052D01*
X93816170Y-143709274D01*
X94616270Y-143709274D01*
X94631786Y-143706355D01*
X94652215Y-143726784D01*
X94914819Y-143902251D01*
X94984749Y-143948977D01*
X95377000Y-144027000D01*
X95511776Y-144027000D01*
X95511776Y-144517000D01*
X95313500Y-144517000D01*
X94921249Y-144595023D01*
X94588716Y-144817216D01*
X94380706Y-145025226D01*
X93816170Y-145025226D01*
X93566030Y-145072293D01*
X93336291Y-145220126D01*
X93243285Y-145356245D01*
X93129540Y-145242500D01*
X92296240Y-145242500D01*
X92296240Y-145262500D01*
X92138240Y-145262500D01*
X92138240Y-145242500D01*
X91304940Y-145242500D01*
X91134190Y-145413250D01*
X91134190Y-145699407D01*
X91193653Y-145842962D01*
X90845730Y-145494432D01*
X90230320Y-145238892D01*
X89563964Y-145238310D01*
X88948108Y-145492776D01*
X88476512Y-145963550D01*
X88220972Y-146578960D01*
X88220390Y-147245316D01*
X88474856Y-147861172D01*
X88945630Y-148332768D01*
X89561040Y-148588308D01*
X90227396Y-148588890D01*
X90843252Y-148334424D01*
X91079667Y-148098421D01*
X91070690Y-148120093D01*
X91070690Y-148406250D01*
X91241440Y-148577000D01*
X92074740Y-148577000D01*
X92074740Y-148557000D01*
X92232740Y-148557000D01*
X92232740Y-148577000D01*
X93066040Y-148577000D01*
X93236790Y-148406250D01*
X93236790Y-148120093D01*
X93142003Y-147891258D01*
X93251292Y-147731308D01*
X93305514Y-147463550D01*
X93305514Y-146966494D01*
X93322846Y-146993429D01*
X93548412Y-147147552D01*
X93816170Y-147201774D01*
X94616270Y-147201774D01*
X94866410Y-147154707D01*
X94958529Y-147095430D01*
X95134251Y-147060477D01*
X95466784Y-146838284D01*
X95511776Y-146793292D01*
X95511776Y-147112000D01*
X95515265Y-147130544D01*
X95492749Y-147135023D01*
X95160215Y-147357216D01*
X93999706Y-148517726D01*
X93752670Y-148517726D01*
X93502530Y-148564793D01*
X93272791Y-148712626D01*
X93179785Y-148848745D01*
X93066040Y-148735000D01*
X92232740Y-148735000D01*
X92232740Y-148755000D01*
X92074740Y-148755000D01*
X92074740Y-148735000D01*
X91241440Y-148735000D01*
X91070690Y-148905750D01*
X91070690Y-149191907D01*
X91174671Y-149442938D01*
X91262733Y-149531000D01*
X91194763Y-149531000D01*
X91174264Y-149481388D01*
X90703490Y-149009792D01*
X90088080Y-148754252D01*
X89421724Y-148753670D01*
X88805868Y-149008136D01*
X88334272Y-149478910D01*
X88078732Y-150094320D01*
X88078150Y-150760676D01*
X88332616Y-151376532D01*
X88803390Y-151848128D01*
X89418800Y-152103668D01*
X90085156Y-152104250D01*
X90701012Y-151849784D01*
X90970265Y-151581000D01*
X91472684Y-151581000D01*
X91485932Y-151590052D01*
X91753690Y-151644274D01*
X92553790Y-151644274D01*
X92803930Y-151597207D01*
X93033669Y-151449374D01*
X93187792Y-151223808D01*
X93242014Y-150956050D01*
X93242014Y-150458994D01*
X93259346Y-150485929D01*
X93484912Y-150640052D01*
X93752670Y-150694274D01*
X94552770Y-150694274D01*
X94802910Y-150647207D01*
X95032649Y-150499374D01*
X95186772Y-150273808D01*
X95197948Y-150218620D01*
X95925000Y-149491569D01*
X95925000Y-150783431D01*
X94571432Y-152137000D01*
X86530569Y-152137000D01*
X86229938Y-151836370D01*
X86230307Y-151413480D01*
X85960649Y-150760857D01*
X85480000Y-150279369D01*
X85480000Y-149021800D01*
X85401977Y-148629549D01*
X85374809Y-148588890D01*
X85179784Y-148297015D01*
X83956000Y-147073232D01*
X83956000Y-140549828D01*
X84434894Y-140071769D01*
X84705691Y-139419618D01*
X84706307Y-138713480D01*
X84436649Y-138060857D01*
X84082504Y-137706093D01*
X91134190Y-137706093D01*
X91134190Y-137992250D01*
X91304940Y-138163000D01*
X92138240Y-138163000D01*
X92138240Y-137329700D01*
X92296240Y-137329700D01*
X92296240Y-138163000D01*
X93129540Y-138163000D01*
X93300290Y-137992250D01*
X93300290Y-137706093D01*
X93196309Y-137455062D01*
X93004179Y-137262931D01*
X92753147Y-137158950D01*
X92466990Y-137158950D01*
X92296240Y-137329700D01*
X92138240Y-137329700D01*
X91967490Y-137158950D01*
X91681333Y-137158950D01*
X91430301Y-137262931D01*
X91238171Y-137455062D01*
X91134190Y-137706093D01*
X84082504Y-137706093D01*
X83937769Y-137561106D01*
X83285618Y-137290309D01*
X82579480Y-137289693D01*
X81926857Y-137559351D01*
X81427106Y-138058231D01*
X81156309Y-138710382D01*
X81155693Y-139416520D01*
X81425351Y-140069143D01*
X81906000Y-140550631D01*
X81906000Y-147497800D01*
X81972526Y-147832250D01*
X81984023Y-147890051D01*
X82206216Y-148222584D01*
X83430000Y-149446369D01*
X83430000Y-150280172D01*
X82951106Y-150758231D01*
X82680309Y-151410382D01*
X82679834Y-151955128D01*
X82658649Y-151903857D01*
X82178000Y-151422369D01*
X82178000Y-150749000D01*
X82099977Y-150356749D01*
X82082628Y-150330784D01*
X81877784Y-150024215D01*
X80480784Y-148627216D01*
X80148251Y-148405023D01*
X79756000Y-148327000D01*
X76160828Y-148327000D01*
X75682769Y-147848106D01*
X75030618Y-147577309D01*
X74324480Y-147576693D01*
X73671857Y-147846351D01*
X73172106Y-148345231D01*
X72901309Y-148997382D01*
X72900693Y-149703520D01*
X73170351Y-150356143D01*
X73669231Y-150855894D01*
X74321382Y-151126691D01*
X75027520Y-151127307D01*
X75680143Y-150857649D01*
X76161631Y-150377000D01*
X79331432Y-150377000D01*
X80128000Y-151173569D01*
X80128000Y-151423172D01*
X79649106Y-151901231D01*
X79528275Y-152192224D01*
X79356649Y-151776857D01*
X78857769Y-151277106D01*
X78205618Y-151006309D01*
X77499480Y-151005693D01*
X76846857Y-151275351D01*
X76347106Y-151774231D01*
X76076309Y-152426382D01*
X76075693Y-153132520D01*
X76345351Y-153785143D01*
X76826000Y-154266631D01*
X76826000Y-154388431D01*
X76791432Y-154423000D01*
X76160828Y-154423000D01*
X75682769Y-153944106D01*
X75030618Y-153673309D01*
X74324480Y-153672693D01*
X73671857Y-153942351D01*
X73172106Y-154441231D01*
X72901309Y-155093382D01*
X72900693Y-155799520D01*
X73170351Y-156452143D01*
X73669231Y-156951894D01*
X74321382Y-157222691D01*
X75027520Y-157223307D01*
X75680143Y-156953649D01*
X76161631Y-156473000D01*
X77216000Y-156473000D01*
X77608251Y-156394977D01*
X77940784Y-156172784D01*
X78168500Y-155945068D01*
X78904216Y-156680785D01*
X79103555Y-156813979D01*
X79236749Y-156902977D01*
X79629000Y-156981000D01*
X87008358Y-156981000D01*
X86996106Y-156993231D01*
X86725309Y-157645382D01*
X86724693Y-158351520D01*
X86994351Y-159004143D01*
X87493231Y-159503894D01*
X88145382Y-159774691D01*
X88838137Y-159775295D01*
X88810218Y-159803214D01*
X88810215Y-159803216D01*
X88302216Y-160311216D01*
X88080023Y-160643749D01*
X88002000Y-161036000D01*
X88002000Y-161744776D01*
X87757000Y-161744776D01*
X87506860Y-161791843D01*
X87277121Y-161939676D01*
X87122998Y-162165242D01*
X87068776Y-162433000D01*
X87068776Y-164973000D01*
X87115843Y-165223140D01*
X87263676Y-165452879D01*
X87489242Y-165607002D01*
X87757000Y-165661224D01*
X90297000Y-165661224D01*
X90547140Y-165614157D01*
X90776879Y-165466324D01*
X90931002Y-165240758D01*
X90985224Y-164973000D01*
X90985224Y-162433000D01*
X90938157Y-162182860D01*
X90790324Y-161953121D01*
X90564758Y-161798998D01*
X90297000Y-161744776D01*
X90052000Y-161744776D01*
X90052000Y-161460569D01*
X90259784Y-161252785D01*
X90259786Y-161252782D01*
X91991568Y-159521000D01*
X95631000Y-159521000D01*
X96023251Y-159442977D01*
X96355784Y-159220784D01*
X97325569Y-158251000D01*
X102619967Y-158251000D01*
X102353546Y-158429017D01*
X102020019Y-158928174D01*
X101902900Y-159516971D01*
X101902900Y-159791531D01*
X101365932Y-160328500D01*
X100572031Y-160328500D01*
X100526657Y-160087360D01*
X100378824Y-159857621D01*
X100153258Y-159703498D01*
X99885500Y-159649276D01*
X97853500Y-159649276D01*
X97603360Y-159696343D01*
X97373621Y-159844176D01*
X97219498Y-160069742D01*
X97167099Y-160328500D01*
X94678500Y-160328500D01*
X94294610Y-160404860D01*
X94286249Y-160406523D01*
X93953716Y-160628716D01*
X93382216Y-161200216D01*
X93160023Y-161532749D01*
X93082000Y-161925000D01*
X93082000Y-162022028D01*
X93006685Y-162053148D01*
X92459071Y-162599807D01*
X92162338Y-163314418D01*
X92161663Y-164088187D01*
X92457148Y-164803315D01*
X93003807Y-165350929D01*
X93718418Y-165647662D01*
X94492187Y-165648337D01*
X95207315Y-165352852D01*
X95754929Y-164806193D01*
X95991269Y-164237022D01*
X97205591Y-164237022D01*
X97450027Y-164827158D01*
X97915373Y-165299296D01*
X98525977Y-165557415D01*
X98790500Y-165419918D01*
X98790500Y-163972500D01*
X98948500Y-163972500D01*
X98948500Y-165419918D01*
X99213023Y-165557415D01*
X99823627Y-165299296D01*
X100288973Y-164827158D01*
X100406257Y-164544000D01*
X102250500Y-164544000D01*
X102250500Y-164798000D01*
X102410061Y-165442166D01*
X102803987Y-165976236D01*
X103372307Y-166318903D01*
X103605978Y-166382909D01*
X103870500Y-166245207D01*
X103870500Y-164544000D01*
X102250500Y-164544000D01*
X100406257Y-164544000D01*
X100533409Y-164237022D01*
X100478738Y-164132000D01*
X102250500Y-164132000D01*
X102250500Y-164386000D01*
X103870500Y-164386000D01*
X103870500Y-162684793D01*
X103605978Y-162547091D01*
X103372307Y-162611097D01*
X102803987Y-162953764D01*
X102410061Y-163487834D01*
X102250500Y-164132000D01*
X100478738Y-164132000D01*
X100395707Y-163972500D01*
X98948500Y-163972500D01*
X98790500Y-163972500D01*
X97343293Y-163972500D01*
X97205591Y-164237022D01*
X95991269Y-164237022D01*
X96051662Y-164091582D01*
X96052337Y-163317813D01*
X95756852Y-162602685D01*
X95533058Y-162378500D01*
X97166969Y-162378500D01*
X97212343Y-162619640D01*
X97360176Y-162849379D01*
X97478928Y-162930519D01*
X97450027Y-162959842D01*
X97205591Y-163549978D01*
X97343293Y-163814500D01*
X98790500Y-163814500D01*
X98790500Y-163794500D01*
X98948500Y-163794500D01*
X98948500Y-163814500D01*
X100395707Y-163814500D01*
X100533409Y-163549978D01*
X100288973Y-162959842D01*
X100260113Y-162930561D01*
X100365379Y-162862824D01*
X100519502Y-162637258D01*
X100571901Y-162378500D01*
X101790500Y-162378500D01*
X102182751Y-162300477D01*
X102515284Y-162078284D01*
X103212492Y-161381076D01*
X103441500Y-161426629D01*
X104030297Y-161309510D01*
X104529454Y-160975983D01*
X104711500Y-160703533D01*
X104893546Y-160975983D01*
X104956500Y-161018048D01*
X104956500Y-162623500D01*
X105012269Y-162903874D01*
X104526693Y-162611097D01*
X104293022Y-162547091D01*
X104028500Y-162684793D01*
X104028500Y-164386000D01*
X104048500Y-164386000D01*
X104048500Y-164544000D01*
X104028500Y-164544000D01*
X104028500Y-166245207D01*
X104293022Y-166382909D01*
X104526693Y-166318903D01*
X105095013Y-165976236D01*
X105207513Y-165823712D01*
X105293782Y-165952823D01*
X105842382Y-166319385D01*
X106489500Y-166448105D01*
X107136618Y-166319385D01*
X107685218Y-165952823D01*
X107759500Y-165841652D01*
X107833782Y-165952823D01*
X108382382Y-166319385D01*
X109029500Y-166448105D01*
X109676618Y-166319385D01*
X110225218Y-165952823D01*
X110436849Y-165636093D01*
X114132531Y-165636093D01*
X114543779Y-166631389D01*
X115304606Y-167393545D01*
X116299182Y-167806529D01*
X117376093Y-167807469D01*
X118371389Y-167396221D01*
X119133545Y-166635394D01*
X119546529Y-165640818D01*
X119547469Y-164563907D01*
X119136221Y-163568611D01*
X118375394Y-162806455D01*
X117380818Y-162393471D01*
X116303907Y-162392531D01*
X115308611Y-162803779D01*
X114546455Y-163564606D01*
X114133471Y-164559182D01*
X114132531Y-165636093D01*
X110436849Y-165636093D01*
X110591780Y-165404223D01*
X110720500Y-164757105D01*
X110720500Y-164223568D01*
X112375069Y-162569000D01*
X115570000Y-162569000D01*
X115962251Y-162490977D01*
X116294784Y-162268784D01*
X117327535Y-161236033D01*
X117755382Y-161413691D01*
X118461520Y-161414307D01*
X119114143Y-161144649D01*
X119613894Y-160645769D01*
X119884691Y-159993618D01*
X119885307Y-159287480D01*
X119615649Y-158634857D01*
X119116769Y-158135106D01*
X119058393Y-158110866D01*
X119056977Y-158103749D01*
X118834784Y-157771216D01*
X115515500Y-154451932D01*
X115515500Y-150900328D01*
X115717926Y-150698254D01*
X117002469Y-150698254D01*
X117106369Y-150994783D01*
X117762831Y-151263474D01*
X118472146Y-151260495D01*
X119113631Y-150994783D01*
X119217531Y-150698254D01*
X118110000Y-149590723D01*
X117002469Y-150698254D01*
X115717926Y-150698254D01*
X115994394Y-150422269D01*
X116265191Y-149770118D01*
X116265747Y-149131831D01*
X116325526Y-149131831D01*
X116328505Y-149841146D01*
X116594217Y-150482631D01*
X116890746Y-150586531D01*
X117998277Y-149479000D01*
X118221723Y-149479000D01*
X119329254Y-150586531D01*
X119625783Y-150482631D01*
X119894474Y-149826169D01*
X119891495Y-149116854D01*
X119625783Y-148475369D01*
X119329254Y-148371469D01*
X118221723Y-149479000D01*
X117998277Y-149479000D01*
X116890746Y-148371469D01*
X116594217Y-148475369D01*
X116325526Y-149131831D01*
X116265747Y-149131831D01*
X116265807Y-149063980D01*
X115996149Y-148411357D01*
X115844803Y-148259746D01*
X117002469Y-148259746D01*
X118110000Y-149367277D01*
X119217531Y-148259746D01*
X119113631Y-147963217D01*
X118457169Y-147694526D01*
X117747854Y-147697505D01*
X117106369Y-147963217D01*
X117002469Y-148259746D01*
X115844803Y-148259746D01*
X115497269Y-147911606D01*
X114845118Y-147640809D01*
X114138980Y-147640193D01*
X113486357Y-147909851D01*
X112986606Y-148408731D01*
X112715809Y-149060882D01*
X112715193Y-149767020D01*
X112984851Y-150419643D01*
X113465500Y-150901131D01*
X113465500Y-154876500D01*
X113481747Y-154958179D01*
X113373784Y-154850216D01*
X113041251Y-154628023D01*
X112649000Y-154550000D01*
X103040569Y-154550000D01*
X102151002Y-153660434D01*
X102151002Y-148331750D01*
X104817000Y-148331750D01*
X104817000Y-148517857D01*
X104920981Y-148768889D01*
X105113112Y-148961019D01*
X105364143Y-149065000D01*
X106000250Y-149065000D01*
X106171000Y-148894250D01*
X106171000Y-148161000D01*
X106329000Y-148161000D01*
X106329000Y-148894250D01*
X106499750Y-149065000D01*
X107135857Y-149065000D01*
X107386888Y-148961019D01*
X107579019Y-148768889D01*
X107683000Y-148517857D01*
X107683000Y-148331750D01*
X107512250Y-148161000D01*
X106329000Y-148161000D01*
X106171000Y-148161000D01*
X104987750Y-148161000D01*
X104817000Y-148331750D01*
X102151002Y-148331750D01*
X102151002Y-142020002D01*
X102072979Y-141627751D01*
X101975758Y-141482250D01*
X101850786Y-141295217D01*
X99958000Y-139402432D01*
X99958000Y-130810000D01*
X99879977Y-130417749D01*
X99779756Y-130267758D01*
X99657785Y-130085216D01*
X94703568Y-125131000D01*
X99692852Y-125131000D01*
X103480702Y-128918850D01*
X102843618Y-128654309D01*
X102137480Y-128653693D01*
X101484857Y-128923351D01*
X100985106Y-129422231D01*
X100714309Y-130074382D01*
X100713693Y-130780520D01*
X100983351Y-131433143D01*
X101118802Y-131568830D01*
X100669476Y-132018156D01*
X100447283Y-132350689D01*
X100369260Y-132742940D01*
X100369260Y-135509000D01*
X100436859Y-135848847D01*
X100447283Y-135901251D01*
X100669476Y-136233784D01*
X101943776Y-137508085D01*
X101943776Y-137855200D01*
X101990843Y-138105340D01*
X102138676Y-138335079D01*
X102364242Y-138489202D01*
X102607000Y-138538361D01*
X102607000Y-139496800D01*
X102661148Y-139769023D01*
X102685023Y-139889051D01*
X102907216Y-140221584D01*
X103872416Y-141186784D01*
X104204949Y-141408977D01*
X104597200Y-141487000D01*
X104821750Y-141487000D01*
X104987750Y-141653000D01*
X106171000Y-141653000D01*
X106171000Y-141633000D01*
X106329000Y-141633000D01*
X106329000Y-141653000D01*
X107512250Y-141653000D01*
X107683000Y-141482250D01*
X107683000Y-141296143D01*
X107595811Y-141085652D01*
X107634002Y-141029758D01*
X107688224Y-140762000D01*
X107688224Y-140162000D01*
X107641157Y-139911860D01*
X107587282Y-139828135D01*
X107634002Y-139759758D01*
X107688224Y-139492000D01*
X107688224Y-138892000D01*
X107641157Y-138641860D01*
X107493324Y-138412121D01*
X107459434Y-138388965D01*
X107485332Y-138378264D01*
X107956928Y-137907490D01*
X108098952Y-137565458D01*
X108195977Y-137420250D01*
X108196565Y-137417292D01*
X108198229Y-137414771D01*
X108235589Y-137221103D01*
X108273999Y-137028000D01*
X108273411Y-137025043D01*
X108273983Y-137022076D01*
X108234408Y-136828957D01*
X108212967Y-136721163D01*
X108213050Y-136625724D01*
X107958584Y-136009868D01*
X107954915Y-136006193D01*
X108116779Y-135844328D01*
X108220760Y-135593297D01*
X108220760Y-134707190D01*
X108050010Y-134536440D01*
X106616760Y-134536440D01*
X106616760Y-134556440D01*
X106458760Y-134556440D01*
X106458760Y-134536440D01*
X106438760Y-134536440D01*
X106438760Y-134378440D01*
X106458760Y-134378440D01*
X106458760Y-132945190D01*
X106288010Y-132774440D01*
X105401903Y-132774440D01*
X105150871Y-132878421D01*
X104958741Y-133070552D01*
X104854760Y-133321583D01*
X104854760Y-133344112D01*
X104779069Y-133319854D01*
X103743723Y-134355200D01*
X103757865Y-134369342D01*
X103646142Y-134481065D01*
X103632000Y-134466923D01*
X103617858Y-134481065D01*
X103506135Y-134369342D01*
X103520277Y-134355200D01*
X103506135Y-134341058D01*
X103617858Y-134229335D01*
X103632000Y-134243477D01*
X104667346Y-133208131D01*
X104575642Y-132921986D01*
X103955344Y-132669967D01*
X103285820Y-132674509D01*
X102688358Y-132921986D01*
X102596655Y-133208129D01*
X102487647Y-133099121D01*
X103963084Y-131623685D01*
X104185277Y-131291151D01*
X104263299Y-130898900D01*
X104247922Y-130821594D01*
X104263691Y-130783618D01*
X104264307Y-130077480D01*
X104000239Y-129438387D01*
X107336293Y-132774440D01*
X106787510Y-132774440D01*
X106616760Y-132945190D01*
X106616760Y-134378440D01*
X108050010Y-134378440D01*
X108220760Y-134207690D01*
X108220760Y-133658907D01*
X109057000Y-134495147D01*
X109057000Y-141856852D01*
X108836852Y-142077000D01*
X107683000Y-142077000D01*
X107683000Y-141981750D01*
X107512250Y-141811000D01*
X106329000Y-141811000D01*
X106329000Y-141831000D01*
X106171000Y-141831000D01*
X106171000Y-141811000D01*
X104987750Y-141811000D01*
X104817000Y-141981750D01*
X104817000Y-142167857D01*
X104904189Y-142378348D01*
X104865998Y-142434242D01*
X104811776Y-142702000D01*
X104811776Y-143302000D01*
X104858843Y-143552140D01*
X104912718Y-143635865D01*
X104865998Y-143704242D01*
X104811776Y-143972000D01*
X104811776Y-144572000D01*
X104858843Y-144822140D01*
X104912718Y-144905865D01*
X104865998Y-144974242D01*
X104811776Y-145242000D01*
X104811776Y-145842000D01*
X104858843Y-146092140D01*
X104912718Y-146175865D01*
X104865998Y-146244242D01*
X104811776Y-146512000D01*
X104811776Y-147112000D01*
X104858843Y-147362140D01*
X104904955Y-147433800D01*
X104817000Y-147646143D01*
X104817000Y-147832250D01*
X104987750Y-148003000D01*
X106171000Y-148003000D01*
X106171000Y-147983000D01*
X106329000Y-147983000D01*
X106329000Y-148003000D01*
X107512250Y-148003000D01*
X107683000Y-147832250D01*
X107683000Y-147737000D01*
X110134400Y-147737000D01*
X110488382Y-147666589D01*
X110788474Y-147466074D01*
X110839621Y-147389527D01*
X113811074Y-144418074D01*
X114011589Y-144117983D01*
X114082000Y-143764000D01*
X114082000Y-142074568D01*
X114246776Y-142239344D01*
X114246776Y-145415000D01*
X114293843Y-145665140D01*
X114441676Y-145894879D01*
X114667242Y-146049002D01*
X114935000Y-146103224D01*
X118745000Y-146103224D01*
X118995140Y-146056157D01*
X119224879Y-145908324D01*
X119379002Y-145682758D01*
X119433224Y-145415000D01*
X119433224Y-141605000D01*
X119386157Y-141354860D01*
X119238324Y-141125121D01*
X119012758Y-140970998D01*
X118745000Y-140916776D01*
X117577643Y-140916776D01*
X118299543Y-140618493D01*
X119025942Y-139893361D01*
X119419551Y-138945445D01*
X119420447Y-137919058D01*
X119197840Y-137380308D01*
X120034071Y-136544076D01*
X120034074Y-136544074D01*
X120234589Y-136243982D01*
X120305000Y-135890000D01*
X120305000Y-131445000D01*
X120234589Y-131091018D01*
X120034074Y-130790926D01*
X120034071Y-130790924D01*
X119797000Y-130553853D01*
X119797000Y-124714000D01*
X119726589Y-124360018D01*
X119526074Y-124059926D01*
X111669000Y-116202852D01*
X111669000Y-98552005D01*
X111669001Y-98552000D01*
X111598589Y-98198018D01*
X111495771Y-98044140D01*
X111398074Y-97897926D01*
X111398071Y-97897924D01*
X102466074Y-88965926D01*
X102165983Y-88765411D01*
X101812000Y-88695000D01*
X99625869Y-88695000D01*
X99675000Y-88448000D01*
X99675000Y-86600151D01*
X99697572Y-86590824D01*
X100169168Y-86120050D01*
X100424708Y-85504640D01*
X100425290Y-84838284D01*
X100170824Y-84222428D01*
X99700050Y-83750832D01*
X99084640Y-83495292D01*
X98418284Y-83494710D01*
X97802428Y-83749176D01*
X97330832Y-84219950D01*
X97075292Y-84835360D01*
X97074710Y-85501716D01*
X97329176Y-86117572D01*
X97799950Y-86589168D01*
X97825000Y-86599570D01*
X97825000Y-88064852D01*
X97194852Y-88695000D01*
X96772366Y-88695000D01*
X96663483Y-88532046D01*
X96391033Y-88350000D01*
X96663483Y-88167954D01*
X96997010Y-87668797D01*
X97114129Y-87080000D01*
X96997010Y-86491203D01*
X96663483Y-85992046D01*
X96391033Y-85810000D01*
X96663483Y-85627954D01*
X96997010Y-85128797D01*
X97114129Y-84540000D01*
X96997010Y-83951203D01*
X96663483Y-83452046D01*
X96391033Y-83270000D01*
X96663483Y-83087954D01*
X96997010Y-82588797D01*
X97114129Y-82000000D01*
X96997010Y-81411203D01*
X96663483Y-80912046D01*
X96164326Y-80578519D01*
X95575529Y-80461400D01*
X95204471Y-80461400D01*
X94615674Y-80578519D01*
X94570056Y-80609000D01*
X92636224Y-80609000D01*
X92636224Y-80518000D01*
X92589157Y-80267860D01*
X92441324Y-80038121D01*
X92215758Y-79883998D01*
X91948000Y-79829776D01*
X89916000Y-79829776D01*
X89665860Y-79876843D01*
X89436121Y-80024676D01*
X89281998Y-80250242D01*
X89227776Y-80518000D01*
X89227776Y-82550000D01*
X89274843Y-82800140D01*
X89422676Y-83029879D01*
X89545695Y-83113935D01*
X89336591Y-83426882D01*
X89207871Y-84074000D01*
X89336591Y-84721118D01*
X89703153Y-85269718D01*
X90251753Y-85636280D01*
X90898871Y-85765000D01*
X90965129Y-85765000D01*
X91612247Y-85636280D01*
X91868586Y-85465000D01*
X94007634Y-85465000D01*
X94116517Y-85627954D01*
X94388967Y-85810000D01*
X94116517Y-85992046D01*
X94074452Y-86055000D01*
X93768000Y-86055000D01*
X93375749Y-86133023D01*
X93242555Y-86222021D01*
X93043216Y-86355215D01*
X89953216Y-89445216D01*
X89731023Y-89777749D01*
X89653000Y-90170000D01*
X89653000Y-101175432D01*
X86905216Y-103923216D01*
X86683023Y-104255749D01*
X86605000Y-104648000D01*
X86605000Y-111843431D01*
X84111216Y-114337216D01*
X83889023Y-114669749D01*
X83811000Y-115062000D01*
X83811000Y-120396000D01*
X83874798Y-120716736D01*
X83889023Y-120788251D01*
X84111216Y-121120784D01*
X89127715Y-126137284D01*
X89264977Y-126229000D01*
X86009089Y-126229000D01*
X86035346Y-126147069D01*
X85000000Y-125111723D01*
X84985858Y-125125865D01*
X84874135Y-125014142D01*
X84888277Y-125000000D01*
X85111723Y-125000000D01*
X86147069Y-126035346D01*
X86433214Y-125943642D01*
X86685233Y-125323344D01*
X86680691Y-124653820D01*
X86433214Y-124056358D01*
X86147069Y-123964654D01*
X85111723Y-125000000D01*
X84888277Y-125000000D01*
X84874135Y-124985858D01*
X84985858Y-124874135D01*
X85000000Y-124888277D01*
X86035346Y-123852931D01*
X85943642Y-123566786D01*
X85323344Y-123314767D01*
X84653820Y-123319309D01*
X84056358Y-123566786D01*
X84045385Y-123601026D01*
X83993324Y-123520121D01*
X83767758Y-123365998D01*
X83500000Y-123311776D01*
X81500000Y-123311776D01*
X81249860Y-123358843D01*
X81020121Y-123506676D01*
X80865998Y-123732242D01*
X80811776Y-124000000D01*
X80811776Y-124959000D01*
X80560000Y-124959000D01*
X80560000Y-123525000D01*
X80573000Y-123525000D01*
X80965251Y-123446977D01*
X81297784Y-123224784D01*
X82474784Y-122047785D01*
X82504025Y-122004023D01*
X82547784Y-121974784D01*
X82974784Y-121547785D01*
X83196977Y-121215251D01*
X83207126Y-121164228D01*
X83275000Y-120823000D01*
X83275000Y-114008568D01*
X85052785Y-112230784D01*
X85242419Y-111946977D01*
X85274977Y-111898251D01*
X85353000Y-111506000D01*
X85353000Y-104818568D01*
X86719784Y-103451784D01*
X86941977Y-103119251D01*
X86969702Y-102979866D01*
X88974785Y-100974784D01*
X89173988Y-100676656D01*
X89196977Y-100642251D01*
X89275000Y-100250000D01*
X89275000Y-89012000D01*
X89196977Y-88619749D01*
X89124313Y-88511000D01*
X88974784Y-88287215D01*
X87639000Y-86951432D01*
X87639000Y-83820000D01*
X87560977Y-83427749D01*
X87555750Y-83419926D01*
X87338784Y-83095215D01*
X86068784Y-81825216D01*
X85736251Y-81603023D01*
X85344000Y-81525000D01*
X82434992Y-81525000D01*
X82591600Y-81460131D01*
X82716222Y-81145945D01*
X81486000Y-79915723D01*
X81471858Y-79929865D01*
X81360135Y-79818142D01*
X81374277Y-79804000D01*
X81597723Y-79804000D01*
X82827945Y-81034222D01*
X83142131Y-80909600D01*
X83439160Y-80191667D01*
X83438839Y-79414716D01*
X83142131Y-78698400D01*
X82827945Y-78573778D01*
X81597723Y-79804000D01*
X81374277Y-79804000D01*
X81360135Y-79789858D01*
X81471858Y-79678135D01*
X81486000Y-79692277D01*
X82716222Y-78462055D01*
X82638853Y-78267000D01*
X108059432Y-78267000D01*
X113275000Y-83482569D01*
X113275000Y-114300000D01*
X113336463Y-114608999D01*
X113353023Y-114692251D01*
X113575216Y-115024784D01*
X116629026Y-118078595D01*
X116642990Y-118148797D01*
X116976517Y-118647954D01*
X117475674Y-118981481D01*
X118064471Y-119098600D01*
X118435529Y-119098600D01*
X119024326Y-118981481D01*
X119523483Y-118647954D01*
X119857010Y-118148797D01*
X119974129Y-117560000D01*
X119857010Y-116971203D01*
X119523483Y-116472046D01*
X119252901Y-116291248D01*
X119611993Y-115989548D01*
X119890948Y-115452854D01*
X119915606Y-115339653D01*
X119775980Y-115099000D01*
X118329000Y-115099000D01*
X118329000Y-115119000D01*
X118171000Y-115119000D01*
X118171000Y-115099000D01*
X116724020Y-115099000D01*
X116659600Y-115210031D01*
X115325000Y-113875432D01*
X115325000Y-107400000D01*
X116525871Y-107400000D01*
X116642990Y-107988797D01*
X116976517Y-108487954D01*
X117248967Y-108670000D01*
X116976517Y-108852046D01*
X116642990Y-109351203D01*
X116525871Y-109940000D01*
X116642990Y-110528797D01*
X116976517Y-111027954D01*
X117248967Y-111210000D01*
X116976517Y-111392046D01*
X116642990Y-111891203D01*
X116525871Y-112480000D01*
X116642990Y-113068797D01*
X116976517Y-113567954D01*
X117247099Y-113748752D01*
X116888007Y-114050452D01*
X116609052Y-114587146D01*
X116584394Y-114700347D01*
X116724020Y-114941000D01*
X118171000Y-114941000D01*
X118171000Y-114921000D01*
X118329000Y-114921000D01*
X118329000Y-114941000D01*
X119775980Y-114941000D01*
X119915606Y-114700347D01*
X119890948Y-114587146D01*
X119611993Y-114050452D01*
X119252901Y-113748752D01*
X119523483Y-113567954D01*
X119857010Y-113068797D01*
X119974129Y-112480000D01*
X119857010Y-111891203D01*
X119523483Y-111392046D01*
X119251033Y-111210000D01*
X119523483Y-111027954D01*
X119857010Y-110528797D01*
X119974129Y-109940000D01*
X119857010Y-109351203D01*
X119523483Y-108852046D01*
X119251033Y-108670000D01*
X119523483Y-108487954D01*
X119857010Y-107988797D01*
X119974129Y-107400000D01*
X119857010Y-106811203D01*
X119523483Y-106312046D01*
X119252901Y-106131248D01*
X119611993Y-105829548D01*
X119890948Y-105292854D01*
X119915606Y-105179653D01*
X119775980Y-104939000D01*
X118329000Y-104939000D01*
X118329000Y-104959000D01*
X118171000Y-104959000D01*
X118171000Y-104939000D01*
X116724020Y-104939000D01*
X116584394Y-105179653D01*
X116609052Y-105292854D01*
X116888007Y-105829548D01*
X117247099Y-106131248D01*
X116976517Y-106312046D01*
X116642990Y-106811203D01*
X116525871Y-107400000D01*
X115325000Y-107400000D01*
X115325000Y-83058000D01*
X115246977Y-82665749D01*
X115173095Y-82555177D01*
X115024784Y-82333215D01*
X114691569Y-82000000D01*
X116525871Y-82000000D01*
X116642990Y-82588797D01*
X116976517Y-83087954D01*
X117248967Y-83270000D01*
X116976517Y-83452046D01*
X116642990Y-83951203D01*
X116525871Y-84540000D01*
X116642990Y-85128797D01*
X116976517Y-85627954D01*
X117248967Y-85810000D01*
X116976517Y-85992046D01*
X116642990Y-86491203D01*
X116525871Y-87080000D01*
X116642990Y-87668797D01*
X116976517Y-88167954D01*
X117248967Y-88350000D01*
X116976517Y-88532046D01*
X116642990Y-89031203D01*
X116525871Y-89620000D01*
X116642990Y-90208797D01*
X116976517Y-90707954D01*
X117248967Y-90890000D01*
X116976517Y-91072046D01*
X116642990Y-91571203D01*
X116525871Y-92160000D01*
X116642990Y-92748797D01*
X116976517Y-93247954D01*
X117248967Y-93430000D01*
X116976517Y-93612046D01*
X116642990Y-94111203D01*
X116525871Y-94700000D01*
X116642990Y-95288797D01*
X116976517Y-95787954D01*
X117248967Y-95970000D01*
X116976517Y-96152046D01*
X116642990Y-96651203D01*
X116525871Y-97240000D01*
X116642990Y-97828797D01*
X116976517Y-98327954D01*
X117248967Y-98510000D01*
X116976517Y-98692046D01*
X116642990Y-99191203D01*
X116525871Y-99780000D01*
X116642990Y-100368797D01*
X116976517Y-100867954D01*
X117248967Y-101050000D01*
X116976517Y-101232046D01*
X116642990Y-101731203D01*
X116525871Y-102320000D01*
X116642990Y-102908797D01*
X116976517Y-103407954D01*
X117247099Y-103588752D01*
X116888007Y-103890452D01*
X116609052Y-104427146D01*
X116584394Y-104540347D01*
X116724020Y-104781000D01*
X118171000Y-104781000D01*
X118171000Y-104761000D01*
X118329000Y-104761000D01*
X118329000Y-104781000D01*
X119775980Y-104781000D01*
X119915606Y-104540347D01*
X119890948Y-104427146D01*
X119611993Y-103890452D01*
X119252901Y-103588752D01*
X119523483Y-103407954D01*
X119857010Y-102908797D01*
X119974129Y-102320000D01*
X119857010Y-101731203D01*
X119523483Y-101232046D01*
X119251033Y-101050000D01*
X119523483Y-100867954D01*
X119857010Y-100368797D01*
X119974129Y-99780000D01*
X119857010Y-99191203D01*
X119523483Y-98692046D01*
X119251033Y-98510000D01*
X119523483Y-98327954D01*
X119857010Y-97828797D01*
X119974129Y-97240000D01*
X119857010Y-96651203D01*
X119523483Y-96152046D01*
X119251033Y-95970000D01*
X119523483Y-95787954D01*
X119857010Y-95288797D01*
X119974129Y-94700000D01*
X119857010Y-94111203D01*
X119523483Y-93612046D01*
X119251033Y-93430000D01*
X119523483Y-93247954D01*
X119857010Y-92748797D01*
X119974129Y-92160000D01*
X119857010Y-91571203D01*
X119523483Y-91072046D01*
X119251033Y-90890000D01*
X119523483Y-90707954D01*
X119857010Y-90208797D01*
X119974129Y-89620000D01*
X119857010Y-89031203D01*
X119523483Y-88532046D01*
X119251033Y-88350000D01*
X119523483Y-88167954D01*
X119857010Y-87668797D01*
X119974129Y-87080000D01*
X119857010Y-86491203D01*
X119523483Y-85992046D01*
X119251033Y-85810000D01*
X119523483Y-85627954D01*
X119857010Y-85128797D01*
X119974129Y-84540000D01*
X119857010Y-83951203D01*
X119523483Y-83452046D01*
X119251033Y-83270000D01*
X119523483Y-83087954D01*
X119857010Y-82588797D01*
X119974129Y-82000000D01*
X119857010Y-81411203D01*
X119523483Y-80912046D01*
X119024326Y-80578519D01*
X118435529Y-80461400D01*
X118064471Y-80461400D01*
X117475674Y-80578519D01*
X116976517Y-80912046D01*
X116642990Y-81411203D01*
X116525871Y-82000000D01*
X114691569Y-82000000D01*
X110697662Y-78006093D01*
X114132531Y-78006093D01*
X114543779Y-79001389D01*
X115304606Y-79763545D01*
X116299182Y-80176529D01*
X117376093Y-80177469D01*
X118371389Y-79766221D01*
X119133545Y-79005394D01*
X119546529Y-78010818D01*
X119547469Y-76933907D01*
X119136221Y-75938611D01*
X118375394Y-75176455D01*
X117380818Y-74763471D01*
X116303907Y-74762531D01*
X115308611Y-75173779D01*
X114546455Y-75934606D01*
X114133471Y-76929182D01*
X114132531Y-78006093D01*
X110697662Y-78006093D01*
X109208784Y-76517216D01*
X108876251Y-76295023D01*
X108484000Y-76217000D01*
X80648713Y-76217000D01*
X80518000Y-76191000D01*
X80125750Y-76269022D01*
X79793216Y-76491215D01*
X79767216Y-76517216D01*
X79285218Y-76999214D01*
X79285215Y-76999216D01*
X78015216Y-78269216D01*
X77793023Y-78601749D01*
X77715000Y-78994000D01*
X77715000Y-80772000D01*
X77782976Y-81113740D01*
X77793023Y-81164251D01*
X78015216Y-81496784D01*
X79793216Y-83274785D01*
X79992555Y-83407979D01*
X80125749Y-83496977D01*
X80518000Y-83575000D01*
X84919432Y-83575000D01*
X85589000Y-84244569D01*
X85589000Y-87311776D01*
X84000000Y-87311776D01*
X83749860Y-87358843D01*
X83520121Y-87506676D01*
X83365998Y-87732242D01*
X83316839Y-87975000D01*
X82500000Y-87975000D01*
X82107749Y-88053023D01*
X81974555Y-88142021D01*
X81775216Y-88275215D01*
X80577216Y-89473216D01*
X80355023Y-89805749D01*
X80277000Y-90198000D01*
X80277000Y-91519469D01*
X80035860Y-91564843D01*
X79806121Y-91712676D01*
X79651998Y-91938242D01*
X79597776Y-92206000D01*
X79597776Y-93222000D01*
X79644843Y-93472140D01*
X79792676Y-93701879D01*
X80018242Y-93856002D01*
X80030619Y-93858508D01*
X79899111Y-93912981D01*
X79706981Y-94105112D01*
X79603000Y-94356143D01*
X79603000Y-94750250D01*
X79773750Y-94921000D01*
X81223000Y-94921000D01*
X81223000Y-94901000D01*
X81381000Y-94901000D01*
X81381000Y-94921000D01*
X81401000Y-94921000D01*
X81401000Y-95079000D01*
X81381000Y-95079000D01*
X81381000Y-95099000D01*
X81223000Y-95099000D01*
X81223000Y-95079000D01*
X79773750Y-95079000D01*
X79603000Y-95249750D01*
X79603000Y-95643857D01*
X79706981Y-95894888D01*
X79899111Y-96087019D01*
X80029413Y-96140992D01*
X79806121Y-96284676D01*
X79651998Y-96510242D01*
X79604814Y-96743246D01*
X79525000Y-96663432D01*
X79525000Y-90500000D01*
X79446977Y-90107749D01*
X79339552Y-89946977D01*
X79224785Y-89775216D01*
X76745006Y-87295438D01*
X77133929Y-86907193D01*
X77430662Y-86192582D01*
X77431058Y-85738627D01*
X78221215Y-86528784D01*
X78404447Y-86651216D01*
X78553749Y-86750977D01*
X78946000Y-86829000D01*
X79805028Y-86829000D01*
X79836148Y-86904315D01*
X80382807Y-87451929D01*
X81097418Y-87748662D01*
X81871187Y-87749337D01*
X82586315Y-87453852D01*
X83133929Y-86907193D01*
X83430662Y-86192582D01*
X83431337Y-85418813D01*
X83135852Y-84703685D01*
X82589193Y-84156071D01*
X81874582Y-83859338D01*
X81100813Y-83858663D01*
X80385685Y-84154148D01*
X79838071Y-84700807D01*
X79805602Y-84779000D01*
X79370569Y-84779000D01*
X77178784Y-82587216D01*
X76846251Y-82365023D01*
X76454000Y-82287000D01*
X74452568Y-82287000D01*
X75022157Y-81717411D01*
X75097418Y-81748662D01*
X75871187Y-81749337D01*
X76586315Y-81453852D01*
X77133929Y-80907193D01*
X77430662Y-80192582D01*
X77431337Y-79418813D01*
X77135852Y-78703685D01*
X76589193Y-78156071D01*
X75874582Y-77859338D01*
X75100813Y-77858663D01*
X74385685Y-78154148D01*
X73838071Y-78700807D01*
X73541338Y-79415418D01*
X73540663Y-80189187D01*
X73572995Y-80267437D01*
X73257232Y-80583200D01*
X67746917Y-80583200D01*
X68054471Y-79842526D01*
X68055226Y-78977310D01*
X67724820Y-78177665D01*
X67113553Y-77565330D01*
X66314486Y-77233529D01*
X65449270Y-77232774D01*
X64649625Y-77563180D01*
X64037290Y-78174447D01*
X63728431Y-78918263D01*
X63493685Y-78683517D01*
X63493484Y-78683216D01*
X63327521Y-78572322D01*
X63069753Y-77948477D01*
X62344621Y-77222078D01*
X61396705Y-76828469D01*
X60370318Y-76827573D01*
X59421717Y-77219527D01*
X58695318Y-77944659D01*
X58301709Y-78892575D01*
X58300813Y-79918962D01*
X58692767Y-80867563D01*
X59417899Y-81593962D01*
X60365815Y-81987571D01*
X61392202Y-81988467D01*
X62340803Y-81596513D01*
X62924683Y-81013651D01*
X64198031Y-82287000D01*
X54526568Y-82287000D01*
X53078257Y-80838689D01*
X53458291Y-79923465D01*
X53458364Y-79838730D01*
X53704754Y-79838730D01*
X54035160Y-80638375D01*
X54646427Y-81250710D01*
X55445494Y-81582511D01*
X56310710Y-81583266D01*
X57110355Y-81252860D01*
X57722690Y-80641593D01*
X58054491Y-79842526D01*
X58055246Y-78977310D01*
X57724840Y-78177665D01*
X57113573Y-77565330D01*
X56314506Y-77233529D01*
X55449290Y-77232774D01*
X54649645Y-77563180D01*
X54037310Y-78174447D01*
X53705509Y-78973514D01*
X53704754Y-79838730D01*
X53458364Y-79838730D01*
X53459187Y-78897078D01*
X53067233Y-77948477D01*
X52342101Y-77222078D01*
X51394185Y-76828469D01*
X50367798Y-76827573D01*
X49419197Y-77219527D01*
X48692798Y-77944659D01*
X48299189Y-78892575D01*
X48298293Y-79918962D01*
X48690247Y-80867563D01*
X49415379Y-81593962D01*
X50363295Y-81987571D01*
X51328846Y-81988414D01*
X53377216Y-84036784D01*
X53709749Y-84258977D01*
X54102000Y-84337000D01*
X74202514Y-84337000D01*
X73838071Y-84700807D01*
X73541338Y-85415418D01*
X73540663Y-86189187D01*
X73836148Y-86904315D01*
X74382807Y-87451929D01*
X74461000Y-87484398D01*
X74461000Y-87486000D01*
X74522250Y-87793926D01*
X74539023Y-87878251D01*
X74761216Y-88210784D01*
X77475000Y-90924569D01*
X77475000Y-97088000D01*
X77553023Y-97480251D01*
X77775216Y-97812784D01*
X78975000Y-99012569D01*
X78975000Y-99316480D01*
X78749860Y-99358843D01*
X78520121Y-99506676D01*
X78365998Y-99732242D01*
X78311776Y-100000000D01*
X78311776Y-102000000D01*
X78358843Y-102250140D01*
X78506676Y-102479879D01*
X78732242Y-102634002D01*
X79000000Y-102688224D01*
X81000000Y-102688224D01*
X81250140Y-102641157D01*
X81479879Y-102493324D01*
X81634002Y-102267758D01*
X81688224Y-102000000D01*
X81688224Y-100000000D01*
X81641157Y-99749860D01*
X81493324Y-99520121D01*
X81267758Y-99365998D01*
X81025000Y-99316839D01*
X81025000Y-99012568D01*
X81555344Y-98482224D01*
X82318000Y-98482224D01*
X82568140Y-98435157D01*
X82761085Y-98311000D01*
X82811776Y-98311000D01*
X82811776Y-98500000D01*
X82858843Y-98750140D01*
X82952095Y-98895058D01*
X82815857Y-98951351D01*
X82316106Y-99450231D01*
X82045309Y-100102382D01*
X82044693Y-100808520D01*
X82314351Y-101461143D01*
X82505325Y-101652450D01*
X82553023Y-101892251D01*
X82775216Y-102224784D01*
X82995475Y-102371957D01*
X82333216Y-103034216D01*
X82111023Y-103366749D01*
X82033000Y-103759000D01*
X82033000Y-110517431D01*
X81752390Y-110798042D01*
X81674758Y-110744998D01*
X81407000Y-110690776D01*
X79375000Y-110690776D01*
X79124860Y-110737843D01*
X78895121Y-110885676D01*
X78879573Y-110908431D01*
X78720749Y-110940023D01*
X78691271Y-110959720D01*
X78388216Y-111162215D01*
X76745216Y-112805216D01*
X76523023Y-113137749D01*
X76445000Y-113530000D01*
X76445000Y-117315480D01*
X76219860Y-117357843D01*
X75990121Y-117505676D01*
X75924947Y-117601061D01*
X75913642Y-117565786D01*
X75293344Y-117313767D01*
X74623820Y-117318309D01*
X74026358Y-117565786D01*
X73934654Y-117851931D01*
X74970000Y-118887277D01*
X74984142Y-118873135D01*
X75095865Y-118984858D01*
X75081723Y-118999000D01*
X75095865Y-119013142D01*
X74984142Y-119124865D01*
X74970000Y-119110723D01*
X73934654Y-120146069D01*
X74026358Y-120432214D01*
X74646656Y-120684233D01*
X75316180Y-120679691D01*
X75913642Y-120432214D01*
X75924615Y-120397974D01*
X75976676Y-120478879D01*
X76202242Y-120633002D01*
X76470000Y-120687224D01*
X78470000Y-120687224D01*
X78720140Y-120640157D01*
X78949879Y-120492324D01*
X79104002Y-120266758D01*
X79158224Y-119999000D01*
X79158224Y-117999000D01*
X79111157Y-117748860D01*
X78967134Y-117525042D01*
X78988111Y-117546019D01*
X79239143Y-117650000D01*
X80141250Y-117650000D01*
X80312000Y-117479250D01*
X80312000Y-116538000D01*
X78862750Y-116538000D01*
X78692000Y-116708750D01*
X78692000Y-117102857D01*
X78795981Y-117353888D01*
X78956659Y-117514567D01*
X78737758Y-117364998D01*
X78495000Y-117315839D01*
X78495000Y-113954568D01*
X78686776Y-113762792D01*
X78686776Y-114681000D01*
X78733843Y-114931140D01*
X78881676Y-115160879D01*
X79107242Y-115315002D01*
X79119619Y-115317508D01*
X78988111Y-115371981D01*
X78795981Y-115564112D01*
X78692000Y-115815143D01*
X78692000Y-116209250D01*
X78862750Y-116380000D01*
X80312000Y-116380000D01*
X80312000Y-116360000D01*
X80470000Y-116360000D01*
X80470000Y-116380000D01*
X80490000Y-116380000D01*
X80490000Y-116538000D01*
X80470000Y-116538000D01*
X80470000Y-117479250D01*
X80640750Y-117650000D01*
X81225000Y-117650000D01*
X81225000Y-120391724D01*
X81025216Y-120525216D01*
X80878217Y-120745214D01*
X80148432Y-121475000D01*
X71870569Y-121475000D01*
X69071225Y-118675656D01*
X73284767Y-118675656D01*
X73289309Y-119345180D01*
X73536786Y-119942642D01*
X73822931Y-120034346D01*
X74858277Y-118999000D01*
X73822931Y-117963654D01*
X73536786Y-118055358D01*
X73284767Y-118675656D01*
X69071225Y-118675656D01*
X67720830Y-117325261D01*
X68233375Y-117528983D01*
X68808172Y-117520718D01*
X69300831Y-117316652D01*
X69363491Y-117055214D01*
X68500000Y-116191723D01*
X68485858Y-116205865D01*
X68374135Y-116094142D01*
X68388277Y-116080000D01*
X68611723Y-116080000D01*
X69475214Y-116943491D01*
X69736652Y-116880831D01*
X69948983Y-116346625D01*
X69940718Y-115771828D01*
X69736652Y-115279169D01*
X69475214Y-115216509D01*
X68611723Y-116080000D01*
X68388277Y-116080000D01*
X67524786Y-115216509D01*
X67263348Y-115279169D01*
X67051017Y-115813375D01*
X67059282Y-116388172D01*
X67254119Y-116858551D01*
X66811000Y-116415432D01*
X66811000Y-108628568D01*
X67475000Y-107964568D01*
X67475000Y-109992759D01*
X67282481Y-110184942D01*
X67063250Y-110712909D01*
X67062752Y-111284583D01*
X67281061Y-111812931D01*
X67684942Y-112217519D01*
X67810989Y-112269858D01*
X67687069Y-112321061D01*
X67282481Y-112724942D01*
X67063250Y-113252909D01*
X67062752Y-113824583D01*
X67281061Y-114352931D01*
X67684942Y-114757519D01*
X67795524Y-114803437D01*
X67699169Y-114843348D01*
X67636509Y-115104786D01*
X68500000Y-115968277D01*
X69363491Y-115104786D01*
X69300831Y-114843348D01*
X69202875Y-114804413D01*
X69312931Y-114758939D01*
X69607385Y-114465000D01*
X69960000Y-114465000D01*
X70313983Y-114394589D01*
X70614074Y-114194074D01*
X71154074Y-113654074D01*
X71354589Y-113353983D01*
X71425000Y-113000000D01*
X71425000Y-107883148D01*
X71886684Y-107421463D01*
X72328507Y-107417377D01*
X72311776Y-107500000D01*
X72311776Y-109500000D01*
X72358843Y-109750140D01*
X72506676Y-109979879D01*
X72732242Y-110134002D01*
X72762000Y-110140028D01*
X72762000Y-111657669D01*
X72520860Y-111703043D01*
X72291121Y-111850876D01*
X72136998Y-112076442D01*
X72082776Y-112344200D01*
X72082776Y-116001800D01*
X72129843Y-116251940D01*
X72277676Y-116481679D01*
X72503242Y-116635802D01*
X72771000Y-116690024D01*
X74803000Y-116690024D01*
X75053140Y-116642957D01*
X75282879Y-116495124D01*
X75437002Y-116269558D01*
X75491224Y-116001800D01*
X75491224Y-112344200D01*
X75444157Y-112094060D01*
X75296324Y-111864321D01*
X75070758Y-111710198D01*
X74812000Y-111657799D01*
X74812000Y-110188224D01*
X75000000Y-110188224D01*
X75250140Y-110141157D01*
X75479879Y-109993324D01*
X75545053Y-109897939D01*
X75556358Y-109933214D01*
X76176656Y-110185233D01*
X76846180Y-110180691D01*
X77443642Y-109933214D01*
X77535346Y-109647069D01*
X76500000Y-108611723D01*
X76485858Y-108625865D01*
X76374135Y-108514142D01*
X76388277Y-108500000D01*
X76374135Y-108485858D01*
X76485858Y-108374135D01*
X76500000Y-108388277D01*
X76514142Y-108374135D01*
X76625865Y-108485858D01*
X76611723Y-108500000D01*
X77647069Y-109535346D01*
X77933214Y-109443642D01*
X78185233Y-108823344D01*
X78180691Y-108153820D01*
X77933214Y-107556358D01*
X77647071Y-107464655D01*
X77744434Y-107367292D01*
X78077309Y-107364214D01*
X78081176Y-107373572D01*
X78551950Y-107845168D01*
X79167360Y-108100708D01*
X79833716Y-108101290D01*
X80449572Y-107846824D01*
X80921168Y-107376050D01*
X81176708Y-106760640D01*
X81177290Y-106094284D01*
X80922824Y-105478428D01*
X80452050Y-105006832D01*
X79836640Y-104751292D01*
X79170284Y-104750710D01*
X78554428Y-105005176D01*
X78082832Y-105475950D01*
X78066936Y-105514232D01*
X71900310Y-105571259D01*
X73114785Y-104356784D01*
X73305755Y-104070977D01*
X73336977Y-104024251D01*
X73415000Y-103632000D01*
X73415000Y-102147069D01*
X75164654Y-102147069D01*
X75256358Y-102433214D01*
X75876656Y-102685233D01*
X76546180Y-102680691D01*
X77143642Y-102433214D01*
X77235346Y-102147069D01*
X76200000Y-101111723D01*
X75164654Y-102147069D01*
X73415000Y-102147069D01*
X73415000Y-100676656D01*
X74514767Y-100676656D01*
X74519309Y-101346180D01*
X74766786Y-101943642D01*
X75052931Y-102035346D01*
X76088277Y-101000000D01*
X76311723Y-101000000D01*
X77347069Y-102035346D01*
X77633214Y-101943642D01*
X77885233Y-101323344D01*
X77880691Y-100653820D01*
X77633214Y-100056358D01*
X77347069Y-99964654D01*
X76311723Y-101000000D01*
X76088277Y-101000000D01*
X75052931Y-99964654D01*
X74766786Y-100056358D01*
X74514767Y-100676656D01*
X73415000Y-100676656D01*
X73415000Y-99852931D01*
X75164654Y-99852931D01*
X76200000Y-100888277D01*
X77235346Y-99852931D01*
X77143642Y-99566786D01*
X76523344Y-99314767D01*
X75853820Y-99319309D01*
X75256358Y-99566786D01*
X75164654Y-99852931D01*
X73415000Y-99852931D01*
X73415000Y-97457479D01*
X73546143Y-97511800D01*
X74448250Y-97511800D01*
X74619000Y-97341050D01*
X74619000Y-95079000D01*
X74777000Y-95079000D01*
X74777000Y-97341050D01*
X74947750Y-97511800D01*
X75849857Y-97511800D01*
X76100889Y-97407819D01*
X76293019Y-97215688D01*
X76397000Y-96964657D01*
X76397000Y-95249750D01*
X76226250Y-95079000D01*
X74777000Y-95079000D01*
X74619000Y-95079000D01*
X74599000Y-95079000D01*
X74599000Y-94921000D01*
X74619000Y-94921000D01*
X74619000Y-92658950D01*
X74777000Y-92658950D01*
X74777000Y-94921000D01*
X76226250Y-94921000D01*
X76397000Y-94750250D01*
X76397000Y-93035343D01*
X76293019Y-92784312D01*
X76100889Y-92592181D01*
X75849857Y-92488200D01*
X74947750Y-92488200D01*
X74777000Y-92658950D01*
X74619000Y-92658950D01*
X74448250Y-92488200D01*
X73546143Y-92488200D01*
X73295111Y-92592181D01*
X73102981Y-92784312D01*
X72999000Y-93035343D01*
X72999000Y-93647432D01*
X70066784Y-90715216D01*
X69734251Y-90493023D01*
X69342000Y-90415000D01*
X57467500Y-90415000D01*
X57075249Y-90493023D01*
X56742715Y-90715216D01*
X52615216Y-94842716D01*
X52393023Y-95175249D01*
X52315000Y-95567500D01*
X52315000Y-97768331D01*
X52112313Y-97565290D01*
X51313246Y-97233489D01*
X50448030Y-97232734D01*
X49648385Y-97563140D01*
X49036050Y-98174407D01*
X48704249Y-98973474D01*
X48703494Y-99838690D01*
X49033900Y-100638335D01*
X49645167Y-101250670D01*
X50444234Y-101582471D01*
X51309450Y-101583226D01*
X52109095Y-101252820D01*
X52315000Y-101047274D01*
X52315000Y-103334431D01*
X48388432Y-107261000D01*
X47932331Y-107261000D01*
X47905887Y-107197000D01*
X47364849Y-106655016D01*
X46657586Y-106361335D01*
X45891774Y-106360667D01*
X45184000Y-106653113D01*
X44642016Y-107194151D01*
X44614258Y-107261000D01*
X41458600Y-107261000D01*
X41066349Y-107339023D01*
X40787673Y-107525229D01*
X40530140Y-107418292D01*
X39863784Y-107417710D01*
X39247928Y-107672176D01*
X38776332Y-108142950D01*
X38520792Y-108758360D01*
X38520210Y-109424716D01*
X38774676Y-110040572D01*
X39245450Y-110512168D01*
X39860860Y-110767708D01*
X40527216Y-110768290D01*
X41143072Y-110513824D01*
X41614668Y-110043050D01*
X41870208Y-109427640D01*
X41870299Y-109323870D01*
X41883169Y-109311000D01*
X44613669Y-109311000D01*
X44640113Y-109375000D01*
X45181151Y-109916984D01*
X45888414Y-110210665D01*
X46654226Y-110211333D01*
X47362000Y-109918887D01*
X47903984Y-109377849D01*
X47931742Y-109311000D01*
X48813000Y-109311000D01*
X49205251Y-109232977D01*
X49537784Y-109010784D01*
X54064785Y-104483784D01*
X54250444Y-104205926D01*
X54286977Y-104151251D01*
X54365000Y-103759000D01*
X54365000Y-100968751D01*
X54646427Y-101250670D01*
X55445494Y-101582471D01*
X56310710Y-101583226D01*
X57110355Y-101252820D01*
X57475000Y-100888811D01*
X57475000Y-102075431D01*
X51275216Y-108275216D01*
X51053023Y-108607749D01*
X50975000Y-109000000D01*
X50975000Y-115575431D01*
X47629901Y-118920531D01*
X47364849Y-118655016D01*
X46657586Y-118361335D01*
X45891774Y-118360667D01*
X45184000Y-118653113D01*
X44642016Y-119194151D01*
X44614258Y-119261000D01*
X41883724Y-119261000D01*
X41883724Y-118253000D01*
X41836657Y-118002860D01*
X41688824Y-117773121D01*
X41463258Y-117618998D01*
X41195500Y-117564776D01*
X39195500Y-117564776D01*
X38945360Y-117611843D01*
X38715621Y-117759676D01*
X38561498Y-117985242D01*
X38507276Y-118253000D01*
X37683500Y-118253000D01*
X37683500Y-117049160D01*
X39071348Y-115661000D01*
X42672281Y-115661000D01*
X43089353Y-116078800D01*
X43888468Y-116410622D01*
X44753736Y-116411377D01*
X45553429Y-116080951D01*
X46165800Y-115469647D01*
X46497622Y-114670532D01*
X46498377Y-113805264D01*
X46167951Y-113005571D01*
X45556647Y-112393200D01*
X44757532Y-112061378D01*
X43892264Y-112060623D01*
X43092571Y-112391049D01*
X42671887Y-112811000D01*
X38481000Y-112811000D01*
X38480920Y-112811016D01*
X38480840Y-112811000D01*
X38207043Y-112865494D01*
X37935676Y-112919472D01*
X37935609Y-112919517D01*
X37935528Y-112919533D01*
X37701106Y-113076207D01*
X37473373Y-113228373D01*
X37473329Y-113228440D01*
X37473259Y-113228486D01*
X35250760Y-115451486D01*
X35095078Y-115684536D01*
X34941972Y-115913676D01*
X34941956Y-115913755D01*
X34941910Y-115913824D01*
X34887086Y-116189604D01*
X34833500Y-116459000D01*
X34833500Y-123171710D01*
X33059577Y-124945479D01*
X33060447Y-123949058D01*
X32668493Y-123000457D01*
X31943361Y-122274058D01*
X31218872Y-121973224D01*
X32385000Y-121973224D01*
X32635140Y-121926157D01*
X32864879Y-121778324D01*
X33019002Y-121552758D01*
X33073224Y-121285000D01*
X33073224Y-117475000D01*
X33026157Y-117224860D01*
X32878324Y-116995121D01*
X32652758Y-116840998D01*
X32385000Y-116786776D01*
X31905000Y-116786776D01*
X31905000Y-107016254D01*
X38088274Y-100832980D01*
X43677254Y-100832980D01*
X43691527Y-100867523D01*
X44416659Y-101593922D01*
X45364575Y-101987531D01*
X46390962Y-101988427D01*
X47339563Y-101596473D01*
X48065962Y-100871341D01*
X48459571Y-99923425D01*
X48460467Y-98897038D01*
X48068513Y-97948437D01*
X47343381Y-97222038D01*
X46971252Y-97067517D01*
X46887647Y-96942393D01*
X35297627Y-85352373D01*
X34835324Y-85043472D01*
X34290000Y-84935000D01*
X33073224Y-84935000D01*
X33073224Y-84455000D01*
X33026157Y-84204860D01*
X32878324Y-83975121D01*
X32652758Y-83820998D01*
X32385000Y-83766776D01*
X28575000Y-83766776D01*
X28324860Y-83813843D01*
X28095121Y-83961676D01*
X27940998Y-84187242D01*
X27886776Y-84455000D01*
X27886776Y-88265000D01*
X27933843Y-88515140D01*
X28081676Y-88744879D01*
X28307242Y-88899002D01*
X28575000Y-88953224D01*
X29742357Y-88953224D01*
X29020457Y-89251507D01*
X28294058Y-89976639D01*
X27900449Y-90924555D01*
X27899553Y-91950942D01*
X28291507Y-92899543D01*
X29016639Y-93625942D01*
X29870235Y-93980386D01*
X29020457Y-94331507D01*
X28294058Y-95056639D01*
X27900449Y-96004555D01*
X27899553Y-97030942D01*
X27915415Y-97069331D01*
X25662373Y-99322373D01*
X25353472Y-99784676D01*
X25245000Y-100330000D01*
X25245000Y-133175000D01*
X24305000Y-133175000D01*
X24305000Y-78006093D01*
X25232531Y-78006093D01*
X25643779Y-79001389D01*
X26404606Y-79763545D01*
X27399182Y-80176529D01*
X28476093Y-80177469D01*
X29295903Y-79838730D01*
X43704774Y-79838730D01*
X44035180Y-80638375D01*
X44646447Y-81250710D01*
X45445514Y-81582511D01*
X46310730Y-81583266D01*
X47110375Y-81252860D01*
X47722710Y-80641593D01*
X48054511Y-79842526D01*
X48055266Y-78977310D01*
X47724860Y-78177665D01*
X47113593Y-77565330D01*
X46314526Y-77233529D01*
X45449310Y-77232774D01*
X44649665Y-77563180D01*
X44037330Y-78174447D01*
X43705529Y-78973514D01*
X43704774Y-79838730D01*
X29295903Y-79838730D01*
X29471389Y-79766221D01*
X30233545Y-79005394D01*
X30646529Y-78010818D01*
X30647469Y-76933907D01*
X30236221Y-75938611D01*
X29475394Y-75176455D01*
X28480818Y-74763471D01*
X27403907Y-74762531D01*
X26408611Y-75173779D01*
X25646455Y-75934606D01*
X25233471Y-76929182D01*
X25232531Y-78006093D01*
X24305000Y-78006093D01*
X24305000Y-73835000D01*
X120475000Y-73835000D01*
X120475000Y-168735000D01*
G36*
X116965865Y-133335858D02*
X116951723Y-133350000D01*
X116965865Y-133364142D01*
X116854142Y-133475865D01*
X116840000Y-133461723D01*
X116825858Y-133475865D01*
X116714135Y-133364142D01*
X116728277Y-133350000D01*
X116714135Y-133335858D01*
X116825858Y-133224135D01*
X116840000Y-133238277D01*
X116854142Y-133224135D01*
X116965865Y-133335858D01*
X116965865Y-133335858D01*
G37*
X116965865Y-133335858D02*
X116951723Y-133350000D01*
X116965865Y-133364142D01*
X116854142Y-133475865D01*
X116840000Y-133461723D01*
X116825858Y-133475865D01*
X116714135Y-133364142D01*
X116728277Y-133350000D01*
X116714135Y-133335858D01*
X116825858Y-133224135D01*
X116840000Y-133238277D01*
X116854142Y-133224135D01*
X116965865Y-133335858D01*
G36*
X109819000Y-98935147D02*
X109819000Y-116586000D01*
X109889411Y-116939983D01*
X110089926Y-117240074D01*
X117947000Y-125097148D01*
X117947000Y-130937000D01*
X117962528Y-131015063D01*
X117378900Y-130766914D01*
X116349374Y-130757312D01*
X115394542Y-131142424D01*
X115353618Y-131169768D01*
X115198000Y-131462684D01*
X115198000Y-128397000D01*
X115119977Y-128004749D01*
X114897784Y-127672216D01*
X105800000Y-118574432D01*
X105800000Y-116713000D01*
X105721977Y-116320749D01*
X105647475Y-116209250D01*
X105499784Y-115988215D01*
X104991784Y-115480216D01*
X104659251Y-115258023D01*
X104267000Y-115180000D01*
X102870000Y-115180000D01*
X102477749Y-115258023D01*
X102145215Y-115480216D01*
X101090432Y-116535000D01*
X96705548Y-116535000D01*
X96663483Y-116472046D01*
X96392901Y-116291248D01*
X96751993Y-115989548D01*
X97030948Y-115452854D01*
X97055606Y-115339653D01*
X96915980Y-115099000D01*
X95469000Y-115099000D01*
X95469000Y-115119000D01*
X95311000Y-115119000D01*
X95311000Y-115099000D01*
X93864020Y-115099000D01*
X93724394Y-115339653D01*
X93749052Y-115452854D01*
X94028007Y-115989548D01*
X94387099Y-116291248D01*
X94116517Y-116472046D01*
X93782990Y-116971203D01*
X93665871Y-117560000D01*
X93782990Y-118148797D01*
X93845103Y-118241755D01*
X93238760Y-117635412D01*
X93238760Y-110913788D01*
X93756571Y-110395977D01*
X93782990Y-110528797D01*
X94116517Y-111027954D01*
X94388967Y-111210000D01*
X94116517Y-111392046D01*
X93782990Y-111891203D01*
X93665871Y-112480000D01*
X93782990Y-113068797D01*
X94116517Y-113567954D01*
X94387099Y-113748752D01*
X94028007Y-114050452D01*
X93749052Y-114587146D01*
X93724394Y-114700347D01*
X93864020Y-114941000D01*
X95311000Y-114941000D01*
X95311000Y-114921000D01*
X95469000Y-114921000D01*
X95469000Y-114941000D01*
X96915980Y-114941000D01*
X97055606Y-114700347D01*
X97030948Y-114587146D01*
X96751993Y-114050452D01*
X96392901Y-113748752D01*
X96663483Y-113567954D01*
X96744302Y-113447000D01*
X98412265Y-113447000D01*
X98593153Y-113717718D01*
X99141753Y-114084280D01*
X99788871Y-114213000D01*
X99855129Y-114213000D01*
X100502247Y-114084280D01*
X101050847Y-113717718D01*
X101417409Y-113169118D01*
X101546129Y-112522000D01*
X101417409Y-111874882D01*
X101208257Y-111561864D01*
X101317879Y-111491324D01*
X101472002Y-111265758D01*
X101526224Y-110998000D01*
X101526224Y-108966000D01*
X101479157Y-108715860D01*
X101331324Y-108486121D01*
X101105758Y-108331998D01*
X100838000Y-108277776D01*
X98806000Y-108277776D01*
X98555860Y-108324843D01*
X98326121Y-108472676D01*
X98171998Y-108698242D01*
X98117776Y-108966000D01*
X98117776Y-109015000D01*
X96772366Y-109015000D01*
X96663483Y-108852046D01*
X96391033Y-108670000D01*
X96663483Y-108487954D01*
X96997010Y-107988797D01*
X97114129Y-107400000D01*
X96997010Y-106811203D01*
X96663483Y-106312046D01*
X96391033Y-106130000D01*
X96663483Y-105947954D01*
X96997010Y-105448797D01*
X97114129Y-104860000D01*
X96997010Y-104271203D01*
X96663483Y-103772046D01*
X96391033Y-103590000D01*
X96663483Y-103407954D01*
X96997010Y-102908797D01*
X97114129Y-102320000D01*
X96997010Y-101731203D01*
X96663483Y-101232046D01*
X96391033Y-101050000D01*
X96663483Y-100867954D01*
X96997010Y-100368797D01*
X97114129Y-99780000D01*
X96997010Y-99191203D01*
X96663483Y-98692046D01*
X96392901Y-98511248D01*
X96751993Y-98209548D01*
X97030948Y-97672854D01*
X97055606Y-97559653D01*
X96915980Y-97319000D01*
X95469000Y-97319000D01*
X95469000Y-97339000D01*
X95311000Y-97339000D01*
X95311000Y-97319000D01*
X95291000Y-97319000D01*
X95291000Y-97161000D01*
X95311000Y-97161000D01*
X95311000Y-97141000D01*
X95469000Y-97141000D01*
X95469000Y-97161000D01*
X96915980Y-97161000D01*
X97055606Y-96920347D01*
X97030948Y-96807146D01*
X96751993Y-96270452D01*
X96392901Y-95968752D01*
X96663483Y-95787954D01*
X96705548Y-95725000D01*
X97100858Y-95725000D01*
X97329176Y-96277572D01*
X97799950Y-96749168D01*
X98415360Y-97004708D01*
X99081716Y-97005290D01*
X99697572Y-96750824D01*
X100169168Y-96280050D01*
X100424708Y-95664640D01*
X100425290Y-94998284D01*
X100170824Y-94382428D01*
X99700050Y-93910832D01*
X99084640Y-93655292D01*
X98418284Y-93654710D01*
X98288204Y-93708458D01*
X98120000Y-93675000D01*
X96705548Y-93675000D01*
X96663483Y-93612046D01*
X96391033Y-93430000D01*
X96663483Y-93247954D01*
X96997010Y-92748797D01*
X97114129Y-92160000D01*
X96997010Y-91571203D01*
X96663483Y-91072046D01*
X96391033Y-90890000D01*
X96663483Y-90707954D01*
X96772366Y-90545000D01*
X101428852Y-90545000D01*
X109819000Y-98935147D01*
X109819000Y-98935147D01*
G37*
X109819000Y-98935147D02*
X109819000Y-116586000D01*
X109889411Y-116939983D01*
X110089926Y-117240074D01*
X117947000Y-125097148D01*
X117947000Y-130937000D01*
X117962528Y-131015063D01*
X117378900Y-130766914D01*
X116349374Y-130757312D01*
X115394542Y-131142424D01*
X115353618Y-131169768D01*
X115198000Y-131462684D01*
X115198000Y-128397000D01*
X115119977Y-128004749D01*
X114897784Y-127672216D01*
X105800000Y-118574432D01*
X105800000Y-116713000D01*
X105721977Y-116320749D01*
X105647475Y-116209250D01*
X105499784Y-115988215D01*
X104991784Y-115480216D01*
X104659251Y-115258023D01*
X104267000Y-115180000D01*
X102870000Y-115180000D01*
X102477749Y-115258023D01*
X102145215Y-115480216D01*
X101090432Y-116535000D01*
X96705548Y-116535000D01*
X96663483Y-116472046D01*
X96392901Y-116291248D01*
X96751993Y-115989548D01*
X97030948Y-115452854D01*
X97055606Y-115339653D01*
X96915980Y-115099000D01*
X95469000Y-115099000D01*
X95469000Y-115119000D01*
X95311000Y-115119000D01*
X95311000Y-115099000D01*
X93864020Y-115099000D01*
X93724394Y-115339653D01*
X93749052Y-115452854D01*
X94028007Y-115989548D01*
X94387099Y-116291248D01*
X94116517Y-116472046D01*
X93782990Y-116971203D01*
X93665871Y-117560000D01*
X93782990Y-118148797D01*
X93845103Y-118241755D01*
X93238760Y-117635412D01*
X93238760Y-110913788D01*
X93756571Y-110395977D01*
X93782990Y-110528797D01*
X94116517Y-111027954D01*
X94388967Y-111210000D01*
X94116517Y-111392046D01*
X93782990Y-111891203D01*
X93665871Y-112480000D01*
X93782990Y-113068797D01*
X94116517Y-113567954D01*
X94387099Y-113748752D01*
X94028007Y-114050452D01*
X93749052Y-114587146D01*
X93724394Y-114700347D01*
X93864020Y-114941000D01*
X95311000Y-114941000D01*
X95311000Y-114921000D01*
X95469000Y-114921000D01*
X95469000Y-114941000D01*
X96915980Y-114941000D01*
X97055606Y-114700347D01*
X97030948Y-114587146D01*
X96751993Y-114050452D01*
X96392901Y-113748752D01*
X96663483Y-113567954D01*
X96744302Y-113447000D01*
X98412265Y-113447000D01*
X98593153Y-113717718D01*
X99141753Y-114084280D01*
X99788871Y-114213000D01*
X99855129Y-114213000D01*
X100502247Y-114084280D01*
X101050847Y-113717718D01*
X101417409Y-113169118D01*
X101546129Y-112522000D01*
X101417409Y-111874882D01*
X101208257Y-111561864D01*
X101317879Y-111491324D01*
X101472002Y-111265758D01*
X101526224Y-110998000D01*
X101526224Y-108966000D01*
X101479157Y-108715860D01*
X101331324Y-108486121D01*
X101105758Y-108331998D01*
X100838000Y-108277776D01*
X98806000Y-108277776D01*
X98555860Y-108324843D01*
X98326121Y-108472676D01*
X98171998Y-108698242D01*
X98117776Y-108966000D01*
X98117776Y-109015000D01*
X96772366Y-109015000D01*
X96663483Y-108852046D01*
X96391033Y-108670000D01*
X96663483Y-108487954D01*
X96997010Y-107988797D01*
X97114129Y-107400000D01*
X96997010Y-106811203D01*
X96663483Y-106312046D01*
X96391033Y-106130000D01*
X96663483Y-105947954D01*
X96997010Y-105448797D01*
X97114129Y-104860000D01*
X96997010Y-104271203D01*
X96663483Y-103772046D01*
X96391033Y-103590000D01*
X96663483Y-103407954D01*
X96997010Y-102908797D01*
X97114129Y-102320000D01*
X96997010Y-101731203D01*
X96663483Y-101232046D01*
X96391033Y-101050000D01*
X96663483Y-100867954D01*
X96997010Y-100368797D01*
X97114129Y-99780000D01*
X96997010Y-99191203D01*
X96663483Y-98692046D01*
X96392901Y-98511248D01*
X96751993Y-98209548D01*
X97030948Y-97672854D01*
X97055606Y-97559653D01*
X96915980Y-97319000D01*
X95469000Y-97319000D01*
X95469000Y-97339000D01*
X95311000Y-97339000D01*
X95311000Y-97319000D01*
X95291000Y-97319000D01*
X95291000Y-97161000D01*
X95311000Y-97161000D01*
X95311000Y-97141000D01*
X95469000Y-97141000D01*
X95469000Y-97161000D01*
X96915980Y-97161000D01*
X97055606Y-96920347D01*
X97030948Y-96807146D01*
X96751993Y-96270452D01*
X96392901Y-95968752D01*
X96663483Y-95787954D01*
X96705548Y-95725000D01*
X97100858Y-95725000D01*
X97329176Y-96277572D01*
X97799950Y-96749168D01*
X98415360Y-97004708D01*
X99081716Y-97005290D01*
X99697572Y-96750824D01*
X100169168Y-96280050D01*
X100424708Y-95664640D01*
X100425290Y-94998284D01*
X100170824Y-94382428D01*
X99700050Y-93910832D01*
X99084640Y-93655292D01*
X98418284Y-93654710D01*
X98288204Y-93708458D01*
X98120000Y-93675000D01*
X96705548Y-93675000D01*
X96663483Y-93612046D01*
X96391033Y-93430000D01*
X96663483Y-93247954D01*
X96997010Y-92748797D01*
X97114129Y-92160000D01*
X96997010Y-91571203D01*
X96663483Y-91072046D01*
X96391033Y-90890000D01*
X96663483Y-90707954D01*
X96772366Y-90545000D01*
X101428852Y-90545000D01*
X109819000Y-98935147D01*
G36*
X83358843Y-90250140D02*
X83506676Y-90479879D01*
X83602061Y-90545053D01*
X83566786Y-90556358D01*
X83314767Y-91176656D01*
X83319309Y-91846180D01*
X83566786Y-92443642D01*
X83852931Y-92535346D01*
X84888277Y-91500000D01*
X84874135Y-91485858D01*
X84985858Y-91374135D01*
X85000000Y-91388277D01*
X85014142Y-91374135D01*
X85125865Y-91485858D01*
X85111723Y-91500000D01*
X85125865Y-91514142D01*
X85014142Y-91625865D01*
X85000000Y-91611723D01*
X83964654Y-92647069D01*
X84056358Y-92933214D01*
X84676656Y-93185233D01*
X85346180Y-93180691D01*
X85943642Y-92933214D01*
X85975000Y-92835367D01*
X85975000Y-94157238D01*
X85933214Y-94056358D01*
X85647069Y-93964654D01*
X84611723Y-95000000D01*
X84625865Y-95014142D01*
X84514142Y-95125865D01*
X84500000Y-95111723D01*
X84485858Y-95125865D01*
X84374135Y-95014142D01*
X84388277Y-95000000D01*
X83352931Y-93964654D01*
X83066786Y-94056358D01*
X82972723Y-94287877D01*
X82897019Y-94105112D01*
X82704889Y-93912981D01*
X82574587Y-93859008D01*
X82584030Y-93852931D01*
X83464654Y-93852931D01*
X84500000Y-94888277D01*
X85535346Y-93852931D01*
X85443642Y-93566786D01*
X84823344Y-93314767D01*
X84153820Y-93319309D01*
X83556358Y-93566786D01*
X83464654Y-93852931D01*
X82584030Y-93852931D01*
X82797879Y-93715324D01*
X82952002Y-93489758D01*
X83006224Y-93222000D01*
X83006224Y-92206000D01*
X82959157Y-91955860D01*
X82811324Y-91726121D01*
X82585758Y-91571998D01*
X82327000Y-91519599D01*
X82327000Y-90622568D01*
X82924569Y-90025000D01*
X83316480Y-90025000D01*
X83358843Y-90250140D01*
X83358843Y-90250140D01*
G37*
X83358843Y-90250140D02*
X83506676Y-90479879D01*
X83602061Y-90545053D01*
X83566786Y-90556358D01*
X83314767Y-91176656D01*
X83319309Y-91846180D01*
X83566786Y-92443642D01*
X83852931Y-92535346D01*
X84888277Y-91500000D01*
X84874135Y-91485858D01*
X84985858Y-91374135D01*
X85000000Y-91388277D01*
X85014142Y-91374135D01*
X85125865Y-91485858D01*
X85111723Y-91500000D01*
X85125865Y-91514142D01*
X85014142Y-91625865D01*
X85000000Y-91611723D01*
X83964654Y-92647069D01*
X84056358Y-92933214D01*
X84676656Y-93185233D01*
X85346180Y-93180691D01*
X85943642Y-92933214D01*
X85975000Y-92835367D01*
X85975000Y-94157238D01*
X85933214Y-94056358D01*
X85647069Y-93964654D01*
X84611723Y-95000000D01*
X84625865Y-95014142D01*
X84514142Y-95125865D01*
X84500000Y-95111723D01*
X84485858Y-95125865D01*
X84374135Y-95014142D01*
X84388277Y-95000000D01*
X83352931Y-93964654D01*
X83066786Y-94056358D01*
X82972723Y-94287877D01*
X82897019Y-94105112D01*
X82704889Y-93912981D01*
X82574587Y-93859008D01*
X82584030Y-93852931D01*
X83464654Y-93852931D01*
X84500000Y-94888277D01*
X85535346Y-93852931D01*
X85443642Y-93566786D01*
X84823344Y-93314767D01*
X84153820Y-93319309D01*
X83556358Y-93566786D01*
X83464654Y-93852931D01*
X82584030Y-93852931D01*
X82797879Y-93715324D01*
X82952002Y-93489758D01*
X83006224Y-93222000D01*
X83006224Y-92206000D01*
X82959157Y-91955860D01*
X82811324Y-91726121D01*
X82585758Y-91571998D01*
X82327000Y-91519599D01*
X82327000Y-90622568D01*
X82924569Y-90025000D01*
X83316480Y-90025000D01*
X83358843Y-90250140D01*
M02*
